<svg xmlns="http://www.w3.org/2000/svg" width="19" height="18" viewBox="0 0 19 18">
    <path fill-opacity=".484" fill-rule="evenodd" d="M16.147 9.882c.037-.288.065-.576.065-.882 0-.306-.028-.594-.065-.882L18.1 6.633c.175-.135.222-.378.11-.576l-1.85-3.114c-.11-.198-.36-.27-.564-.198l-2.304.9c-.481-.36-1-.657-1.564-.882L11.577.378C11.549.162 11.355 0 11.123 0h-3.7c-.232 0-.426.162-.454.378l-.352 2.385c-.564.225-1.082.531-1.563.882l-2.304-.9c-.213-.081-.454 0-.565.198L.335 6.057c-.12.198-.065.441.11.576l1.953 1.485c-.037.288-.065.585-.065.882 0 .297.028.594.065.882L.446 11.367c-.176.135-.222.378-.111.576l1.85 3.114c.111.198.361.27.565.198l2.304-.9c.48.36.999.657 1.563.882l.352 2.385c.028.216.222.378.453.378h3.701c.232 0 .426-.162.454-.378l.351-2.385c.565-.225 1.083-.531 1.564-.882l2.304.9c.213.081.453 0 .564-.198l1.85-3.114c.112-.198.065-.441-.11-.576l-1.953-1.485zM9.273 12.15c-1.786 0-3.239-1.413-3.239-3.15 0-1.737 1.453-3.15 3.239-3.15 1.785 0 3.238 1.413 3.238 3.15 0 1.737-1.453 3.15-3.238 3.15z"/>
</svg>
