<svg xmlns="http://www.w3.org/2000/svg" width="18" height="18" viewBox="0 0 18 18">
    <path fill="#FFF" d="M18 9c0-.81-.11-1.594-.31-2.34v-.002l-.018-.066c-.004-.014-.01-.026-.013-.04-.064-.226-.135-.45-.216-.67l-.008-.018c-.076-.205-.161-.405-.252-.603l-.046-.103c-.089-.187-.185-.37-.286-.55l-.079-.137c-.103-.177-.211-.351-.326-.52-.02-.03-.043-.06-.064-.09-.11-.157-.224-.31-.343-.46l-.065-.082c-.135-.166-.277-.326-.424-.481l-.068-.072C14.175 1.407 12.447.458 10.51.129l-.037-.007c-.223-.036-.449-.065-.677-.085L9.684.03C9.458.012 9.23 0 9 0c-.155 0-.309.004-.462.012H8.53C7.475.066 6.45.302 5.476.717L5.325.78v.007C2.188 2.197 0 5.347 0 9c0 2.046.688 3.934 1.842 5.447l.002.008.04.053c.043.055.089.107.133.161l.07.087c.032.037.061.076.092.112l.042.049.01.004c.926 1.057 2.094 1.896 3.417 2.43l.001.004.165.063.053.019.165.058c.077.027.154.053.232.078.061.02.124.038.186.057l.222.063c.063.017.127.033.19.048.076.019.152.037.228.053l.189.039c.08.016.16.03.24.043l.182.029c.085.012.17.023.257.033l.17.02.29.021c.048.003.096.008.144.01.146.007.292.011.438.011.175 0 .35-.006.522-.016l.162-.013c.12-.009.24-.02.358-.033l.19-.024c.11-.016.22-.033.328-.052.065-.011.13-.022.194-.035.119-.024.236-.05.352-.078.045-.011.09-.019.136-.03l.189-.049.001-.007C15.216 16.6 18 13.12 18 9zm-6.458 8.006l.13-.78 1.02-.827.583-1.82-2.4-.01-.468-.846-1.741-1.304-1.13.044-1.023-.322-.545-.376.154-.051-.283-.038-.271-.187-.415.096-.71-.094-.985.477-.095.032.005.019-.856.408-1.008 1.357c-.354-.7-.614-1.455-.76-2.25.094-.087.187-.161.284-.234.242-.183.492-.372.735-.808.22-.397.186-.62.11-.914-.047-.178-.1-.379-.073-.768.034-.509.016-.66-.001-.804-.015-.126-.03-.256.001-.753.035-.57-.06-.847-.28-1.069.79-1.542 2.042-2.809 3.574-3.617-.054.156-.083.267-.078.366l.014.286h.286c.123 0 .17-.043.343-.204C6.46 1.277 6.821 1.06 6.98 1c-.001.036-.006.084-.018.148-.058.322-.431.519-.827.727-.495.26-1.11.584-1.055 1.286l.015.187.175.069c.295.116.585.174.862.174.762 0 1.312-.42 1.843-.826.478-.366.93-.712 1.52-.712.313 0 .755-.19 1.223-.39.273-.118.64-.276.794-.295.337.27.2.84.148 1.014-.154.513-.5.896-.707.896-.03 0-.078-.008-.145-.076-.494-.494-1.227-.448-1.749.096-.391.408-.61 1.007-.586 1.602l.01.14-.11-.05c-.423-.193-.79-.36-1.06-.36-.236 0-.352.123-.401.197-.143.215-.058.485.031.696.209.498-.063.954-.281 1.32-.157.264-.293.492-.163.72.08.143.232.215.451.215.19 0 .482-.05.948-.161.119-.029.22-.043.3-.043.164 0 .188.025.289.304.076.21.17.472.429.67.16.124.3.182.438.182.357 0 .462-.342.518-.526l.016-.052c.025.027.028.063.034.132.032.388.273.446.414.446.138 0 .312-.056.62-.198.27-.123.403-.149.48-.15.02.049.038.158.05.234.035.203.077.455.23.688.476.72 1.433 1.494 2.407 1.494.584 0 1.075-.284 1.421-.82.084-.13.114-.32.165-.672.036-.246.13-.9.248-.981.002 0 .154.013.513.482.144.188.343.405.599.405.142 0 .249-.05.33-.142-.031 3.715-2.485 6.863-5.857 7.936z"/>
</svg>
