<svg xmlns="http://www.w3.org/2000/svg" xmlns:xlink="http://www.w3.org/1999/xlink" width="54" height="32" viewBox="0 0 54 32">
    <defs>
        <rect id="prefix__a" width="54" height="32" x="0" y="0" rx="9"/>
    </defs>
    <g fill="none" fill-rule="evenodd">
        <mask id="prefix__b" fill="#fff">
            <use xlink:href="#prefix__a"/>
        </mask>
        <use fill="#D8D8D8" xlink:href="#prefix__a"/>
        <g mask="url(#prefix__b)">
            <path fill="#FFF" d="M0 32.067L53.301 32.067 53.301 -0.001 0 -0.001z"/>
            <path fill="#D03033" d="M9.34 -0.001L24.887 10.685 53.302 10.685 53.302 -0.001z"/>
            <path fill="#FFF" d="M24.887 10.685L27.997 12.821 53.301 12.821 53.301 10.685zM27.998 19.239L24.888 21.383 53.302 21.383 53.302 19.239z"/>
            <path fill="#1F189B" d="M24.887 21.382L9.34 32.066 53.301 32.066 53.301 21.382z"/>
            <path fill="#000" d="M0 10.685L6.2 10.685 0 6.418zM0 10.685L0 21.382 6.2 21.382 13.976 16.028 6.2 10.685zM0 21.382L0 25.642 6.2 21.382z"/>
            <path fill="#F2B126" d="M0 6.417L13.976 16.027 0 25.643 0 28.209 17.715 16.027 0 3.851z"/>
            <path fill="#32784C" d="M0 -0.001L0 3.852 17.715 16.028 0 28.208 0 32.067 5.603 32.067 24.262 19.239 53.301 19.239 53.301 12.821 24.262 12.821 5.603 -0.001z"/>
        </g>
    </g>
</svg>
