<svg xmlns="http://www.w3.org/2000/svg" xmlns:xlink="http://www.w3.org/1999/xlink" width="32" height="20" viewBox="0 0 32 20">
    <defs>
        <rect id="t2hkv1alpa" width="30" height="18" x="0" y="0" rx="3"/>
    </defs>
    <g fill="none" fill-rule="evenodd">
        <g>
            <g transform="translate(-265.000000, -746.000000) translate(266.000000, 747.000000)">
                <mask id="2fl1rlr18b" fill="#fff">
                    <use xlink:href="#t2hkv1alpa"/>
                </mask>
                <rect width="30.5" height="18.5" x="-.25" y="-.25" stroke="#7E919F" stroke-opacity=".497" stroke-width=".5" rx="3"/>
                <g mask="url(#2fl1rlr18b)">
                    <g>
                        <path fill="#006233" d="M0 0L0 20 30 20 30 0z" transform="translate(0.000000, -1.000000)"/>
                        <g>
                            <path fill="#FFF" d="M4.264 7.122c-.39.534-.109.881.294.906.265.018.817-.342.816-.765l-.15-.076c.083.217-.004.285-.183.433-.355.292-1.079.313-.777-.498" transform="translate(0.000000, -1.000000) translate(8.237549, 3.236532)"/>
                            <path fill="#FFF" d="M4.241 7.166c-.153.226-.196.438-.12.6.069.147.233.243.437.255.15.01.385-.1.56-.264.16-.15.248-.324.25-.49L5.234 7.2c.075.206-.013.28-.184.42l-.006.005c-.202.167-.544.255-.732.122-.1-.072-.19-.23-.072-.581m.336.87l-.02-.002c-.21-.012-.377-.11-.448-.263-.083-.176-.03-.408.15-.653l.011.006c-.14.376-.05.54.051.612.183.13.517.042.715-.12l.007-.006c.175-.145.255-.211.174-.421l-.007-.016.17.086v.004c.001.17-.09.35-.254.504-.169.158-.395.268-.549.268M7.36 8.522c2.199.056 2.898-1.88 1.54-3.538l-.133.183c.087.772.214 1.534.226 2.326-.265.284-.651.178-.728-.138.004-.428-.15-.79-.344-1.136l-.109.183c.127.284.264.603.293.953-.628.685-1.321.824-1.063-.076-.497.788.255 1.344 1.105.13.183.829.888.314.93.136.077-.544.038-1.419-.117-2.11.612.964.633 1.66.308 2.125-.362.517-1.15.759-1.908.962" transform="translate(0.000000, -1.000000) translate(8.237549, 3.236532)"/>
                            <path fill="#FFF" d="M8.974 5.426c.562.886.669 1.627.307 2.144-.343.49-1.067.736-1.8.936.912-.008 1.608-.375 1.923-1.017.355-.726.167-1.65-.502-2.477l-.118.16c.022.195.047.392.071.583.072.564.146 1.147.155 1.737V7.5l-.005.005c-.131.14-.306.2-.467.157-.144-.038-.253-.15-.29-.302v-.004c.005-.438-.16-.802-.328-1.102l-.089.15c.138.309.263.615.29.951l.001.007-.005.006c-.393.428-.812.646-1.02.53-.088-.05-.171-.177-.101-.504-.164.323-.1.563.04.657.302.2.78-.197 1.097-.65l.022-.032.008.037c.064.29.201.444.397.445h.003c.241 0 .477-.219.498-.309.08-.56.03-1.446-.117-2.103l.03-.012zM7.452 8.54c-.031 0-.062 0-.093-.002l-.003-.032c.765-.205 1.543-.448 1.898-.956.342-.488.253-1.188-.258-2.026.133.65.174 1.484.098 2.023-.027.115-.284.336-.531.336h-.004c-.143 0-.33-.078-.42-.434-.46.642-.893.78-1.12.629-.17-.113-.24-.414.008-.808l.03.013c-.087.308-.068.516.057.585.19.107.599-.111.974-.519-.029-.33-.154-.634-.291-.94L7.793 6.4l.128-.215.014.025c.174.309.35.685.346 1.142.035.139.134.241.266.276.147.038.307-.015.43-.143-.01-.586-.084-1.166-.155-1.727-.024-.193-.05-.393-.072-.59v-.007l.15-.205.014.017c.689.841.883 1.787.52 2.53-.324.66-1.043 1.036-1.982 1.036z" transform="translate(0.000000, -1.000000) translate(8.237549, 3.236532)"/>
                            <path fill="#FFF" d="M8.281 6.004c-.057-.003-.1.089-.07.107.082.052.213.02.227-.006.029-.057-.077-.098-.157-.101m.326.33c-.47.03-.712-.057-.457-.374.252-.31.487-.063.55.351.06.389-.826.884-1.132.884-.463 0-.677-.542-.25-1.03-.55 1.422 1.185.598 1.289.168" transform="translate(0.000000, -1.000000) translate(8.237549, 3.236532)"/>
                            <path fill="#FFF" d="M8.279 6.02c-.026 0-.05.029-.059.055-.004.014-.002.021 0 .022.074.047.192.017.203 0 .004-.008.004-.015 0-.023-.017-.027-.081-.051-.142-.053h-.002zm.042.136c-.04 0-.084-.008-.12-.031-.016-.01-.02-.033-.012-.06.012-.04.048-.08.093-.078.063.002.144.028.17.07.01.018.01.037.001.056-.009.017-.036.027-.057.033-.021.006-.047.01-.075.01zm-1.054.1c-.16.222-.207.47-.119.664.073.162.23.258.42.258.226 0 .744-.264.986-.545.1-.118.144-.225.13-.32-.039-.252-.143-.437-.266-.47-.081-.022-.17.022-.255.127-.088.11-.118.194-.089.25.045.085.223.117.532.097l.023-.002-.006.022c-.051.211-.49.522-.87.616-.223.055-.389.029-.48-.075-.104-.117-.106-.327-.006-.623zm.3.956c-.202 0-.37-.104-.45-.278-.103-.23-.032-.528.188-.78l.028.018c-.127.33-.14.566-.035.684.104.119.3.1.446.064.358-.088.767-.368.84-.569-.312.019-.489-.02-.54-.116-.036-.07-.005-.163.093-.286.12-.147.224-.156.29-.138.138.037.249.228.29.498.016.104-.03.22-.138.345-.247.288-.779.558-1.011.558z" transform="translate(0.000000, -1.000000) translate(8.237549, 3.236532)"/>
                            <path fill="#FFF" d="M6.052 7.004c-.452.81-.001 1.144.58 1.051.337-.056.766-.274 1.013-.572.004-.656-.006-1.306-.07-1.942.227-.245-.02-.244-.105-.507-.04.153-.134.32-.042.439.065.64.1 1.29.1 1.951-.456.333-.799.457-1.043.454-.505-.004-.613-.39-.433-.874" transform="translate(0.000000, -1.000000) translate(8.237549, 3.236532)"/>
                            <path fill="#FFF" d="M5.98 7.187c-.15.346-.098.549-.019.662.117.167.367.238.668.19.362-.06.772-.291 1-.562.003-.575-.002-1.253-.07-1.934v-.007l.004-.006c.135-.146.096-.19.02-.28-.036-.041-.079-.091-.11-.164l-.02.061c-.04.119-.077.231-.012.316l.003.003v.005c.069.677.101 1.316.1 1.953v.008l-.007.005c-.419.307-.773.46-1.052.458-.21-.002-.361-.068-.45-.195-.084-.124-.103-.302-.055-.513m.47.9c-.23 0-.417-.077-.516-.219-.097-.139-.158-.403.104-.872l.03.014c-.106.283-.108.521-.005.67.082.12.224.18.422.181.268.005.621-.15 1.026-.446 0-.631-.032-1.265-.1-1.936-.072-.098-.03-.222.01-.343.012-.035.024-.071.033-.106l.014-.056.018.055c.03.092.08.15.123.2.076.09.132.154-.016.318.067.683.073 1.361.069 1.936v.006l-.004.005c-.232.278-.652.516-1.024.578-.064.01-.125.015-.184.015" transform="translate(0.000000, -1.000000) translate(8.237549, 3.236532)"/>
                            <path fill="#FFF" d="M6.977 7.218c-.008-.61-.018-1.303-.079-1.73.236-.237-.012-.243-.089-.51-.045.152-.144.317-.057.439.04.653.077 1.306.085 1.959.054-.032.116-.044.14-.158" transform="translate(0.000000, -1.000000) translate(8.237549, 3.236532)"/>
                            <path fill="#FFF" d="M6.81 5.031l-.02.056c-.045.12-.087.232-.024.32l.002.004v.005c.042.687.077 1.308.085 1.932l.002-.001c.046-.024.086-.044.105-.13-.007-.543-.016-1.286-.078-1.727l-.001-.008.006-.006c.139-.14.102-.186.03-.276-.036-.043-.077-.095-.107-.169zm.01 2.374v-.029c-.007-.63-.043-1.258-.084-1.954-.07-.101-.023-.226.022-.346.013-.034.025-.069.035-.102l.017-.054.015.054c.027.094.075.152.117.205.074.091.127.157-.026.315.062.444.07 1.183.078 1.724v.004c-.023.103-.076.13-.123.155l-.026.013-.025.015zM5.614 6.49c.057-.05.257-.084.33-.004-.054.032-.107.068-.15.11-.076-.035-.126-.07-.18-.106m-.203.558c.114.041.252.041.38.044.495.008 1.015-.066.96.543-.049.54-.542.854-.984.85-.629-.006-1.165-.637-.196-1.8.094-.013.216.01.317.019.173.012.351-.003.555-.151-.024-.383-.024-.745-.075-1.091-.088-.122.012-.285.057-.438.077.266.322.272.089.51.056.385.062.776.062 1.01-.118.162-.21.335-.554.401-.351-.046-.51-.494-.876-.346.101-.403 1.032-.495 1.125-.177-.062.333-.93.2-1.161 1.272-.071.33.312.636.706.61.384-.022.794-.265.835-.674.032-.342-.498-.302-.72-.298-.322.007-.526-.038-.648-.103m-.062-.04c-.057-.066-.098-.14-.144-.204-.008-.092.06-.177.07-.224.076.109.121.191.183.244" transform="translate(0.000000, -1.000000) translate(8.237549, 3.236532)"/>
                            <path fill="#FFF" d="M5.625 6.49l.016.01c.044.03.09.06.15.089.046-.043.099-.078.142-.105-.032-.03-.09-.043-.16-.038-.058.004-.117.022-.148.043zm.17.115l-.005-.002c-.064-.03-.11-.062-.156-.092l-.031-.02.006-.006c.03-.027.096-.048.164-.053.046-.003.13-.001.176.049l.005.006-.007.004c-.045.027-.102.064-.15.11l-.003.004zm-.159.07c.053 0 .11.006.166.013l.087.009H5.9l.055-.025c.16-.075.286-.134.308-.25-.036-.118-.201-.19-.433-.184-.28.005-.609.13-.675.35.17-.063.296 0 .418.09.02-.002.04-.003.062-.003zm-.047.015l.066.052.064.05c.054-.03.107-.058.158-.083L5.8 6.701c-.073-.008-.148-.017-.212-.01zm.142.111c.086.065.179.122.291.137.31-.06.41-.202.517-.355l.03-.042c0-.39-.02-.72-.062-1.005v-.004l.002-.002c.145-.148.102-.202.03-.292-.038-.047-.085-.105-.114-.191l-.03.084c-.045.121-.088.235-.022.327l.001.003c.036.24.047.484.058.743.005.113.01.23.018.348v.004l-.003.002c-.205.149-.382.163-.544.153-.055.027-.113.056-.172.09zm-.648.181c.017.023.032.047.048.072.028.042.056.085.09.126.033-.06.067-.117.103-.171-.044-.039-.08-.092-.125-.159l-.05-.073-.021.046c-.022.045-.049.101-.045.16zm.203.256c-.07.122-.13.271-.17.458-.026.124.012.252.107.362.137.16.37.254.592.24.504-.03.799-.36.83-.669.006-.07-.012-.128-.054-.173-.123-.132-.427-.123-.609-.118h-.05c-.286.007-.504-.027-.646-.1zm.287-.544C5.11 7.25 4.945 7.75 5.107 8.1c.107.231.36.376.66.379h.01c.44 0 .92-.314.967-.843.016-.174-.014-.3-.091-.384-.14-.152-.413-.152-.702-.152h-.185c-.12-.003-.245-.006-.35-.042-.044.05-.085.106-.123.17.14.071.355.104.639.098h.05c.184-.006.492-.014.62.122.044.047.063.11.056.183-.02.193-.12.36-.292.487-.15.112-.351.183-.55.195-.227.013-.463-.082-.603-.245-.098-.113-.137-.246-.11-.374.11-.51.36-.748.604-.893l-.06-.047-.074-.059zm.203 1.797h-.009c-.305-.002-.563-.15-.672-.387-.132-.285-.036-.62.12-.912-.036-.042-.066-.087-.095-.13-.016-.026-.032-.05-.049-.073v-.002l-.001-.002c-.005-.062.023-.12.046-.167.011-.023.02-.043.024-.058l.002-.015.01.012.058.086c.044.065.079.117.121.155.078-.119.16-.225.231-.311-.12-.09-.245-.15-.413-.081l-.013.005.004-.013c.027-.11.117-.205.259-.274.123-.06.28-.096.432-.1.238-.004.41.07.447.196v.003c-.023.123-.152.184-.316.26l-.033.016c.151.007.317-.013.507-.15-.007-.117-.012-.232-.017-.345-.012-.258-.022-.501-.058-.74-.068-.097-.023-.22.021-.338.013-.034.026-.07.037-.104L6.425 5l.006.022c.028.095.078.158.118.208.074.092.122.152-.028.307.041.286.061.615.061 1.006v.004l-.032.044c-.104.148-.211.3-.526.36h-.002c-.119-.015-.214-.075-.304-.142-.1.059-.2.134-.293.237.102.034.224.036.341.039h.186c.291 0 .567 0 .71.157.08.087.111.216.095.394-.048.537-.535.855-.98.855z" transform="translate(0.000000, -1.000000) translate(8.237549, 3.236532)"/>
                            <path fill="#FFF" d="M6.105 5.355c.055.11.077.182.08.288-.033.143-.167.276-.306.28-.086.003-.183-.02-.25-.141-.008-.015-.044-.051-.079-.035-.152.228-.265.324-.402.323-.275-.004-.193-.227-.447-.295-.105-.003-.279.094-.368.285-.338.871-.645-.003-.514-.409.02.389.122.619.228.612.077-.007.145-.168.243-.339.075-.13.256-.365.447-.365.175.004.065.297.415.293.169-.003.324-.121.481-.357.035-.006.044.05.051.07.025.08.178.303.386.1-.01-.044-.006-.117-.058-.132l.093-.178z" transform="translate(0.000000, -1.000000) translate(8.237549, 3.236532)"/>
                            <path fill="#FFF" d="M3.81 5.767c-.033.259.06.595.197.644.098.035.208-.092.31-.357.09-.19.265-.298.385-.296h.004c.123.034.172.104.215.165.047.069.089.128.227.13h.003c.126 0 .234-.088.385-.315l.003-.004.004-.002c.045-.021.09.022.1.042.069.123.167.134.236.132.124-.004.256-.125.29-.265-.003-.088-.02-.153-.064-.249l-.07.133c.035.021.04.067.046.104.002.012.003.023.006.032l.002.01-.007.006c-.076.074-.152.101-.227.082-.107-.028-.172-.14-.187-.19l-.004-.013c-.006-.019-.013-.04-.022-.044-.16.237-.32.354-.49.356-.216.003-.266-.105-.306-.19-.027-.059-.047-.1-.109-.102-.179 0-.356.224-.433.357l-.06.107c-.07.13-.127.234-.196.24-.027.002-.053-.009-.078-.03-.078-.07-.135-.247-.16-.483m.23.683c-.016 0-.03-.003-.044-.008-.187-.066-.276-.538-.193-.796l.033.005c.017.335.092.516.156.573.018.016.036.024.054.023.05-.005.106-.106.17-.223.018-.035.038-.071.06-.108.021-.038.222-.373.461-.373.083.002.111.062.139.12.038.082.08.175.276.172.16-.003.313-.117.467-.35l.004-.006h.008c.043-.008.057.041.065.068l.004.012c.013.043.071.144.163.168.061.015.125-.007.19-.068l-.005-.025c-.006-.045-.013-.077-.04-.085l-.02-.005.118-.226.014.03c.058.117.079.192.082.295v.004c-.037.157-.182.289-.322.293-.12.003-.208-.046-.266-.15-.004-.01-.03-.036-.053-.029-.158.235-.276.327-.414.325-.155-.002-.205-.074-.254-.144-.04-.059-.084-.12-.194-.15h-.002c-.093 0-.26.084-.349.275-.118.305-.227.383-.308.383M7.286 4.6c.024-.097.038-.175.125-.226.018.103.021.16-.125.226m-.72-.204c.097-.041.192-.06.268.03-.06.02-.095.032-.127.055-.042-.03-.1-.045-.142-.085m.64.237c-.186.084-.322.007-.399-.067.135-.025.239-.069.269-.165-.06-.123-.204-.177-.406-.178-.27.007-.409.106-.425.242.125.004.238-.028.286.082-.221.098-.482.134-.766.133-.464.022-.532-.169-.654-.336-.01-.011-.05-.03-.07-.026-.144 0-.25.455-.411.454-.161-.02-.125-.294-.172-.45-.04.245.05 1.16.549.167.015-.033.036-.023.05.004.134.277.407.374.7.387.247.013.56-.085.897-.258.089.09.16.19.346.21.22.01.453-.134.506-.313.027-.092.031-.273-.076-.276-.15-.004-.258.326-.223.622.003-.004.02-.074.02-.074" transform="translate(0.000000, -1.000000) translate(8.237549, 3.236532)"/>
                            <path fill="#FFF" d="M6.578 4.398c.022.019.048.032.074.045.02.009.038.018.055.03.03-.021.062-.033.115-.05-.071-.078-.159-.06-.244-.025zm.129.091l-.004-.003c-.017-.012-.036-.021-.057-.031-.03-.015-.06-.03-.085-.054l-.008-.007.01-.004c.091-.039.195-.065.276.032l.006.007-.01.003c-.058.02-.094.032-.124.054l-.004.003zm.7-.104c-.073.046-.09.113-.11.197l-.001.006c.125-.059.126-.11.11-.203zm-.13.227l.007-.033c.022-.087.04-.162.124-.21l.008-.006.002.01c.018.104.021.166-.13.233l-.012.006zm.15-.362c-.032 0-.063.016-.092.048-.085.092-.136.295-.128.493.139-.052.257-.156.291-.274.02-.065.028-.181-.012-.237-.014-.019-.033-.03-.057-.03h-.003zm-.22.555l.002.025.007-.027-.008.002zM4.46 4.358c-.016.176.016.53.146.572.067.022.19-.037.395-.444.01-.02.02-.024.028-.024.012 0 .024.01.034.028.115.238.349.367.695.384.234.011.542-.078.893-.258l.004-.002.003.003.035.037c.076.08.148.155.308.172.065.003.131-.009.194-.03-.002-.052 0-.103.005-.153-.194.083-.332-.01-.397-.072l-.01-.01.013-.002c.155-.028.236-.077.263-.157-.057-.113-.191-.17-.399-.172-.244.006-.396.089-.417.228h.067c.095-.003.177-.005.218.086l.002.006-.006.003c-.202.09-.448.133-.753.133h-.016c-.414.02-.518-.133-.62-.28-.012-.02-.026-.04-.04-.058-.007-.01-.046-.026-.064-.024-.066 0-.128.109-.187.214-.068.118-.137.24-.223.24h-.001c-.12-.014-.136-.156-.152-.294-.004-.043-.01-.087-.018-.126zm.171.59c-.01 0-.02-.002-.03-.005-.155-.05-.172-.482-.15-.622l.013-.001c.014.047.021.106.028.163.015.132.03.27.139.282.079 0 .146-.119.21-.234.065-.113.126-.22.199-.22.023-.003.066.016.076.028l.041.06c.103.15.2.293.608.274h.016c.3 0 .543-.042.742-.13-.038-.077-.111-.075-.203-.072H6.236l.001-.007c.019-.151.176-.241.432-.248.215.002.353.063.412.182v.005c-.026.085-.107.137-.26.167.078.072.206.135.38.058.016-.142.06-.27.124-.339.033-.036.068-.053.104-.052.028 0 .05.012.067.035.046.063.034.186.015.25-.035.117-.145.22-.28.275-.01.044-.017.069-.02.072l-.01.014-.002-.017-.004-.056c-.063.021-.13.032-.196.029-.165-.017-.242-.098-.316-.176L6.65 4.63c-.35.18-.66.269-.894.257-.352-.017-.59-.148-.707-.39-.007-.014-.015-.022-.022-.022-.005 0-.011.006-.016.017-.153.303-.28.456-.382.456zM8.123 4.779c-.208.053-.182-.108-.202-.206-.023-.115-.008-.246.154-.213.21.05.4.118.586.19l-.538.229zm-.249-.028c-.029-.084-.057-.156-.066-.247-.021-.184.152-.288.309-.273.161.015.268.07.422.118.12.037.284.066.439.106.087.035 0 .129-.023.141-.389.139-.665.358-.912.368-.148.007-.279-.081-.398-.26-.008-.35-.021-.758-.059-1.015.057-.052.07-.09.097-.133.03.339.042.696.05 1.055.031.062.07.114.141.14z" transform="translate(0.000000, -1.000000) translate(8.237549, 3.236532)"/>
                            <path fill="#FFF" d="M8.028 4.362c-.032 0-.057.009-.075.026-.045.045-.035.134-.026.184.004.016.006.035.008.054.006.055.012.113.052.14.029.02.073.022.134.006l.522-.222c-.16-.062-.353-.13-.57-.183-.016-.004-.031-.005-.045-.005m.022.434c-.03 0-.052-.007-.07-.02-.045-.03-.052-.093-.058-.149-.002-.019-.004-.037-.008-.053-.01-.052-.02-.146.03-.195.028-.029.073-.038.132-.025.225.054.423.126.588.19l.015.005-.554.236c-.029.007-.053.011-.075.011m-.398-.095c.114.172.237.257.375.257h.016c.143-.007.299-.085.479-.175.126-.064.27-.136.431-.193.014-.008.058-.054.056-.09 0-.017-.012-.03-.034-.039-.064-.016-.13-.031-.194-.045-.089-.02-.173-.039-.244-.06-.044-.014-.084-.028-.122-.042-.099-.035-.184-.066-.299-.076-.09-.01-.182.023-.24.082-.049.049-.07.112-.062.183.008.079.031.144.055.214l.011.032.005.013-.013-.005c-.078-.028-.118-.088-.146-.143v-.003c-.007-.314-.018-.682-.048-1.034l-.008.014c-.017.03-.035.062-.077.1.038.262.051.677.059 1.01m.375.27c-.143 0-.27-.087-.388-.264v-.004c-.008-.335-.021-.752-.06-1.013v-.003l.003-.003c.041-.038.059-.07.076-.1l.019-.032.01-.016.002.02c.032.357.043.733.05 1.053.025.05.06.102.124.13l-.006-.018c-.025-.07-.048-.136-.056-.216-.008-.075.014-.142.065-.195.061-.062.157-.095.252-.085.116.01.206.042.301.076.039.014.078.028.122.042.07.021.154.04.243.06l.196.045c.034.014.042.035.043.05.002.044-.047.095-.064.104-.162.057-.305.13-.431.193-.182.091-.338.17-.485.176h-.016" transform="translate(0.000000, -1.000000) translate(8.237549, 3.236532)"/>
                            <path fill="#FFF" d="M7.919 4.949L7.948 5.076 7.971 5.076 7.962 4.957" transform="translate(0.000000, -1.000000) translate(8.237549, 3.236532)"/>
                            <path fill="#FFF" d="M7.978 5.083L7.943 5.083 7.913 4.95 7.926 4.947 7.953 5.07 7.963 5.07 7.955 4.958 7.968 4.956zM4.6 6.282L4.706 6.184 4.828 6.278 4.715 6.37z" transform="translate(0.000000, -1.000000) translate(8.237549, 3.236532)"/>
                            <path fill="#FFF" d="M4.703 6.277l.01.008.007-.005-.01-.009-.007.006zm.012.16c-.015 0-.029-.004-.04-.014l-.115-.088c-.016-.012-.025-.03-.026-.05-.001-.019.006-.038.02-.051l.106-.1c.024-.021.06-.023.087-.003l.122.094c.016.013.025.032.026.053 0 .02-.01.04-.025.052l-.113.092c-.012.01-.027.015-.042.015z" transform="translate(0.000000, -1.000000) translate(8.237549, 3.236532)"/>
                            <path fill="#FFF" d="M4.869 6.25L4.976 6.151 5.098 6.246 4.985 6.337z" transform="translate(0.000000, -1.000000) translate(8.237549, 3.236532)"/>
                            <path fill="#FFF" d="M4.973 6.244l.01.008.007-.005-.01-.009-.007.006zm.012.16c-.014 0-.029-.004-.04-.013l-.117-.088c-.015-.012-.025-.03-.026-.05-.001-.02.007-.04.021-.053l.107-.098c.024-.022.06-.024.087-.004l.122.095c.016.012.025.031.026.052 0 .02-.01.04-.025.052l-.113.092c-.012.01-.027.015-.042.015zM4.122 5.226L4.229 5.127 4.351 5.222 4.238 5.314z" transform="translate(0.000000, -1.000000) translate(8.237549, 3.236532)"/>
                            <path fill="#FFF" d="M4.226 5.22l.01.009.008-.006-.011-.008-.007.006zm.012.16c-.014 0-.028-.004-.04-.013l-.116-.088c-.016-.012-.026-.03-.027-.05 0-.02.007-.039.022-.052l.107-.099c.024-.022.06-.024.086-.004l.122.095c.016.013.026.032.026.052 0 .02-.009.04-.024.053l-.114.092c-.012.01-.027.015-.042.015zM4.17 5.517L4.278 5.418 4.398 5.513 4.285 5.605z" transform="translate(0.000000, -1.000000) translate(8.237549, 3.236532)"/>
                            <path fill="#FFF" d="M4.274 5.512l.01.007.007-.005-.01-.008-.007.006zm.011.16c-.014 0-.029-.005-.04-.014L4.13 5.57c-.016-.012-.025-.03-.026-.05-.001-.02.007-.039.021-.052l.107-.1c.024-.021.06-.023.087-.003l.12.095c.016.013.026.032.026.052 0 .02-.009.04-.025.053l-.113.091c-.012.01-.027.015-.042.015zM6.108 6.004L6.206 5.931 6.297 6.02 6.194 6.086z" transform="translate(0.000000, -1.000000) translate(8.237549, 3.236532)"/>
                            <path fill="#FFF" d="M6.194 6.153c-.017 0-.033-.006-.046-.019l-.086-.082c-.014-.014-.022-.033-.02-.052 0-.02.01-.038.026-.05l.098-.072c.027-.02.064-.018.087.006l.09.089c.015.014.022.034.02.054-.002.02-.013.039-.03.05l-.103.066c-.01.007-.023.01-.036.01M4.814 4.142L4.884 4.077 4.964 4.139 4.89 4.2z" transform="translate(0.000000, -1.000000) translate(8.237549, 3.236532)"/>
                            <path fill="#FFF" d="M4.89 4.266c-.014 0-.029-.004-.04-.013l-.076-.058c-.016-.012-.025-.03-.026-.05-.001-.02.006-.039.02-.052l.07-.065c.024-.022.06-.023.086-.003l.08.061c.017.013.026.032.026.052 0 .02-.008.04-.024.053l-.074.06c-.012.01-.027.015-.042.015" transform="translate(0.000000, -1.000000) translate(8.237549, 3.236532)"/>
                            <path fill="#FFF" d="M4.991 4.121L5.06 4.055 5.14 4.119 5.066 4.178z" transform="translate(0.000000, -1.000000) translate(8.237549, 3.236532)"/>
                            <path fill="#FFF" d="M5.066 4.244c-.014 0-.028-.004-.04-.013l-.075-.056c-.016-.012-.026-.03-.027-.05-.001-.02.006-.038.02-.052l.07-.066c.024-.023.062-.024.088-.004l.08.063c.015.013.025.032.025.052 0 .02-.01.04-.025.053l-.074.059c-.012.01-.027.014-.042.014M8.694 4.858L8.628 4.909 8.565 4.85 8.634 4.803z" transform="translate(0.000000, -1.000000) translate(8.237549, 3.236532)"/>
                            <path fill="#FFF" d="M8.628 4.976c-.016 0-.033-.006-.045-.018l-.064-.06c-.015-.013-.023-.033-.02-.053 0-.02.011-.04.028-.05l.07-.047c.025-.017.06-.015.082.006l.06.055c.015.013.023.032.022.052 0 .02-.01.038-.026.05l-.066.05c-.012.01-.027.015-.04.015M5.573 6.679L5.565 6.787 5.755 6.804 5.908 6.7z" transform="translate(0.000000, -1.000000) translate(8.237549, 3.236532)"/>
                            <path fill="#FFF" d="M5.572 6.781l.181.016.135-.092-.309-.019-.007.095zm.185.03h-.002l-.197-.018.009-.121.36.022-.17.117zM7.179 4.654L7.235 4.643 7.229 4.784 7.194 4.796z" transform="translate(0.000000, -1.000000) translate(8.237549, 3.236532)"/>
                            <path fill="#FFF" d="M7.197 4.667l.011.107.004-.002.005-.109-.02.004zm-.017.152l-.02-.179.092-.018-.007.174-.065.023z" transform="translate(0.000000, -1.000000) translate(8.237549, 3.236532)"/>
                            <path fill="#FFF" d="M6.763 10.343c2.14 0 3.882-1.585 3.882-3.532 0-1.072-.525-2.028-1.352-2.674.496.53.797 1.23.797 1.992 0 1.691-1.488 3.063-3.327 3.063-1.84 0-3.328-1.372-3.328-3.063 0-.762.301-1.461.798-1.992-.827.646-1.353 1.602-1.353 2.674 0 1.947 1.742 3.532 3.883 3.532M6.237 12.308c-.856.39-1.926.283-2.831-.248-.04-.017-.059.01-.02.106.098.257.175.46-.117.842-.126.168.02.194.234.177 1.09-.098 2.16-.32 2.676-.505l.058-.372z" transform="translate(0.000000, -1.000000) translate(8.237549, 3.236532)"/>
                            <path fill="#000" d="M3.4 13.056c.024 0 .054-.001.092-.004 1.095-.098 2.074-.308 2.567-.472l.01-.06c-.772.27-1.673.191-2.494-.217.057.204.06.432-.175.753m.002.267c-.123 0-.237-.024-.29-.12-.044-.08-.027-.173.05-.276.248-.322.192-.469.1-.712-.017-.041-.068-.17.018-.252.037-.035.104-.06.181-.024l.012.006c.886.52 1.898.61 2.709.242l.226-.103-.11.695-.074.027c-.48.172-1.532.406-2.71.512-.036.003-.074.005-.112.005" transform="translate(0.000000, -1.000000) translate(8.237549, 3.236532)"/>
                            <path fill="#FFF" d="M6.218 12.769c-.34.123-.925.274-1.577.38-.262.036-.253.186.215.24.476.044 1.09-.266 1.46-.54l-.098-.08z" transform="translate(0.000000, -1.000000) translate(8.237549, 3.236532)"/>
                            <path fill="#000" d="M4.836 13.251l.035.005c.237.022.529-.059.806-.186-.26.067-.549.13-.84.181m.112.275c-.036 0-.07-.001-.106-.005-.341-.038-.507-.13-.508-.28 0-.055.026-.188.287-.224.698-.114 1.258-.268 1.55-.374l.071-.026.29.236-.138.103c-.366.271-.949.57-1.446.57" transform="translate(0.000000, -1.000000) translate(8.237549, 3.236532)"/>
                            <path fill="#FFF" d="M6.763 11.919c.116 0 .33-.045.544-.071.4-.062.108.496-.544.496v.185c.661 0 1.352-.655 1.206-.947-.204-.425-.768-.062-1.206-.062-.438 0-1.003-.363-1.207.062-.146.292.545.947 1.207.947v-.185c-.652 0-.944-.558-.545-.496.214.026.428.07.545.07" transform="translate(0.000000, -1.000000) translate(8.237549, 3.236532)"/>
                            <path fill="#000" d="M7.365 11.71c.12 0 .184.05.217.096.049.067.054.155.015.245.085-.073.154-.151.202-.228.058-.093.063-.156.05-.181-.083-.175-.25-.154-.609-.067-.157.039-.32.079-.477.079-.157 0-.32-.04-.478-.079-.36-.087-.526-.108-.609.065-.013.027-.007.09.05.183.048.077.118.155.202.228-.038-.09-.033-.178.015-.245.04-.056.124-.116.293-.09.082.01.162.022.24.034.115.018.224.035.287.035.062 0 .171-.017.287-.035.077-.012.157-.024.24-.035.027-.004.052-.006.075-.006zm-1.173.269c.063.085.254.231.57.231.318 0 .508-.146.57-.231h-.004l-.004.001c-.079.01-.157.022-.233.034-.132.02-.245.038-.328.038-.083 0-.197-.018-.328-.038-.076-.012-.155-.024-.234-.034h-.004l-.005-.001zm.704.684H6.63v-.008c-.475-.053-.935-.377-1.13-.692-.13-.209-.105-.355-.062-.44.184-.385.587-.286.912-.207.142.035.289.07.414.07s.272-.035.414-.07c.324-.079.727-.178.913.208.041.084.065.23-.064.44-.194.314-.655.638-1.13.691v.008z" transform="translate(0.000000, -1.000000) translate(8.237549, 3.236532)"/>
                            <path fill="#FFF" d="M7.288 12.308c.856.39 1.927.283 2.832-.248.039-.017.058.01.02.106-.098.257-.176.46.116.842.126.168-.02.194-.234.177-1.09-.098-2.16-.32-2.675-.505l-.059-.372z" transform="translate(0.000000, -1.000000) translate(8.237549, 3.236532)"/>
                            <path fill="#000" d="M7.466 12.58c.493.164 1.472.374 2.568.472.038.003.067.004.09.004h.001c-.234-.32-.232-.55-.175-.752-.82.407-1.722.485-2.494.215l.01.061zm2.657.743c-.037 0-.075-.002-.112-.005-1.178-.106-2.23-.34-2.71-.512l-.074-.027-.11-.695.226.103c.81.368 1.823.278 2.709-.242l.012-.006c.077-.035.144-.01.18.024.087.083.036.21.02.253-.093.242-.148.39.098.71.078.104.095.197.051.277-.053.096-.167.12-.29.12z" transform="translate(0.000000, -1.000000) translate(8.237549, 3.236532)"/>
                            <path fill="#FFF" d="M7.308 12.769c.34.123.914.274 1.576.38.263.036.253.186-.214.24-.477.044-1.09-.266-1.46-.54l.098-.08z" transform="translate(0.000000, -1.000000) translate(8.237549, 3.236532)"/>
                            <path fill="#000" d="M7.855 13.073c.275.125.565.205.802.182.011 0 .021-.002.03-.003-.29-.051-.575-.113-.832-.179m.723.453c-.5 0-1.082-.3-1.447-.57l-.138-.102.289-.237.071.026c.297.108.86.263 1.55.374.261.036.288.169.287.224-.001.15-.166.241-.505.28-.035.003-.071.005-.107.005" transform="translate(0.000000, -1.000000) translate(8.237549, 3.236532)"/>
                            <path fill="#FFF" d="M6.792 12.68c.02.15.049.478.272.336.302-.186.37-.327.37-.593 0-.168-.224-.416-.671-.416-.448 0-.672.248-.672.416 0 .266.068.407.37.593.224.142.243-.186.272-.336.01-.053.059-.035.059 0" transform="translate(0.000000, -1.000000) translate(8.237549, 3.236532)"/>
                            <path fill="#000" d="M6.925 12.668l.002.018c.006.046.023.178.05.227.004-.003.01-.005.016-.01.263-.162.308-.262.308-.48 0-.083-.155-.282-.538-.282s-.538.2-.538.282c0 .218.044.318.306.48l.014.008c.022-.043.038-.145.046-.191l.011-.065c.019-.101.102-.148.175-.142.08.008.142.075.148.155m.04.517c-.04 0-.073-.01-.099-.022-.044-.021-.078-.054-.105-.094-.027.041-.062.075-.108.096-.055.025-.146.039-.263-.036-.323-.199-.432-.377-.432-.706 0-.264.308-.55.805-.55.497 0 .805.286.805.55 0 .33-.11.507-.434.707-.064.04-.12.055-.168.055" transform="translate(0.000000, -1.000000) translate(8.237549, 3.236532)"/>
                            <path fill="#FFF" d="M6.48 1.339C6.354.684 5.293.639 5.128.533c-.195-.115-.165 0-.097.177.194.46.856.646 1.158.7.243.035.32.053.291-.071" transform="translate(0.000000, -1.000000) translate(8.237549, 3.236532)"/>
                            <path fill="#000" d="M6.21 1.278l.033.004c.03.005.06.01.088.013C6.204.94 5.678.816 5.356.74 5.282.723 5.22.71 5.17.693c.21.417.896.56 1.04.585m.2.29c-.055 0-.122-.009-.206-.021l-.039-.006C5.93 1.5 5.144 1.321 4.908.762L4.906.758c-.05-.13-.107-.277-.001-.366.101-.086.234-.008.29.026L5.2.421c.026.014.132.04.218.06.404.095 1.08.254 1.193.83.008.033.027.125-.038.197-.042.045-.093.06-.163.06" transform="translate(0.000000, -1.000000) translate(8.237549, 3.236532)"/>
                            <path fill="#FFF" d="M6.802 1.356C6.909.684 5.858.365 5.732.214c-.147-.16-.166-.062-.098.124.126.399.584.868.856.992.224.106.292.15.312.026" transform="translate(0.000000, -1.000000) translate(8.237549, 3.236532)"/>
                            <path fill="#000" d="M5.816.431c.164.335.529.686.73.777l.053.026.077.036C6.682.928 6.3.692 5.906.48c-.033-.017-.063-.033-.09-.049m.928 1.134c-.071 0-.15-.038-.26-.09l-.051-.025c-.315-.143-.788-.64-.925-1.069-.029-.078-.1-.277.034-.358.125-.076.248.057.288.101l.003.004c.02.021.12.075.2.117.347.187.996.535.9 1.132-.004.03-.019.122-.104.167-.028.015-.056.021-.085.021" transform="translate(0.000000, -1.000000) translate(8.237549, 3.236532)"/>
                            <path fill="#FFF" d="M7.668 1.746C7.765.94 6.908.816 6.685.56 6.539.4 6.529.489 6.578.675c.097.407.525.885.788 1.036.204.115.292.159.302.035" transform="translate(0.000000, -1.000000) translate(8.237549, 3.236532)"/>
                            <path fill="#000" d="M6.754.783c.141.34.477.697.678.812l.11.06c.016-.431-.304-.605-.613-.773-.063-.034-.122-.066-.175-.099m.858 1.171c-.085 0-.182-.054-.312-.127-.283-.162-.744-.667-.852-1.121-.027-.101-.072-.275.055-.344.121-.066.233.056.28.107.05.058.159.116.273.179.328.178.823.446.744 1.112-.009.103-.06.15-.1.173-.029.015-.057.021-.088.021" transform="translate(0.000000, -1.000000) translate(8.237549, 3.236532)"/>
                            <path fill="#FFF" d="M7.405 1.569c-.886-.523-1.508-.23-1.761-.257-.244-.026-.321.115.097.328.516.257 1.236.221 1.518.124.292-.107.204-.16.146-.195" transform="translate(0.000000, -1.000000) translate(8.237549, 3.236532)"/>
                            <path fill="#000" d="M5.673 1.447c.032.021.074.046.128.074.478.237 1.164.203 1.414.116l.024-.008c-.586-.312-1.034-.248-1.335-.205-.09.013-.165.024-.231.023m1.025.524c-.33 0-.71-.059-1.017-.212-.106-.054-.426-.216-.363-.43.017-.054.082-.178.34-.15.043.005.12-.006.208-.019.333-.048.891-.128 1.607.294h.001c.037.023.134.082.123.194-.011.116-.125.18-.292.241-.144.05-.363.082-.607.082" transform="translate(0.000000, -1.000000) translate(8.237549, 3.236532)"/>
                            <path fill="#FFF" d="M8.738 1.923c-.273-.868-.905-.726-1.09-.832-.185-.106-.204-.08-.165.115.077.345.73.726 1.05.84.117.036.263.09.205-.123" transform="translate(0.000000, -1.000000) translate(8.237549, 3.236532)"/>
                            <path fill="#000" d="M8.576 1.92l.011.004.012.003c-.188-.555-.53-.612-.782-.655-.07-.012-.133-.022-.187-.043.111.252.622.574.946.691m.105.293c-.06 0-.121-.018-.172-.034l-.02-.006c-.27-.097-1.037-.498-1.137-.938-.021-.107-.047-.237.052-.308.1-.073.222-.003.31.048.023.013.089.024.147.034.27.045.77.13 1.004.874l.002.005c.012.045.05.182-.042.27-.042.042-.093.055-.144.055" transform="translate(0.000000, -1.000000) translate(8.237549, 3.236532)"/>
                            <path fill="#FFF" d="M8.611 2.073c-.759-.557-1.352-.141-1.586-.203-.175-.044-.097.062-.029.106.487.31 1.09.478 1.557.283.185-.07.195-.088.058-.186" transform="translate(0.000000, -1.000000) translate(8.237549, 3.236532)"/>
                            <path fill="#000" d="M7.276 1.984c.44.227.877.287 1.205.16-.472-.32-.86-.236-1.146-.173l-.059.013m.834.492c-.37 0-.786-.133-1.186-.387-.088-.058-.173-.162-.126-.268.026-.06.093-.123.26-.08.037.01.134-.012.22-.031.306-.067.82-.18 1.412.256.068.048.16.114.146.222-.014.11-.12.152-.233.195-.15.062-.316.093-.493.093" transform="translate(0.000000, -1.000000) translate(8.237549, 3.236532)"/>
                            <path fill="#FFF" d="M10.256 2.64c.01-.549-1.236-.779-1.499-1.115-.155-.204-.292-.098-.214.23.117.425.973.894 1.44.983.283.053.273-.036.273-.098" transform="translate(0.000000, -1.000000) translate(8.237549, 3.236532)"/>
                            <path fill="#000" d="M8.673 1.721c.1.356.902.803 1.335.885.055.01.09.014.114.014-.016-.243-.455-.446-.81-.61-.287-.132-.535-.247-.657-.4.002.029.007.065.018.111m1.455 1.166c-.048 0-.104-.006-.17-.018-.463-.088-1.402-.564-1.543-1.079l-.002-.004c-.082-.346.05-.45.111-.48.052-.024.189-.06.34.137.08.103.324.216.56.325.456.21.972.449.965.873v.004c0 .038.001.124-.074.186-.045.038-.104.056-.187.056" transform="translate(0.000000, -1.000000) translate(8.237549, 3.236532)"/>
                            <path fill="#FFF" d="M10.217 2.738c-.788-.647-1.45-.434-1.693-.496-.244-.053-.34.08.039.345.467.319 1.187.38 1.489.319.301-.062.223-.124.165-.168" transform="translate(0.000000, -1.000000) translate(8.237549, 3.236532)"/>
                            <path fill="#000" d="M8.51 2.376c.03.027.071.06.13.102.435.297 1.123.35 1.385.297l.018-.004c-.524-.39-.973-.386-1.276-.383-.103.001-.186.002-.257-.012m1.28.685c-.386 0-.922-.104-1.303-.364-.096-.067-.384-.269-.295-.473.023-.052.104-.169.36-.113l.005.001c.04.01.118.01.207.01.337-.004.9-.01 1.536.51.036.028.126.099.1.208-.028.126-.18.168-.322.197-.079.016-.177.024-.288.024" transform="translate(0.000000, -1.000000) translate(8.237549, 3.236532)"/>
                            <path fill="#FFF" d="M11.628 3.685c-.224-.939-.934-1.133-1.11-1.31-.165-.177-.34-.124-.194.3.175.505.75.948 1.05 1.054.293.115.273.027.254-.044" transform="translate(0.000000, -1.000000) translate(8.237549, 3.236532)"/>
                            <path fill="#000" d="M10.405 2.45c.004.038.016.097.045.182.164.471.718.883.97.971l.004.002.05.019c-.175-.602-.569-.841-.833-1.003-.093-.056-.166-.1-.217-.153l-.003-.002-.016-.017m1.176 1.47c-.071 0-.156-.027-.253-.065-.344-.122-.943-.595-1.13-1.135-.097-.282-.08-.465.05-.544.107-.064.244-.024.367.107.029.028.095.069.165.111.296.18.791.482.977 1.259.012.041.039.146-.043.22-.037.032-.081.046-.133.046" transform="translate(0.000000, -1.000000) translate(8.237549, 3.236532)"/>
                            <path fill="#FFF" d="M11.618 3.809c-.574-.841-1.323-.815-1.557-.93-.224-.124-.38-.017-.078.345.35.443 1.07.691 1.402.709.33.018.272-.062.233-.124" transform="translate(0.000000, -1.000000) translate(8.237549, 3.236532)"/>
                            <path fill="#000" d="M9.978 2.986c.02.036.053.087.108.153.326.411 1.012.645 1.306.66l.057.003c-.404-.538-.874-.65-1.19-.725-.107-.025-.19-.045-.257-.078l-.006-.003-.018-.01m1.495 1.083l-.096-.003c-.327-.017-1.102-.258-1.498-.759-.196-.235-.247-.416-.149-.535.081-.097.228-.102.393-.012.04.02.113.037.198.057.349.083.933.222 1.407.917l.006.008c.024.038.08.127.025.22-.048.083-.146.107-.286.107" transform="translate(0.000000, -1.000000) translate(8.237549, 3.236532)"/>
                            <path fill="#FFF" d="M12.358 4.81c.33-.957-.428-1.311-.506-1.47-.088-.16-.176-.16-.224.008-.214.682.477 1.346.584 1.479.107.124.126.062.146-.018" transform="translate(0.000000, -1.000000) translate(8.237549, 3.236532)"/>
                            <path fill="#000" d="M11.745 3.423c-.136.527.334 1.054.514 1.255.173-.613-.167-.922-.374-1.11-.063-.056-.11-.099-.14-.145m.56 1.608c-.094 0-.163-.08-.194-.117l-.003-.003c-.01-.013-.027-.032-.048-.055-.212-.237-.774-.866-.56-1.548.049-.167.139-.212.206-.22.1-.01.189.052.263.187l.003.006c.008.014.055.056.092.09.23.208.708.641.422 1.476-.014.057-.042.155-.143.18-.013.002-.026.004-.039.004" transform="translate(0.000000, -1.000000) translate(8.237549, 3.236532)"/>
                            <path fill="#FFF" d="M12.202 5.075c-.263-1.071-.954-1.01-1.11-1.16-.165-.15-.184-.044-.155.15.078.523.769.877 1.08 1.054.097.053.214.115.185-.044" transform="translate(0.000000, -1.000000) translate(8.237549, 3.236532)"/>
                            <path fill="#000" d="M11.072 4.063c.076.415.64.731.945.903l.02.01c-.195-.632-.556-.76-.8-.846-.061-.021-.117-.041-.165-.067m1.091 1.248c-.074 0-.15-.042-.21-.075l-.067-.037c-.35-.196-.999-.56-1.081-1.114-.015-.1-.043-.285.088-.355.123-.065.244.045.29.086l.002.003c.017.016.089.041.141.06.276.097.788.278 1.006 1.164l.001.008c.02.104-.003.18-.067.227-.033.023-.067.033-.103.033" transform="translate(0.000000, -1.000000) translate(8.237549, 3.236532)"/>
                            <path fill="#FFF" d="M12.864 6.332c.476-1.01-.088-1.69-.263-1.841-.175-.142-.282-.204-.224 0 .078.31-.195 1.106.224 1.69.136.195.155.381.263.151" transform="translate(0.000000, -1.000000) translate(8.237549, 3.236532)"/>
                            <path fill="#000" d="M12.525 4.602c.003.093-.005.201-.013.32-.027.366-.06.823.197 1.182.025.036.047.07.065.102.4-.933-.163-1.521-.25-1.604m.254 1.97c-.107 0-.158-.093-.208-.183-.022-.04-.047-.086-.079-.13-.312-.437-.274-.969-.246-1.357.011-.154.022-.299.003-.377-.016-.057-.056-.2.053-.272.12-.08.254.029.384.134l.003.002c.305.263.76 1.018.296 2-.029.063-.083.179-.2.183h-.006" transform="translate(0.000000, -1.000000) translate(8.237549, 3.236532)"/>
                            <path fill="#FFF" d="M12.61 6.536c.108-.62-.282-1.187-.7-1.408-.243-.133-.253-.098-.253.089.02.575.613 1.053.788 1.319.166.247.156.062.166 0" transform="translate(0.000000, -1.000000) translate(8.237549, 3.236532)"/>
                            <path fill="#000" d="M11.79 5.216c.015.377.326.728.552.984.057.064.109.123.152.177.023-.502-.3-.948-.646-1.131l-.057-.03m.776 1.579c-.11 0-.188-.119-.233-.185-.04-.062-.11-.141-.192-.233-.254-.288-.602-.682-.619-1.156v-.004c0-.103 0-.22.098-.277.099-.06.209-.008.353.07.459.244.885.868.768 1.547l-.002.02c-.005.06-.017.183-.134.213-.013.003-.026.005-.039.005" transform="translate(0.000000, -1.000000) translate(8.237549, 3.236532)"/>
                            <path fill="#FFF" d="M12.504 8.147c-.35-1.169.379-1.841.603-1.974.214-.142.35-.195.253.026-.146.328.01 1.24-.545 1.815-.175.195-.243.399-.311.133" transform="translate(0.000000, -1.000000) translate(8.237549, 3.236532)"/>
                            <path fill="#000" d="M13.196 6.274l-.015.01-.006.003c-.01.006-.885.565-.56 1.762.028-.038.062-.081.1-.124l.004-.004c.342-.355.389-.858.427-1.262.013-.145.025-.277.05-.385m-.615 2.134c-.012 0-.023-.001-.036-.004-.118-.023-.153-.155-.17-.221-.36-1.203.352-1.938.66-2.123.171-.113.321-.198.431-.105.107.09.041.241.016.298-.039.087-.054.254-.07.43-.04.422-.094 1-.5 1.422-.037.043-.071.087-.1.126-.07.09-.135.177-.231.177" transform="translate(0.000000, -1.000000) translate(8.237549, 3.236532)"/>
                            <path fill="#FFF" d="M12.581 7.89c.292-1.018-.34-1.593-.535-1.708-.185-.116-.301-.16-.214.026.117.283-.01 1.08.477 1.576.156.168.214.336.272.106" transform="translate(0.000000, -1.000000) translate(8.237549, 3.236532)"/>
                            <path fill="#000" d="M11.997 6.31c.014.08.023.174.032.276.033.355.074.797.375 1.105l.003.002c.025.027.047.054.068.079.22-.914-.365-1.382-.478-1.463m.517 1.828c-.092 0-.154-.08-.215-.156-.025-.033-.054-.07-.087-.105-.366-.375-.414-.89-.449-1.265-.013-.143-.025-.279-.053-.35-.024-.049-.085-.185.013-.272.11-.098.267 0 .394.08.266.156.895.8.593 1.856-.015.06-.047.184-.16.208-.013.002-.025.004-.036.004" transform="translate(0.000000, -1.000000) translate(8.237549, 3.236532)"/>
                            <path fill="#FFF" d="M12.221 7.412c-.525.514-.535 1.266-.301 1.709.146.257.165.239.301.053.37-.54.146-1.32.166-1.665.01-.327-.107-.15-.166-.097" transform="translate(0.000000, -1.000000) translate(8.237549, 3.236532)"/>
                            <path fill="#000" d="M12.037 9.057c.018.031.033.058.047.079l.028-.04c.245-.358.197-.86.162-1.226-.011-.112-.02-.211-.022-.297-.408.456-.42 1.093-.215 1.484m.043.39h-.011c-.121-.007-.188-.124-.265-.26l-.002-.004c-.262-.495-.236-1.317.326-1.866l.003-.003.021-.022c.048-.05.136-.144.249-.097.127.053.122.226.12.319v.003c-.005.08.006.194.018.327.04.408.093.966-.207 1.405l-.003.004c-.08.108-.142.194-.249.194" transform="translate(0.000000, -1.000000) translate(8.237549, 3.236532)"/>
                            <path fill="#FFF" d="M13.087 8.227c0 .708-.476 1.283-.982 1.46-.292.098-.292.071-.253-.141.136-.797.807-1.089 1.05-1.346.234-.248.185-.044.185.027" transform="translate(0.000000, -1.000000) translate(8.237549, 3.236532)"/>
                            <path fill="#000" d="M12.95 8.34c-.059.054-.128.107-.205.166-.297.227-.667.51-.762 1.062l-.003.02.082-.027c.407-.142.838-.611.887-1.22M11.89 9.875c-.048 0-.09-.012-.127-.044-.086-.074-.066-.183-.043-.31.112-.653.564-.999.863-1.227.092-.07.171-.131.222-.186.093-.098.202-.2.32-.147.112.049.102.179.097.241l-.001.025c0 .795-.54 1.4-1.072 1.587-.1.033-.186.061-.259.061" transform="translate(0.000000, -1.000000) translate(8.237549, 3.236532)"/>
                            <path fill="#FFF" d="M11.278 10.334c.856-.708.399-1.204.437-1.665.02-.248-.087-.185-.184-.097-.546.487-.575 1.355-.458 1.691.049.15.127.133.205.07" transform="translate(0.000000, -1.000000) translate(8.237549, 3.236532)"/>
                            <path fill="#000" d="M11.58 8.709c-.48.471-.47 1.254-.38 1.51v.005c.56-.466.494-.8.424-1.152-.023-.118-.047-.24-.044-.363m-.402 1.804c-.02 0-.04-.003-.06-.009-.079-.024-.137-.091-.172-.2-.124-.356-.107-1.293.496-1.832.046-.042.17-.155.297-.093.128.062.115.236.11.3-.01.105.013.22.037.342.075.376.167.845-.523 1.416l-.002.001c-.063.05-.124.075-.183.075" transform="translate(0.000000, -1.000000) translate(8.237549, 3.236532)"/>
                            <path fill="#FFF" d="M12.426 9.873c-.282.78-1.032 1.258-1.664 1.284-.37.018-.36-.009-.234-.239.477-.832 1.324-.93 1.703-1.142.35-.195.224.018.195.097" transform="translate(0.000000, -1.000000) translate(8.237549, 3.236532)"/>
                            <path fill="#000" d="M12.27 9.907c-.098.052-.215.095-.35.144-.419.156-.942.35-1.276.933l-.024.044c.051 0 .109-.003.135-.004.542-.023 1.222-.413 1.514-1.117m-1.656 1.389c-.127 0-.22-.018-.27-.1-.064-.101-.006-.208.068-.342.384-.67.98-.891 1.417-1.053.135-.05.253-.094.338-.141.133-.075.283-.146.385-.054.096.087.04.217.01.287l-.01.026c-.313.865-1.134 1.344-1.784 1.372-.055.002-.107.005-.154.005" transform="translate(0.000000, -1.000000) translate(8.237549, 3.236532)"/>
                            <path fill="#FFF" d="M10.1 11.334c1.11-.504.886-1.345 1.09-1.558.146-.15-.03-.133-.117-.08-.652.346-1.177.895-1.187 1.479 0 .221.02.248.214.16" transform="translate(0.000000, -1.000000) translate(8.237549, 3.236532)"/>
                            <path fill="#000" d="M10.985 9.899c-.592.355-.958.834-.965 1.278v.047l.025-.011c.731-.333.83-.806.903-1.151.012-.058.024-.113.037-.163m-1.03 1.616c-.036 0-.07-.008-.103-.03-.1-.063-.1-.189-.1-.31.01-.588.48-1.183 1.256-1.595.092-.054.255-.096.337.008.036.045.076.141-.06.281-.03.033-.053.142-.076.247-.074.356-.2.951-1.054 1.34-.057.026-.13.059-.2.059" transform="translate(0.000000, -1.000000) translate(8.237549, 3.236532)"/>
                            <path fill="#FFF" d="M8.582 12.273c1.401.203 2.053-.762 2.462-.85.214-.044.058-.124-.049-.133-.934-.097-2.12.301-2.48.744-.147.177-.147.212.067.239" transform="translate(0.000000, -1.000000) translate(8.237549, 3.236532)"/>
                            <path fill="#000" d="M8.6 12.14h.002c.939.137 1.513-.275 1.932-.575.082-.059.155-.112.225-.156-.87-.017-1.847.347-2.141.709l-.018.022m.363.295c-.126 0-.259-.01-.399-.03-.097-.012-.229-.029-.273-.141-.046-.114.039-.216.12-.315.41-.503 1.672-.889 2.598-.792.097.008.267.06.275.199.008.125-.112.177-.213.197-.09.02-.225.117-.381.229-.373.267-.91.653-1.727.653" transform="translate(0.000000, -1.000000) translate(8.237549, 3.236532)"/>
                            <path fill="#FFF" d="M10.003 10.759c-.282.84-1.333 1.531-2.121 1.585-.37.026-.37-.01-.234-.23.633-1.045 1.732-1.222 2.121-1.488.331-.23.263.053.234.133" transform="translate(0.000000, -1.000000) translate(8.237549, 3.236532)"/>
                            <path fill="#000" d="M9.877 10.715l-.031.02c-.116.08-.278.147-.465.226-.497.207-1.177.492-1.619 1.222l-.02.034c.032 0 .074-.003.13-.007.726-.049 1.737-.698 2.004-1.494v-.001zm-2.16 1.77c-.127 0-.213-.022-.26-.1-.066-.109.004-.222.077-.342.486-.803 1.243-1.12 1.744-1.329.174-.072.324-.135.416-.198.069-.048.254-.177.39-.072.123.095.073.281.045.359-.31.918-1.427 1.619-2.238 1.674-.065.004-.123.008-.174.008z" transform="translate(0.000000, -1.000000) translate(8.237549, 3.236532)"/>
                            <path fill="#FFF" d="M7.045 1.339C7.17.684 8.232.639 8.397.533c.195-.115.166 0 .098.177-.195.46-.857.646-1.158.7-.243.035-.321.053-.292-.071" transform="translate(0.000000, -1.000000) translate(8.237549, 3.236532)"/>
                            <path fill="#000" d="M8.355.693c-.05.016-.111.03-.186.047-.322.076-.848.2-.974.555l.087-.013.033-.004c.144-.026.83-.168 1.04-.585m-1.24.876c-.07 0-.12-.016-.163-.061-.065-.072-.046-.164-.038-.197.113-.576.79-.735 1.194-.83.085-.02.192-.046.218-.06l.003-.003c.057-.033.19-.112.291-.026.106.089.05.236 0 .366l-.002.004c-.236.559-1.023.738-1.258.78l-.039.005c-.084.012-.15.022-.206.022" transform="translate(0.000000, -1.000000) translate(8.237549, 3.236532)"/>
                            <path fill="#FFF" d="M6.724 1.356C6.617.684 7.668.365 7.794.214c.146-.16.165-.062.097.124-.126.399-.583.868-.856.992-.224.106-.292.15-.311.026" transform="translate(0.000000, -1.000000) translate(8.237549, 3.236532)"/>
                            <path fill="#000" d="M7.71.431l-.09.05c-.395.211-.777.447-.77.789l.076-.036.052-.025c.202-.092.568-.443.732-.778M6.78 1.565c-.029 0-.057-.006-.085-.021-.085-.045-.1-.136-.104-.167-.095-.597.553-.945.901-1.132.08-.042.178-.096.2-.118l.003-.003c.04-.044.162-.177.288-.1.133.08.062.28.034.357-.137.428-.61.926-.927 1.07l-.049.024c-.11.052-.19.09-.26.09" transform="translate(0.000000, -1.000000) translate(8.237549, 3.236532)"/>
                            <path fill="#FFF" d="M5.858 1.746C5.76.94 6.617.816 6.84.56c.146-.16.155-.071.106.115-.097.407-.525.885-.788 1.036-.204.115-.292.159-.301.035" transform="translate(0.000000, -1.000000) translate(8.237549, 3.236532)"/>
                            <path fill="#000" d="M6.772.783c-.053.033-.112.065-.175.1-.31.167-.63.34-.613.771.037-.019.079-.042.11-.06.2-.115.538-.473.678-.81m-.86 1.17c-.03 0-.058-.006-.086-.021-.042-.022-.092-.07-.101-.173-.08-.666.416-.934.744-1.112.115-.063.223-.121.27-.176.05-.055.162-.176.284-.11.126.069.08.243.054.347-.108.451-.569.956-.851 1.117-.13.074-.227.128-.313.128" transform="translate(0.000000, -1.000000) translate(8.237549, 3.236532)"/>
                            <path fill="#FFF" d="M6.12 1.569c.886-.523 1.509-.23 1.762-.257.243-.026.32.115-.098.328-.515.257-1.235.221-1.518.124-.292-.107-.204-.16-.146-.195" transform="translate(0.000000, -1.000000) translate(8.237549, 3.236532)"/>
                            <path fill="#000" d="M6.287 1.629l.025.01c.248.085.934.12 1.413-.119.054-.027.096-.052.128-.073-.067.001-.142-.01-.232-.023-.301-.043-.748-.107-1.334.205m.539.342c-.243 0-.46-.032-.603-.081-.17-.062-.283-.126-.295-.242-.01-.112.087-.171.123-.193l.002-.001c.715-.422 1.273-.342 1.606-.294.089.013.165.024.209.02.257-.029.323.095.339.15.063.213-.257.375-.362.429-.308.153-.688.212-1.019.212" transform="translate(0.000000, -1.000000) translate(8.237549, 3.236532)"/>
                            <path fill="#FFF" d="M4.787 1.923c.273-.868.905-.726 1.09-.832.185-.106.205-.08.165.115-.077.345-.73.726-1.05.84-.117.036-.263.09-.205-.123" transform="translate(0.000000, -1.000000) translate(8.237549, 3.236532)"/>
                            <path fill="#000" d="M5.894 1.23c-.054.02-.116.03-.186.042-.251.043-.594.1-.782.655l.012-.003.012-.004c.322-.116.83-.437.944-.69m-1.05.984c-.051 0-.101-.014-.144-.056-.091-.088-.054-.225-.041-.27l.001-.005c.234-.744.735-.829 1.004-.874.058-.01.125-.021.147-.034.088-.05.21-.12.31-.048.1.07.073.2.053.305-.1.443-.869.844-1.137.94l-.02.007c-.052.016-.113.035-.173.035" transform="translate(0.000000, -1.000000) translate(8.237549, 3.236532)"/>
                            <path fill="#FFF" d="M4.914 2.073c.759-.557 1.352-.141 1.586-.203.175-.044.097.062.03.106-.487.31-1.09.478-1.558.283-.185-.07-.194-.088-.058-.186" transform="translate(0.000000, -1.000000) translate(8.237549, 3.236532)"/>
                            <path fill="#000" d="M5.045 2.145c.327.126.764.066 1.204-.161L6.19 1.97c-.286-.063-.675-.148-1.146.174m.37.33c-.177 0-.343-.03-.492-.091-.113-.044-.22-.085-.234-.196-.014-.108.079-.174.146-.223.593-.435 1.106-.322 1.413-.255.086.019.183.04.218.03.169-.042.235.02.261.08.047.107-.038.211-.125.268-.4.255-.816.388-1.187.388" transform="translate(0.000000, -1.000000) translate(8.237549, 3.236532)"/>
                            <path fill="#FFF" d="M3.27 2.64c-.01-.549 1.235-.779 1.498-1.115.156-.204.292-.098.214.23-.117.425-.973.894-1.44.983-.282.053-.273-.036-.273-.098" transform="translate(0.000000, -1.000000) translate(8.237549, 3.236532)"/>
                            <path fill="#000" d="M4.87 1.61c-.123.154-.37.268-.657.4-.354.164-.793.367-.81.61.024 0 .06-.003.114-.014.433-.082 1.235-.529 1.336-.885.01-.046.016-.082.017-.11M3.397 2.887c-.083 0-.142-.018-.187-.056-.075-.062-.074-.148-.074-.186v-.004c-.006-.424.51-.663.965-.873.236-.11.48-.222.562-.326.15-.196.286-.16.338-.135.06.029.193.133.11.479v.004c-.079.287-.395.536-.646.695-.297.188-.642.335-.898.384-.066.012-.122.018-.17.018" transform="translate(0.000000, -1.000000) translate(8.237549, 3.236532)"/>
                            <path fill="#FFF" d="M3.308 2.738c.789-.647 1.45-.434 1.694-.496.243-.053.34.08-.04.345-.467.319-1.186.38-1.488.319-.302-.062-.224-.124-.166-.168" transform="translate(0.000000, -1.000000) translate(8.237549, 3.236532)"/>
                            <path fill="#000" d="M3.482 2.771l.019.004c.262.054.949 0 1.386-.298.058-.04.099-.074.128-.101-.07.014-.154.013-.257.012-.303-.003-.752-.008-1.276.383m.253.29c-.11 0-.21-.008-.288-.024-.141-.03-.294-.07-.322-.197-.025-.11.064-.18.1-.207.637-.521 1.2-.516 1.536-.512.09.001.166.002.208-.009h.004c.256-.057.337.06.36.112.09.204-.2.406-.294.473-.381.26-.918.365-1.304.365" transform="translate(0.000000, -1.000000) translate(8.237549, 3.236532)"/>
                            <path fill="#FFF" d="M1.898 3.685c.223-.939.934-1.133 1.109-1.31.165-.177.34-.124.194.3-.175.505-.749.948-1.05 1.054-.292.115-.273.027-.253-.044" transform="translate(0.000000, -1.000000) translate(8.237549, 3.236532)"/>
                            <path fill="#000" d="M3.12 2.45l-.016.016-.002.002c-.052.053-.125.097-.218.153-.264.162-.658.401-.832 1.003l.05-.019.004-.002c.251-.088.806-.5.97-.971.028-.085.04-.144.044-.183M1.945 3.92c-.052 0-.097-.015-.134-.048-.081-.073-.054-.178-.043-.22.186-.776.681-1.077.977-1.258.07-.042.137-.083.166-.111.123-.13.26-.17.366-.107.13.079.148.262.05.544-.187.54-.785 1.013-1.13 1.135-.097.038-.182.064-.252.064" transform="translate(0.000000, -1.000000) translate(8.237549, 3.236532)"/>
                            <path fill="#FFF" d="M1.907 3.809c.574-.841 1.324-.815 1.557-.93.224-.124.38-.017.078.345-.35.443-1.07.691-1.401.709-.331.018-.273-.062-.234-.124" transform="translate(0.000000, -1.000000) translate(8.237549, 3.236532)"/>
                            <path fill="#000" d="M3.547 2.987c-.006.002-.012.006-.018.01l-.006.002c-.066.033-.15.053-.256.078-.317.075-.787.187-1.19.725l.057-.003c.293-.015.98-.249 1.303-.657.057-.068.09-.12.11-.155M2.053 4.069c-.14 0-.238-.024-.287-.106-.055-.094.001-.183.025-.22l.006-.01c.474-.694 1.058-.833 1.408-.916.085-.02.158-.038.198-.056.165-.09.311-.086.392.011.098.119.048.3-.15.538-.395.498-1.17.739-1.497.756l-.095.003" transform="translate(0.000000, -1.000000) translate(8.237549, 3.236532)"/>
                            <path fill="#FFF" d="M1.168 4.81c-.331-.957.428-1.311.506-1.47.087-.16.175-.16.224.008.214.682-.477 1.346-.584 1.479-.107.124-.127.062-.146-.018" transform="translate(0.000000, -1.000000) translate(8.237549, 3.236532)"/>
                            <path fill="#000" d="M1.78 3.423c-.03.046-.077.09-.14.145-.206.188-.547.497-.374 1.11.18-.202.652-.73.514-1.255M1.221 5.03c-.012 0-.025-.002-.039-.005-.101-.024-.128-.122-.142-.18-.286-.834.191-1.267.421-1.475.037-.034.084-.076.094-.092l.002-.004c.074-.135.162-.197.262-.186.067.007.158.052.207.222.213.68-.35 1.308-.56 1.545-.021.023-.038.042-.048.055l-.003.003c-.032.037-.101.117-.194.117" transform="translate(0.000000, -1.000000) translate(8.237549, 3.236532)"/>
                            <path fill="#FFF" d="M1.323 5.075c.263-1.071.954-1.01 1.11-1.16.165-.15.185-.044.155.15-.077.523-.768.877-1.08 1.054-.097.053-.214.115-.185-.044" transform="translate(0.000000, -1.000000) translate(8.237549, 3.236532)"/>
                            <path fill="#000" d="M2.453 4.063c-.047.026-.103.046-.165.067-.244.087-.605.214-.8.847l.02-.011c.306-.172.87-.488.945-.903M1.362 5.31c-.035 0-.07-.01-.103-.033-.064-.046-.086-.123-.067-.227l.002-.008c.217-.886.73-1.067 1.005-1.164.053-.019.125-.044.14-.06l.004-.003c.045-.041.167-.151.29-.086.13.07.102.256.088.355-.083.553-.733.918-1.082 1.114l-.065.036c-.062.034-.138.076-.212.076" transform="translate(0.000000, -1.000000) translate(8.237549, 3.236532)"/>
                            <path fill="#FFF" d="M.662 6.332c-.477-1.01.087-1.69.262-1.841.176-.142.283-.204.224 0-.078.31.195 1.106-.224 1.69-.136.195-.155.381-.262.151" transform="translate(0.000000, -1.000000) translate(8.237549, 3.236532)"/>
                            <path fill="#000" d="M1 4.602c-.086.083-.65.67-.248 1.604.018-.031.039-.066.063-.101.258-.36.225-.817.199-1.184-.009-.118-.017-.226-.013-.32M.747 6.573H.741c-.116-.004-.17-.12-.2-.183-.464-.982-.009-1.737.296-2l.003-.002c.13-.105.264-.213.384-.134.109.072.07.215.053.272-.019.078-.008.223.003.377.028.388.066.92-.247 1.357-.03.044-.056.09-.078.13-.05.09-.1.183-.208.183" transform="translate(0.000000, -1.000000) translate(8.237549, 3.236532)"/>
                            <path fill="#FFF" d="M.915 6.536c-.107-.62.282-1.187.7-1.408.244-.133.253-.098.253.089-.02.575-.613 1.053-.788 1.319-.165.247-.156.062-.165 0" transform="translate(0.000000, -1.000000) translate(8.237549, 3.236532)"/>
                            <path fill="#000" d="M1.735 5.216c-.016.008-.034.017-.056.03-.348.183-.67.63-.647 1.13.042-.053.094-.112.151-.176.227-.256.537-.607.552-.984M.958 6.795c-.012 0-.026-.002-.039-.005-.117-.03-.128-.154-.134-.214l-.002-.019c-.117-.679.31-1.303.77-1.547.143-.078.252-.13.351-.07.098.057.098.174.098.277v.004c-.016.475-.365.868-.619 1.156-.081.092-.151.171-.191.232-.045.067-.124.186-.234.186" transform="translate(0.000000, -1.000000) translate(8.237549, 3.236532)"/>
                            <path fill="#FFF" d="M1.022 8.147c.35-1.169-.38-1.841-.603-1.974-.215-.142-.35-.195-.253.026.146.328-.01 1.24.544 1.815.176.195.234.399.312.133" transform="translate(0.000000, -1.000000) translate(8.237549, 3.236532)"/>
                            <path fill="#000" d="M.329 6.274c.025.108.037.24.05.385.039.404.085.907.428 1.262l.003.004c.039.043.072.087.1.125.326-1.197-.55-1.757-.56-1.763l-.005-.003-.016-.01M.94 8.408c-.097 0-.159-.085-.225-.173-.03-.04-.063-.086-.102-.13-.406-.422-.46-1-.5-1.422-.016-.176-.031-.343-.07-.43-.025-.057-.091-.208.016-.298.11-.093.26-.008.43.105.31.185 1.021.921.66 2.125-.018.065-.058.199-.177.22l-.032.003" transform="translate(0.000000, -1.000000) translate(8.237549, 3.236532)"/>
                            <path fill="#FFF" d="M.944 7.89c-.292-1.018.34-1.593.535-1.708.185-.116.302-.16.214.026-.117.283.01 1.08-.477 1.576-.155.168-.214.336-.272.106" transform="translate(0.000000, -1.000000) translate(8.237549, 3.236532)"/>
                            <path fill="#000" d="M1.528 6.31c-.12.085-.697.553-.477 1.462l.067-.079.003-.002c.301-.308.342-.75.375-1.105.01-.101.018-.195.032-.277m-.516 1.828c-.012 0-.024-.002-.036-.004-.113-.024-.146-.147-.161-.208-.302-1.057.328-1.7.596-1.858.124-.078.282-.176.392-.078.097.087.036.223.013.273-.028.07-.04.206-.054.349-.035.376-.082.89-.449 1.265-.033.036-.062.072-.087.105-.06.077-.123.156-.214.156" transform="translate(0.000000, -1.000000) translate(8.237549, 3.236532)"/>
                            <path fill="#FFF" d="M1.304 7.412c.525.514.535 1.266.302 1.709-.146.257-.166.239-.302.053-.37-.54-.146-1.32-.165-1.665-.01-.327.107-.15.165-.097" transform="translate(0.000000, -1.000000) translate(8.237549, 3.236532)"/>
                            <path fill="#000" d="M1.413 9.097l.029.039c.013-.021.029-.048.046-.08.205-.39.193-1.027-.215-1.483 0 .086-.01.185-.021.297-.035.366-.084.868.161 1.227m.032.35c-.106 0-.17-.086-.249-.194l-.002-.004c-.3-.439-.247-.997-.208-1.405.013-.133.024-.247.02-.327v-.003c-.004-.093-.009-.266.118-.319.114-.047.202.047.25.097l.02.021.003.004c.562.549.588 1.371.327 1.866l-.002.004c-.078.136-.144.253-.265.26h-.012" transform="translate(0.000000, -1.000000) translate(8.237549, 3.236532)"/>
                            <path fill="#FFF" d="M.438 8.227c0 .708.477 1.283.983 1.46.292.098.292.071.253-.141C1.537 8.749.866 8.457.623 8.2c-.234-.248-.185-.044-.185.027" transform="translate(0.000000, -1.000000) translate(8.237549, 3.236532)"/>
                            <path fill="#000" d="M.576 8.341c.049.609.481 1.078.889 1.22l.08.026c0-.006-.002-.012-.003-.017-.094-.554-.464-.837-.762-1.064-.077-.06-.146-.112-.204-.165m1.059 1.534c-.073 0-.159-.028-.257-.06C.844 9.626.305 9.021.305 8.226l-.002-.025C.298 8.14.289 8.01.4 7.961c.117-.052.226.049.32.147.05.055.13.115.221.186.3.228.751.574.863 1.23.023.124.043.233-.042.307-.037.032-.08.044-.128.044" transform="translate(0.000000, -1.000000) translate(8.237549, 3.236532)"/>
                            <path fill="#FFF" d="M2.248 10.334c-.856-.708-.4-1.204-.438-1.665-.02-.248.088-.185.185-.097.545.487.574 1.355.457 1.691-.048.15-.126.133-.204.07" transform="translate(0.000000, -1.000000) translate(8.237549, 3.236532)"/>
                            <path fill="#000" d="M1.946 8.709c.002.123-.022.245-.045.363-.07.353-.135.686.424 1.152v-.002c.09-.26.1-1.043-.38-1.513m.402 1.804c-.059 0-.12-.025-.182-.075l-.002-.001c-.69-.571-.598-1.04-.524-1.416.024-.122.047-.237.038-.34-.005-.066-.019-.24.11-.302.125-.062.25.051.298.094.601.538.618 1.475.493 1.834-.034.106-.092.173-.171.197-.02.006-.04.01-.06.01" transform="translate(0.000000, -1.000000) translate(8.237549, 3.236532)"/>
                            <path fill="#FFF" d="M1.1 9.873c.282.78 1.031 1.258 1.664 1.284.37.018.36-.009.233-.239-.477-.832-1.323-.93-1.703-1.142-.35-.195-.224.018-.194.097" transform="translate(0.000000, -1.000000) translate(8.237549, 3.236532)"/>
                            <path fill="#000" d="M1.256 9.907c.292.704.972 1.094 1.513 1.117.027.001.085.004.136.004l-.025-.046c-.333-.58-.856-.775-1.276-.93-.133-.05-.25-.093-.348-.145m1.656 1.389c-.047 0-.099-.003-.155-.006-.648-.027-1.47-.506-1.783-1.37l-.01-.027c-.03-.07-.086-.2.01-.287.102-.092.252-.02.385.053.086.048.203.092.338.142.436.162 1.033.383 1.416 1.05.075.137.134.244.07.346-.05.08-.144.099-.271.099" transform="translate(0.000000, -1.000000) translate(8.237549, 3.236532)"/>
                            <path fill="#FFF" d="M3.425 11.334c-1.11-.504-.885-1.345-1.09-1.558-.146-.15.03-.133.117-.08.652.346 1.178.895 1.187 1.479 0 .221-.02.248-.214.16" transform="translate(0.000000, -1.000000) translate(8.237549, 3.236532)"/>
                            <path fill="#000" d="M3.48 11.213l.025.01v-.048c-.007-.442-.373-.921-.965-1.276.014.05.025.105.037.163.073.345.172.818.903 1.15m.09.303c-.07 0-.142-.033-.2-.06-.854-.388-.98-.983-1.054-1.339-.022-.105-.045-.214-.077-.247-.135-.14-.095-.236-.059-.28.083-.105.246-.063.338-.009.776.412 1.245 1.007 1.255 1.593 0 .123 0 .249-.1.313-.032.02-.067.029-.102.029" transform="translate(0.000000, -1.000000) translate(8.237549, 3.236532)"/>
                            <path fill="#FFF" d="M4.943 12.273c-1.401.203-2.053-.762-2.462-.85-.214-.044-.058-.124.05-.133.933-.097 2.12.301 2.48.744.146.177.146.212-.068.239" transform="translate(0.000000, -1.000000) translate(8.237549, 3.236532)"/>
                            <path fill="#000" d="M2.766 11.41c.07.043.144.096.225.154.42.301.994.713 1.933.577h.002l-.018-.022c-.295-.363-1.273-.728-2.142-.71m1.796 1.026c-.816 0-1.354-.386-1.727-.654-.155-.111-.29-.208-.382-.228-.1-.02-.22-.072-.212-.197.009-.14.179-.19.278-.2.923-.095 2.186.29 2.596.793.08.099.165.2.12.315-.045.112-.177.129-.274.141-.14.02-.273.03-.399.03" transform="translate(0.000000, -1.000000) translate(8.237549, 3.236532)"/>
                            <path fill="#FFF" d="M3.522 10.759c.283.84 1.333 1.531 2.122 1.585.37.026.37-.01.233-.23-.632-1.045-1.732-1.222-2.121-1.488-.33-.23-.263.053-.234.133" transform="translate(0.000000, -1.000000) translate(8.237549, 3.236532)"/>
                            <path fill="#000" d="M3.649 10.715v.001c.267.796 1.278 1.445 2.004 1.494.056.004.099.006.131.007l-.02-.034c-.443-.73-1.123-1.015-1.62-1.222-.187-.079-.348-.146-.463-.225l-.032-.021m2.159 1.77c-.051 0-.11-.004-.174-.008-.81-.055-1.928-.756-2.238-1.674-.022-.062-.08-.261.046-.36.136-.104.32.025.39.074.092.062.242.125.415.197.501.21 1.258.526 1.744 1.33.074.12.143.232.078.34-.048.08-.134.1-.261.1" transform="translate(0.000000, -1.000000) translate(8.237549, 3.236532)"/>
                            <path fill="#006233" d="M8.407 2.153c-.185-.124-.866-.053-.992-.133.243.186.788.053.992.133M10.052 2.472c-.146-.24-1.012-.399-1.139-.611.224.407.895.354 1.139.61M9.925 2.746c-.321-.283-1.07-.168-1.294-.336.525.434.817.097 1.294.336M8.047 1.49c.204.097.457.194.584.424-.146-.177-.409-.248-.623-.398.01 0 .03-.018.04-.027M11.239 3.313c-.127-.266-.574-.558-.613-.655.126.345.496.425.613.655M11.355 3.782c-.389-.558-1.002-.496-1.245-.708.185.204.885.336 1.245.708M12.26 4.641c.03-.593-.457-.815-.476-1.15-.01.397.496.938.476 1.15M12.017 4.96c-.097-.514-.759-.55-.876-.85 0 .283.779.575.876.85M12.562 4.668c.35.39.107.982.253 1.416-.175-.319-.088-1.115-.253-1.416M11.988 6.332c.525.514.311 1.089.525 1.337-.263-.345-.223-1.018-.525-1.337M13.078 6.403c-.448.451-.176 1.133-.409 1.452.263-.275.224-1.116.409-1.452M12.513 6.403c-.058-.522-.593-.797-.642-1.08-.058.283.516.726.642 1.08M12.24 7.651c.088.363-.233 1.142-.135 1.381-.214-.416.185-1.204.136-1.38M12.932 8.484c-.214.646-.643.601-.779.99.098-.37.662-.707.779-.99M11.54 8.785c-.282.433-.049.929-.282 1.239.331-.31.156-.885.282-1.24M12.221 9.97c-.34.576-1.04.523-1.323.94.282-.523 1.148-.612 1.323-.94M10.986 9.9c-.604.38-.419.78-.876 1.204.574-.425.525-.894.876-1.204M10.703 11.44c-.583-.017-1.42.673-1.926.62.506.098 1.44-.522 1.926-.62M9.76 10.82c-.04.54-1.557.886-1.723 1.25.185-.479 1.518-.833 1.723-1.25M6.325.86C6.13.71 5.897.587 5.829.437c.048.194.243.336.437.469.02-.01.04-.035.059-.044M5.994 1.02C5.692.887 5.342.896 5.186.71c.098.186.428.257.71.354.03-.018.069-.035.098-.044M5.118 2.153c.185-.124.866-.053.993-.133-.243.186-.788.053-.993.133M3.474 2.472c.146-.24 1.012-.399 1.138-.611-.224.407-.895.354-1.138.61M3.6 2.746c.321-.283 1.07-.168 1.294-.336-.525.434-.817.097-1.294.336M4.894 1.914c.185-.354.71-.398.847-.61-.204.318-.652.371-.847.61M6.393 1.604c.535-.23 1.06-.035 1.314-.141-.312.15-1.051.08-1.314.141M2.287 3.313c.126-.266.574-.558.613-.655-.127.345-.496.425-.613.655M2.17 3.782c.39-.558 1.002-.496 1.245-.708-.185.204-.885.336-1.245.708M1.265 4.641c-.03-.593.457-.815.477-1.15.01.397-.496.938-.477 1.15M1.508 4.96c.098-.514.76-.55.876-.85 0 .283-.778.575-.876.85M.963 4.668c-.35.39-.107.982-.253 1.416.175-.319.088-1.115.253-1.416M1.537 6.332c-.525.514-.31 1.089-.525 1.337.263-.345.224-1.018.525-1.337M.448 6.403c.447.451.175 1.133.408 1.452C.594 7.58.633 6.739.448 6.403M1.012 6.403c.058-.522.594-.797.642-1.08.059.283-.515.726-.642 1.08M1.284 7.651c-.087.363.234 1.142.137 1.381.214-.416-.185-1.204-.137-1.38M.594 8.484c.214.646.642.601.778.99-.097-.37-.662-.707-.778-.99M1.985 8.785c.282.433.049.929.282 1.239-.33-.31-.155-.885-.282-1.24M1.304 9.97c.34.576 1.041.523 1.323.94-.282-.523-1.148-.612-1.323-.94M2.54 9.9c.603.38.418.78.875 1.204-.574-.425-.525-.894-.875-1.204M2.822 11.44c.584-.017 1.42.673 1.926.62-.505.098-1.44-.522-1.926-.62M3.766 10.82c.039.54 1.557.886 1.722 1.25-.185-.479-1.518-.833-1.722-1.25M5.975 1.622c.116-.478.7-.567.778-.85-.03.301-.72.638-.778.85M7.697.436c-.088.363-.72.566-.808.84.03-.371.681-.584.808-.84M7.2 1.294C7.503.852 8.126.967 8.34.71c-.156.301-.924.31-1.138.584" transform="translate(0.000000, -1.000000) translate(8.237549, 3.236532)"/>
                            <path fill="#F7C608" d="M6.743 2.738c-2.448 0-4.44 1.807-4.44 4.028 0 2.221 1.992 4.028 4.44 4.028 2.449 0 4.44-1.807 4.44-4.028 0-2.22-1.991-4.028-4.44-4.028m0 8.327c-2.597 0-4.71-1.929-4.71-4.299s2.113-4.298 4.71-4.298c2.598 0 4.711 1.928 4.711 4.298s-2.113 4.299-4.71 4.299" transform="translate(0.000000, -1.000000) translate(8.237549, 3.236532)"/>
                            <path fill="#F7C608" d="M5.094 10.62l.017-.05c.01-.035.047-.053.084-.043.09.034.2.072.322.104l-.104.323c-.113-.03-.225-.06-.325-.096-.034-.018-.043-.085-.032-.119m.79.192l-.017.052c-.01.033-.047.051-.087.05-.093-.025-.218-.049-.33-.079l.105-.323c.121.033.245.057.332.07.037.01.057.044.046.078l-.014.042" transform="translate(0.000000, -1.000000) translate(8.237549, 3.236532)"/>
                            <path fill="#006233" d="M5.153 10.656l.012-.036c.008-.025.037-.037.068-.028.076.026.167.057.268.084l-.075.231c-.093-.025-.186-.05-.27-.079-.029-.014-.038-.062-.03-.087m.656.162l-.012.037c-.008.024-.037.036-.07.034-.077-.021-.18-.042-.274-.067l.075-.23c.1.026.204.047.276.06.03.008.048.032.04.057l-.01.03" transform="translate(0.000000, -1.000000) translate(8.237549, 3.236532)"/>
                            <path fill="#F7C608" d="M3.97 10.037L4 9.992c.021-.03.062-.038.094-.019.077.056.17.12.276.183l-.2.283c-.098-.058-.196-.115-.28-.175-.028-.027-.016-.093.005-.123m.698.387l-.031.045c-.021.03-.062.037-.1.026-.082-.048-.193-.103-.292-.16l.2-.283c.107.062.218.117.297.152.033.02.042.056.02.086l-.026.037" transform="translate(0.000000, -1.000000) translate(8.237549, 3.236532)"/>
                            <path fill="#006233" d="M4.015 10.086l.022-.032c.016-.021.047-.025.074-.01.065.046.143.099.231.15l-.143.203c-.081-.048-.163-.095-.234-.144-.024-.022-.018-.07-.003-.092m.58.324l-.023.032c-.015.021-.047.025-.078.014-.068-.04-.16-.086-.242-.134l.143-.202c.089.051.181.098.246.129.027.016.037.043.021.065l-.019.026" transform="translate(0.000000, -1.000000) translate(8.237549, 3.236532)"/>
                            <path fill="#F7C608" d="M3.071 9.188l.044-.034c.03-.024.07-.02.096.006.057.073.126.159.209.246l-.28.22c-.076-.08-.152-.16-.215-.24-.018-.033.014-.093.043-.116m.55.55l-.044.035c-.03.023-.07.02-.103 0-.064-.068-.154-.149-.23-.23l.279-.22c.083.088.173.169.238.223.025.027.022.065-.007.088l-.037.029" transform="translate(0.000000, -1.000000) translate(8.237549, 3.236532)"/>
                            <path fill="#006233" d="M3.1 9.248l.03-.025c.022-.017.054-.013.075.01.048.06.106.13.175.203l-.2.157c-.064-.067-.127-.133-.18-.199-.016-.026.004-.072.026-.088m.455.459l-.031.025c-.022.017-.053.012-.08-.006-.052-.056-.126-.124-.19-.19l.2-.158c.069.072.143.14.196.186.021.022.022.051 0 .068l-.026.02" transform="translate(0.000000, -1.000000) translate(8.237549, 3.236532)"/>
                            <path fill="#F7C608" d="M2.471 8.144l.053-.022c.036-.014.075-.001.09.031.032.084.072.184.125.29l-.337.139c-.048-.097-.097-.193-.132-.286-.008-.035.042-.086.078-.1m.357.669l-.053.022c-.035.015-.074.002-.1-.027-.04-.08-.101-.181-.15-.278l.337-.14c.052.105.114.206.159.275.016.032.002.067-.034.082l-.044.018" transform="translate(0.000000, -1.000000) translate(8.237549, 3.236532)"/>
                            <path fill="#006233" d="M2.48 8.208l.038-.015c.026-.01.054.001.068.028.027.07.061.153.105.24l-.24.1c-.04-.08-.081-.161-.112-.237-.007-.03.027-.068.053-.079m.294.558l-.038.016c-.025.01-.054-.002-.073-.026-.034-.067-.084-.152-.124-.232l.24-.1c.044.087.094.171.13.229.014.027.005.055-.02.065l-.032.013" transform="translate(0.000000, -1.000000) translate(8.237549, 3.236532)"/>
                            <path fill="#F7C608" d="M2.22 6.989l.057-.008c.039-.005.072.018.077.053.004.089.011.195.03.31l-.366.047c-.017-.105-.034-.21-.04-.308.005-.036.068-.071.107-.076m.135.733l-.057.008c-.039.005-.072-.018-.087-.051-.014-.088-.042-.2-.058-.306l.365-.048c.019.114.046.227.068.304.006.035-.019.066-.057.07l-.048.007" transform="translate(0.000000, -1.000000) translate(8.237549, 3.236532)"/>
                            <path fill="#006233" d="M2.208 7.053l.041-.006c.028-.003.052.016.056.045.005.074.012.162.027.257l-.262.034c-.013-.087-.027-.175-.033-.256.002-.03.047-.058.075-.062m.11.61l-.041.006c-.028.004-.052-.015-.063-.044-.012-.073-.034-.166-.048-.254l.262-.034c.015.095.037.188.054.253.005.03-.012.054-.04.057l-.034.005" transform="translate(0.000000, -1.000000) translate(8.237549, 3.236532)"/>
                            <path fill="#F7C608" d="M2.335 5.816l.058.007c.039.005.063.035.058.07-.023.086-.05.19-.068.304l-.365-.047c.016-.106.033-.21.057-.306.016-.034.087-.051.126-.046m-.097.739l-.058-.008c-.038-.005-.063-.035-.067-.071.013-.088.022-.203.039-.308l.365.047c-.018.114-.026.23-.029.31-.005.035-.038.057-.077.052l-.048-.006" transform="translate(0.000000, -1.000000) translate(8.237549, 3.236532)"/>
                            <path fill="#006233" d="M2.305 5.874l.041.005c.028.004.045.028.04.057-.018.072-.039.159-.054.254l-.261-.035c.013-.087.027-.174.047-.254.01-.028.062-.044.09-.04m-.083.614l-.041-.005c-.028-.004-.045-.028-.047-.058.012-.073.02-.169.034-.257l.261.035c-.015.094-.023.19-.026.257-.005.029-.029.048-.056.044l-.035-.004" transform="translate(0.000000, -1.000000) translate(8.237549, 3.236532)"/>
                            <path fill="#F7C608" d="M2.81 4.72l.053.022c.035.015.05.05.034.082-.05.077-.107.17-.16.275l-.336-.14c.049-.097.097-.193.15-.278.026-.029.1-.027.135-.012m-.321.684L2.31 5.33c-.035-.015-.05-.05-.042-.086.04-.08.084-.19.132-.286l.337.14c-.053.104-.096.213-.124.29-.016.031-.055.044-.09.03L2.48 5.4" transform="translate(0.000000, -1.000000) translate(8.237549, 3.236532)"/>
                            <path fill="#006233" d="M2.762 4.768l.038.016c.026.01.035.038.021.065-.04.064-.086.142-.13.23l-.24-.1c.04-.081.08-.161.123-.233.02-.024.074-.025.1-.015m-.27.568l-.038-.016c-.025-.01-.034-.038-.027-.067.034-.067.071-.157.111-.238l.241.1c-.043.087-.081.177-.105.24-.013.027-.042.04-.068.029l-.031-.014" transform="translate(0.000000, -1.000000) translate(8.237549, 3.236532)"/>
                            <path fill="#F7C608" d="M3.604 3.79l.045.034c.029.023.032.06.006.087-.07.062-.155.136-.237.223l-.28-.22c.077-.08.153-.16.23-.228.033-.021.104-.001.133.022m-.52.574l-.044-.035c-.03-.023-.032-.06-.014-.093.063-.067.139-.16.215-.24l.28.22c-.083.087-.158.18-.209.246-.025.027-.066.03-.096.006l-.036-.029" transform="translate(0.000000, -1.000000) translate(8.237549, 3.236532)"/>
                            <path fill="#006233" d="M3.544 3.823l.031.025c.022.017.021.046 0 .068-.058.052-.127.114-.195.187l-.2-.158c.063-.067.127-.133.19-.19.026-.019.08-.007.1.01m-.434.476l-.032-.025c-.021-.017-.02-.046-.005-.072.053-.056.117-.132.18-.199l.2.158c-.068.072-.132.148-.175.203-.02.022-.052.026-.073.01l-.027-.021" transform="translate(0.000000, -1.000000) translate(8.237549, 3.236532)"/>
                            <path fill="#F7C608" d="M4.655 3.1l.031.045c.021.03.012.067-.02.086-.087.04-.19.09-.297.152l-.2-.282c.098-.058.196-.115.291-.16.038-.012.1.025.12.055m-.676.418l-.032-.045c-.02-.03-.012-.066.016-.093.081-.048.182-.118.28-.175l.2.282c-.106.063-.207.132-.275.183-.033.02-.073.011-.094-.018l-.027-.038" transform="translate(0.000000, -1.000000) translate(8.237549, 3.236532)"/>
                            <path fill="#006233" d="M4.586 3.117l.023.032c.015.022.006.05-.022.065-.071.035-.157.078-.245.13l-.143-.203c.081-.048.163-.096.242-.134.03-.01.077.014.093.036m-.565.345l-.023-.032c-.015-.021-.005-.049.018-.07.068-.04.153-.097.235-.145l.143.202c-.089.052-.173.11-.231.15-.027.016-.059.013-.074-.009l-.019-.027" transform="translate(0.000000, -1.000000) translate(8.237549, 3.236532)"/>
                            <path fill="#F7C608" d="M5.875 2.709l.017.05c.011.035-.009.068-.046.078-.096.016-.211.038-.332.07l-.105-.322c.112-.03.224-.06.33-.08.04 0 .087.051.098.085m-.779.227l-.016-.05c-.011-.035.009-.068.043-.086.094-.025.212-.066.324-.096l.105.322c-.122.033-.24.074-.322.105-.037.01-.073-.008-.084-.042l-.014-.043" transform="translate(0.000000, -1.000000) translate(8.237549, 3.236532)"/>
                            <path fill="#006233" d="M5.805 2.708l.011.036c.008.025-.01.049-.04.057-.08.015-.175.034-.276.061l-.074-.23c.093-.026.186-.05.273-.068.033-.002.07.034.078.059m-.648.186l-.012-.036c-.008-.025.01-.049.039-.063.077-.021.176-.054.27-.079l.074.231c-.1.027-.2.06-.268.085-.03.008-.06-.004-.068-.028l-.01-.03" transform="translate(0.000000, -1.000000) translate(8.237549, 3.236532)"/>
                            <path fill="#F7C608" d="M7.168 2.647V2.7c0 .035-.029.062-.068.062-.097-.009-.214-.018-.34-.018v-.336c.116 0 .233 0 .34.009.039.009.068.07.068.106m-.817.018v-.053c0-.035.029-.062.068-.07.097 0 .224-.01.34-.01v.336c-.126 0-.252.01-.34.018-.039 0-.068-.026-.068-.062v-.044" transform="translate(0.000000, -1.000000) translate(8.237549, 3.236532)"/>
                            <path fill="#006233" d="M7.1 2.627v.038c0 .026-.024.045-.056.045-.081-.007-.178-.013-.283-.013v-.24c.097 0 .194 0 .283.006.032.006.057.05.057.076m-.68.013v-.038c0-.026.024-.045.056-.05.081 0 .186-.007.283-.007v.24c-.105 0-.21.007-.283.013-.032 0-.056-.019-.056-.044v-.032" transform="translate(0.000000, -1.000000) translate(8.237549, 3.236532)"/>
                            <path fill="#F7C608" d="M8.343 2.906l-.016.051c-.01.034-.046.052-.084.043-.09-.033-.2-.07-.322-.102l.1-.324c.113.03.226.058.326.094.035.018.044.085.034.119M7.589 2.6l.016-.052c.01-.034.046-.052.087-.05.093.023.218.046.33.075l-.101.324c-.122-.031-.246-.055-.333-.068-.037-.01-.058-.042-.047-.076l.013-.043" transform="translate(0.000000, -1.000000) translate(8.237549, 3.236532)"/>
                            <path fill="#006233" d="M8.284 2.87l-.011.037c-.008.025-.037.036-.068.028-.076-.026-.168-.056-.269-.082l.072-.231c.094.024.187.048.271.076.03.014.04.063.032.087m-.658-.157l.011-.036c.008-.025.037-.037.07-.035.078.02.181.04.274.065l-.072.231c-.101-.026-.204-.046-.276-.058-.031-.009-.049-.032-.041-.057l.01-.03" transform="translate(0.000000, -1.000000) translate(8.237549, 3.236532)"/>
                            <path fill="#F7C608" d="M9.474 3.48l-.032.046c-.02.03-.06.038-.094.019-.077-.055-.17-.119-.277-.18l.197-.285c.099.057.197.113.283.173.027.026.016.093-.005.123m-.702-.382l.031-.045c.021-.03.061-.038.1-.027.082.048.194.102.293.158l-.197.285c-.107-.062-.22-.116-.299-.15-.033-.02-.042-.056-.021-.086l.026-.037" transform="translate(0.000000, -1.000000) translate(8.237549, 3.236532)"/>
                            <path fill="#006233" d="M9.428 3.431l-.023.032c-.015.022-.046.026-.073.01-.065-.044-.144-.096-.233-.148l.141-.203c.082.047.164.094.236.143.024.02.019.07.004.092m-.583-.32l.023-.032c.014-.022.046-.026.077-.015.068.039.161.085.243.132l-.14.203c-.09-.05-.182-.096-.248-.127-.027-.015-.037-.043-.022-.064l.019-.027" transform="translate(0.000000, -1.000000) translate(8.237549, 3.236532)"/>
                            <path fill="#F7C608" d="M10.38 4.321l-.044.036c-.03.023-.07.02-.096-.006-.057-.072-.127-.158-.21-.244l.276-.223c.078.08.155.16.219.239.018.032-.014.093-.043.117m-.555-.547l.043-.035c.03-.023.07-.02.104 0 .064.066.155.147.232.226l-.277.223c-.083-.086-.174-.167-.24-.22-.025-.027-.023-.065.006-.088l.037-.03" transform="translate(0.000000, -1.000000) translate(8.237549, 3.236532)"/>
                            <path fill="#006233" d="M10.351 4.262l-.031.026c-.021.017-.053.012-.074-.01-.048-.06-.108-.13-.177-.201l.198-.16c.064.067.129.133.182.198.017.026-.004.072-.025.089m-.46-.456l.032-.025c.02-.017.052-.013.079.005.053.056.128.123.192.19l-.198.159c-.07-.072-.145-.14-.198-.185-.021-.022-.022-.051 0-.068l.025-.021" transform="translate(0.000000, -1.000000) translate(8.237549, 3.236532)"/>
                            <path fill="#F7C608" d="M10.99 5.36l-.054.023c-.035.015-.074.002-.09-.03-.032-.084-.073-.183-.127-.288l.335-.142c.05.096.099.192.136.284.007.036-.042.086-.077.101m-.364-.666l.053-.022c.035-.015.074-.003.099.026.041.08.104.18.153.277l-.335.142c-.053-.104-.116-.205-.162-.273-.016-.032-.002-.068.033-.082l.044-.02" transform="translate(0.000000, -1.000000) translate(8.237549, 3.236532)"/>
                            <path fill="#006233" d="M10.98 5.297l-.038.016c-.025.01-.054-.001-.068-.028-.028-.07-.063-.152-.108-.239l.24-.102c.041.08.082.16.114.236.007.03-.026.068-.052.08m-.3-.556l.038-.016c.025-.01.054.001.074.025.034.067.085.151.126.231l-.24.102c-.044-.086-.095-.17-.132-.228-.014-.027-.005-.054.02-.065l.032-.014" transform="translate(0.000000, -1.000000) translate(8.237549, 3.236532)"/>
                            <path fill="#F7C608" d="M11.252 6.514l-.057.008c-.039.005-.072-.017-.078-.052-.005-.089-.013-.195-.032-.309l.365-.05c.018.104.035.21.042.307-.004.036-.067.072-.105.077m-.143-.732l.058-.008c.038-.006.071.017.087.05.014.088.043.2.061.305l-.365.051c-.02-.114-.048-.226-.071-.304-.006-.035.019-.065.057-.07l.048-.007" transform="translate(0.000000, -1.000000) translate(8.237549, 3.236532)"/>
                            <path fill="#006233" d="M11.263 6.45l-.041.006c-.028.004-.052-.015-.057-.044-.005-.074-.013-.162-.03-.257l.262-.036c.015.087.03.174.036.255-.002.03-.046.059-.074.063m-.116-.61l.041-.006c.028-.003.052.016.064.044.012.073.035.166.05.254l-.262.036c-.016-.095-.039-.188-.057-.253-.004-.029.012-.054.04-.057l.035-.005" transform="translate(0.000000, -1.000000) translate(8.237549, 3.236532)"/>
                            <path fill="#F7C608" d="M11.147 7.688l-.057-.007c-.039-.005-.064-.034-.059-.07.023-.086.048-.19.065-.304l.366.044c-.015.106-.031.211-.055.306-.015.034-.086.053-.125.048m.09-.74l.058.007c.039.005.064.035.068.071-.013.088-.02.203-.036.308l-.366-.044c.017-.114.024-.23.026-.31.005-.035.038-.058.077-.053l.048.006" transform="translate(0.000000, -1.000000) translate(8.237549, 3.236532)"/>
                            <path fill="#006233" d="M11.178 7.63l-.042-.005c-.028-.004-.045-.028-.04-.057.017-.072.037-.16.05-.254l.263.032c-.013.088-.026.175-.044.255-.012.028-.063.044-.09.04m.076-.614l.042.005c.028.003.045.028.047.058-.01.073-.018.168-.031.256l-.262-.032c.014-.095.021-.19.024-.257.004-.03.028-.049.056-.045l.034.004" transform="translate(0.000000, -1.000000) translate(8.237549, 3.236532)"/>
                            <path fill="#F7C608" d="M10.684 8.788l-.053-.022c-.036-.014-.05-.05-.035-.082.049-.077.105-.17.157-.275l.337.136c-.047.097-.095.195-.147.28-.025.029-.099.028-.135.013m.315-.686l.054.021c.035.015.05.05.043.086-.04.08-.082.19-.13.286l-.337-.136c.051-.105.094-.214.12-.29.016-.033.055-.046.09-.032l.045.018" transform="translate(0.000000, -1.000000) translate(8.237549, 3.236532)"/>
                            <path fill="#006233" d="M10.731 8.74l-.038-.016c-.026-.01-.035-.038-.021-.065.039-.065.084-.143.127-.23l.242.098c-.04.08-.08.161-.122.232-.019.025-.073.027-.099.017m.264-.57l.038.015c.026.01.035.038.028.068-.033.067-.07.157-.109.238l-.242-.098c.043-.088.08-.178.103-.24.013-.028.042-.04.068-.03l.032.013" transform="translate(0.000000, -1.000000) translate(8.237549, 3.236532)"/>
                            <path fill="#F7C608" d="M9.898 9.724l-.044-.034c-.03-.023-.033-.06-.008-.088.07-.061.153-.137.235-.224l.282.218c-.076.08-.151.162-.228.23-.033.021-.103.001-.133-.022m.515-.577l.044.034c.03.023.033.06.015.093-.063.068-.137.16-.213.242l-.282-.218c.082-.088.157-.181.206-.248.026-.027.067-.03.096-.007l.037.029" transform="translate(0.000000, -1.000000) translate(8.237549, 3.236532)"/>
                            <path fill="#006233" d="M9.958 9.69l-.032-.025c-.021-.016-.02-.045 0-.068.058-.052.126-.115.194-.188l.201.156c-.062.067-.125.135-.188.192-.026.019-.08.007-.1-.01m.43-.479l.031.025c.022.016.022.045.006.072-.053.056-.116.133-.179.2l-.201-.156c.068-.073.131-.15.173-.204.021-.023.052-.027.074-.01l.027.02" transform="translate(0.000000, -1.000000) translate(8.237549, 3.236532)"/>
                            <path fill="#F7C608" d="M8.855 10.421l-.032-.044c-.022-.03-.013-.067.02-.086.086-.041.189-.092.295-.155l.202.281c-.097.058-.195.117-.29.163-.038.012-.1-.026-.12-.055m.672-.423l.032.045c.021.03.013.066-.014.093-.082.048-.182.119-.28.177l-.202-.281c.105-.063.206-.134.274-.185.032-.02.073-.012.094.018l.027.037" transform="translate(0.000000, -1.000000) translate(8.237549, 3.236532)"/>
                            <path fill="#006233" d="M8.923 10.404l-.023-.032c-.016-.021-.007-.05.02-.065.072-.035.157-.079.245-.131l.145.201c-.081.049-.162.097-.24.136-.031.011-.078-.014-.094-.035m.561-.35l.023.032c.016.022.006.05-.017.07-.067.04-.152.099-.233.147l-.145-.201c.088-.053.172-.11.23-.152.026-.016.058-.013.073.009l.02.026" transform="translate(0.000000, -1.000000) translate(8.237549, 3.236532)"/>
                            <path fill="#F7C608" d="M7.638 10.823l-.018-.051c-.01-.034.009-.067.046-.078.096-.017.21-.04.331-.073l.108.322c-.112.031-.224.062-.329.082-.04.002-.088-.05-.099-.084m.777-.233l.017.05c.01.035-.009.068-.043.087-.093.025-.211.067-.323.098l-.108-.322c.121-.033.24-.075.32-.107.038-.01.074.008.086.041l.014.043" transform="translate(0.000000, -1.000000) translate(8.237549, 3.236532)"/>
                            <path fill="#006233" d="M7.708 10.823l-.012-.036c-.008-.025.01-.049.04-.057.08-.016.175-.036.275-.063l.077.23c-.093.026-.186.051-.273.069-.033.002-.07-.034-.078-.058m.646-.192l.012.037c.009.024-.009.048-.038.063-.077.022-.176.055-.269.08l-.077-.23c.1-.027.2-.061.267-.086.031-.009.06.003.069.027l.01.03" transform="translate(0.000000, -1.000000) translate(8.237549, 3.236532)"/>
                            <path fill="#F7C608" d="M6.345 10.896v-.053c0-.035.028-.062.067-.062.098.008.214.015.341.014l.003.337c-.116 0-.233.002-.34-.006-.04-.009-.069-.07-.07-.106m.818-.025v.054c0 .035-.028.062-.067.07-.097.002-.224.012-.34.013l-.004-.337c.126 0 .253-.01.34-.02.04 0 .069.026.07.061v.044" transform="translate(0.000000, -1.000000) translate(8.237549, 3.236532)"/>
                            <path fill="#006233" d="M6.413 10.915v-.038c0-.026.024-.044.056-.045.08.006.178.011.283.01l.003.24c-.097.002-.194.003-.284-.003-.032-.006-.057-.05-.057-.075m.68-.019v.038c0 .026-.024.045-.056.051-.081.001-.186.008-.283.009l-.003-.24c.105-.002.21-.009.283-.016.033 0 .057.018.057.044v.032" transform="translate(0.000000, -1.000000) translate(8.237549, 3.236532)"/>
                        </g>
                    </g>
                </g>
            </g>
        </g>
    </g>
</svg>
