<svg xmlns="http://www.w3.org/2000/svg" xmlns:xlink="http://www.w3.org/1999/xlink" width="32" height="20" viewBox="0 0 32 20">
    <defs>
        <rect id="5sk8j7xg5a" width="30" height="18" x="0" y="0" rx="3"/>
    </defs>
    <g fill="none" fill-rule="evenodd">
        <g>
            <g transform="translate(-25.000000, -744.000000) translate(26.000000, 745.000000)">
                <mask id="7fzkbjcntb" fill="#fff">
                    <use xlink:href="#5sk8j7xg5a"/>
                </mask>
                <rect width="30.5" height="18.5" x="-.25" y="-.25" stroke="#7E919F" stroke-opacity=".497" stroke-width=".5" rx="3"/>
                <g fill-rule="nonzero" mask="url(#7fzkbjcntb)">
                    <path fill="#CE1720" d="M0 0H36V18.225H0z"/>
                    <path fill="#FFF" d="M0.2 0L4.2 0 4.2 18.225 0.2 18.225z"/>
                    <g fill="#CE1720">
                        <path d="M2.248 0v.66h-.176V0h.176zM0 1.154h.316V.891h.16v-.32H.7v-.28h.184V0h.556v.292h.18V.57h.224v.32h.16v.263h.244v.41h-.244v.263h-.16v.32H1.62v.279h-.18v.3h-.128v.25h-.3v-.25H.884v-.3H.7v-.28H.476v-.32h-.16v-.263H0M0 .138h.316v.364H0m1.24.11h-.164v.247H.92v.311H.768v.385H.92v.312h.156v.243h.164v-.243h.156v-.312h.156V1.17h-.156V.86H1.24V.612zm.016.563v.364H1.06v-.364h.196zM0 2.13h.316v.393H0m2.248-.356v.555h-.176v-.555h.176zm-.432.615v.276h.192v.283h.24v.373h-.24V4h-.192v.276h-.224V4H1.4v-.287h-.16V3.34h.16v-.283h.192v-.276h.224zM0 3.342h.316v-.284h.192v-.276h.22v.276H.92v.283h.16v.373H.92V4H.728v.276h-.22V4H.316v-.287H0m1.788-.365h-.164v.353h.164v-.353zm-1.084 0H.54v.353h.164v-.353zm.064 5.836v-.19H.632v-.287h-.18v-.175H.316v-.28H0v-.647h.316v.186h.136v.272h.18v.324h.256v-.292h.188v-.215h.136v-.255h.18v-.271h.132v-.276h.128v-.283h.172v-.38h-.228V6.07h-.248v-.207H.932v.3h.24v.271h-.16v.333H.824v.291H.588v-.291H.392v-.333h-.12v-.27H0V5.65h.316v-.332h.12v-.255h.112V4.77h.16v-.288h.156v-.19h.188v-.288h.228v.288h.188v.19h.16v.288h.156v.292h.128v.25h.128v.22h.208V7.14h-.236v.272h-.068v.283h-.176v.275H1.66v.203h-.112v.215h-.192v.21H1.08v.587m1.168-4.912v.555h-.176v-.555h.176zM0 4.378h.316v.393H0m0 1.968h.316v.393H0v-.393zm2.24.997v.356h-.168v-.357h.168zm-.232 1.45v-.223h-.104v-.174h-.152v-.523h.152v.21h.16v.308h.176v.397m-.856 0v-.259h.168v.26" transform="translate(0.040000, 0.000000)"/>
                        <g>
                            <path d="M2.248 0v.66h-.176V0h.176zM0 1.154h.316V.891h.16v-.32H.7v-.28h.184V0h.556v.292h.18V.57h.224v.32h.16v.263h.244v.41h-.244v.263h-.16v.32H1.62v.279h-.18v.3h-.128v.25h-.3v-.25H.884v-.3H.7v-.28H.476v-.32h-.16v-.263H0M0 .138h.316v.364H0m1.24.11h-.164v.247H.92v.311H.768v.385H.92v.312h.156v.243h.164v-.243h.156v-.312h.156V1.17h-.156V.86H1.24V.612zm.016.563v.364H1.06v-.364h.196zM0 2.13h.316v.393H0m2.248-.356v.555h-.176v-.555h.176zm-.432.615v.276h.192v.283h.24v.373h-.24V4h-.192v.276h-.224V4H1.4v-.287h-.16V3.34h.16v-.283h.192v-.276h.224zM0 3.342h.316v-.284h.192v-.276h.22v.276H.92v.283h.16v.373H.92V4H.728v.276h-.22V4H.316v-.287H0m1.788-.365h-.164v.353h.164v-.353zm-1.084 0H.54v.353h.164v-.353zm.064 5.836v-.19H.632v-.287h-.18v-.175H.316v-.28H0v-.647h.316v.186h.136v.272h.18v.324h.256v-.292h.188v-.215h.136v-.255h.18v-.271h.132v-.276h.128v-.283h.172v-.38h-.228V6.07h-.248v-.207H.932v.3h.24v.271h-.16v.333H.824v.291H.588v-.291H.392v-.333h-.12v-.27H0V5.65h.316v-.332h.12v-.255h.112V4.77h.16v-.288h.156v-.19h.188v-.288h.228v.288h.188v.19h.16v.288h.156v.292h.128v.25h.128v.22h.208V7.14h-.236v.272h-.068v.283h-.176v.275H1.66v.203h-.112v.215h-.192v.21H1.08v.587m1.168-4.912v.555h-.176v-.555h.176zM0 4.378h.316v.393H0m0 1.968h.316v.393H0v-.393zm2.24.997v.356h-.168v-.357h.168zm-.232 1.45v-.223h-.104v-.174h-.152v-.523h.152v.21h.16v.308h.176v.397m-.856 0v-.259h.168v.26" transform="translate(0.040000, 0.000000) translate(3.196000, 4.592700) scale(-1, 1) translate(-3.196000, -4.592700) translate(2.072000, 0.000000)"/>
                        </g>
                    </g>
                    <g fill="#CE1720">
                        <path d="M2.248 0v.66h-.176V0h.176zM0 1.154h.316V.891h.16v-.32H.7v-.28h.184V0h.556v.292h.18V.57h.224v.32h.16v.263h.244v.41h-.244v.263h-.16v.32H1.62v.279h-.18v.3h-.128v.25h-.3v-.25H.884v-.3H.7v-.28H.476v-.32h-.16v-.263H0M0 .138h.316v.364H0m1.24.11h-.164v.247H.92v.311H.768v.385H.92v.312h.156v.243h.164v-.243h.156v-.312h.156V1.17h-.156V.86H1.24V.612zm.016.563v.364H1.06v-.364h.196zM0 2.13h.316v.393H0m2.248-.356v.555h-.176v-.555h.176zm-.432.615v.276h.192v.283h.24v.373h-.24V4h-.192v.276h-.224V4H1.4v-.287h-.16V3.34h.16v-.283h.192v-.276h.224zM0 3.342h.316v-.284h.192v-.276h.22v.276H.92v.283h.16v.373H.92V4H.728v.276h-.22V4H.316v-.287H0m1.788-.365h-.164v.353h.164v-.353zm-1.084 0H.54v.353h.164v-.353zm.064 5.836v-.19H.632v-.287h-.18v-.175H.316v-.28H0v-.647h.316v.186h.136v.272h.18v.324h.256v-.292h.188v-.215h.136v-.255h.18v-.271h.132v-.276h.128v-.283h.172v-.38h-.228V6.07h-.248v-.207H.932v.3h.24v.271h-.16v.333H.824v.291H.588v-.291H.392v-.333h-.12v-.27H0V5.65h.316v-.332h.12v-.255h.112V4.77h.16v-.288h.156v-.19h.188v-.288h.228v.288h.188v.19h.16v.288h.156v.292h.128v.25h.128v.22h.208V7.14h-.236v.272h-.068v.283h-.176v.275H1.66v.203h-.112v.215h-.192v.21H1.08v.587m1.168-4.912v.555h-.176v-.555h.176zM0 4.378h.316v.393H0m0 1.968h.316v.393H0v-.393zm2.24.997v.356h-.168v-.357h.168zm-.232 1.45v-.223h-.104v-.174h-.152v-.523h.152v.21h.16v.308h.176v.397m-.856 0v-.259h.168v.26" transform="translate(2.200000, 13.632300) scale(-1, 1) rotate(-180.000000) translate(-2.200000, -13.632300) translate(0.040000, 9.039600)"/>
                        <g>
                            <path d="M2.248 0v.66h-.176V0h.176zM0 1.154h.316V.891h.16v-.32H.7v-.28h.184V0h.556v.292h.18V.57h.224v.32h.16v.263h.244v.41h-.244v.263h-.16v.32H1.62v.279h-.18v.3h-.128v.25h-.3v-.25H.884v-.3H.7v-.28H.476v-.32h-.16v-.263H0M0 .138h.316v.364H0m1.24.11h-.164v.247H.92v.311H.768v.385H.92v.312h.156v.243h.164v-.243h.156v-.312h.156V1.17h-.156V.86H1.24V.612zm.016.563v.364H1.06v-.364h.196zM0 2.13h.316v.393H0m2.248-.356v.555h-.176v-.555h.176zm-.432.615v.276h.192v.283h.24v.373h-.24V4h-.192v.276h-.224V4H1.4v-.287h-.16V3.34h.16v-.283h.192v-.276h.224zM0 3.342h.316v-.284h.192v-.276h.22v.276H.92v.283h.16v.373H.92V4H.728v.276h-.22V4H.316v-.287H0m1.788-.365h-.164v.353h.164v-.353zm-1.084 0H.54v.353h.164v-.353zm.064 5.836v-.19H.632v-.287h-.18v-.175H.316v-.28H0v-.647h.316v.186h.136v.272h.18v.324h.256v-.292h.188v-.215h.136v-.255h.18v-.271h.132v-.276h.128v-.283h.172v-.38h-.228V6.07h-.248v-.207H.932v.3h.24v.271h-.16v.333H.824v.291H.588v-.291H.392v-.333h-.12v-.27H0V5.65h.316v-.332h.12v-.255h.112V4.77h.16v-.288h.156v-.19h.188v-.288h.228v.288h.188v.19h.16v.288h.156v.292h.128v.25h.128v.22h.208V7.14h-.236v.272h-.068v.283h-.176v.275H1.66v.203h-.112v.215h-.192v.21H1.08v.587m1.168-4.912v.555h-.176v-.555h.176zM0 4.378h.316v.393H0m0 1.968h.316v.393H0v-.393zm2.24.997v.356h-.168v-.357h.168zm-.232 1.45v-.223h-.104v-.174h-.152v-.523h.152v.21h.16v.308h.176v.397m-.856 0v-.259h.168v.26" transform="translate(2.200000, 13.632300) scale(-1, 1) rotate(-180.000000) translate(-2.200000, -13.632300) translate(0.040000, 9.039600) translate(3.196000, 4.592700) scale(-1, 1) translate(-3.196000, -4.592700) translate(2.072000, 0.000000)"/>
                        </g>
                    </g>
                    <path fill="#007C30" d="M4.2 12.15L36 12.15 36 18.225 4.2 18.225z"/>
                </g>
            </g>
        </g>
    </g>
</svg>
