<svg xmlns="http://www.w3.org/2000/svg" xmlns:xlink="http://www.w3.org/1999/xlink" width="54" height="32" viewBox="0 0 54 32">
    <defs>
        <rect id="prefix__a" width="54" height="32" x="0" y="0" rx="9"/>
    </defs>
    <g fill="none" fill-rule="evenodd">
        <mask id="prefix__b" fill="#fff">
            <use xlink:href="#prefix__a"/>
        </mask>
        <use fill="#D8D8D8" xlink:href="#prefix__a"/>
        <g mask="url(#prefix__b)">
            <path fill="#250392" d="M0 31.677L54.295 31.677 54.295 0 0 0z"/>
            <path fill="#F5CC28" d="M12.261 0L43.933 31.677 43.933 0z"/>
            <path fill="#FFF" d="M5.464 0L4.793 2.079 6.562.791 8.33 2.079 7.657 0zM37.56 30.381L35.368 30.381 37.135 31.677 38.232 31.677 39.333 31.677 41.095 30.381 38.906 30.381 38.232 28.303zM9.843 2.673L7.658 2.673 9.429 3.962 8.751 6.034 10.521 4.752 12.289 6.034 11.613 3.962 13.384 2.673 11.194 2.673 10.521.599zM14.477 8.714L16.248 10.003 15.574 7.918 17.342 6.635 15.155 6.635 14.477 4.557 13.805 6.635 11.618 6.635 13.387 7.918 12.712 10.003zM18.437 12.67L20.205 13.959 19.531 11.88 21.3 10.597 19.113 10.597 18.437 8.512 17.763 10.597 15.576 10.597 17.347 11.88 16.669 13.959zM22.399 16.632L24.167 17.914 23.491 15.836 25.259 14.553 23.072 14.553 22.399 12.474 21.72 14.553 19.536 14.553 21.304 15.836 20.629 17.914zM26.355 20.587L28.125 21.876 27.45 19.798 29.218 18.508 27.031 18.508 26.355 16.436 25.682 18.508 23.493 18.508 25.261 19.798 24.587 21.876zM30.315 24.543L32.08 25.832 31.409 23.753 33.178 22.471 30.991 22.471 30.315 20.392 29.637 22.471 27.454 22.471 29.223 23.753 28.547 25.832zM34.274 28.511L36.042 29.787 35.366 27.709 37.136 26.426 34.949 26.426 34.274 24.354 33.598 26.426 31.411 26.426 33.182 27.709 32.506 29.787z"/>
        </g>
    </g>
</svg>
