<svg xmlns="http://www.w3.org/2000/svg" xmlns:xlink="http://www.w3.org/1999/xlink" width="66" height="40" viewBox="0 0 66 40">
    <defs>
        <rect id="prefix__a" width="66" height="40" x="0" y="0" rx="9"/>
    </defs>
    <g fill="none" fill-rule="evenodd">
        <mask id="prefix__b" fill="#fff">
            <use xlink:href="#prefix__a"/>
        </mask>
        <use fill="#D8D8D8" xlink:href="#prefix__a"/>
        <g mask="url(#prefix__b)">
            <path fill="#2E4593" d="M0.055 0.093L0.055 41.32 65.806 41.32 65.812 41.314 65.812 0.093z"/>
            <path fill="#FCF5FF" d="M0.055 0.093L0.055 4.39 16.335 14.592 19.559 16.61 26.726 21.111 27.469 21.575 27.961 21.887 29.487 22.84 30.248 23.312 31.153 23.884 33.578 25.4 34.377 25.902 36.76 27.4 38.782 28.667 58.962 41.32 65.806 41.32 65.812 41.314 65.812 37.019 48.077 25.902 44.856 23.884 40.429 21.111 38.782 20.081 37.092 19.024 36.76 18.812 34.813 17.591 33.578 16.816 33.254 16.61 30.03 14.592 29.487 14.256 27.469 12.985 6.898 0.093 0.241 0.093 0.112 0.012z"/>
            <path fill="#F42525" d="M0.055 0L0.055 2.829 18.816 14.593 22.032 16.611 27.469 20.022 27.961 20.328 29.206 21.111 29.487 21.293 31.483 22.536 33.633 23.882 34.813 24.627 36.76 25.849 36.849 25.902 38.782 27.12 61.434 41.32 65.834 41.344 65.82 41.192 41.405 25.902 38.782 24.258 38.187 23.882 37.092 23.2 36.76 22.989 33.762 21.111 31.483 19.682 30.248 18.907 29.487 18.433 27.469 17.162 26.587 16.611 23.372 14.593 0.241 0.093 0.112 0.01z"/>
            <path fill="#FCF5FF" d="M60.254 0.093L38.782 13.553 37.123 14.592 36.76 14.82 33.9 16.61 33.578 16.816 30.247 18.907 29.488 19.375 27.961 20.328 27.468 20.646 26.725 21.111 22.298 23.884 19.082 25.902 0.055 37.832 0.055 41.32 8.182 41.32 27.468 29.234 29.488 27.963 32.777 25.902 33.578 25.4 34.813 24.629 36.001 23.884 36.76 23.407 37.092 23.2 38.782 22.138 40.428 21.111 47.601 16.61 50.818 14.592 65.814 5.196 65.814 0.907 65.296 0.093z"/>
            <path fill="#F42525" d="M65.005 0.093L62.719 0.093 39.596 14.592 38.782 15.1 36.76 16.371 36.372 16.61 34.813 17.591 31.484 19.684 29.488 20.927 29.206 21.111 27.96 21.887 27.468 22.196 24.776 23.884 21.555 25.902 0.055 39.391 0.055 41.32 1.535 41.32 26.112 25.902 27.468 25.058 29.334 23.884 29.488 23.787 30.247 23.312 31.484 22.536 33.761 21.111 36.76 19.231 37.092 19.024 38.782 17.96 40.928 16.61 44.152 14.592 65.642 1.119 65.82 0.996 65.814 0.093z"/>
            <path fill="#FFF" d="M0 25.902L65.844 25.902 65.844 14.592 0 14.592z"/>
            <path fill="#F42525" d="M0 23.884L65.844 23.884 65.844 16.612 0 16.612z"/>
            <path fill="#CD002A" d="M29.487 41.32L36.758 41.32 36.758 0.093 29.487 0.093z"/>
            <path fill="#FFF" d="M27.453 0.093L27.453 14.592 29.471 14.592 29.471 25.902 27.453 25.902 27.453 41.32 38.764 41.32 38.764 25.902 36.744 25.902 36.744 14.592 38.764 14.592 38.764 0.093z"/>
            <path fill="#F42525" d="M29.434 41.32L36.78 41.32 36.78 0.093 29.434 0.093z"/>
        </g>
    </g>
</svg>
