<svg xmlns="http://www.w3.org/2000/svg" xmlns:xlink="http://www.w3.org/1999/xlink" width="32" height="20" viewBox="0 0 32 20">
    <defs>
        <rect id="er67tlio8a" width="30" height="18" x="0" y="0" rx="3"/>
        <path id="qmh2morvgc" d="M0 18.301L30.711 18.301 30.711 0.386 0 0.386z"/>
    </defs>
    <g fill="none" fill-rule="evenodd">
        <g>
            <g transform="translate(-757.000000, -313.000000) translate(758.000000, 314.000000)">
                <mask id="tu7d10mddb" fill="#fff">
                    <use xlink:href="#er67tlio8a"/>
                </mask>
                <rect width="30.5" height="18.5" x="-.25" y="-.25" stroke="#7E919F" stroke-opacity=".497" stroke-width=".5" rx="3"/>
                <g mask="url(#tu7d10mddb)">
                    <g>
                        <path fill="#FFF" d="M0 11.582L30.711 11.582 30.711 5.582 0 5.582z" transform="translate(-0.555556, -0.582131)"/>
                        <path fill="#49A044" d="M0.556 6.582L31.267 6.582 31.267 0.582 0.556 0.582z" transform="translate(-0.555556, -0.582131)"/>
                        <path fill="#C7001B" d="M15.03 7.452L15.09 11.684 15.354 11.992 15.62 11.684 15.681 7.452 15.354 7.188zM0 18.582L30 18.582 30 12.582 0 12.582z" transform="translate(-0.555556, -0.582131)"/>
                        <g transform="translate(-0.555556, -0.582131)">
                            <path fill="#C7001B" d="M16.006 6.738c-.13.21-.405.279-.617.146-.01-.007-.025-.014-.034-.021-.198.146-.478.107-.628-.09l-.024-.035c-.053.207.071.421.277.472.134.036.277-.004.375-.104.149.15.392.153.546.007.1-.096.14-.243.105-.375M16.169 7.327c.864 1.18.609 2.835-.569 3.704-.541.393-1.21.568-1.873.49 1.255.507 2.683-.108 3.186-1.362.403-1.009.101-2.156-.744-2.832"/>
                            <path fill="#C7001B" d="M14.539 7.327c-.863 1.18-.608 2.835.568 3.704.54.393 1.211.568 1.875.49-1.257.507-2.685-.108-3.188-1.362-.403-1.009-.099-2.156.745-2.832M16.472 7.249c1.182.86 1.446 2.512.585 3.696-.043.057-.09.118-.134.168 1.018-.547 1.396-1.82.845-2.838-.272-.508-.742-.88-1.296-1.026"/>
                            <path fill="#C7001B" d="M14.235 7.249c-1.181.86-1.444 2.512-.583 3.696.041.057.088.118.136.168-1.02-.547-1.401-1.82-.847-2.838.274-.508.74-.88 1.294-1.026"/>
                            <path fill="#FFF" d="M1.884 6.084h-.418v-.426h.557v-.285h.14v.572h.139v-.572h.139v.572h.142v-.572h.137v.71h-.697v-.282h-.418v.144h.279v.139zM.068 5.515h1.816v-.142H.068v.142zm.28.569h.14v-.14h-.14v.14zm-.28 0h.14V5.8h.42v.283h.697v-.426H.906v.143h.279v.144H.766v-.287H.068v.426zM4.675 6.084h-.42v-.426h.558v-.285h.141v.572h.141v-.572h.138v.572h.141v-.572h.14v.71h-.701v-.282h-.417v.144h.28v.139zm-1.813-.569h1.813v-.142H2.862v.142zm.278.569h.139v-.14h-.14v.14zm-.278 0h.14V5.8h.417v.283h.697v-.426h-.418v.143h.278v.144h-.418v-.287h-.696v.426zM7.469 6.084h-.42v-.426h.557v-.285h.14v.572h.14v-.572h.142v.572h.138v-.572h.139v.71h-.7v-.282h-.417v.144h.28v.139zm-1.816-.569H7.47v-.142H5.653v.142zm.278.569h.14v-.14h-.14v.14zm-.278 0h.14V5.8h.418v.283h.699v-.426H6.49v.143h.279v.144h-.42v-.287h-.697v.426zM10.258 6.084h-.42v-.426h.561v-.285h.14v.572h.138v-.572h.14v.572h.14v-.572h.14v.71h-.698v-.282h-.42v.144h.28v.139zm-1.813-.569h1.813v-.142H8.445v.142zm.278.569h.14v-.14h-.14v.14zm-.278 0h.139V5.8h.418v.283h.7v-.426h-.42v.143h.277v.144h-.418v-.287h-.696v.426zM13.052 6.084h-.42v-.426h.559v-.285h.14v.572h.139v-.572h.139v.572h.14v-.572h.14v.71h-.698v-.282h-.42v.144h.28v.139zm-1.816-.569h1.816v-.142h-1.816v.142zm.28.569h.138v-.14h-.138v.14zm-.28 0h.14V5.8h.418v.283h.699v-.426h-.42v.143h.28v.144h-.419v-.287h-.698v.426zM15.843 6.084h-.418v-.426h.557v-.285h.14v.572h.14v-.572h.139v.572h.14v-.572h.139v.71h-.698v-.282h-.42v.144h.281v.139zm-1.815-.569h1.815v-.142h-1.815v.142zm.28.569h.137v-.14h-.137v.14zm-.28 0h.139V5.8h.418v.283h.7v-.426h-.419v.143h.276v.144h-.416v-.287h-.698v.426zM18.635 6.084h-.418v-.426h.557v-.285h.14v.572h.14v-.572h.138v.572h.142v-.572h.137v.71h-.697v-.282h-.416v.144h.277v.139zm-1.816-.569h1.816v-.142h-1.816v.142zm.279.569h.14v-.14h-.14v.14zm-.279 0h.14V5.8h.42v.283h.697v-.426h-.418v.143h.28v.144h-.422v-.287h-.697v.426zM21.43 6.084h-.422v-.426h.557v-.285h.142v.572h.14v-.572h.137v.572h.141v-.572h.14v.71h-.7v-.282h-.418v.144h.283v.139zm-1.817-.569h1.817v-.142h-1.817v.142zm.278.569h.14v-.14h-.14v.14zm-.278 0h.137V5.8h.418v.283h.7v-.426h-.417v.143h.278v.144h-.42v-.287h-.696v.426zM24.218 6.084H23.8v-.426h.56v-.285h.137v.572h.143v-.572h.135v.572h.14v-.572h.143v.71h-.697v-.282h-.422v.144h.279v.139zm-1.814-.569h1.814v-.142h-1.814v.142zm.279.569h.139v-.14h-.14v.14zm-.279 0h.14V5.8h.418v.283h.699v-.426h-.417v.143h.279v.144H23.1v-.287h-.697v.426zM27.011 6.084h-.42v-.426h.56v-.285h.14v.572h.139v-.572h.139v.572h.14v-.572h.139v.71h-.698v-.282h-.418v.144h.28v.139zm-1.813-.569h1.813v-.142h-1.813v.142zm.278.569h.14v-.14h-.14v.14zm-.278 0h.139V5.8h.418v.283h.697v-.426h-.418v.143h.278v.144h-.418v-.287h-.696v.426zM29.801 6.084h-.418v-.426h.557v-.285h.144v.572h.135v-.572h.143v.572h.14v-.572h.14v.71h-.702v-.282h-.418v.144h.28v.139zm-1.813-.569H29.8v-.142h-1.813v.142zm.281.569h.136v-.14h-.136v.14zm-.281 0h.142V5.8h.418v.283h.696v-.426h-.418v.143h.278v.144h-.418v-.287h-.698v.426z"/>
                            <mask id="57nqytjo6d" fill="#fff">
                                <use xlink:href="#qmh2morvgc"/>
                            </mask>
                            <path fill="#FFF" d="M1.466 6.516H2.72V6.23H1.466v.286zm-1.398 0h1.256V6.23H.068v.286zM4.255 6.516h1.258V6.23H4.255v.286zm-1.394 0h1.255V6.23H2.86v.286zM7.048 6.516h1.257V6.23H7.048v.286zm-1.395 0H6.91V6.23H5.653v.286zM9.838 6.516h1.259V6.23H9.838v.286zm-1.393 0H9.7V6.23H8.445v.286zM12.632 6.516h1.256V6.23h-1.256v.286zm-1.396 0h1.256V6.23h-1.256v.286zM15.425 6.516h1.254V6.23h-1.254v.286zm-1.398 0h1.257V6.23h-1.257v.286zM18.216 6.516h1.255V6.23h-1.255v.286zm-1.397 0h1.257V6.23h-1.257v.286zM21.008 6.516h1.257V6.23h-1.257v.286zm-1.395 0h1.254V6.23h-1.254v.286zM23.8 6.516h1.258V6.23H23.8v.286zm-1.396 0h1.256V6.23h-1.256v.286zM26.592 6.516h1.256V6.23h-1.256v.286zm-1.395 0h1.255V6.23h-1.255v.286zM29.383 6.516h1.258V6.23h-1.258v.286zm-1.396 0h1.257V6.23h-1.257v.286zM1.884 13.314h-.418v-.429h.557v-.282h.14v.569h.139v-.569h.139v.569h.142v-.569h.137v.711h-.697v-.285h-.418v.143h.279v.142zm-1.816-.568h1.816v-.143H.068v.143zm.28.568h.14v-.142h-.14v.142zm-.28 0h.14v-.285h.42v.285h.697v-.429H.906v.144h.279v.143H.766v-.287H.068v.43zM4.675 13.314h-.42v-.429h.558v-.282h.141v.569h.141v-.569h.138v.569h.141v-.569h.14v.711h-.701v-.285h-.417v.143h.28v.142zm-1.813-.568h1.813v-.143H2.862v.143zm.278.568h.139v-.142h-.14v.142zm-.278 0h.14v-.285h.417v.285h.697v-.429h-.418v.144h.278v.143h-.418v-.287h-.696v.43zM7.469 13.314h-.42v-.429h.557v-.282h.14v.569h.14v-.569h.142v.569h.138v-.569h.139v.711h-.7v-.285h-.417v.143h.28v.142zm-1.816-.568H7.47v-.143H5.653v.143zm.278.568h.14v-.142h-.14v.142zm-.278 0h.14v-.285h.418v.285h.699v-.429H6.49v.144h.279v.143h-.42v-.287h-.697v.43zM10.258 13.314h-.42v-.429h.561v-.282h.14v.569h.138v-.569h.14v.569h.14v-.569h.14v.711h-.698v-.285h-.42v.143h.28v.142zm-1.813-.568h1.813v-.143H8.445v.143zm.278.568h.14v-.142h-.14v.142zm-.278 0h.139v-.285h.418v.285h.7v-.429h-.42v.144h.277v.143h-.418v-.287h-.696v.43zM13.052 13.314h-.42v-.429h.559v-.282h.14v.569h.139v-.569h.139v.569h.14v-.569h.14v.711h-.698v-.285h-.42v.143h.28v.142zm-1.816-.568h1.816v-.143h-1.816v.143zm.28.568h.138v-.142h-.138v.142zm-.28 0h.14v-.285h.418v.285h.699v-.429h-.42v.144h.28v.143h-.419v-.287h-.698v.43zM15.843 13.314h-.418v-.429h.557v-.282h.14v.569h.14v-.569h.139v.569h.14v-.569h.139v.711h-.698v-.285h-.42v.143h.281v.142zm-1.815-.568h1.815v-.143h-1.815v.143zm.28.568h.137v-.142h-.137v.142zm-.28 0h.139v-.285h.418v.285h.7v-.429h-.419v.144h.276v.143h-.416v-.287h-.698v.43zM18.635 13.314h-.418v-.429h.557v-.282h.14v.569h.14v-.569h.138v.569h.142v-.569h.137v.711h-.697v-.285h-.416v.143h.277v.142zm-1.816-.568h1.816v-.143h-1.816v.143zm.279.568h.14v-.142h-.14v.142zm-.279 0h.14v-.285h.42v.285h.697v-.429h-.418v.144h.28v.143h-.422v-.287h-.697v.43zM21.43 13.314h-.422v-.429h.557v-.282h.142v.569h.14v-.569h.137v.569h.141v-.569h.14v.711h-.7v-.285h-.418v.143h.283v.142zm-1.817-.568h1.817v-.143h-1.817v.143zm.278.568h.14v-.142h-.14v.142zm-.278 0h.137v-.285h.418v.285h.7v-.429h-.417v.144h.278v.143h-.42v-.287h-.696v.43zM24.218 13.314H23.8v-.429h.56v-.282h.137v.569h.143v-.569h.135v.569h.14v-.569h.143v.711h-.697v-.285h-.422v.143h.279v.142zm-1.814-.568h1.814v-.143h-1.814v.143zm.279.568h.139v-.142h-.14v.142zm-.279 0h.14v-.285h.418v.285h.699v-.429h-.417v.144h.279v.143H23.1v-.287h-.697v.43zM27.011 13.314h-.42v-.429h.56v-.282h.14v.569h.139v-.569h.139v.569h.14v-.569h.139v.711h-.698v-.285h-.418v.143h.28v.142zm-1.813-.568h1.813v-.143h-1.813v.143zm.278.568h.14v-.142h-.14v.142zm-.278 0h.139v-.285h.418v.285h.697v-.429h-.418v.144h.278v.143h-.418v-.287h-.696v.43zM29.801 13.314h-.418v-.429h.557v-.282h.144v.569h.135v-.569h.143v.569h.14v-.569h.14v.711h-.702v-.285h-.418v.143h.28v.142zm-1.813-.568H29.8v-.143h-1.813v.143zm.281.568h.136v-.142h-.136v.142zm-.281 0h.142v-.285h.418v.285h.696v-.429h-.418v.144h.278v.143h-.418v-.287h-.698v.43zM1.466 12.46H2.72v-.285H1.466v.285zm-1.398 0h1.256v-.285H.068v.285zM4.255 12.46h1.258v-.285H4.255v.285zm-1.394 0h1.255v-.285H2.86v.285zM7.048 12.46h1.257v-.285H7.048v.285zm-1.395 0H6.91v-.285H5.653v.285zM9.838 12.46h1.259v-.285H9.838v.285zm-1.393 0H9.7v-.285H8.445v.285zM12.632 12.46h1.256v-.285h-1.256v.285zm-1.396 0h1.256v-.285h-1.256v.285zM15.425 12.46h1.254v-.285h-1.254v.285zm-1.398 0h1.257v-.285h-1.257v.285zM18.216 12.46h1.255v-.285h-1.255v.285zm-1.397 0h1.257v-.285h-1.257v.285zM21.008 12.46h1.257v-.285h-1.257v.285zm-1.395 0h1.254v-.285h-1.254v.285zM23.8 12.46h1.258v-.285H23.8v.285zm-1.396 0h1.256v-.285h-1.256v.285zM26.592 12.46h1.256v-.285h-1.256v.285zm-1.395 0h1.255v-.285h-1.255v.285zM29.383 12.46h1.258v-.285h-1.258v.285zm-1.396 0h1.257v-.285h-1.257v.285z" mask="url(#57nqytjo6d)"/>
                        </g>
                    </g>
                </g>
            </g>
        </g>
    </g>
</svg>
