<svg xmlns="http://www.w3.org/2000/svg" xmlns:xlink="http://www.w3.org/1999/xlink" width="54" height="32" viewBox="0 0 54 32">
    <defs>
        <rect id="prefix__a" width="54" height="32" x="0" y="0" rx="9"/>
    </defs>
    <g fill="none" fill-rule="evenodd">
        <mask id="prefix__b" fill="#fff">
            <use xlink:href="#prefix__a"/>
        </mask>
        <use fill="#D8D8D8" xlink:href="#prefix__a"/>
        <g mask="url(#prefix__b)">
            <g>
                <path fill="#FF9A15" d="M0 33.752L53.773 33.752 53.773 0.001 0 0.001z" transform="translate(0 -1)"/>
                <path fill="#37AA41" d="M0 33.752L53.773 33.752 53.773 16.314 0 16.314z" transform="translate(0 -1)"/>
                <path fill="#FFF" d="M0 22.453L53.8 22.453 53.8 11.097 0 11.097z" transform="translate(0 -1)"/>
                <g fill="#2D3A8E">
                    <path d="M7.713 6.071c-.006.04-.02.073-.032.11l2.984 1.386-3.055-1.1-.03-.014c-.012.036-.025.067-.037.096l2.632 1.89L7.39 6.79c-.027.033-.048.06-.066.093l2.19 2.39-2.396-2.185c-.013.02-.034.034-.046.054l1.713 2.749-1.951-2.578-.1.06 1.117 3.044-1.375-2.924c-.026.006-.053.02-.084.026v.004l.527 3.243-.805-3.147-.007-.034c-.042.015-.08.021-.113.021l-.146 3.282-.145-3.243v-.033c-.02.007-.047.007-.067 0l-.746 3.193.455-3.212.006-.021c-.037-.006-.079-.02-.12-.026l-1.381 2.968 1.105-3.057.008-.011-.08-.039-1.914 2.659 1.656-2.798.006-.016c-.035-.018-.06-.044-.092-.063l-2.408 2.2L4.32 6.997l.008-.007c-.015-.017-.034-.037-.047-.06L1.51 8.658l2.594-1.956c-.02-.036-.04-.067-.06-.102L.986 7.712l2.937-1.385c-.012-.013-.019-.024-.019-.044l-3.207.528 3.128-.8c-.007-.043-.013-.085-.013-.126L.57 5.743l3.22-.149c0-.026 0-.057.006-.086L.643 4.782l3.19.443c.011-.042.018-.08.037-.121L.935 3.743l3.029 1.089c.006-.018.02-.044.032-.067l-2.652-1.9 2.791 1.651c.028-.03.046-.066.08-.097L2.014 2.01l2.392 2.192c.02-.023.04-.042.061-.063l-1.72-2.756L4.7 3.966c.03-.018.072-.044.111-.063L3.694.845l1.374 2.928c.035-.006.072-.019.106-.03L4.65.556l.803 3.12c.039-.006.085-.013.124-.013L5.725.427l.144 3.23c.027 0 .06 0 .085.006L6.683.508l-.45 3.196c.039.006.087.02.124.032L7.721.8 6.623 3.837c.027.013.045.025.066.038L8.602 1.21 6.948 4.008l-.013.011c.03.03.065.055.099.073l2.42-2.215L7.26 4.28l-.021.018c.02.02.038.032.051.055l2.793-1.737L7.488 4.57l-.024.02c.018.031.037.065.06.1h.006l3.088-1.135L7.676 4.94l-.035.013c.006.018.022.047.029.073l3.226-.53-3.149.807h-.013c.007.042.013.079.013.121l3.276.144-3.242.146h-.027c.006.029 0 .048 0 .073l3.202.739-3.222-.448-.02-.007z" transform="translate(0 -1) translate(21.037 11.097)"/>
                    <path d="M5.8.683C3.065.683.838 2.904.838 5.64c0 2.738 2.227 4.963 4.962 4.963 2.734 0 4.96-2.225 4.96-4.963C10.76 2.904 8.533.683 5.8.683m0 10.25C2.88 10.932.506 8.557.506 5.64.506 2.725 2.88.35 5.8.35c2.917 0 5.293 2.374 5.293 5.29 0 2.917-2.376 5.291-5.293 5.291" transform="translate(0 -1) translate(21.037 11.097)"/>
                </g>
            </g>
        </g>
    </g>
</svg>
