<svg xmlns="http://www.w3.org/2000/svg" xmlns:xlink="http://www.w3.org/1999/xlink" width="54" height="32" viewBox="0 0 54 32">
    <defs>
        <rect id="prefix__a" width="54" height="32" x="0" y="0" rx="9"/>
        <path id="prefix__c" d="M0 32.353L54.288 32.353 54.288 0.681 0 0.681z"/>
    </defs>
    <g fill="none" fill-rule="evenodd">
        <mask id="prefix__b" fill="#fff">
            <use xlink:href="#prefix__a"/>
        </mask>
        <use fill="#D8D8D8" xlink:href="#prefix__a"/>
        <g mask="url(#prefix__b)">
            <g>
                <path fill="#FFF" d="M0 22.728L54.288 22.728 54.288 12.17 0 12.17z" transform="translate(0 -1)"/>
                <path fill="#1E2788" d="M0 33.288L54.288 33.288 54.288 22.728 0 22.728z" transform="translate(0 -1)"/>
                <path fill="#CB0028" d="M0 12.17L54.288 12.17 54.288 1.616 0 1.616z" transform="translate(0 -1)"/>
                <g transform="translate(0 -1) translate(0 .935)">
                    <path fill="#FFF" d="M20.856 11.083c1.94-.692 4.097-1.064 6.205-1.067 2.104-.007 4.25.322 6.372 1.083l1.583-3.185-1.113-1.936s-1.983.815-1.996.815c-.016 0-1.399-1.524-1.399-1.524l-1.773 1.075-1.664-1.273-1.565 1.255-1.833-1.063-1.33 1.59-1.999-.857-1.074 1.918 1.586 3.17z"/>
                    <path fill="#CB0028" d="M20.325 6.038l-1.011 1.899 1.577 3.127c1.897-.72 4.055-1.092 6.17-1.092 2.227 0 4.351.359 6.357 1.07l1.558-3.15-1.11-1.888c-1.933.833-1.946.833-1.959.833-.027 0-.034 0-1.428-1.535l-1.718 1.08-1.72-1.276-1.506 1.254-1.883-1.055L22.38 6.88l-2.054-.842zm13.13 5.121l-.034-.013c-2.007-.72-4.133-1.087-6.317-1.087-2.151.007-4.29.377-6.239 1.068l-1.634-3.19 1.071-1.962 2.061.838 1.276-1.578 1.89 1.049 1.512-1.248 1.72 1.27 1.727-1.074c.588.594 1.403 1.485 1.445 1.522.018-.024 1.419-.6 1.953-.82l1.17 1.958-1.6 3.267z"/>
                    <path fill="#3A7AA1" d="M30.982 10.202L31.89 7l1.938-.787 1.017 1.717-1.467 2.997c-.843-.338-1.294-.48-2.397-.726"/>
                    <path fill="#4C73D5" d="M33.816 6.218l-1.924.792-.897 3.192c1.114.24 1.554.382 2.38.71l1.462-2.984-1.021-1.71zm-.43 4.723l-.012-.003c-.825-.332-1.265-.474-2.392-.726L31.879 7l1.943-.8 1.037 1.727-1.474 3.013z"/>
                    <path fill="#3A7AA1" d="M25.88 9.854l-.303-3.31 1.541-1.227 1.605 1.223-.285 3.314c-.888-.047-1.519-.04-2.559 0"/>
                    <path fill="#4C73D5" d="M27.105 5.32l-1.522 1.227.309 3.304c1.008-.063 1.655-.05 2.533-.006l.288-3.308-1.608-1.217zm1.343 4.548h-.01c-.888-.049-1.52-.046-2.56 0l-.315-3.325 1.542-1.239 1.624 1.226-.281 3.338z"/>
                    <path fill="#3A7AA1" d="M20.931 10.925l-1.438-3.033.958-1.68 1.988.865.843 3.135c-.916.186-1.39.341-2.35.713"/>
                    <path fill="#4C73D5" d="M20.451 6.224l-.945 1.674 1.426 3.014c.925-.36 1.425-.524 2.344-.717l-.85-3.112-1.975-.859zm.474 4.717l-1.444-3.05.957-1.683 2.006.862.85 3.138c-.93.206-1.43.37-2.362.727l-.007.006z"/>
                    <path fill="#FFF" d="M20.622 9.396c.441.05.749.026 1.13-.103.447-.212.59-.456.727-.652.105.385.063.746-.445 1.04-.458.24-1.11.163-1.412-.285"/>
                    <path fill="#FFF" d="M21.468 9.826c-.36 0-.679-.152-.859-.424.146 0 .263.007.373.007.271 0 .5-.034.765-.127.417-.195.563-.414.698-.606-.124.221-.287.443-.692.629-.383.123-.689.15-1.13.104.282.38.934.506 1.405.265.418-.246.502-.527.485-.786.042.252-.04.553-.475.799-.168.092-.36.139-.57.139"/>
                    <path fill="#FBFC2B" d="M27.535 7.055l-.09.023.007.157-.113.022-.07.14.04.037c.007.006-.033.105-.027.105l.028.037.026.086.076.013.016.097.113.013.104.076.006.047.118.003.081.026.288-.036.04-.053v-.083l.152-.003.02-.13h.076l-.013-.143.07.004-.017-.066-.04-.06-.013-.087-.116-.115-.023-.154-.076-.035-.007-.1.083-.127-.007-.042-.076-.003-.066.045s-.076.012-.076.015v.035l.02.07h-.09l-.006-.108-.13-.063s-.122.082-.122.085l-.007.092-.056.015-.06-.087-.104-.04-.06-.002v.07l.114.138-.013.086z"/>
                    <path fill="#C2A21F" d="M27.775 7.886l.082.026.282-.032.014-.047-.003-.07.181-.029-.013-.104.107-.022-.034-.117.097-.022-.087-.083-.01-.1-.111-.105-.038-.164c-.076-.022-.076-.022-.076-.04l-.006-.102.095-.136-.063-.01-.047.046c-.013.005-.076.008-.089.014.04.073.04.073.04.08l-.116.025-.035-.132-.114-.04c.007.01-.076.06-.09.077v.099l-.08.014-.085-.094-.09-.029-.02.042.097.126-.007.1-.103.043.021.136-.13.043-.05.127c.044.035.044.038.023.105-.016.003-.016.005.013.053l.034.087.047-.004.042.12.094-.004.121.086.007.053.1-.016zm.07.076l-.216-.026-.006-.07-.1-.056-.102-.013-.038-.12-.047.013-.066-.199.04-.056-.056-.02.063-.17.13-.042-.03-.126.112-.047-.013-.063-.105-.121V6.733l.082.006.112.04.07.096.017-.095c0-.015 0-.015.133-.107l.162.066.016.126.04-.024-.022-.036c0-.066.006-.07.105-.082l.047-.04.095-.007h.021l.013.073-.094.139.012.089c0-.02.06.011.06.011l.045.172.113.103.07.225-.094.028.04.114-.105.028.013.105-.183.028.023.058-.042.071-.316.042z"/>
                    <path fill="#C2A21F" d="M27.317 7.422l.13-.007.022.11.04.045.007.196.04.02.013-.083.092-.006.02.163-.02.026.007.023.12-.007.029-.042s.063-.005.063-.002l.024.044.016-.06.066-.026c0 .004.047.083.047.083l.086-.013-.05-.047-.026-.105.123-.067.042.08s.047.003.04 0c0-.003-.05-.09-.05-.09v-.185l.093-.12.122-.013v-.053l-.122-.11-.03-.159-.07-.034-.019.021-.08.003.08.117v.073l.03.02-.004.205s-.089.01-.089.013l-.006.11-.053.056-.028.102c-.006 0-.055.07-.055.07h-.097s-.06-.05-.06-.057l-.006-.076-.042-.013c-.007 0-.021-.089-.021-.089l-.073-.034v-.05l-.063-.026-.007-.047c-.006-.006-.035-.022-.035-.022v-.13l.055-.01-.033-.037-.01-.035v-.04l.047-.043-.087-.013-.076.036-.006.155-.096.021-.08.126.04.033z"/>
                    <path fill="#C2A21F" d="M28.18 7.004l-.083.034.095.07.028.298.055-.07.139-.023-.14-.12-.041-.17-.054-.019zm-.054.452c.006.013.006.092.006.092l-.063.073c-.026.076-.029.1-.042.106l.123-.082.036.036c-.007-.004-.007-.007-.007-.01l-.006-.2.026-.036c-.02.008-.06.018-.073.02zm-.086.47c-.08-.093-.08-.1-.08-.11l-.04.026.007.015-.013-.04c.06-.026.066-.026.073-.026.027.025.07.095.07.095l.06-.026-.067-.003-.03-.123.007-.006c0 .006-.006.006-.006.006l-.034.05-.117.013c-.082-.063-.082-.07-.082-.082l-.013-.072c-.034.008-.034.008-.06-.095l-.063-.026-.007-.066-.06-.013-.016-.057c-.034-.003-.034-.003-.034-.157v-.026l.081-.01.052.048-.092.01c.01.019.01.088.01.101l.106.083.007.07.05.017c.02.016.032.083.039.092.037.023.05.1.05.1l.047.036.076-.006c.035-.063.042-.063.053-.063-.018 0 .007-.09.007-.09l.063-.066-.005-.09c0-.03 0-.03.12-.042l-.054-.269-.076-.097.097-.052.109.02.043.174.127.107v.063l-.15.04-.075.11.006.166c.007 0 .042.07.049.079l-.067.039-.063-.09-.089.074.083.11-.099.06zm-.388.01l-.013-.043v-.19l-.07.024.01.057v.036l-.076-.03-.016-.22-.07-.148-.106.027-.047-.04.072-.159.104-.04c-.013-.007-.013-.11-.013-.123.032-.03.083-.053.095-.057.028-.006.107.004.107.004l-.043.135-.04-.022.04-.07c-.017.007-.04 0-.046 0 .016.01-.03.023-.06.028.007.016 0 .055 0 .136l-.116.051-.06.114.136-.013.053.13.054.243-.007-.063.122-.032.05.186-.02.023.117-.013v.053l-.157.016z"/>
                    <path fill="#613F21" d="M27.803 7.63l.067-.037v-.07l-.067-.016-.016-.02.057.007.095-.006.03-.013c-.017.029-.023.029-.03.029l-.047.023v.07l.147.017s0 .03-.004.03c-.007 0-.15-.037-.15-.037l-.091.057.01-.034z"/>
                    <path fill="#C2A21F" d="M27.769 7.696l.029-.072.066-.04-.02-.074.035.013V7.51l.06-.022v.016l-.041.034.01.06c.142.006.142.006.142.016-.023.039-.023.039-.171.006l-.11.076zM28.173 7.197l-.083.067-.056.095-.026.003-.087-.105h-.096s-.05.126-.05.13l-.036-.007-.1-.103s-.029-.054-.023-.054l.248.003v-.114s-.042-.013-.062-.025c.013-.003.136-.003.136-.003l-.053.03v.103l.218.003.07-.023z"/>
                    <path fill="#C2A21F" d="M27.879 7.226l-.262.022.14.114c.012-.017.018-.044.046-.114l.082-.006-.006-.016zm-.104.189l-.042-.006-.123-.13-.019-.07.272-.012-.024-.081.024-.016c-.013.006-.018.006-.03.01-.024-.053.023-.053.106-.053h.082l-.116.083.008.076.254-.04-.126.199-.055.006-.081-.112-.073.017c.013.006-.023.098-.029.11l-.028.019z"/>
                    <path fill="#613F21" d="M27.734 7.257h.022c.012 0 .018.007.018.013v.021c0 .013-.006.02-.018.02h-.022c-.013 0-.02-.007-.02-.02v-.02c0-.007.007-.014.02-.014M28.002 7.245h.02c.013 0 .017.006.017.019v.015c0 .013-.004.019-.017.019h-.02c-.006 0-.016-.006-.016-.02v-.014c0-.013.01-.02.016-.02"/>
                    <path fill="#C2A21F" d="M27.617 7.087l-.033-.017.013-.03c.076-.036.146-.057.248-.07.116-.013.199.003.293.018-.104.039-.177.023-.282.035-.1.01-.157.034-.24.064M27.639 6.881L27.563 6.881 27.466 6.775 27.516 6.783 27.586 6.812z"/>
                    <path fill="#C2A21F" d="M27.686 6.913L27.563 6.913 27.385 6.743 27.597 6.79zM28.078 6.84L28.243 6.717 28.191 6.711 28.125 6.764 28.055 6.777zM27.98 6.865l-.259.01.007-.029.094-.01.01-.037h.032c0 .003.016.037.016.037l.094.017.006.012z"/>
                    <path fill="#C2A21F" d="M27.693 6.9L27.699 6.844 27.822 6.811 27.769 6.847 27.845 6.84 27.838 6.811 27.981 6.824 28.002 6.866 27.987 6.891zM27.968 6.771L27.879 6.771 27.875 6.724zM27.816 6.723L27.809 6.77 27.72 6.79zM27.323 7.608L27.363 7.498 27.329 7.422 27.289 7.532zM27.412 7.668L27.468 7.539 27.365 7.645z"/>
                    <path fill="#C2A21F" d="M27.421 7.703L27.351 7.669 27.447 7.526 27.384 7.662 27.411 7.669 27.387 7.659 27.447 7.523z"/>
                    <path fill="#FBFC2B" d="M26.103 7.1l-.088.022.006.157-.104.026-.079.136.047.04c0 .006-.034.105-.034.105.007 0 .028.034.028.034l.026.09.076.006.019.1.11.02.103.072.007.047.123.003.082.023.282-.033.04-.056v-.083l.152-.003.02-.126h.076l-.007-.147.073.005-.026-.067-.04-.056-.007-.088-.123-.118-.022-.15-.08-.036-.003-.103.086-.122-.01-.05h-.076l-.066.05-.076.01v.036l.02.07h-.09l-.006-.106-.13-.063-.122.08-.007.095-.057.014-.06-.084-.103-.039-.06-.003v.066l.11.143-.01.082z"/>
                    <path fill="#C2A21F" d="M26.344 7.93l.082.026.275-.029.024-.047v-.07l.175-.032-.01-.1.104-.026-.034-.113.1-.023-.08-.082-.02-.104-.113-.102-.033-.163c-.079-.026-.079-.026-.079-.042l-.003-.104.092-.136-.063-.006-.047.042c-.013.005-.083.011-.089.011.04.076.04.076.04.083l-.116.026-.03-.13-.116-.039c.007.007-.076.06-.093.073.004.01 0 .08 0 .08v.019l-.07.02-.095-.096-.09-.03-.024.04.1.126-.006.103-.103.045.02.13-.126.047-.053.126c.053.036.053.036.023.116-.02-.01-.02-.006.013.04l.034.087.047-.005.042.12h.09l.133.082.003.057.096-.02zm.076.08l-.225-.03-.004-.066-.093-.057-.105-.016-.044-.12-.044.013-.07-.186c.009-.025.022-.06.028-.066l-.047-.055.076-.137.123-.04-.022-.129.105-.043-.013-.06-.105-.128v-.11l.089.003.105.04.074.1.013-.1c0-.01 0-.01.136-.1l.158.06.017.13.04-.026-.016-.034c-.007-.07-.007-.07.099-.083l.046-.04.096-.007h.021l.013.07-.094.142.011.088c0-.018.059.01.059.01l.05.17.11.108.076.221-.1.031.04.115-.105.024.01.108-.174.028.023.055-.045.074-.312.042z"/>
                    <path fill="#C2A21F" d="M25.885 7.469l.13-.006.022.11.044.035.003.209.04.016.014-.083.102-.01.01.167-.017.02.013.026.11-.004s.023-.042.03-.042c0 0 .062-.008.062-.004l.025.046.022-.056s.06-.033.06-.026l.047.076.086-.013-.05-.044-.02-.108.117-.063.042.076s.047.006.047 0c-.007 0-.054-.087-.054-.087v-.182l.09-.123.122-.016v-.05l-.123-.113-.035-.155-.063-.034-.02.017-.08.01.08.11v.076l.036.02-.013.199s-.086.016-.086.019l-.006.11-.054.053-.027.105c-.007 0-.055.067-.055.067h-.097s-.06-.05-.06-.054l-.007-.076-.042-.013c-.003 0-.02-.089-.02-.089l-.064-.034v-.05l-.073-.029-.006-.05s-.03-.016-.036-.016v-.13l.06-.012-.034-.034-.013-.04v-.036l.047-.049s-.08-.008-.08-.006l-.083.035-.007.152-.095.03-.075.119.034.034z"/>
                    <path fill="#C2A21F" d="M26.748 7.052l-.083.032.096.071.027.295.055-.07.14-.022-.14-.117-.042-.17-.053-.02zm-.142.922c-.083-.1-.083-.1-.083-.107l-.027.026v.008l-.01-.034c.057-.029.063-.029.07-.029l.069.092.057-.026-.063-.003-.03-.116.136-.094.03.037c0-.006 0-.006-.007-.013l-.007-.192.03-.04-.076.02c.006.013.006.096.006.096l-.063.066c-.036.113-.036.113-.049.113l-.034.057-.116.013c-.083-.07-.083-.07-.083-.086l-.012-.071c-.04.005-.04.001-.06-.092l-.063-.03-.007-.066-.056-.013-.02-.056c-.034-.007-.034-.007-.034-.157V7.25l.081-.01.055.045-.095.015c.019.016.019.086.019.099l.097.082.007.066.053.021c.016.013.029.083.035.093.04.02.054.1.054.1 0-.005.044.036.044.036l.076-.007c.042-.063.042-.063.053-.063-.011 0 .013-.089.013-.089l.057-.066v-.09c0-.03 0-.03.111-.043l-.05-.272-.076-.097.097-.048.108.016.047.175.12.11v.06l-.146.043-.076.105.007.17c.006 0 .042.063.048.076l-.066.042-.063-.092-.089.076.083.11-.102.06zm-.385.006l-.013-.043v-.193l-.07.03.013.06-.006.033-.07-.029-.026-.23-.063-.139-.107.028-.043-.04.07-.16.103-.04c-.01-.006-.01-.107-.01-.123.03-.029.082-.05.092-.056.028 0 .104.006.104.006l-.037.136-.046-.03.046-.069c-.02.007-.046 0-.049.004.016.003-.028.022-.06.027v.134l-.116.054-.06.11.136-.016.053.135.05.248-.003-.073.125-.029.043.186-.016.026.117-.02v.06l-.157.013z"/>
                    <path fill="#613F21" d="M26.372 7.674l.066-.034v-.07l-.066-.019-.016-.02.063.007.089-.006.029-.01c-.016.03-.023.03-.03.03l-.046.022.006.068.14.016c-.004 0 0 .032-.004.032l-.148-.035-.096.053.013-.034z"/>
                    <path fill="#C2A21F" d="M26.337 7.74l.023-.069.073-.044-.02-.066.034.01v-.01l.06-.023v.013l-.04.034.013.057c.139.01.139.01.139.02-.016.041-.016.041-.172.006l-.11.073zM26.742 7.248l-.09.063-.05.095-.025.003-.081-.108-.092.003s-.054.127-.054.13l-.042-.007-.094-.103s-.035-.054-.029-.054h.248l-.007-.114s-.029-.009-.055-.022c.013-.006.136-.006.136-.006l-.053.037v.099h.218l.07-.016z"/>
                    <path fill="#C2A21F" d="M26.448 7.27l-.262.023.142.116c.01-.016.021-.05.044-.116l.082-.013-.006-.01zm-.099.186l-.047-.003-.123-.127-.016-.07.269-.012-.021-.078.014-.016-.02.007c-.027-.052.02-.057.103-.057h.089l-.13.08.018.083.25-.043-.129.202-.051.006-.081-.111-.063.013c.003.01-.04.105-.04.11l-.022.016z"/>
                    <path fill="#613F21" d="M26.302 7.301h.026c.008 0 .015.01.015.02v.018c0 .013-.007.019-.015.019h-.026c-.012 0-.019-.006-.019-.02v-.017c0-.01.007-.02.02-.02M26.571 7.289h.026c.006 0 .008.01.008.022v.015c0 .013-.002.02-.008.02h-.026c-.003 0-.016-.007-.016-.02v-.015c0-.013.013-.022.016-.022"/>
                    <path fill="#C2A21F" d="M26.192 7.128l-.03-.013.01-.031c.077-.032.143-.057.248-.066.11-.013.186.006.28.02-.097.04-.176.02-.273.033-.1.007-.159.028-.235.057M26.208 6.929L26.138 6.929 26.031 6.825 26.085 6.83 26.164 6.859z"/>
                    <path fill="#C2A21F" d="M26.255 6.957L26.139 6.957 25.961 6.784 26.166 6.831zM26.65 6.888L26.815 6.765 26.76 6.755 26.694 6.812 26.624 6.825zM26.549 6.913l-.259.006.007-.026.093-.013.013-.033h.023c0 .003.023.033.023.033l.094.017.006.016z"/>
                    <path fill="#C2A21F" d="M26.261 6.948L26.268 6.891 26.391 6.859 26.337 6.894 26.42 6.888 26.41 6.859 26.549 6.872 26.57 6.914 26.556 6.935zM26.543 6.812L26.447 6.818 26.442 6.771zM26.385 6.771L26.378 6.818 26.289 6.831zM25.892 7.655L25.939 7.545 25.892 7.469 25.858 7.579zM25.98 7.715L26.037 7.586 25.933 7.689z"/>
                    <path fill="#C2A21F" d="M25.993 7.75L25.92 7.713 26.015 7.574 25.949 7.71 25.98 7.716 25.956 7.703 26.022 7.571z"/>
                    <path fill="#1E2788" d="M28.46 9.851l.288-3.32 1.76-1.015 1.36 1.472-.902 3.201c-.881-.173-1.385-.255-2.506-.338"/>
                    <path fill="#160080" d="M30.501 5.526l-1.747 1.017-.281 3.308c1.103.07 1.611.153 2.48.329l.904-3.192-1.356-1.462zm.471 4.68l-.013-.003c-.875-.178-1.383-.26-2.5-.342l.276-3.33L30.5 5.505l1.379 1.479-.908 3.22z"/>
                    <path fill="#FBFC2B" d="M26.843 8.34l-.083.024v.156l-.107.023-.07.14.041.04c0 .006-.034.105-.027.105l.02.034.033.089.07.006.016.1.11.017.113.079V9.2h.123l.083.026.281-.033.04-.063v-.079l.16-.005.015-.124h.08l-.013-.144.07.005-.017-.07-.04-.053-.013-.088-.117-.118-.026-.157-.082-.039-.007-.097.09-.121-.007-.05h-.083l-.056.05-.083.01v.035l.026.07h-.095V8.05l-.136-.067s-.117.08-.117.083l-.006.099-.063.01-.06-.083-.104-.042h-.055v.066l.105.142-.01.083z"/>
                    <path fill="#C2A21F" d="M27.083 9.175l.089.026.275-.039.02-.044v-.066l.179-.03-.013-.106.107-.023-.04-.116.096-.02-.08-.082-.01-.103-.115-.102-.034-.167c-.076-.023-.076-.023-.076-.044l-.007-.098.09-.136-.067-.007-.039.042c-.011.004-.08.012-.094.012.04.076.04.076.04.082l-.116.03-.032-.133-.11-.042c.006.01-.076.063-.092.076.006.006 0 .082 0 .082v.016l-.075.021-.089-.097-.095-.032-.024.042.106.126-.006.104-.107.042.024.132-.129.047-.057.127c.05.029.05.038.023.101-.023.004-.02.007.02.057l.027.087.053-.004.04.116.086-.003.128.086.008.06.096-.02zm.076.076l-.219-.03-.012-.069-.091-.053-.102-.016-.04-.12-.05.013-.077-.212-.006-.094.07-.139.129-.035-.03-.133.106-.044-.007-.063-.105-.124-.006-.081.006-.033.076.007.117.039.07.103.019-.103c0-.007 0-.007.136-.102l.158.063.01.13.047-.023-.023-.038c0-.07 0-.07.105-.082l.047-.037.092-.007h.025l.013.067-.096.142.013.082c0-.013.057.012.057.012l.048.178.104.103.08.225-.096.026.042.113-.109.03.007.106-.173.028.022.055-.048.074-.31.042z"/>
                    <path fill="#C2A21F" d="M26.625 8.714l.13-.007.022.11.04.036.007.202.04.016.013-.079.102-.01.016.165-.023.021.007.026h.113l.033-.047.063-.006c0 .006.03.053.03.053l.017-.066s.066-.023.066-.02l.044.08.082-.013-.044-.054-.026-.101.117-.064.048.08h.04l-.052-.094v-.185l.093-.12.125-.012v-.047l-.125-.117-.034-.155-.072-.037-.017.021-.08.006.08.117v.073l.036.016-.006.205-.09.013-.003.113-.06.054s-.027.105-.033.105l-.049.066-.094.004s-.056-.054-.056-.057l-.013-.076s-.036-.013-.042-.013l-.015-.089-.073-.03-.003-.054-.06-.03s-.006-.043-.013-.05l-.029-.016c-.006 0-.006-.129-.006-.129l.056-.013-.027-.037-.01-.039v-.034l.044-.048-.088-.009s-.082.04-.082.038c.006 0 0 .149 0 .149l-.099.027-.074.125.034.037z"/>
                    <path fill="#C2A21F" d="M27.487 8.294l-.082.032.092.071.037.294.045-.066.143-.026-.136-.116-.039-.173-.06-.016zm-.142.915c-.076-.09-.076-.09-.076-.1l-.028.092-.076-.058-.035.01.056-.034v.027l.049.036.013-.013-.023-.06c.063-.03.07-.03.076-.03l.063.093.063-.026h-.07l-.028-.123.136-.089.029.032c0-.003 0-.003-.007-.01v-.198l.023-.034c-.023.011-.057.018-.07.02.007.014 0 .09 0 .09l-.056.073c-.04.113-.04.113-.062.113.013.003-.02.053-.02.053l-.12.013c-.09-.066-.09-.066-.09-.082l-.003-.075c-.035.012-.04.005-.066-.095l-.063-.026-.007-.063-.056-.01-.013-.06c-.037-.006-.037-.006-.037-.157v-.022l.08-.013-.003-.003.055.045-.089.018c.01.01.01.089.01.098.034.013.034.013.047.073l.06.01.003.066.053.015c.013.02.03.089.03.102.05.016.053.097.053.097 0-.005.053.035.053.035l.076-.003c.036-.07.036-.073.047-.073-.011 0 .013-.089.013-.089l.057-.06v-.097c0-.022 0-.022.111-.035l-.05-.269-.07-.1.091-.049.105.017.05.178.12.106v.06l-.145.044-.07.108.007.164s.038.07.045.079l-.065.045-.068-.099-.082.073.076.113-.102.057zm-.385.013l-.013-.04.006-.193-.07.028.014.056-.007.039-.072-.032-.023-.227-.063-.139-.113.028-.047-.044.072-.155.11-.04c-.013-.007-.013-.11-.013-.124.03-.032.083-.053.09-.06.027-.006.103.007.103.007l-.034.136-.042-.033.042-.066c-.023.007-.042.003-.053 0 .017.01-.03.023-.059.03.007.02.007.059 0 .132l-.11.053-.072.11.148-.013.047.133.05.244V8.99l.122-.032.043.189-.016.023.123-.017-.006.05-.157.02z"/>
                    <path fill="#613F21" d="M27.118 8.916l.063-.034v-.073l-.063-.013-.026-.026.066.013.089-.006.03-.013c-.014.032-.02.026-.024.026-.006 0-.046.022-.046.022v.07l.145.021c-.006 0 0 .026-.006.026-.007 0-.152-.032-.152-.032l-.09.056.014-.037z"/>
                    <path fill="#C2A21F" d="M27.076 8.982l.03-.072.07-.04-.023-.07.034.006V8.8l.06-.023.006.013-.04.034.006.058c.145.005.145.005.145.021-.025.039-.029.039-.171.007l-.117.072zM27.487 8.49l-.089.063-.053.095-.028.006-.082-.111h-.092l-.054.132-.035-.006-.1-.104s-.03-.056-.026-.056l.244.003v-.115s-.036-.011-.055-.02c.013-.004.13-.004.13-.004l-.048.034v.095l.212.004.076-.017z"/>
                    <path fill="#C2A21F" d="M27.193 8.512l-.265.025.143.117c.006-.02.019-.053.046-.117l.083-.012-.007-.013zm-.103.189l-.042-.007-.13-.126-.019-.073.272-.01-.024-.077.024-.02c-.012.007-.018.007-.028.01-.026-.051.028-.056.104-.056h.089l-.123.08.013.08.255-.04-.129.202-.052.006-.087-.112-.066.013c.006.007-.03.1-.03.11l-.027.02z"/>
                    <path fill="#613F21" d="M27.048 8.543h.016c.013 0 .018.01.018.016v.021c0 .013-.005.017-.018.017h-.016c-.013 0-.02-.004-.02-.017v-.02c0-.007.007-.017.02-.017M27.31 8.53h.026c.004 0 .015.01.015.02v.02c0 .007-.011.01-.015.01h-.026c-.006 0-.01-.003-.01-.01v-.02c0-.01.004-.02.01-.02"/>
                    <path fill="#C2A21F" d="M26.928 8.376l-.03-.02.007-.024c.083-.039.15-.066.254-.073.11-.013.2 0 .287.018-.1.036-.177.026-.275.032-.1.01-.164.033-.243.067M26.953 8.17L26.877 8.17 26.777 8.06 26.83 8.07 26.9 8.101z"/>
                    <path fill="#C2A21F" d="M27.001 8.196L26.878 8.196 26.7 8.026 26.912 8.073zM27.386 8.132L27.556 8.006 27.496 7.997 27.439 8.056 27.363 8.06zM27.295 8.151l-.26.01v-.023l.101-.013.006-.034s.03-.006.03 0l.022.031.094.016.007.013z"/>
                    <path fill="#C2A21F" d="M27.007 8.189L27.01 8.133 27.13 8.1 27.077 8.139 27.159 8.133 27.146 8.1 27.295 8.113 27.31 8.152 27.295 8.176zM27.282 8.057L27.186 8.057 27.182 8.01zM27.13 8.012L27.124 8.056 27.035 8.072zM26.631 8.897L26.678 8.787 26.637 8.708 26.602 8.824zM26.726 8.957L26.776 8.824 26.672 8.934z"/>
                    <path fill="#C2A21F" d="M26.735 8.992L26.659 8.955 26.755 8.816 26.695 8.951 26.726 8.958 26.701 8.948 26.761 8.806z"/>
                    <path fill="#CB0028" d="M28.9 9.257l-.09.1.007.09H29c.058-.02.076-.041.089-.06.01-.03 0-.047.006-.09l-.195-.04z"/>
                    <path fill="#D30028" d="M28.805 9.456l-.01-.098.092-.107.209.037-.006.099.006.006c-.013.023-.026.047-.095.063h-.196z"/>
                    <path fill="#CB0028" d="M29.336 9.504l-.083.056-.006.083.165.013c.056-.007.063-.016.076-.042.02-.028.017-.028.02-.063l-.172-.047z"/>
                    <path fill="#D30028" d="M29.411 9.668l-.165-.013-.004-.094.08-.07.193.047-.028.076.013.007c-.019.027-.032.034-.089.047"/>
                    <path fill="#CB0028" d="M30.056 9.292l-.09.089.007.066.178.007c.05-.013.044-.007.063-.046.018-.027.012-.034.018-.072l-.176-.044z"/>
                    <path fill="#D30028" d="M30.15 9.466l-.176-.01-.02-.076.096-.094.183.037-.02.086.014.007c-.026.033-.026.033-.076.05"/>
                    <path fill="#CB0028" d="M30.561 9.45l-.1.082v.083l.183.018c.057-.015.063-.028.082-.054.015-.026.004-.029.008-.07l-.173-.059z"/>
                    <path fill="#D30028" d="M30.647 9.643l-.186-.017-.007-.093.094-.086.194.05-.006.092c-.023.025-.036.044-.09.054"/>
                    <path fill="#CB0028" d="M29.33 7.273l.344.231c.066-.055.199-.022.259-.006.089.024.158.078.239.094.152.039.337.063.47.053.14-.018.252-.087.358-.14v-.036h-.066c-.11.04-.262.04-.385.026-.117-.013-.146-.067-.322-.122l-.02-.027c.219.006.266 0 .355-.036.08-.024.12-.074.173-.113V7.16h-.07c-.082.05-.135.063-.258.05-.117-.013-.222-.076-.301-.08-.081 0-.081-.036-.157-.043-.126-.01-.262.01-.38.037-.144.046-.17.08-.24.15"/>
                    <path fill="#BA0019" d="M30.561 7.658c-.113 0-.252-.019-.394-.053-.042-.006-.083-.03-.123-.047-.036-.02-.076-.035-.118-.048-.123-.034-.2-.031-.246 0l-.358-.224c.076-.105.118-.132.241-.171.136-.03.266-.044.385-.037.044.006.06.011.083.02.02.014.037.023.076.023.044 0 .082.017.132.034.05.02.11.04.167.042.118.013.172.007.259-.047v-.003l.07.008-.005.01.004-.006v.01c-.004 0-.004.006-.008.006l-.025.066c-.036.03-.077.063-.14.08-.066.032-.106.037-.208.037h-.057l.057-.021c.095 0 .136-.01.202-.04.057-.017.099-.046.126-.075l.045-.047c-.158.05-.202.06-.32.047-.063-.005-.123-.028-.173-.047-.047-.016-.089-.028-.126-.031-.045 0-.07-.013-.086-.023-.02-.01-.034-.016-.073-.022-.12-.01-.246.006-.378.035-.123.034-.152.07-.206.123l.316.233c.022-.034.123-.04.252-.001.042.008.083.027.125.043.04.026.074.04.116.05.176.042.341.063.47.047.117-.008.216-.06.303-.106l-.013-.04c-.137.05-.28.04-.385.027-.063-.013-.106-.028-.152-.054-.043-.022-.093-.043-.176-.066l.04-.016c.07.026.112.048.146.06.049.022.083.045.142.055.106.008.248.02.38-.033H31l-.04.083c-.096.047-.196.103-.313.113-.029.003-.056.006-.086.006"/>
                    <path fill="#82373B" d="M29.399 7.222c.029.01.063.02.095.034.028.013.015.013.044.036-.003-.03 0-.03-.016-.047-.023-.023-.054-.042-.076-.056l-.047.033zM29.686 7.469c0-.03-.016-.053-.029-.08-.011-.027-.018-.05-.04-.072.029.006.04.016.063.045.022.028.022.054.029.094l-.023.013zM29.75 7.106c.012.022.025.033.04.082l.013.09c-.007-.027 0-.06 0-.09-.007-.03-.02-.057-.021-.082h-.032zM30.031 7.125L30.044 7.29 30.063 7.134zM29.967 7.466c.007-.026 0-.054 0-.08-.006-.027-.013-.05-.022-.082.029.023.035.055.052.086 0 .032-.01.053-.03.076M30.255 7.396s.006.054-.006.092c-.01.044-.017.044-.047.07.037-.026.066-.036.076-.061.006-.04-.017-.098-.023-.1M30.309 7.34c-.026.006-.026-.077-.04-.12.007-.004.014 0 .027.02.013.007.006.065.013.1M30.501 7.311l.013-.07h.021v.05c0 .007-.027.02-.034.02M30.489 7.491c.013.023.029.047.034.073.006.022-.005.034-.021.066l.034.003c.02-.026.026-.047.02-.07 0-.025-.014-.04-.038-.062l-.03-.01z"/>
                    <path fill="#83353B" d="M30.542 7.646l-.04-.003.011-.08-.034-.066c.007 0 .017.003.023.006h-.016l.05.06c0 .023-.006.036-.02.06l.02.01-.013-.007c.02-.02.026-.04.02-.063l-.026-.053c.038.013.051.029.051.053 0 .023 0 .046-.02.076l-.006.007z"/>
                    <path fill="#82373B" d="M30.726 7.51L30.735 7.609 30.76 7.592 30.755 7.51z"/>
                    <path fill="#FBFC2B" d="M29.304 7.289c-.076.029-.104.07-.14.107l-.224-.117c-.034.036-.047.076-.034.12.02.042.089.111.142.139-.013.066-.035.115-.053.165-.03.06-.076.133-.082.158 0 .025-.007.081.034.1.035.014.171-.012.218-.009-.013.023-.026.066-.026.083.006.016.02.022.055.022-.006.024-.03.05-.016.066.027.018.056.018.086.015-.017.016-.043.039-.07.07-.049.042-.095.089-.112.111-.034.054-.04.104.03.1-.023.03-.047.054-.047.083.004.03.024.047.07.03-.03.065-.01.129 0 .198-.024.053-.017.097-.024.163-.046.03-.053.064-.088.123-.028.064-.09.083-.117.219l.199.05c.006-.028.034-.047.04-.076.013-.024.013-.063.007-.09.042-.06.123-.179.146-.245.043-.02.076-.04.113-.04.029 0 .052.02.089.04-.02.055-.06.115-.06.191v.209c-.013.047-.07.047-.099.205l.181.05c.034-.053.083-.063.094-.082l.01-.219c.026-.1.171-.189.171-.292.054 0 .07.003.094-.007.03-.013.036-.026.057-.048.006.035.032.035.055.035.02 0 .073-.032.087-.042.013.02.016.036.049.042.02.007.1-.006.13-.01l-.15.24c-.006.026.007.042-.013.063-.003.03-.027.039-.037.065l.17.037.023-.073c.04-.013.07-.023.087-.044.016-.019.016-.066.03-.092.052-.04.145-.132.211-.205.04.01.097.043.123.095.006.054.013.16-.02.233l-.103.172-.013.03.172.057.11-.08v-.119c.06-.097.135-.15.211-.21 0-.004.013-.135.007-.135-.02-.01-.036-.004-.036-.034-.006-.025-.006-.095 0-.123.007-.012.03-.029.03-.042-.03-.027-.017-.116-.013-.182 0-.076.106-.164.116-.206l.013-.082c-.013-.015-.03-.031-.03-.047s.017-.04.03-.06l.026-.034v-.2c-.007-.018-.026-.05-.045-.057-.015 0-.044.02-.064.039l-.1.072c-.045.015-.086.021-.168 0h-.13c-.063.021-.1.025-.163-.003h-.076c-.026.015-.06.03-.082.037-.033.007-.06.007-.083 0-.199.013-.145.03-.205.04-.04-.007-.028-.033-.206-.033l-.063-.02c-.087-.056-.157-.147-.212-.255.175-.054.25-.104.31-.227l-.255.008-.367-.242z"/>
                    <path fill="#E8D629" d="M29.193 8.07l-.063-.033c0-.018.004-.044.016-.074-.006 0-.035.006-.056.006-.039.005-.076.005-.109.005-.089-.021-.082-.087-.076-.117 0-.016.013-.04.036-.079l.04-.08c.026-.053.042-.096.054-.16-.054-.022-.123-.095-.136-.132-.015-.05-.007-.095.036-.136l.148.076-.148-.053c-.023.027-.03.066-.017.1.017.04.09.107.133.14-.003.075-.027.119-.044.17-.013.031-.032.06-.048.088-.012.026-.028.057-.028.07-.006.038-.013.076.016.089.067.003.104 0 .136-.007.028 0 .057-.003.076-.003l.034.13zm-.123.318c-.029-.021-.019-.047 0-.073.02-.02.047-.056.09-.09l.093-.093c-.037.017-.06.017-.082 0l.022-.063v.016l.067.044-.038.066c-.082.083-.118.11-.132.136-.02.023-.026.044-.02.057zm.034.487c0-.076 0-.11.02-.152-.02-.081-.03-.136 0-.196-.047.023-.067.007-.073-.024 0-.023.013-.042.032-.066.007.03-.006.046-.006.066l.02-.013.043.047c-.023.056-.01.102 0 .158-.01.07-.01.104-.01.143-.013.014-.02.027-.026.037zm1.002.335h-.004l.004-.07.155-.24c-.02.022-.073.028-.104.028l-.072-.037c-.063.05-.117.08-.146.003l.063.013c.007 0 .03-.003.083-.042l.053.042c.047 0 .104-.01.13-.013l-.162.316zm.648.288l-.182-.06.116-.215c.02-.047.024-.13.02-.232-.026-.04-.077-.076-.119-.084-.053.067-.148.164-.205.206l-.03.09c-.017.02-.04.033-.07.042l-.036.072-.18-.034.038-.067-.008.034.14.049.01-.06c.06-.03.076-.036.089-.052l.036-.094c.06-.045.144-.136.203-.205.067.006.125.04.15.1.009.105.003.188-.019.244l-.111.17.158.076.097-.082v-.11c.049-.092.115-.146.178-.196.034-.12.034-.142.034-.149-.04-.06-.04-.136-.034-.158 0-.067.013-.148.018-.227 0-.05.045-.105.083-.149.016-.022.035-.047.039-.06l.006-.075c-.03-.064-.016-.09 0-.11l.024-.232h-.006l-.081-.01-.102.073c-.044.016-.099.026-.173.004h-.13c-.061.016-.108.022-.171-.007l-.07.003c-.025.02-.06.033-.082.04l-.08-.014v.013c-.137.008-.153.018-.166.024h-.07c-.025-.006-.046-.019-.176-.019l-.07-.024c-.082-.05-.151-.133-.218-.256.186-.066.26-.121.31-.24l-.243.022-.374-.238c-.044.02-.075.052-.104.08l-.016-.007c.033-.044.07-.076.126-.094l.37.243.253-.013c-.047.142-.123.199-.309.254.076.103.14.186.212.233l.07.016c.123 0 .15.013.176.024.07-.011.086-.018.228-.03l.08.002c.02-.003.05-.019.07-.029l.09-.006c.069.023.1.02.158 0h.136c.08.02.116.01.163 0L31.1 7.9c.006-.008.04-.04.066-.04.028.006.054.053.054.07l.003.198-.053.096.017.129c-.005.018-.02.04-.04.066-.034.04-.076.09-.076.14-.007.046-.016.148.013.176-.036.076-.04.145-.036.171.039.031.045.034.036.154-.102.095-.165.149-.212.228l-.007.113-.11.096zm-1.226.04l-.186-.047c.01-.116.037-.152.063-.18l.023-.247c0-.053.018-.097.034-.136l-.05-.076c-.033 0-.06.007-.109.033-.02.056-.103.18-.139.236 0 .013.007.06-.005.095l-.055.076-.199-.047c.007-.105.042-.145.07-.18l.06-.095c.016-.035.035-.063.063-.085-.015.05-.028.07-.04.097-.035.064-.044.082-.064.098-.029.033-.06.073-.076.159l.193.037.023-.066c.006-.026.012-.057.006-.092.04-.067.123-.183.149-.246.08-.047.136-.054.186-.02.03.046.02.063.013.09-.02.035-.042.075-.042.122v.209c-.047.08-.076.113-.094.205l.17.036c.016-.03.042-.045.06-.058l.035-.227c.01-.048.054-.099.081-.139.049-.05.086-.102.086-.155h.048l.018-.013.042.016-.089.003c0 .057-.04.11-.082.165-.034.04-.07.084-.076.13l-.018.212c-.052.037-.076.056-.092.084l-.007.006z"/>
                    <path fill="#624E0F" d="M29.216 7.608l.072.032c.004.012.028.018.04.021.014 0 .017-.01.03-.02l.066-.033c-.039-.007-.053-.032-.089-.032-.047 0-.073.022-.12.032"/>
                    <path fill="#624E0F" d="M29.33 7.674l-.12-.06h.006v-.006h.013c.06-.034.074-.037.107-.037l.063.027-.063-.013-.096.03.09.046v-.01.01l.012-.02.07-.036.016.01-.099.06z"/>
                    <path fill="#C2A21F" d="M29.351 8.46c0 .007-.01.01-.016.007-.006-.089-.024-.148-.053-.212.029.047.053.13.07.206M29.775 8.47c.016.004.034.004.04-.003.007-.02-.011-.043-.018-.06-.022-.05-.042-.105-.051-.126-.005-.01-.018-.003-.018.007.018.043.04.166.047.182M30.008 8.442c0 .013-.033 0-.04-.016 0-.018-.048-.19-.036-.196.007-.003.036.057.047.086 0 .016.023.076.03.126M29.974 8.79c0 .01.029 0 .04-.01.03-.047.07-.097.083-.12.006-.022.042-.155.029-.155 0-.003-.036.07-.07.136-.042.073-.082.139-.082.149"/>
                    <path fill="#C2A21F" d="M29.98 8.805l-.013-.006c-.006-.016-.006-.023.076-.164l.047-.085c.007-.007.007-.007.013-.007l-.04.104c-.067.111-.076.136-.076.142l-.007-.006v.013l.07-.091c.029-.052.053-.125.056-.155.033.013 0 .113-.003.113l-.123.142zM30.208 8.717c-.013.003.026-.117.026-.14.006-.033.014-.095.027-.17.016.104 0 .227-.053.31"/>
                    <path fill="#C2A21F" d="M30.208 8.736l-.013-.013c-.007-.006-.007-.016.013-.097l.04-.222c.042.114.023.233-.027.316l-.013.016zM30.35 8.347c-.007.007-.11-.165-.1-.165.004-.005.08.109.093.125.007.011.01.024.007.04M30.584 8.47c-.007-.01-.007-.056-.017-.116-.017-.06-.043-.118-.037-.133.007-.006.02 0 .037.007.004.03.017.157.033.233 0 .006-.004.01-.016.01M30.748 8.319c-.007-.007.023.06.047.136.016.079.035.215.042.205.01-.006.01-.023.027-.026.026-.003.112 0 .109-.003-.055-.05-.109-.087-.136-.136-.042-.053-.066-.123-.09-.176"/>
                    <path fill="#C2A21F" d="M30.83 8.676h-.013l-.006-.07c-.01-.04-.015-.103-.028-.145-.013-.04-.03-.083-.036-.107 0 0 0 .003.007.003-.007-.01-.013-.016-.013-.026.02.023.03.042.042.057.018.032.034.066.057.099.03.04.066.072.113.11l-.123.079z"/>
                    <path fill="#FFF" d="M31.579 8.072c.504.104.964.225 1.422.376.46.145.897.323 1.342.516l-.739 1.502c-.424-.16-.828-.283-1.246-.415-.407-.13-.808-.251-1.22-.377l.44-1.602z"/>
                    <path fill="#FFF" d="M31.579 8.085l-.434 1.589.384.105c.275.082.554.17.836.258l.184.06c.343.11.691.225 1.042.358l.746-1.498c-.382-.152-.838-.338-1.336-.5-.452-.147-.918-.268-1.422-.372zm2.025 2.397l-.006-.005c-.358-.134-.706-.247-1.055-.357l-.188-.06c-.276-.089-.558-.175-.833-.257l-.385-.12.439-1.614c.514.098.977.221 1.431.367.495.157.955.351 1.34.518l-.743 1.528z"/>
                    <path fill="#CB0028" d="M31.487 8.426s.699.156 1.365.372c.67.219 1.327.494 1.327.494-.007 0-.424.862-.424.862-.41-.163-.83-.315-1.254-.451-.417-.136-.84-.262-1.273-.364l.26-.913z"/>
                    <path fill="#D30028" d="M33.762 10.167h-.013c-.392-.158-.809-.309-1.247-.451-.398-.13-.828-.262-1.273-.364l.246-.929c.034-.003.716.152 1.378.366.445.139 1.203.427 1.32.493-.06-.006-.67-.262-1.323-.474-.665-.215-1.356-.365-1.369-.372l-.241.903c.44.089.87.221 1.268.354.439.14.85.291 1.238.442.373-.754.414-.843.427-.853.01.003.016.01.016.01-.016.029-.31.636-.427.865v.01z"/>
                    <path fill="#000" d="M31.544 8.853c.066-.04.11-.054.155-.114h.24l.006.088c.063.026.093.06.159.089.056.032.145.053.205.082l.528.047c.07.013.17.042.233.076.063.034.101.083.135.143.112.034.216.056.327.076.113.017.253.024.36.027.056.02.056.049.028.08 0 0-.06.075-.224.075-.164.007-.345-.092-.427-.076.006.047.089.15.187.193v.231l-.045.044-.053-.034c.04-.053.029-.12.01-.178-.033-.053-.033-.07-.106-.074-.08-.017-.134-.036-.24-.106l-.033.007c-.026.03-.049.063-.102.086l-.097-.004s-.241-.053-.241-.056c0-.003-.007-.039 0-.042.01-.004.082-.004.085-.004.054.02.16.02.16.02v-.092l.16-.01c-.028-.11-.041-.183-.193-.207l-.465.014v.064c-.111-.015-.322-.015-.433.019-.06.003-.154.036-.196.036l-.044-.013c-.032-.01-.032-.02-.019-.049.199-.008.235-.027.294-.056.004-.018-.019-.06-.029-.06-.132-.007-.23 0-.265-.007-.053-.014-.13-.047-.13-.047s-.006-.047 0-.047l.083.018c.083.02.23.013.269-.005v-.066c0-.032-.023-.065-.03-.065-.01-.003-.142-.014-.186-.014-.076-.016-.066-.057-.066-.09"/>
                    <path fill="#000" d="M31.699 9.298c.116-.034.146-.053.192-.073l-.123-.043-.076.003-.089-.003c-.024-.007-.135-.042-.135-.06l.019-.02c.03.026.083.044.116.054H31.768l.1.006c.017.007.046.054.04.076-.05.031-.09.047-.21.06zm1.247.107c-.04-.094-.06-.15-.186-.173l-.464.01.016.05c-.063.013-.126.006-.196.006-.108 0-.195.01-.247.026-.037.003-.071.015-.107.021-.034.013-.07.02-.095.02l-.081-.038c.017-.003.024-.006.04-.01l.04.035v-.013c.026 0 .062-.007.096-.018.036-.003.07-.016.102-.016.074-.023.192-.03.252-.03.07 0 .14.007.186.01l-.026-.05.484-.026c.152.026.172.096.2.193l-.014.003zm-.053.222l-.11-.007c-.246-.06-.246-.06-.246-.066.011-.054.014-.057.097-.057.053.016.162.02.162.02l-.013-.08.103-.016-.09.026.01.083c-.01.008-.122.008-.175-.007h-.08c.013.028.238.076.238.076l.104.005c.042-.024.06-.047.082-.08.013.006.026.006.033.009-.04.04-.062.068-.115.094zm.519.3l-.061-.038c.035-.067.022-.127.006-.18-.034-.06-.04-.066-.094-.07-.076-.016-.13-.035-.221-.095.11.042.158.06.221.07.067.003.076.026.104.066.032.086.045.152 0 .205l.045.03-.013-.01.047-.044V9.64c-.095-.036-.183-.14-.19-.193.074-.016.124 0 .184.02.082.017.171.046.255.046.162-.003.212-.076.212-.076-.123-.063-.262-.07-.375-.085-.115-.02-.222-.04-.332-.076-.035-.067-.082-.114-.136-.146-.063-.03-.158-.06-.228-.071l-.527-.049c-.036-.013-.073-.027-.107-.043-.042-.013-.076-.026-.105-.04-.034-.01-.054-.03-.083-.046l-.076-.044-.011-.095-.228.01c-.026.043-.06.06-.107.082-.035.063-.035.082.018.094.013-.012.181.013.192.02.007.006.036.035.036.069v.07c-.057.041-.205.035-.281.022l-.054-.023.013-.013c.193.046.272.02.303 0l-.004-.053c-.034-.057-.16-.07-.205-.07-.076-.016-.076-.053-.076-.09v-.007l.045-.035c.047-.023.076-.04.107-.086l.252-.006.017.101c.025 0 .046.02.079.033.022.014.037.034.076.047.022.016.063.027.097.04l.105.046.524.043c.07.01.176.037.241.083.057.027.097.076.138.139.102.03.205.053.317.07.113.017.252.024.359.03h.013l.045.039c-.023.053-.082.136-.254.136-.084 0-.18-.023-.262-.049-.06-.016-.11-.027-.149-.027 0 .027.08.13.178.17v.249l-.05.052z"/>
                    <path fill="#FFF" d="M32.565 9.396c.066.026.12.033.23.04l.158-.007c-.028-.112-.04-.185-.193-.21l-.464.016v.063c.146.051.218.079.269.098"/>
                    <path fill="#000" d="M32.795 9.447c-.107-.007-.165-.013-.236-.037-.082-.036-.152-.062-.264-.102l-.017-.073.483-.024c.15.024.17.093.2.192l-.014.003c-.042-.095-.06-.152-.186-.174l-.466.01.017.05c.108.035.171.066.218.082.103.036.158.04.265.053l.117-.013-.117.033z"/>
                    <path fill="#1E2788" d="M23.307 10.196l-.846-3.137L23.75 5.5l1.796 1.029.312 3.327c-.919.07-1.52.159-2.55.339"/>
                    <path fill="#160080" d="M23.746 5.51l-1.273 1.555.837 3.118c1.01-.174 1.616-.268 2.547-.338l-.317-3.311-1.794-1.024zm-.45 4.7v-.009l-.849-3.136L23.74 5.49l1.817 1.027.31 3.337c-.941.08-1.551.176-2.559.353l-.013.003z"/>
                    <path fill="#FBFC2B" d="M20.293 7.583l.303.236-.054.42.395-.163.317.24.04-.385.329-.127-.269-.258.057-.387s-.391.142-.391.139c0-.006-.285-.236-.285-.233 0 .007-.063.362-.063.362l-.379.156z"/>
                    <path fill="#F4C627" d="M20.931 8.06l.31.231.041-.364.335-.142-.275-.228.057-.398c-.369.158-.372.158-.379.158-.026-.02-.271-.231-.288-.24.01.009-.046.354-.046.354l-.39.168.313.212-.053.432.375-.183zm.335.281l-.335-.249-.388.163.04-.438-.302-.218.385-.183c.053-.351.053-.358.06-.358.016-.003.3.227.304.227l.375-.138-.04.398.268.246-.331.152-.036.398z"/>
                    <path fill="#F4C427" d="M20.296 7.586l1.32.212-.328.132-.316-.221s.288.597.282.593c-.007 0-.307-.22-.317-.23l.029-.363-.417.527.06-.419-.313-.231z"/>
                    <path fill="#F4C627" d="M20.666 7.434L20.972 7.696 20.735 7.064z"/>
                    <path fill="#F4C627" d="M21.014 7.314c.006.003-.047.382-.04.382.027-.044.438-.527.431-.527 0 0-.379.148-.391.145"/>
                    <path fill="#FBFC2B" d="M32.88 7.049l.083.378-.322.282.41.13.082.383.288-.269.335.107-.034-.37.299-.256s-.395-.136-.395-.143c.007 0-.056-.356-.063-.356-.006 0-.288.233-.288.233l-.395-.12z"/>
                    <path fill="#F4C627" d="M32.88 7.061l.096.368-.33.292.41.106.083.368.279-.252.344.107-.06-.356.306-.265c-.388-.125-.388-.125-.395-.131 0-.018-.05-.34-.056-.36 0 .02-.275.243-.275.243l-.402-.12zm.246 1.181l-.084-.404-.407-.117.318-.299-.082-.37.41.108c.276-.238.276-.238.282-.238.013.013.083.367.07.379.024.003.388.128.388.128l-.295.273.043.357-.351-.097-.292.28z"/>
                    <path fill="#F4C627" d="M32.887 7.058l.868.998-.338-.106-.093-.374-.178.636c0-.007-.09-.364-.09-.374l.268-.265s-.677.139-.677.136c.005 0 .329-.279.329-.279l-.09-.372zM33.275 7.169L33.339 7.563 33.57 6.929z"/>
                    <path fill="#F4C627" d="M33.62 7.292c0 .006-.282.265-.282.265.047-.013.683-.123.677-.123 0 0-.389-.132-.395-.142"/>
                    <path fill="#CB0028" d="M22.467 7.07c.458-.217.974-.387 1.514-.463.52-.073 1.038-.076 1.576-.076l.066.821c-.417.007-.73 0-1.472.091-.74.105-1.04.19-1.485.364l-.2-.736z"/>
                    <path fill="#D30028" d="M25.544 6.53l-.092.014c-.552 0-1.008.01-1.472.076-.505.07-1.008.22-1.506.464l.199.707c.438-.17.746-.26 1.478-.356.673-.09.995-.09 1.36-.09h.113c-.013-.006-.08-.814-.08-.814zM22.66 7.82l-.205-.743c.51-.252 1.02-.41 1.525-.483.464-.063.92-.076 1.472-.076h.105c.013.013.083.828.083.834l-.128.017c-.366 0-.681 0-1.36.087-.74.105-1.04.19-1.486.36l-.006.004z"/>
                    <path fill="#CB0028" d="M22.859 8.521c-.007 0 .236.865.236.865.433-.11.878-.192 1.331-.258.445-.06.925-.1 1.356-.127l-.076-.847c-.458-.021-.98-.021-1.451.035-.468.067-.926.173-1.396.332"/>
                    <path fill="#D30028" d="M25.134 8.148c-.316 0-.614.02-.872.054-.461.056-.916.171-1.396.328.006.02.142.51.233.844.417-.105.865-.192 1.328-.255.451-.066.938-.102 1.354-.128l-.088-.836c-.171 0-.364-.007-.56-.007zm-2.052 1.247l-.004-.001c-.235-.87-.235-.875-.229-.882.487-.165.945-.272 1.406-.335.424-.051.968-.061 1.451-.035L25.79 9c-.425.039-.906.073-1.363.139-.463.063-.911.152-1.332.255h-.013z"/>
                    <path fill="#FFF" d="M20.754 11.197h12.773v8.189c-.322 3.185-3.382 5.57-6.192 5.551-3.02.133-6.362-2.344-6.6-5.582l.02-8.158z"/>
                    <path fill="#CB0028" d="M33.487 11.197l-12.732.044.025 8.114c.246 3.355 3.694 5.662 6.555 5.535 2.661 0 5.817-2.263 6.152-5.51v-8.183zm-6.375 13.794c-2.844 0-6.181-2.315-6.427-5.636l.03-8.158 12.813-.044.048 8.233c-.335 3.3-3.546 5.598-6.205 5.598-.109 0-.19.007-.26.007z"/>
                    <path fill="#CB0028" d="M21.026 11.481h12.236v7.85c-.309 3.053-3.247 5.337-5.933 5.32-2.898.13-6.1-2.244-6.335-5.347l.032-7.823z"/>
                    <path fill="#CB0028" d="M33.215 11.481l-12.189.044.017 7.78c.24 3.212 3.554 5.418 6.286 5.3 2.55 0 5.578-2.164 5.886-5.281V11.48zm-6.103 13.22c-2.727 0-5.922-2.212-6.158-5.397l.022-7.823 12.286-.043.042 7.892c-.317 3.163-3.39 5.364-5.946 5.364-.102.004-.176.007-.246.007z"/>
                    <mask id="prefix__d" fill="#fff">
                        <use xlink:href="#prefix__c"/>
                    </mask>
                    <path fill="#FFF" d="M23.487 14.138L25.92 14.138 25.92 11.519 23.487 11.519zM30.808 19.386v2.585l1.372.007c.663-.997.948-1.966 1.014-2.592h-2.386z" mask="url(#prefix__d)"/>
                    <path fill="#FFF" d="M30.808 19.396l.01 2.575 1.355-.006c.822-1.233.979-2.288 1.008-2.579l-1.242.01h-1.131zm1.378 2.595l-1.378-.007-.013-2.598 1.144-.013h1.255c-.02.31-.181 1.372-1.003 2.611l-.005.007zM28.372 21.996v2.483c1.055-.208 1.918-.736 2.41-1.093l-.006-1.39h-2.404z" mask="url(#prefix__d)"/>
                    <path fill="#FFF" d="M30.764 21.996l-2.393.016.007 2.457c1.02-.205 1.865-.71 2.399-1.09l-.013-1.383zM28.363 24.5v-2.503l2.414-.013.019 1.403c-.547.398-1.398.9-2.418 1.11l-.015.003zM23.503 21.996l.007 1.39c.828.585 1.78.941 2.407 1.07L25.91 22l-2.407-.003z" mask="url(#prefix__d)"/>
                    <path fill="#FFF" d="M25.898 22l-2.394.012.018 1.374c.834.585 1.776.93 2.383 1.06l-.007-2.447zm.03 2.473l-.01-.003c-.614-.127-1.568-.478-2.414-1.075l-.01-1.399 2.417-.006.016 2.483zM21.07 19.386c.076 1.015.534 1.916.985 2.556l1.42.03v-2.586H21.07z" mask="url(#prefix__d)"/>
                    <path fill="#FFF" d="M23.465 19.386l-2.394.01c.094 1.134.663 2.076.998 2.537l1.396.025v-2.572zm.023 2.597h-.013l-1.419-.031c-.341-.468-.915-1.419-.998-2.566l2.417-.013.013 2.61zM21.055 16.754L23.488 16.754 23.488 14.138 21.055 14.138zM25.92 16.754L28.356 16.754 28.356 14.138 25.92 14.138zM28.356 14.125L30.789 14.125 30.789 11.51 28.356 11.51zM30.795 16.754L33.228 16.754 33.228 14.138 30.795 14.138zM23.487 19.37L25.92 19.37 25.92 16.754 23.487 16.754zM28.356 19.37L30.789 19.37 30.789 16.754 28.356 16.754zM25.92 21.99L28.356 21.99 28.356 19.371 25.92 19.371z" mask="url(#prefix__d)"/>
                    <path fill="#C2A21F" d="M29.55 8.43c-.013.012-.029-.114-.034-.133-.01-.037-.029-.092-.048-.17.06.094.095.204.082.302" mask="url(#prefix__d)"/>
                    <path fill="#C2A21F" d="M29.55 8.442c-.016 0-.022-.013-.034-.1l-.061-.209c.082.08.121.199.108.3l-.013.009z" mask="url(#prefix__d)"/>
                </g>
            </g>
        </g>
    </g>
</svg>
