<svg xmlns="http://www.w3.org/2000/svg" xmlns:xlink="http://www.w3.org/1999/xlink" width="32" height="20" viewBox="0 0 32 20">
    <defs>
        <rect id="6t9bfcxlma" width="30" height="18" x="0" y="0" rx="3"/>
    </defs>
    <g fill="none" fill-rule="evenodd">
        <g>
            <g transform="translate(-500.000000, -553.000000) translate(501.000000, 554.000000)">
                <mask id="so9rvx6cnb" fill="#fff">
                    <use xlink:href="#6t9bfcxlma"/>
                </mask>
                <rect width="30.5" height="18.5" x="-.25" y="-.25" stroke="#7E919F" stroke-opacity=".497" stroke-width=".5" rx="3"/>
                <g mask="url(#so9rvx6cnb)">
                    <g>
                        <path fill="#223693" d="M0 18L30 18 30 0 0 0z" transform="translate(0.000000, -0.000732)"/>
                        <path fill="#FFF" d="M6.967 17.915L10.948 17.915 10.948 0 6.967 0z" transform="translate(0.000000, -0.000732)"/>
                        <path fill="#FFF" d="M0 10.949L30.711 10.949 30.711 6.967 0 6.967z" transform="translate(0.000000, -0.000732)"/>
                        <path fill="#C51D32" d="M7.962 17.915L9.954 17.915 9.954 0 7.962 0z" transform="translate(0.000000, -0.000732)"/>
                        <path fill="#C51D32" d="M0 9.954L30.711 9.954 30.711 7.963 0 7.963z" transform="translate(0.000000, -0.000732)"/>
                    </g>
                </g>
            </g>
        </g>
    </g>
</svg>
