<svg xmlns="http://www.w3.org/2000/svg" xmlns:xlink="http://www.w3.org/1999/xlink" width="32" height="20" viewBox="0 0 32 20">
    <defs>
        <rect id="rtx23351ea" width="30" height="18" x="0" y="0" rx="3"/>
        <path id="oi1orff9xc" d="M0 19.385L30.711 19.385 30.711 0.385 0 0.385z"/>
    </defs>
    <g fill="none" fill-rule="evenodd">
        <g>
            <g transform="translate(-265.000000, -553.000000) translate(266.000000, 554.000000)">
                <mask id="bzth4cktnb" fill="#fff">
                    <use xlink:href="#rtx23351ea"/>
                </mask>
                <rect width="30.5" height="18.5" x="-.25" y="-.25" stroke="#7E919F" stroke-opacity=".497" stroke-width=".5" rx="3"/>
                <g mask="url(#bzth4cktnb)">
                    <g>
                        <path fill="#FFF" d="M0 19.914L30.711 19.914 30.711 0.914 0 0.914z" transform="translate(0.000000, -1.111111)"/>
                        <g transform="translate(0.000000, -1.111111) translate(0.000000, 0.529072)">
                            <path fill="#D50037" d="M7.284 4.427c-.016.328-.048.654-.097.973-.019.105-.038.206-.054.308.198-.025.401-.04.61-.04.207 0 .412.015.61.04-.02-.102-.035-.203-.054-.308-.047-.319-.081-.645-.094-.973.434.02.861.073 1.276.152-.023-.202-.036-.404-.036-.61 0-.21.013-.41.036-.613-.415.079-.842.133-1.276.152.016-.434.068-.863.148-1.28-.198.024-.403.037-.61.037-.209 0-.412-.013-.61-.038.076.418.129.847.151 1.281-.438-.02-.864-.073-1.282-.152.026.202.039.404.039.613 0 .206-.013.408-.04.61.419-.079.845-.133 1.283-.152M22.511 4.427c-.016.328-.05.654-.1.973-.012.105-.033.206-.052.308.199-.025.404-.04.61-.04.206 0 .41.015.61.04-.02-.102-.033-.203-.05-.308-.052-.319-.084-.645-.1-.973.436.02.864.073 1.282.152-.027-.202-.041-.404-.041-.61 0-.21.014-.41.04-.613-.417.079-.845.133-1.28.152.023-.434.073-.863.15-1.28-.2.024-.405.037-.611.037-.206 0-.411-.013-.61-.038.079.418.133.847.152 1.281-.434-.02-.863-.073-1.28-.152.024.202.037.404.037.613 0 .206-.013.408-.038.61.418-.079.847-.133 1.281-.152M8.205 14.258c.013-.33.047-.656.095-.974.017-.102.034-.205.053-.307-.198.025-.403.04-.61.04-.208 0-.412-.015-.61-.04.016.102.035.205.053.307.05.318.083.644.098.974-.437-.021-.864-.075-1.282-.152.026.2.039.402.039.611 0 .206-.013.411-.04.61.419-.079.846-.131 1.283-.15-.022.434-.075.86-.152 1.279.2-.025.403-.038.612-.038.206 0 .41.013.61.038-.081-.418-.133-.845-.15-1.28.436.02.862.072 1.277.15-.023-.198-.036-.403-.036-.609 0-.21.013-.41.036-.61-.415.076-.841.13-1.276.151M23.43 14.258c.016-.33.05-.656.1-.974.016-.102.03-.205.05-.307-.2.025-.406.04-.611.04-.206 0-.411-.015-.61-.04.02.102.04.205.052.307.05.318.085.644.1.974-.435-.021-.863-.075-1.281-.152.025.2.038.402.038.611 0 .206-.013.411-.038.61.418-.079.846-.131 1.281-.15-.02.434-.073.86-.152 1.279.199-.025.404-.038.61-.038.205 0 .41.013.61.038-.076-.418-.126-.845-.15-1.28.435.02.864.072 1.282.15-.027-.198-.041-.403-.041-.609 0-.21.014-.41.04-.61-.417.076-.846.13-1.28.151"/>
                            <mask id="ypqxlpj5cd" fill="#fff">
                                <use xlink:href="#oi1orff9xc"/>
                            </mask>
                            <path fill="#D50037" d="M13.553 19.386L17.161 19.386 17.161 0.386 13.553 0.386z" mask="url(#ypqxlpj5cd)"/>
                            <path fill="#D50037" d="M0 11.148L30.711 11.148 30.711 7.534 0 7.534z" mask="url(#ypqxlpj5cd)"/>
                        </g>
                    </g>
                </g>
            </g>
        </g>
    </g>
</svg>
