<svg xmlns="http://www.w3.org/2000/svg" xmlns:xlink="http://www.w3.org/1999/xlink" width="54" height="32" viewBox="0 0 54 32">
    <defs>
        <rect id="prefix__a" width="54" height="32" x="0" y="0" rx="9"/>
    </defs>
    <g fill="none" fill-rule="evenodd">
        <mask id="prefix__b" fill="#fff">
            <use xlink:href="#prefix__a"/>
        </mask>
        <use fill="#D8D8D8" xlink:href="#prefix__a"/>
        <g mask="url(#prefix__b)">
            <path fill="#4EAEC4" d="M0 32.066L53.306 32.066 53.306 0 0 0z"/>
            <g>
                <path fill="#F5C832" d="M1.908 21.67c0-.647.562-.973 1.002-.973.59 0 .908.365.908.839 0 .275-.049.44-.17.704 0 0-.98 2.085-1.359 2.897-.043.097-.062.218-.062.385 0 .262.245.473.503.48.232.005.486-.224.486-.493 0-.315-.157-.455-.319-.455-.208 0-.292.083-.292.23 0 .104.05.148.122.148.17 0 .121-.244.121-.244.086.02.16.116.12.224.063.02.121.051.164.104-.043.044-.095.081-.163.095.04.14-.016.204-.137.23.026-.044.029-.096.022-.14-.189.05-.475-.038-.475-.366 0-.326.226-.607.636-.537-.096-.05-.146-.147-.157-.255.076.026.157.03.157.03-.046-.088-.115-.165-.108-.338.071.046.146.11.244.07-.154-.32.035-.748.518-.85-.173.205-.264.44-.264.672 0 .742.202.87.202 1.382 0 .218-.111.454-.319.614v-.006c.14.037.23.101.28.204-.317.09-.788.09-1.042-.013-.293-.03-.494-.262-.553-.376-.065-.123-.176-.54 0-.916.192-.416 1.097-2.393 1.377-3.014.062-.134.1-.268.1-.422 0-.384-.338-.511-.53-.511-.234 0-.469.178-.469.41 0 .133.081.224.186.224.26 0 .244-.225.189-.372.165.077.263.205.233.345.092.013.18.064.26.16-.061.076-.142.14-.26.14.053.224-.09.308-.233.359.049-.154.078-.34-.19-.34-.191 0-.347-.037-.433-.158-.003.165-.022.843-.022.843-.01.256.335.251.55.18-.082.294-.25.454-.64.415.093.04.195.13.195.308 0 .236-.19.506-.313.581l-.065-2.494z" transform="translate(1.588 .947)"/>
                <path fill="#F5C832" d="M2.035 21.67c0-.647-.56-.973-1.002-.973-.59 0-.902.365-.902.839 0 .275.042.44.163.704l1.363 2.897c.046.097.062.218.062.385 0 .262-.246.473-.504.48-.235.005-.489-.224-.489-.493 0-.315.157-.455.323-.455.204 0 .285.083.285.23 0 .104-.047.148-.119.148-.17 0-.124-.244-.124-.244-.082.02-.154.116-.117.224-.062.02-.118.051-.167.104.05.044.099.081.167.095-.037.14.016.204.133.23-.025-.044-.025-.096-.019-.14.186.05.472-.038.472-.366 0-.326-.218-.607-.635-.537.098-.05.15-.147.157-.255-.072.026-.157.03-.157.03.049-.088.12-.165.114-.338-.078.046-.152.11-.248.07.154-.32-.035-.748-.518-.85.18.205.264.44.264.672 0 .742-.202.87-.202 1.382 0 .218.108.454.323.614v-.006c-.14.037-.234.101-.286.204.326.09.794.09 1.045-.013.295-.03.49-.262.556-.376.059-.123.173-.54 0-.916-.199-.416-1.1-2.393-1.383-3.014-.056-.134-.094-.268-.094-.422 0-.384.338-.511.53-.511.227 0 .462.178.462.41 0 .133-.074.224-.182.224-.257 0-.245-.225-.192-.372-.162.077-.254.205-.23.345-.09.013-.18.064-.261.16.065.076.143.14.26.14-.052.224.09.308.23.359-.045-.154-.074-.34.193-.34.195 0 .344-.037.433-.158.007.165.023.843.023.843.012.256-.332.251-.553.18.081.294.252.454.646.415-.097.04-.198.13-.198.308 0 .236.192.506.316.581l.062-2.494zM1.973 28.605s.292.25.397.121c.162-.204-.496-1.228-.496-1.592 0-.596.382-.755.856-.838.323-.058.837.024.837.024-.093.136-.155.174-.322.187.183.095.372.313.372.639 0 .513-.205.724-.205 1.292 0 .328.25.73.25.73-.449-.045-.671-.48-.54-.818-.072-.013-.144.006-.193.064-.032-.097.014-.205.086-.308-.059-.025-.096 0-.19.013.013-.095.072-.198.206-.3-.404.115-.652-.187-.652-.486 0-.225.158-.392.307-.392.052 0 .124.013.168.053.024-.064.011-.141-.022-.205.114.024.183.088.137.236.084.006.155.032.198.09-.043.07-.117.101-.198.095.062.134-.007.211-.111.27 0 0 .068-.27-.097-.27-.078 0-.146.032-.146.14 0 .097.084.238.282.232.186-.014.345-.141.345-.46 0-.289-.227-.436-.53-.443-.267-.013-.479.14-.479.436 0 .376.54 1.248.54 1.592 0 .257-.224.398-.446.398-.28 0-.52-.289-.52-.289l.166-.21z" transform="translate(1.588 .947)"/>
                <path fill="#F5C832" d="M1.973 28.605s-.296.25-.394.121c-.165-.204.496-1.228.496-1.592 0-.596-.388-.755-.86-.838-.322-.058-.843.024-.843.024.1.136.162.174.326.187-.18.095-.363.313-.363.639 0 .513.199.724.199 1.292 0 .328-.254.73-.254.73.446-.045.672-.48.548-.818.065-.013.133.006.192.064.029-.097-.02-.205-.089-.308.052-.025.095 0 .186.013-.01-.095-.068-.198-.208-.3.406.115.654-.187.654-.486 0-.225-.154-.392-.31-.392-.046 0-.117.013-.162.053-.03-.064-.01-.141.016-.205-.108.024-.182.088-.133.236-.087.006-.153.032-.199.09.046.07.118.101.199.095-.062.134.01.211.108.27 0 0-.062-.27.103-.27.075 0 .143.032.143.14 0 .097-.084.238-.28.232-.188-.014-.344-.141-.344-.46 0-.289.227-.436.53-.443.27-.013.475.14.475.436 0 .376-.537 1.248-.537 1.592 0 .257.224.398.44.398.29 0 .526-.289.526-.289l-.165-.21zM1.908 10.435c0-.64.562-.973 1.002-.973.59 0 .908.372.908.845 0 .275-.049.44-.17.698 0 0-.98 2.092-1.359 2.897-.043.104-.062.225-.062.385 0 .269.245.474.503.48.232.005.486-.218.486-.486 0-.321-.157-.456-.319-.456-.208 0-.292.077-.292.231 0 .102.05.148.122.148.17 0 .121-.25.121-.25.086.025.16.115.12.23.063.013.121.044.164.103-.043.038-.095.082-.163.095.04.135-.016.205-.137.231.026-.046.029-.096.022-.147-.189.057-.475-.033-.475-.365 0-.326.226-.602.636-.531-.096-.044-.146-.154-.157-.262.076.031.157.031.157.031-.046-.088-.115-.152-.108-.333.071.04.146.104.244.064-.154-.312.035-.742.518-.85-.173.218-.264.447-.264.678 0 .742.202.864.202 1.383 0 .216-.111.453-.319.614v-.007c.14.032.23.102.28.199-.317.095-.788.095-1.042-.014-.293-.03-.494-.255-.553-.371-.065-.122-.176-.538 0-.914.192-.416 1.097-2.393 1.377-3.014.062-.128.1-.269.1-.423 0-.376-.338-.51-.53-.51-.234 0-.469.178-.469.402 0 .141.081.225.186.225.26 0 .244-.225.189-.365.165.077.263.21.233.345.092.013.18.064.26.159-.061.07-.142.134-.26.14.053.219-.09.315-.233.36.049-.161.078-.34-.19-.34-.191 0-.347-.037-.433-.16-.003.167-.022.845-.022.845-.01.262.335.25.55.174-.082.3-.25.453-.64.414.093.046.195.134.195.315 0 .235-.19.504-.313.581l-.065-2.501z" transform="translate(1.588 .947)"/>
                <path fill="#F5C832" d="M2.035 10.435c0-.64-.56-.973-1.002-.973-.59 0-.902.372-.902.845 0 .275.042.44.163.698 0 0 .98 2.092 1.363 2.897.046.104.062.225.062.385 0 .269-.246.474-.504.48-.235.005-.489-.218-.489-.486 0-.321.157-.456.323-.456.204 0 .285.077.285.231 0 .102-.047.148-.119.148-.17 0-.124-.25-.124-.25-.082.025-.154.115-.117.23-.062.013-.118.044-.167.103.05.038.099.082.167.095-.037.135.016.205.133.231-.025-.046-.025-.096-.019-.147.186.057.472-.033.472-.365 0-.326-.218-.602-.635-.531.098-.044.15-.154.157-.262-.072.031-.157.031-.157.031.049-.088.12-.152.114-.333-.078.04-.152.104-.248.064.154-.312-.035-.742-.518-.85.18.218.264.447.264.678 0 .742-.202.864-.202 1.383 0 .216.108.453.323.614v-.007c-.14.032-.234.102-.286.199.326.095.794.095 1.045-.014.295-.03.49-.255.556-.371.059-.122.173-.538 0-.914-.199-.416-1.1-2.393-1.383-3.014-.056-.128-.094-.269-.094-.423 0-.376.338-.51.53-.51.227 0 .462.178.462.402 0 .141-.074.225-.182.225-.257 0-.245-.225-.192-.365-.162.077-.254.21-.23.345-.09.013-.18.064-.261.159.065.07.143.134.26.14-.052.219.09.315.23.36-.045-.161-.074-.34.193-.34.195 0 .344-.037.433-.16.007.167.023.845.023.845.012.262-.332.25-.553.174.081.3.252.453.646.414-.097.046-.198.134-.198.315 0 .235.192.504.316.581l.062-2.501z" transform="translate(1.588 .947)"/>
                <path fill="#F5C832" d="M2.035 8.51c0 .646-.56.972-1.002.972-.59 0-.902-.359-.902-.845 0-.262.042-.434.163-.691 0 0 .98-2.092 1.363-2.904.046-.097.062-.211.062-.385 0-.262-.246-.467-.504-.48-.235-.005-.489.231-.489.487 0 .327.157.466.323.466.204 0 .285-.088.285-.236 0-.103-.047-.147-.119-.147-.17 0-.124.244-.124.244-.082-.02-.154-.11-.117-.224-.062-.02-.118-.046-.167-.103.05-.045.099-.082.167-.095-.037-.141.016-.212.133-.238-.025.057-.025.103-.019.154.186-.057.472.031.472.359 0 .326-.218.607-.635.53.098.051.15.154.157.262-.072-.026-.157-.03-.157-.03.049.088.12.158.114.338-.078-.039-.152-.11-.248-.064.154.313-.035.749-.518.844.18-.218.264-.44.264-.672 0-.742-.202-.87-.202-1.388 0-.212.108-.448.323-.602v.007c-.14-.038-.234-.115-.286-.205.326-.101.794-.096 1.045.007.295.03.49.268.556.376.059.117.173.54 0 .916C1.774 5.58.873 7.556.59 8.177c-.056.127-.094.275-.094.422 0 .377.338.518.53.518.227 0 .462-.185.462-.403 0-.147-.074-.238-.182-.238-.257 0-.245.231-.192.372-.162-.07-.254-.211-.23-.345-.09-.013-.18-.058-.261-.154.065-.082.143-.146.26-.146-.052-.218.09-.315.23-.359-.045.154-.074.34.193.34.195 0 .344.03.433.165.007-.172.023-.857.023-.857.012-.255-.332-.249-.553-.174.081-.293.252-.453.646-.414-.097-.04-.198-.134-.198-.308 0-.236.192-.506.316-.581l.062 2.494z" transform="translate(1.588 .947)"/>
                <path fill="#F5C832" d="M1.908 8.51c0 .646.562.972 1.002.972.59 0 .908-.359.908-.845 0-.262-.049-.434-.17-.691L2.29 5.042c-.043-.097-.062-.211-.062-.385 0-.262.245-.467.503-.48.232-.005.486.231.486.487 0 .327-.157.466-.319.466-.208 0-.292-.088-.292-.236 0-.103.05-.147.122-.147.17 0 .121.244.121.244.086-.02.16-.11.12-.224.063-.02.121-.046.164-.103-.043-.045-.095-.082-.163-.095.04-.141-.016-.212-.137-.238.026.057.029.103.022.154-.189-.057-.475.031-.475.359 0 .326.226.607.636.53-.096.051-.146.154-.157.262.076-.026.157-.03.157-.03-.046.088-.115.158-.108.338.071-.039.146-.11.244-.064-.154.313.035.749.518.844-.173-.218-.264-.44-.264-.672 0-.742.202-.87.202-1.388 0-.212-.111-.448-.319-.602v.007c.14-.038.23-.115.28-.205-.317-.101-.788-.096-1.042.007-.293.03-.494.268-.553.376-.065.117-.176.54 0 .916.192.416 1.097 2.393 1.377 3.014.062.127.1.275.1.422 0 .377-.338.518-.53.518-.234 0-.469-.185-.469-.403 0-.147.081-.238.186-.238.26 0 .244.231.189.372.165-.07.263-.211.233-.345.092-.013.18-.058.26-.154-.061-.082-.142-.146-.26-.146.053-.218-.09-.315-.233-.359.049.154.078.34-.19.34-.191 0-.347.03-.433.165-.003-.172-.022-.857-.022-.857-.01-.255.335-.249.55-.174-.082-.293-.25-.453-.64-.414.093-.04.195-.134.195-.308 0-.236-.19-.506-.313-.581l-.065 2.494zM2.035 19.744c0 .64-.56.973-1.002.973-.59 0-.902-.372-.902-.845 0-.275.042-.434.163-.698 0 0 .98-2.092 1.363-2.897.046-.104.062-.218.062-.385 0-.256-.246-.48-.504-.485-.235-.007-.489.23-.489.485 0 .327.157.468.323.468.204 0 .285-.083.285-.237 0-.102-.047-.148-.119-.148-.17 0-.124.25-.124.25-.082-.025-.154-.115-.117-.23-.062-.013-.118-.044-.167-.103.05-.044.099-.082.167-.095-.037-.135.016-.205.133-.238-.025.058-.025.11-.019.154.186-.057.472.033.472.359 0 .332-.218.608-.635.537.098.05.15.148.157.262-.072-.03-.157-.037-.157-.037.049.088.12.165.114.339-.078-.04-.152-.104-.248-.064.154.313-.035.742-.518.843.18-.211.264-.44.264-.671 0-.742-.202-.864-.202-1.39 0-.209.108-.446.323-.6v.006c-.14-.037-.234-.108-.286-.211.326-.089.794-.089 1.045.013.295.038.49.262.556.378.059.115.173.538 0 .914-.199.416-1.1 2.393-1.383 3.014-.056.134-.094.269-.094.423 0 .383.338.51.53.51.227 0 .462-.178.462-.402 0-.141-.074-.23-.182-.23-.257 0-.245.23-.192.37-.162-.076-.254-.204-.23-.352-.09-.013-.18-.05-.261-.147.065-.082.143-.14.26-.14-.052-.224.09-.32.23-.371-.045.167-.074.346.193.346.195 0 .344.03.433.165.007-.172.023-.857.023-.857.012-.255-.332-.242-.553-.172.081-.294.252-.448.646-.41-.097-.038-.198-.133-.198-.307 0-.242.192-.511.316-.595l.062 2.508z" transform="translate(1.588 .947)"/>
                <path fill="#F5C832" d="M1.908 19.744c0 .64.562.973 1.002.973.59 0 .908-.372.908-.845 0-.275-.049-.434-.17-.698 0 0-.98-2.092-1.359-2.897-.043-.104-.062-.218-.062-.385 0-.256.245-.48.503-.485.232-.007.486.23.486.485 0 .327-.157.468-.319.468-.208 0-.292-.083-.292-.237 0-.102.05-.148.122-.148.17 0 .121.25.121.25.086-.025.16-.115.12-.23.063-.013.121-.044.164-.103-.043-.044-.095-.082-.163-.095.04-.135-.016-.205-.137-.238.026.058.029.11.022.154-.189-.057-.475.033-.475.359 0 .332.226.608.636.537-.096.05-.146.148-.157.262.076-.03.157-.037.157-.037-.046.088-.115.165-.108.339.071-.04.146-.104.244-.064-.154.313.035.742.518.843-.173-.211-.264-.44-.264-.671 0-.742.202-.864.202-1.39 0-.209-.111-.446-.319-.6v.006c.14-.037.23-.108.28-.211-.317-.089-.788-.089-1.042.013-.293.038-.494.262-.553.378-.065.115-.176.538 0 .914.192.416 1.097 2.393 1.377 3.014.062.134.1.269.1.423 0 .383-.338.51-.53.51-.234 0-.469-.178-.469-.402 0-.141.081-.23.186-.23.26 0 .244.23.189.37.165-.076.263-.204.233-.352.092-.013.18-.05.26-.147-.061-.082-.142-.14-.26-.14.053-.224-.09-.32-.233-.371.049.167.078.346-.19.346-.191 0-.347.03-.433.165-.003-.172-.022-.857-.022-.857-.01-.255.335-.242.55-.172-.082-.294-.25-.448-.64-.41.093-.038.195-.133.195-.307 0-.242-.19-.511-.313-.595l-.065 2.508zM1.973 1.58s.292-.255.397-.134c.162.211-.496 1.242-.496 1.6 0 .595.382.754.856.837.323.051.837-.018.837-.018-.093-.14-.155-.187-.322-.187.183-.101.372-.312.372-.645 0-.512-.205-.717-.205-1.299 0-.32.25-.724.25-.724-.449.04-.671.474-.54.813-.072.013-.144 0-.193-.058-.032.097.014.205.086.302-.059.03-.096.013-.19-.007.013.097.072.205.206.302-.404-.11-.652.178-.652.484 0 .231.158.392.307.392.052 0 .124-.026.168-.057.024.07.011.158-.022.216.114-.031.183-.095.137-.243.084-.006.155-.039.198-.09-.043-.064-.117-.101-.198-.101.062-.128-.007-.205-.111-.262 0 0 .068.262-.097.262-.078 0-.146-.026-.146-.135 0-.103.084-.23.282-.224.186.007.345.134.345.454 0 .288-.227.435-.53.442-.267.013-.479-.14-.479-.423 0-.39.54-1.266.54-1.605 0-.257-.224-.403-.446-.403-.28 0-.52.294-.52.294l.166.217z" transform="translate(1.588 .947)"/>
                <path fill="#F5C832" d="M1.973 1.58s-.296-.255-.394-.134c-.165.211.496 1.242.496 1.6 0 .595-.388.754-.86.837-.322.051-.843-.018-.843-.018.1-.14.162-.187.326-.187-.18-.101-.363-.312-.363-.645 0-.512.199-.717.199-1.299 0-.32-.254-.724-.254-.724.446.04.672.474.548.813.065.013.133 0 .192-.058.029.097-.02.205-.089.302.052.03.095.013.186-.007-.01.097-.068.205-.208.302.406-.11.654.178.654.484 0 .231-.154.392-.31.392-.046 0-.117-.026-.162-.057-.03.07-.01.158.016.216C1 3.366.925 3.302.974 3.154c-.087-.006-.153-.039-.199-.09.046-.064.118-.101.199-.101-.062-.128.01-.205.108-.262 0 0-.062.262.103.262.075 0 .143-.026.143-.135 0-.103-.084-.23-.28-.224-.188.007-.344.134-.344.454 0 .288.227.435.53.442.27.013.475-.14.475-.423 0-.39-.537-1.266-.537-1.605 0-.257.224-.403.44-.403.29 0 .526.294.526.294l-.165.217z" transform="translate(1.588 .947)"/>
                <path fill="#4EAEC4" d="M1.39 19.686c0-.044-.111-.02-.19 0-.087.013-.136.064-.13.115.007.052.105.026.19.007.084-.025.136-.064.13-.122" transform="translate(1.588 .947)"/>
                <path fill="#4EAEC4" d="M1.123 19.86H1.09l-.052-.058c-.007-.07.05-.121.152-.148.062-.013.115-.026.153-.026h.027l.049.06c.003.07-.053.127-.151.151-.052.014-.11.02-.146.02" transform="translate(1.588 .947)"/>
                <path fill="#F5C832" d="M26.24 20.844c-4.179.014-7.11-3.436-7.377-6.89 0 0-.164-.064-.19.09-.045.364.104 1.49.045 1.414-.1-.148-.862-2.246-.999-2.022-.186.307.853 2.7.791 2.777-.208.255-1.4-2.343-1.496-2.15-.362.73 1.47 3.083 1.458 3.18-.037.313-1.396-1.268-1.51-1.1-.258.382 1.464 1.778 1.551 1.886.27.314-.937-.563-.975-.256-.03.243.585.749.95.96.37.218.487.154.592.34.078.14-.69-.09-.667.083.038.345.845.275.963.427.124.154-.547.04-.515.167.043.225.723.256.73.353.013.095-.427.03-.398.21.024.16.69.129.853.243.163.117-.596.013-.006.315.592.306 1.269.645 2.193.83.927.193 1.394-.018 1.433-.082.033-.059-.44.051-1.096-.07-.658-.128-1.535-.55-1.892-.775-.114-.057.348-.198.251-.332-.098-.128-.469.02-.611-.167-.093-.122.177-.122.168-.199-.006-.07-.512-.191-.602-.326-.094-.127.227-.101.241-.191.01-.064-.319-.18-.34-.262-.028-.09.363-.064.183-.174-.195-.115-.726-.249-.826-.447-.098-.185.404.025.273-.154-.09-.128-.576-.339-.68-.627-.068-.198.348-.025.355-.154.006-.198-.245-.07-.326-.639-.028-.185.323-.057.323-.057l.052-.097s.407.23.937.87c.53.634.68 1.228 1.179 1.657.243.212.249-.077.787.269.543.352.767.594 1.334 1.094.081.07.45-.07 1.54.167.589.128.706.44.706.44 0 .014.329-.204.485-.44.062-.103.123-.007.143-.026.058-.058-.01-.135-.01-.135" transform="translate(1.588 .947)"/>
                <path fill="#F5C832" d="M18.569 19.117c-.097 0-.118.013-.124.026.022.198.329.25.57.3.186.026.329.05.384.121l.013.02.006.057c-.027.057-.127.057-.287.064-.081.007-.227.013-.243.04.022.107.28.178.465.229.177.045.264.07.27.129.01.07-.087.082-.186.095-.077.02-.174.033-.208.07.004.11.245.141.42.161.173.025.338.044.414.095l.038.07c-.01.04-.062.046-.133.064-.035.007-.111.02-.124.04 0 0 0 .044.211.147.521.269 1.231.639 2.184.825.248.058.48.082.697.082.45 0 .68-.114.7-.152l-.14.038c-.069 0-.15.006-.244.006-.244 0-.468-.026-.687-.064-.68-.127-1.58-.57-1.906-.774-.03-.095.025-.128.097-.179.065-.04.146-.103.155-.134-.041-.077-.133-.077-.236-.077-.14-.007-.291-.007-.378-.121l-.029-.084c.013-.05.068-.07.12-.097.02-.011.066-.024.07-.037-.015-.02-.134-.064-.22-.103-.162-.051-.329-.122-.38-.205l-.017-.082c.016-.046.08-.064.15-.09.03-.007.1-.026.1-.044-.009-.02-.083-.06-.136-.09-.111-.064-.189-.104-.205-.16.029-.084.088-.096.153-.109.027-.007.074-.02.084-.026-.1-.058-.195-.089-.299-.135-.231-.088-.501-.198-.573-.339l-.006-.02V18.6c.033-.059.117-.039.192-.032h.071c-.012-.064-.087-.115-.18-.185-.183-.128-.409-.276-.48-.48-.013-.04-.013-.07.003-.097.027-.038.086-.044.143-.044l.12.006c.034 0 .078-.006.081-.026 0-.057-.025-.077-.074-.114-.078-.064-.199-.16-.251-.52-.003-.037.001-.064.024-.088.065-.084.332-.007.338-.007l.013-.083c.065 0 .468.237.992.863.235.288.397.557.55.819.18.314.352.608.626.845.074.064.12.07.173.07h.11c.098 0 .234.027.501.192.426.275.658.48 1.009.8l.325.294c.016.02.085.02.112.02l.198-.007c.234 0 .612.02 1.217.148.598.127.725.447.732.46 0-.026.286-.242.43-.447.022-.046.054-.064.084-.064l.066.018.006-.095-.026.031c-4.28 0-7.108-3.498-7.382-6.897h-.043c-.047 0-.074.013-.08.07-.03.199.006.647.026.973.032.377.039.436.013.454-.086-.05-.16-.23-.29-.557-.199-.473-.602-1.458-.715-1.464-.115.185.311 1.33.559 2.01.235.632.264.735.235.76l-.062.032c-.16 0-.469-.519-.918-1.318-.216-.39-.469-.839-.534-.857-.25.53.752 2.028 1.236 2.75.208.321.248.379.245.416l-.004.033-.068.038c-.117 0-.372-.23-.775-.601-.27-.263-.583-.557-.667-.557-.195.294.983 1.338 1.367 1.677.1.088.166.147.18.165.038.046.054.077.044.103-.08.02-.168-.02-.335-.114-.208-.103-.487-.257-.624-.257-.046 0-.052.032-.055.039-.024.218.536.696.937.927.152.097.27.14.347.167.115.038.19.07.258.185-.032.192-.169.102-.308.084-.08-.013-.16-.02-.232-.02m4.367 2.7c-.22 0-.459-.032-.71-.076-.962-.2-1.675-.57-2.2-.839-.182-.096-.25-.154-.24-.218.002-.057.088-.077.172-.09.032-.006.075-.011.085-.024-.078-.04-.243-.058-.404-.077-.248-.033-.462-.064-.475-.174l-.006-.006.025-.076c.043-.064.154-.083.245-.096.05-.013.124-.027.133-.038-.016-.02-.133-.046-.224-.07-.212-.06-.476-.123-.511-.282.046-.097.143-.103.302-.103.08-.007.216-.007.232-.031-.046-.064-.202-.09-.351-.117-.281-.05-.6-.108-.626-.339.08-.165.235-.108.424-.088.071.006.14.011.19.011 0-.095-.057-.108-.165-.152-.087-.033-.198-.07-.36-.167-.34-.198-1-.722-.964-.998.003-.039.025-.096.114-.096.15 0 .432.154.65.268.11.058.241.128.271.128-.068-.038-.13-.095-.225-.172-.794-.71-1.579-1.466-1.38-1.765.15-.033.39.185.762.537.28.255.63.588.732.588.006-.044-.108-.205-.227-.383-.486-.73-1.504-2.253-1.218-2.823.124-.03.263.212.622.852.29.511.73 1.299.866 1.299.01-.05-.111-.391-.229-.717-.375-1.011-.673-1.868-.556-2.066.162-.033.407.479.82 1.484.092.211.17.403.211.493-.022-.07-.032-.224-.047-.365-.021-.352-.056-.781-.027-.993.009-.082.065-.127.142-.127.043 0 .083.02.086.02.277 3.396 3.085 6.877 7.34 6.877.053.02.09.064.09.12v.014l-.037.064-.05-.031-.05.02c-.185.261-.508.49-.546.49-.036-.057-.18-.338-.713-.453-.599-.121-.974-.14-1.204-.14h-.198c-.08 0-.124 0-.155-.034l-.322-.28c-.351-.32-.578-.532-1.005-.807-.248-.159-.381-.172-.466-.172h-.11c-.064 0-.126-.013-.212-.09-.283-.25-.453-.544-.643-.863-.148-.262-.307-.524-.542-.813-.52-.62-.927-.863-.934-.863l-.003.089c-.041.02-.146-.02-.237-.02-.036 0-.065.006-.077.02.038.378.146.455.22.519.056.037.104.075.097.165-.003.084-.103.084-.14.084h-.12c-.065 0-.084.006-.09.013.064.223.291.377.458.493.1.07.18.121.215.172l.012.02.008.07c-.014.031-.055.031-.089.031l-.155-.007c.016.161.282.276.494.366.11.037.208.077.273.114.03.013.068.046.062.084-.01.044-.059.057-.13.07-.035.007-.094.027-.104.038.01.026.107.077.175.116.105.058.173.102.167.154-.007.064-.081.082-.146.102-.04.013-.105.033-.112.044.053.09.228.16.36.218.177.064.255.103.261.154.005.05-.057.077-.11.101-.023.007-.07.033-.077.053.078.114.214.114.345.121.114 0 .227 0 .28.077l.018.07c-.012.07-.1.128-.18.179-.04.026-.096.07-.1.083.323.186 1.208.634 1.883.749.214.044.435.07.676.07.094 0 .175-.006.24-.006l.105-.007c.056 0 .081.007.097.026-.035.102-.292.223-.758.223M29.047 22.13c-.152-.032-.136.09-.136.09.013.153-.095.326-.221.358-.098.02-.05.096-.08.167l-.406-.02c-.643.359-1.452.486-2.42.372 0 0-.205.159-.382.32-.182.173-.31.21-.344.338-.037.141.093.205.26.211.169.007.386-.154.386-.154s.03.128.183.148c.154.013.433-.095.433-.095s.237.108.42.082c.173-.025.328-.141.328-.141s.047.211.226.218c.178.013.451-.223.451-.223s.133.159.297.134c.168-.02.364-.224.364-.224s.205.095.394.031c.192-.057.378-.255.378-.255s.166.147.322.09c.153-.051.257-.276.257-.276s.41.179.686.032c.19-.089.143-.403.143-.403s1.13.167 1.082-.595c-.006-.083-1.823-.057-2.62-.205" transform="translate(1.588 .947)"/>
                <path fill="#F5C832" d="M27.047 23.781c.052.033.096.211.247.211l.01.031V24c.162 0 .422-.225.425-.225.043.007.148.128.285.128.178-.02.37-.211.376-.211.024 0 .143.04.273.04.046 0 .09 0 .127-.02.186-.058.363-.243.363-.243.025.007.158.095.276.095.198-.064.297-.268.297-.275.05-.013.25.07.457.07.099 0 .177-.02.245-.05.17-.077.124-.372.124-.379.035-.024.14-.018.282-.018.226 0 .53-.032.691-.211.081-.097.121-.205.11-.365-.035-.007-.426-.02-.804-.038-.598-.026-1.343-.05-1.793-.134l-.084.006c.003.217-.111.403-.254.434-.04.013-.043.027-.043.07-.003.02-.003.058-.02.084l-.433-.006c-.624.365-1.447.486-2.426.383.006.007-.183.154-.353.315-.068.057-.126.101-.175.134-.089.07-.143.101-.163.178-.01.04-.01.064.008.09.035.045.119.077.224.084h.003c.162 0 .363-.147.367-.154.049.026.073.128.2.14h.003c.171 0 .413-.09.416-.09.029 0 .211.084.375.084.217-.02.364-.134.364-.134m.257.282h-.013c-.163-.013-.229-.167-.248-.231-.019.046-.149.128-.303.147-.214-.006-.422-.083-.435-.083.013 0-.232.096-.39.096-.158-.013-.218-.103-.236-.167-.019.053-.202.174-.35.174-.138-.007-.236-.046-.28-.103-.027-.045-.037-.095-.021-.153.027-.09.092-.14.192-.21.043-.04.095-.078.16-.135.183-.16.388-.328.388-.328.246.02.462.033.673.033.674 0 1.26-.134 1.75-.41l.418.02c-.014-.09-.01-.14.075-.167.113-.031.208-.185.202-.326-.003 0-.013-.05.019-.09.025-.025.055-.044.098-.044.491.095 1.236.128 1.831.147.807.031.86.044.866.095.01.174-.032.308-.13.416-.178.192-.497.238-.736.238-.123 0-.214-.013-.246-.02.035.026.064.313-.133.403-.222.115-.651-.013-.704-.031.013.024-.09.23-.244.275-.137.044-.316-.07-.345-.097.006.032-.167.212-.35.262-.168.051-.395-.026-.419-.03.011.01-.178.204-.347.229h-.004c-.18 0-.298-.128-.316-.154.007.032-.246.244-.422.244" transform="translate(1.588 .947)"/>
                <path fill="#F5C832" d="M26.637 21.318s.329-.134.909-.25c1.095-.237 1.473-.16 1.551-.23.866-.991 1.501-1.068 2.128-1.325.502-.434.668-1.055 1.198-1.689.527-.634.843-.684.843-.684l.069.14s.284-.217.27-.03c-.023.28-.25.55-.237.741.006.128.388-.052.354.058-.09.301-.397.48-.481.6-.137.192.348-.063.248.128-.099.199-.583.397-.772.52-.118.07.127.088.103.172-.025.09-.522.281-.516.345.01.09.133.097.075.16-.105.122-.518.135-.525.212-.006.082.088.146-.006.269-.146.191-.257 0-.32.152-.03.09.242.264.056.301-.247.045-.44.16-.654.295-.08.051-.45.128-.66.185-.144.031-.915.135-.882.198.032.064.522.058 1.552-.127.44-.084.703-.135 1.399-.366.797-.262-.205-.281-.041-.39.165-.107.854-.057.881-.217.025-.179-.384-.128-.375-.225.013-.101.84-.095.89-.326.025-.127-.472-.03-.353-.185.118-.154.781-.191.807-.493.011-.172-.543.046-.472-.101.03-.057.254-.128.473-.282.351-.255.904-.684.87-.929-.028-.306-1.148.705-1.049.321.032-.14 1.815-1.587 1.526-1.945-.201-.236-1.474 1.325-1.517 1.01-.009-.101 1.983-2.417 1.62-3.146-.096-.193-1.597 2.776-1.805 2.52-.056-.07 1.278-2.93 1.064-3.211-.1-.148-.313.332-.54.85-.227.53-.478 1.107-.53 1.184-.05.077.058-1.12.006-1.484-.023-.154-.183-.09-.183-.09-.233 3.716-3.696 6.474-6.456 6.884-.713.103-.94.454-1.728.916-.26.145-.667.216-1.017.42-.35.2-.598.507-.718.698-.055.09.026.365.097.397.078.026.072-.199.153-.25.08-.03.08.09.183.084.096-.006.204-.103.204-.103s1.948-.007 2.78-.025c.152-.006.4-.07.505-.186-.03-.095-.257-.045-.4-.038-.586-.038-1.358 0-1.908-.033 0 0-.087-.005-.08-.101 0-.038.35-.423.35-.423H25.3s-.164.097-.248.103c-.081.012-.114-.046-.081-.07.416-.328 1.666-.91 1.666-.91" transform="translate(1.588 .947)"/>
                <path fill="#F5C832" d="M33.682 13.98c-.032 0-.062.013-.062.013-.202 3.557-3.512 6.436-6.458 6.87-.478.07-.739.256-1.1.507-.166.127-.361.255-.617.403-.127.076-.284.134-.453.185-.189.07-.384.134-.567.249-.322.186-.573.468-.703.684-.026.033-.022.123.008.211.025.077.057.128.074.135.013-.007.026-.058.032-.082.02-.066.04-.134.096-.167.084 0 .103.02.122.037.02.033.036.046.065.046.083 0 .189-.09.189-.09.02-.013 1.97-.013 2.8-.044.133 0 .386-.052.481-.167-.016.007-.049-.007-.117-.007-.045 0-.104.007-.15.014l-.108.013c-.592-.045-1.36-.007-1.913-.045 0 0-.051 0-.081-.039-.023-.026-.032-.05-.029-.095.006-.033.124-.18.36-.442l-.25.057c.006 0-.156.097-.247.103-.071.007-.114-.02-.127-.059l-.01-.024.03-.04c.422-.332 1.627-.889 1.681-.913.004-.007.335-.135.912-.256.67-.147 1.067-.18 1.302-.193.13-.007.212-.012.237-.031.713-.82 1.27-1.017 1.804-1.209.113-.04.224-.077.332-.123.267-.236.445-.53.63-.856.152-.256.314-.531.552-.82.533-.633.848-.697.862-.697l.1.154c-.006-.04.115-.121.192-.121l.066.024c.01.013.022.046.019.084-.01.154-.075.295-.134.422-.059.121-.106.231-.103.32.081.02.124.013.168 0 .037-.007.081-.013.108-.013l.075.032c-.065.269-.233.423-.36.531-.05.05-.102.09-.124.128.01.026.038.02.074.013.038-.007.078-.013.103-.013h.018l.062.033c.022.037 0 .076-.006.09-.074.152-.33.286-.558.402-.09.045-.17.089-.224.122.065.064.134.101.116.165-.016.053-.106.11-.302.205-.084.046-.201.11-.217.134.006.02.022.033.047.053l.043.063c-.084.135-.232.166-.36.199-.067.02-.16.044-.183.057.041.115.065.192-.01.282-.065.095-.133.108-.182.108l-.072-.007c-.02 0-.036.007-.058.046-.007.018.035.07.058.108.045.044.078.108.06.154-.01.031-.04.044-.083.05-.256.058-.442.168-.644.302-.065.031-.244.082-.443.128-.08.02-.165.038-.23.057-.043.007-.148.027-.272.051-.171.026-.468.07-.568.11.071.006.276.064 1.5-.154.442-.084.693-.134 1.394-.359.285-.101.292-.147.292-.147 0-.031-.143-.077-.199-.084-.108-.037-.167-.064-.176-.101l-.003-.02.033-.038c.078-.05.254-.077.438-.083.167-.02.421-.05.434-.115.01-.07-.075-.09-.205-.116-.089-.018-.176-.038-.17-.108.007-.064.099-.077.326-.115.214-.04.537-.09.564-.205-.015-.032-.108-.039-.164-.052-.097-.005-.186-.018-.205-.069l-.01-.02.03-.07c.055-.07.185-.11.334-.154.21-.07.456-.154.467-.313-.017-.045-.13-.039-.247-.026-.096.007-.19.033-.22-.026.021-.095.077-.134.173-.179.085-.044.202-.096.313-.172.775-.563.872-.807.856-.902-.133-.033-.344.095-.527.211-.198.121-.365.218-.456.223l-.065-.025c-.013-.026-.013-.057 0-.11.007-.037.105-.134.381-.402.469-.447 1.334-1.28 1.145-1.504-.166 0-.53.315-.816.577-.325.295-.53.486-.629.486h-.028l-.046-.07c-.007-.04.036-.097.28-.416.523-.711 1.611-2.188 1.341-2.72-.052.025-.362.538-.638.998-.558.934-.937 1.548-1.107 1.548-.081-.064-.06-.128.247-.89.332-.818.888-2.18.761-2.353-.103-.006-.329.487-.487.85l-.072.174c-.211.493-.413.947-.462 1.017-.075-.02-.075-.09-.056-.524.016-.352.034-.781.01-.973-.01-.057-.035-.07-.084-.07m-9.878 9.314h-.023c-.06-.018-.097-.128-.11-.165-.027-.09-.043-.205-.003-.269.133-.224.39-.524.726-.71.187-.109.386-.18.581-.25.164-.057.32-.108.443-.178.248-.148.44-.282.612-.405.365-.249.629-.44 1.126-.51 2.92-.43 6.2-3.29 6.424-6.854.056-.075.229-.037.245.084.03.205.006.634-.004.986-.012.223-.025.454-.019.486 0-.064.215-.543.417-1.005l.071-.172c.267-.608.407-.903.534-.903h.01l.052.044c.136.187-.26 1.198-.752 2.413-.163.39-.313.749-.31.806.15-.007.674-.883 1.055-1.522.45-.748.623-1.023.704-1.023.325.594-.772 2.091-1.309 2.82-.127.174-.25.332-.26.365.09-.013.36-.244.595-.453.323-.302.655-.61.823-.61h.011l.075.033c.201.249-.46.92-1.153 1.6-.175.166-.358.34-.367.37.078.051.26-.057.435-.16.316-.205.602-.333.62-.172.022.198-.27.524-.884.966-.116.077-.233.135-.325.179-.06.026-.13.07-.14.09.068.006.111 0 .157-.007.13-.013.25-.013.292.033l.024.064c-.017.205-.278.287-.514.364-.13.045-.258.083-.3.14-.004.04.088.051.14.058.095.006.176.02.21.064-.022.21-.331.268-.601.308-.12.026-.258.05-.28.07.013.006.081.025.127.031.114.02.27.059.251.193-.02.108-.235.135-.488.16-.173.019-.343.032-.408.076.003.007.08.033.13.044.124.033.236.07.239.148 0 .046-.043.11-.335.205-.704.224-.958.288-1.403.371-.8.135-1.188.16-1.348.16-.184 0-.224-.032-.24-.058.025-.082.152-.108.634-.192.117-.02.228-.037.273-.05.062-.02.148-.04.225-.058.178-.046.37-.09.423-.121.208-.136.4-.25.67-.301.04-.033.003-.084-.016-.115-.04-.052-.084-.11-.062-.167.022-.064.053-.084.111-.084l.072.033v-.033c.038 0 .084-.006.133-.082.053-.059.035-.11.02-.154-.007-.026-.02-.063-.02-.09.01-.063.088-.083.227-.114.115-.02.258-.058.307-.117-.04-.05-.078-.081-.084-.134-.01-.05.059-.088.254-.191.097-.045.252-.135.265-.166.005-.02-.035-.033-.06-.052-.034-.018-.073-.045-.073-.076v-.02l.046-.05c.052-.033.133-.077.225-.13.212-.108.469-.242.534-.37-.043-.032-.076-.026-.114-.02-.03.007-.066.014-.088.014l-.073-.038c-.013-.026.008-.059.027-.09.032-.04.081-.083.134-.134.13-.115.285-.256.347-.456-.046.007-.084.007-.114.014-.152.032-.24-.014-.24-.058-.01-.101.045-.224.103-.358.06-.128.121-.263.134-.397-.068-.038-.172.026-.224.064l-.114-.147c.003.02-.305.096-.795.684-.233.282-.393.557-.55.82-.191.32-.368.633-.647.87-.118.058-.234.089-.345.135-.524.185-1.073.383-1.783 1.189-.04.04-.111.046-.27.057-.235.013-.63.04-1.296.18-.575.122-.904.25-.904.256-.013.006-1.247.576-1.663.902.122 0 .253-.057.296-.083l.293-.007c-.138.231-.313.43-.319.46l.05.097v-.04c.552.04 1.322-.004 1.912.047l.098-.013c.12-.013.283-.058.326.07-.121.154-.382.218-.534.218-.821.024-2.725.031-2.776.031.003.007-.105.097-.208.103-.065 0-.096-.04-.115-.064-.068-.006-.101.058-.114.102-.022.064-.038.121-.09.121" transform="translate(1.588 .947)"/>
                <path fill="#4EAEC4" d="M24.708 22.533c-.004-.037-.097-.013-.162 0-.07.02-.112.045-.105.09.003.045.09.025.155.007.072-.02.115-.052.112-.097" transform="translate(1.588 .947)"/>
                <path fill="#4EAEC4" d="M24.484 22.68h-.032l-.046-.05c-.006-.057.045-.11.13-.128.06-.013.1-.02.13-.02h.033l.04.051c.003.051-.047.11-.134.128-.046.013-.087.02-.12.02" transform="translate(1.588 .947)"/>
                <path fill="#F5C832" d="M27.199 7.965c.235.051.35-.083.387-.262.05-.244-.052-1.466-.052-1.466s-.547 1.088-.59 1.326c-.038.191.023.358.255.402M28.058 8.234c.224.097.363-.013.43-.185.09-.224.224-1.44.224-1.44s-.742.954-.834 1.183c-.062.174-.041.352.18.442M28.849 8.676c.198.134.357.05.459-.102.127-.2.487-1.364.487-1.364s-.903.788-1.04.992c-.095.154-.105.333.094.474M29.54 9.258c.17.178.342.128.466-.007.17-.165.742-1.235.742-1.235s-1.038.59-1.204.762c-.13.134-.173.308-.003.48M30.108 9.974c.134.205.31.199.456.09.202-.14.962-1.069.962-1.069s-1.126.372-1.324.506c-.146.102-.227.269-.094.473M30.53 10.787c.099.23.267.256.43.185.221-.095 1.149-.857 1.149-.857s-1.175.141-1.4.23c-.166.07-.27.218-.179.442M30.79 11.676c.047.238.212.302.388.262.237-.05 1.288-.607 1.288-.607s-1.181-.102-1.412-.058c-.18.038-.306.16-.263.403M30.878 12.591c.003.25.152.34.331.34.242 0 1.374-.34 1.374-.34s-1.132-.339-1.374-.339c-.179 0-.331.09-.331.34M30.79 13.512c-.042.243.085.36.264.397.23.05 1.412-.051 1.412-.051s-1.051-.563-1.288-.614c-.176-.033-.344.02-.387.268M30.53 14.395c-.087.231.013.372.18.443.224.101 1.399.229 1.399.229s-.928-.762-1.148-.857c-.164-.064-.337-.046-.43.185M30.108 15.214c-.13.198-.052.366.094.474.198.127 1.324.506 1.324.506s-.76-.935-.962-1.076c-.146-.095-.322-.108-.456.096M29.54 15.924c-.166.172-.127.353.004.487.166.165 1.204.762 1.204.762s-.572-1.077-.742-1.242c-.124-.134-.299-.178-.465-.007M28.849 16.507c-.195.14-.19.319-.094.473.137.211 1.04.992 1.04.992s-.36-1.16-.487-1.364c-.102-.159-.26-.236-.46-.101M28.058 16.948c-.221.102-.242.269-.18.442.092.23.834 1.183.834 1.183s-.133-1.209-.224-1.44c-.067-.165-.21-.281-.43-.185M23.77 16.507c-.2-.128-.36-.058-.458.101-.134.205-.494 1.364-.494 1.364s.907-.78 1.04-.992c.102-.154.115-.333-.087-.473M23.079 15.924c-.173-.171-.342-.127-.465.007-.174.165-.745 1.242-.745 1.242s1.037-.597 1.204-.762c.127-.134.173-.315.006-.487M22.508 15.214c-.133-.204-.306-.191-.456-.096-.201.14-.965 1.076-.965 1.076s1.13-.379 1.328-.506c.149-.108.227-.276.093-.474M22.086 14.395c-.093-.23-.267-.249-.433-.185-.221.095-1.149.857-1.149.857s1.179-.128 1.403-.23c.163-.07.27-.21.18-.442M21.826 13.512c-.05-.249-.211-.301-.394-.268-.227.05-1.282.614-1.282.614s1.18.102 1.415.05c.173-.037.31-.153.26-.396M21.739 12.591c-.003-.249-.152-.339-.329-.339-.241 0-1.383.34-1.383.34s1.142.338 1.383.338c.177 0 .329-.09.329-.339M21.826 11.676c.043-.242-.088-.365-.26-.403-.236-.044-1.416.058-1.416.058s1.055.556 1.282.607c.183.04.345-.02.394-.262M22.086 10.787c.09-.224-.016-.372-.18-.442-.223-.089-1.402-.23-1.402-.23s.928.762 1.149.857c.166.07.34.046.433-.185M22.508 9.974c.134-.204.056-.371-.093-.473-.199-.134-1.328-.506-1.328-.506s.764.929.965 1.07c.15.108.326.12.456-.09M23.079 9.258c.165-.172.12-.346-.006-.48-.167-.172-1.204-.762-1.204-.762s.571 1.07.745 1.235c.123.135.295.185.465.007M26.305 8.452c2.22 0 4.02 1.855 4.02 4.145 0 2.298-1.8 4.152-4.02 4.152-2.223 0-4.026-1.854-4.026-4.152 0-2.29 1.803-4.145 4.026-4.145M26.305 7.882c.242-.006.332-.16.332-.345 0-.243-.332-1.42-.332-1.42s-.322 1.177-.322 1.42c0 .185.087.345.322.345M27.199 17.21c-.232.058-.293.225-.255.41.043.237.59 1.325.59 1.325s.101-1.224.052-1.46c-.036-.185-.152-.312-.387-.275M26.305 17.3c-.235.007-.322.16-.322.346 0 .249.322 1.42.322 1.42s.332-1.171.332-1.42c0-.186-.09-.346-.332-.346M25.418 17.21c-.235-.037-.354.09-.388.276-.046.235.053 1.459.053 1.459s.54-1.088.59-1.325c.037-.185-.023-.359-.255-.41M24.559 16.948c-.221-.096-.364.02-.43.185-.094.231-.225 1.44-.225 1.44s.742-.953.834-1.183c.065-.173.041-.345-.18-.442M23.77 8.676c.196-.141.19-.32.088-.474-.133-.204-1.04-.992-1.04-.992s.36 1.164.494 1.364c.098.152.257.236.459.102M24.559 8.234c.22-.096.244-.268.18-.442-.093-.23-.835-1.183-.835-1.183s.13 1.216.224 1.44c.067.172.21.282.43.185M25.418 7.965c.232-.05.292-.21.254-.402-.05-.238-.59-1.326-.59-1.326s-.098 1.222-.052 1.466c.034.179.153.32.388.262" transform="translate(1.588 .947)"/>
            </g>
        </g>
    </g>
</svg>
