<svg xmlns="http://www.w3.org/2000/svg" xmlns:xlink="http://www.w3.org/1999/xlink" width="56" height="34" viewBox="0 0 56 34">
    <defs>
        <rect id="prefix__a" width="54" height="32" x="0" y="0" rx="9"/>
    </defs>
    <g fill="none" fill-rule="evenodd" transform="translate(1 1)">
        <mask id="prefix__b" fill="#fff">
            <use xlink:href="#prefix__a"/>
        </mask>
        <use stroke="#7E919F" stroke-opacity=".497" xlink:href="#prefix__a"/>
        <g mask="url(#prefix__b)">
            <path fill="#FFF" d="M0 33.751L53.773 33.751 53.773 0 0 0z"/>
            <path fill="#28292B" d="M7.102 7.841L12.732 2.178 13.99 3.428 8.361 9.091zM8.913 9.681L14.541 4.017 15.801 5.268 10.172 10.932zM10.669 11.443L16.297 5.781 17.556 7.03 11.928 12.694zM39.303 23.689L41.514 21.462 42.774 22.715 40.56 24.945zM37.144 28.377L35.884 27.126 38.049 24.945 39.303 26.2zM41.133 25.51L43.324 23.305 44.581 24.556 42.387 26.766zM38.957 30.216L37.698 28.965 39.876 26.766 41.133 28.023zM44.151 28.519L42.896 27.263 45.077 25.066 46.336 26.318zM40.714 31.981L39.455 30.729 41.643 28.525 42.9 29.779zM44.301 5.394L46.528 7.605 45.277 8.865 43.046 6.65zM39.613 3.235L40.865 1.976 43.045 4.139 41.791 5.393zM37.776 5.047L39.027 3.788 41.225 5.968 42.481 7.225 44.686 9.413 43.435 10.674 41.225 8.48 39.969 7.225zM39.471 10.242L40.726 8.988 42.925 11.167 41.673 12.426zM36.01 6.805L37.261 5.545 39.468 7.734 38.209 8.99zM10.741 22.635L11.992 21.376 14.175 23.54 15.429 24.795 17.657 27.006 16.405 28.265 14.175 26.051 12.919 24.795zM13.609 26.624L15.815 28.815 14.562 30.074 12.354 27.879zM8.904 24.448L10.155 23.187 12.352 25.368 11.097 26.624zM7.138 26.205L8.389 24.946 10.595 27.135 11.855 28.386 14.053 30.568 12.802 31.828 10.599 29.642 9.339 28.389z"/>
            <g>
                <path fill="#2E4593" d="M19.387 10.36c0 5.285-4.282 9.57-9.568 9.57-5.285 0-9.57-4.285-9.57-9.57 0-5.286 4.285-9.57 9.57-9.57 5.286 0 9.568 4.284 9.568 9.57" transform="translate(17.2 6.241)"/>
                <path fill="#DB2E2E" d="M19.338 10.361c0 .455-.03.9-.097 1.338-.277-1.896-1.312-5.316-5.231-5.382-2.865 0-3.849 1.274-4.452 2.777-.876 2.173-.971 4.817-4.818 4.817-2.83 0-4.055-1.597-4.535-3.41-.007-.045-.007-.093-.007-.14 0-1.623.405-3.15 1.12-4.494 1.61-3.02 4.79-5.08 8.453-5.08 5.28 0 9.567 4.287 9.567 9.574" transform="translate(17.2 6.241)"/>
            </g>
        </g>
    </g>
</svg>
