<svg xmlns="http://www.w3.org/2000/svg" xmlns:xlink="http://www.w3.org/1999/xlink" width="32" height="20" viewBox="0 0 32 20">
    <defs>
        <rect id="qgc5vfm8ca" width="30" height="18" x="0" y="0" rx="3"/>
    </defs>
    <g fill="none" fill-rule="evenodd">
        <g>
            <g transform="translate(-500.000000, -746.000000) translate(501.000000, 747.000000)">
                <mask id="sse4kjnsnb" fill="#fff">
                    <use xlink:href="#qgc5vfm8ca"/>
                </mask>
                <rect width="30.5" height="18.5" x="-.25" y="-.25" stroke="#7E919F" stroke-opacity=".497" stroke-width=".5" rx="3"/>
                <g fill-rule="nonzero" mask="url(#sse4kjnsnb)">
                    <path fill="red" d="M0 0L30 0 30 18 0 18z"/>
                    <path fill="#FF0" d="M13.646 7.778c-.335-.208-.69-.38-1.057-.523-.315.467-.498 1.026-.498 1.63 0 .3.046.59.133.864.152-.35.345-.69.579-1.016.249-.355.533-.675.843-.955zm-.894-.737c.396.138.777.315 1.143.524.081-.071.168-.132.249-.193-.386-.214-.798-.386-1.22-.518-.06.06-.121.121-.172.187zm.356-.36c.457.122.894.29 1.305.508.097-.061.193-.117.285-.173-.437-.223-.9-.386-1.377-.503-.076.05-.147.107-.213.168zm.431-.305c.503.102.991.264 1.448.488.463-.224.95-.386 1.448-.488-.421-.249-.92-.391-1.448-.391-.528 0-1.02.142-1.448.391zm3.115.142c-.478.112-.94.28-1.377.498.096.056.188.112.284.173.417-.219.854-.386 1.306-.508-.066-.061-.137-.117-.213-.163zm.396.34c-.422.128-.828.3-1.22.514.087.06.173.127.255.193.36-.209.741-.386 1.138-.524-.051-.066-.107-.127-.173-.182zm.335.402c-.366.137-.716.31-1.051.518.31.28.589.6.843.955.229.325.422.666.58 1.016.08-.28.126-.564.126-.863 0-.605-.183-1.164-.498-1.626zm-.249 1.991c-.305-.492-.67-.93-1.077-1.3-.091.066-.188.132-.274.198.686.64 1.24 1.443 1.59 2.378.081-.122.158-.25.219-.376-.127-.305-.28-.605-.458-.9zm-1.61-1.32c.091-.066.183-.133.28-.193-.082-.072-.168-.138-.255-.204-.096.061-.193.122-.29.188h.006c.086.066.172.137.259.209zm-.539-.407l.29-.178c-.097-.06-.193-.122-.29-.177-.096.055-.188.116-.284.177.096.056.188.117.284.178zm-.274.198c-.097-.066-.188-.127-.285-.188l-.259.198c.097.066.188.127.28.193.086-.07.173-.137.264-.203zm.274.203c-.086.067-.172.138-.264.214.092.071.178.147.264.223.087-.076.173-.152.264-.223-.086-.071-.172-.147-.264-.214zm0 .95c-.386.417-.726.895-1 1.428-.189.356-.336.727-.448 1.098.427.238.92.38 1.448.38.529 0 1.021-.142 1.448-.38-.112-.371-.259-.742-.447-1.098-.274-.533-.61-1.01-1-1.427zm-1.676 1.926c.33-.843.818-1.58 1.417-2.19-.086-.08-.173-.157-.264-.238-.696.675-1.255 1.514-1.595 2.484.096.107.198.203.31.295.04-.117.086-.234.132-.351zm1.935-2.19c.6.61 1.088 1.347 1.423 2.19.046.117.086.234.127.35.112-.09.218-.187.315-.294-.346-.97-.904-1.809-1.6-2.484-.092.08-.178.157-.265.238zM12.6 10.527c.351-.935.905-1.733 1.596-2.373-.092-.071-.183-.137-.28-.203-.406.376-.772.813-1.077 1.306-.178.29-.33.589-.457.894.061.132.137.254.218.376zm2.404-4.776c1.788 0 3.246 1.458 3.246 3.246 0 1.789-1.458 3.247-3.246 3.247-1.789 0-3.247-1.458-3.247-3.247 0-1.788 1.458-3.246 3.247-3.246zm1.432-.711c-.091.106-.193.244-.294.462-.026-.056-.026-.122-.01-.193.025-.234.09-.376.213-.574.04-.071.081-.132.101-.208.077-.229.061-.534-.106-.773.025.27-.056.493-.148.63-.015.026-.03.041-.05.061-.097.097-.204.193-.34.417-.077.122-.153.27-.224.503-.03-.05-.041-.112-.036-.183-.01-.239.03-.386.117-.605.03-.076.06-.142.071-.223.036-.234-.025-.534-.229-.742.066.26.026.493-.045.645-.016.026-.026.046-.04.066-.082.112-.169.224-.275.463-.051.137-.107.294-.137.533-.041-.046-.061-.106-.067-.178-.045-.233-.03-.386.02-.614.021-.077.041-.148.036-.229 0-.239-.106-.523-.34-.701.107.249.102.488.056.65l-.03.066c-.062.127-.133.25-.199.503-.03.143-.06.31-.056.549-.04-.04-.07-.097-.091-.163-.081-.228-.092-.376-.071-.614.005-.082.01-.153 0-.229-.04-.239-.193-.503-.447-.64.142.229.172.467.152.63l-.015.076c-.04.132-.092.264-.117.528-.01.143-.015.31.03.55-.05-.036-.086-.087-.116-.148-.117-.214-.148-.36-.168-.595-.005-.08-.01-.152-.04-.228-.072-.229-.265-.468-.54-.56.179.199.25.428.25.595 0 .026 0 .051-.005.077-.02.137-.046.279-.03.538.014.142.035.31.116.539-.056-.026-.102-.072-.142-.127-.148-.188-.198-.33-.254-.56-.02-.08-.036-.147-.076-.223-.107-.208-.336-.416-.62-.467.203.173.31.391.34.554.005.025.005.05.005.076.005.137 0 .28.056.538.036.137.081.3.198.508-.056-.015-.106-.05-.157-.101-.178-.163-.254-.295-.34-.513-.031-.077-.062-.143-.107-.209-.143-.188-.397-.355-.691-.36.233.137.37.33.427.487l.015.077c.025.137.04.279.137.523.056.132.132.284.28.472-.062-.005-.117-.035-.173-.076-.199-.132-.295-.254-.422-.452-.04-.071-.076-.132-.137-.188-.168-.168-.447-.295-.737-.254.249.102.417.274.498.422.01.02.02.045.03.07.046.128.082.265.214.494.076.121.173.259.35.426-.06 0-.122-.02-.182-.05-.219-.102-.33-.204-.483-.382-.056-.06-.102-.116-.168-.167-.193-.137-.488-.219-.767-.132.264.06.457.203.554.335.02.02.03.04.04.066.067.122.127.254.295.452.092.112.208.234.407.371-.056.01-.117 0-.188-.025-.229-.061-.356-.148-.534-.3-.06-.05-.117-.097-.188-.137-.213-.107-.518-.137-.782-.01.27.015.482.132.604.243.016.02.03.036.046.061.086.107.163.229.36.402.107.091.245.193.463.3-.056.02-.122.02-.188.005-.239-.026-.376-.092-.579-.214-.071-.04-.132-.081-.208-.101-.229-.077-.529-.061-.767.106.264-.025.492.056.63.148.02.015.04.03.055.05.102.097.199.204.417.34.122.077.274.158.503.224-.05.03-.112.041-.183.041-.239.005-.386-.036-.605-.122-.076-.03-.142-.06-.223-.071-.234-.036-.534.025-.742.229.26-.066.498-.026.645.045.026.016.046.026.066.04.112.082.224.169.468.275.132.051.29.107.528.137-.046.041-.106.061-.173.067-.238.05-.386.03-.62-.02-.076-.021-.147-.036-.228-.036-.239 0-.523.106-.696.34.244-.107.483-.102.645-.056l.071.03c.122.062.25.133.503.199.138.03.305.06.544.056-.04.04-.097.07-.163.091-.223.081-.376.092-.61.071-.08-.005-.152-.01-.233 0-.234.04-.498.193-.635.452.224-.147.462-.177.63-.157l.071.015c.132.046.264.092.528.117.143.01.31.015.55-.03-.036.05-.087.086-.148.116-.209.117-.36.148-.595.168-.08.01-.152.015-.228.04-.229.072-.463.265-.56.54.204-.179.433-.245.6-.25.026 0 .051 0 .077.005.132.02.274.046.538.03.142-.01.31-.035.534-.116-.02.056-.066.102-.127.142-.188.148-.33.198-.56.254-.075.02-.147.036-.218.076-.213.107-.416.336-.467.62.168-.203.386-.31.549-.34.025-.005.05-.005.076-.005.137-.005.284 0 .538-.056.137-.036.3-.081.513-.198-.015.056-.055.111-.106.157-.163.178-.295.254-.513.34-.072.036-.138.062-.204.107-.193.143-.36.397-.365.691.137-.233.335-.37.492-.427l.072-.015c.137-.025.279-.04.523-.137.132-.056.284-.132.477-.274-.01.056-.035.111-.08.167-.133.199-.25.295-.453.422-.066.04-.127.076-.188.137-.168.168-.29.447-.249.737.097-.249.27-.417.417-.498l.07-.03c.133-.041.27-.082.494-.214.121-.076.259-.173.426-.35.005.06-.015.122-.05.182-.102.219-.204.33-.382.483-.06.056-.116.102-.162.168-.137.193-.219.488-.132.767.056-.264.198-.457.335-.554.02-.015.04-.03.061-.04.122-.067.254-.127.457-.295.107-.092.229-.208.366-.407.01.056 0 .122-.02.188-.066.229-.148.356-.305.534-.05.06-.097.117-.132.193-.107.213-.142.513-.015.777.02-.27.132-.482.249-.6.015-.02.035-.035.055-.05.112-.086.229-.163.402-.36.091-.107.193-.245.3-.463.02.056.02.122.01.188-.03.239-.092.376-.214.579-.045.071-.081.132-.106.208-.072.229-.056.534.111.773-.025-.27.051-.498.148-.636.015-.02.03-.04.045-.055.097-.102.204-.199.346-.417.071-.122.152-.274.218-.503.03.05.041.112.041.183.01.239-.03.386-.122.605-.03.076-.056.142-.071.223-.036.234.025.534.229.742-.066-.26-.026-.498.05-.645.01-.026.02-.046.036-.066.081-.112.173-.224.274-.468.056-.132.112-.29.143-.528.035.046.055.106.066.173.045.238.03.386-.026.62-.02.076-.035.147-.035.228 0 .239.111.523.345.696-.107-.244-.107-.483-.056-.645.005-.026.015-.046.026-.071.06-.122.132-.25.198-.503.03-.138.06-.305.056-.544.045.04.07.097.091.163.086.223.092.376.076.614-.01.077-.015.148 0 .229.036.239.188.503.447.64-.142-.229-.177-.467-.152-.63 0-.025.005-.05.015-.076.04-.132.092-.264.117-.528.005-.143.01-.31-.03-.55.045.036.086.087.116.148.117.209.148.36.168.595.005.08.01.152.036.228.076.229.264.463.543.56-.178-.204-.249-.433-.254-.6 0-.026 0-.051.005-.077.02-.132.051-.274.03-.538-.01-.142-.035-.31-.111-.534.05.026.097.066.137.127.148.188.203.33.26.56.015.075.035.147.07.218.112.213.336.416.625.467-.208-.168-.315-.386-.345-.549-.005-.025-.005-.05-.005-.076 0-.137.005-.28-.051-.538-.036-.137-.086-.3-.203-.513.06.015.111.055.157.106.178.163.254.295.346.513.03.072.056.138.106.204.143.193.397.36.686.365-.228-.137-.366-.335-.421-.492-.01-.026-.016-.046-.02-.072-.021-.137-.041-.279-.138-.523-.056-.132-.127-.284-.274-.472.06.005.117.03.172.076.199.132.295.249.417.452.04.066.081.132.137.188.168.168.447.29.737.249-.25-.097-.417-.27-.493-.417-.015-.025-.025-.045-.03-.07-.046-.133-.087-.27-.219-.494-.076-.121-.173-.259-.345-.426.056 0 .117.015.183.05.213.102.33.204.482.382.051.06.097.116.163.162.193.142.488.219.767.137-.26-.06-.452-.203-.554-.34-.015-.02-.03-.04-.04-.061-.067-.122-.122-.254-.29-.457-.097-.107-.213-.229-.412-.366.061-.01.122 0 .188.02.229.066.356.153.539.305.06.05.117.097.188.132.213.107.513.142.777.015-.27-.02-.477-.132-.6-.249-.02-.015-.035-.035-.05-.055-.081-.112-.163-.229-.356-.402-.111-.091-.249-.193-.462-.3.056-.02.117-.02.188-.01.234.03.376.092.574.219.071.04.132.076.208.101.229.072.534.056.773-.111-.27.025-.493-.051-.63-.148l-.061-.045c-.097-.097-.193-.204-.417-.346-.122-.071-.27-.152-.503-.218.05-.03.117-.041.183-.041.244-.01.391.03.605.122.076.03.142.056.223.071.234.036.534-.025.742-.229-.26.066-.493.026-.645-.05-.02-.01-.046-.02-.066-.036-.112-.081-.224-.168-.463-.274-.132-.051-.294-.107-.533-.143.046-.035.106-.055.178-.066.233-.045.386-.03.614.026.077.02.148.035.229.035.239 0 .523-.111.701-.34-.249.102-.488.102-.645.05-.026-.004-.051-.014-.071-.025-.127-.06-.25-.132-.503-.198-.143-.03-.305-.06-.549-.056.04-.045.097-.07.163-.091.228-.086.38-.092.614-.076.082.01.153.015.234 0 .234-.036.498-.188.635-.447-.229.142-.462.177-.63.157-.025-.005-.05-.01-.076-.02-.132-.04-.264-.092-.523-.117-.143-.005-.315-.01-.549.036.03-.051.081-.092.147-.122.209-.117.356-.148.59-.168.08-.005.152-.01.228-.036.229-.076.468-.264.56-.543-.199.178-.428.249-.595.254-.026 0-.051 0-.077-.005-.137-.02-.279-.051-.538-.03-.142.01-.31.035-.539.116.026-.056.072-.102.127-.142.188-.148.33-.203.56-.26.08-.015.147-.035.223-.07.208-.112.416-.336.467-.625-.173.208-.386.315-.554.345-.025.005-.05.005-.076.005-.137 0-.28-.005-.533.051-.142.036-.305.086-.513.203.015-.06.05-.111.101-.157.163-.178.295-.254.513-.346.077-.03.143-.056.209-.106.188-.143.355-.397.36-.686-.137.228-.33.366-.487.421-.026.01-.051.016-.077.02-.137.026-.279.041-.523.138-.127.056-.28.127-.472.274.005-.056.035-.117.076-.172.132-.199.254-.295.452-.417.071-.04.132-.081.188-.137.168-.168.295-.447.254-.737-.102.249-.274.417-.422.498-.02.01-.045.02-.066.025-.132.046-.269.087-.498.219-.121.076-.259.173-.426.345 0-.056.02-.117.05-.177.102-.219.204-.33.382-.488.06-.051.116-.097.167-.163.137-.193.219-.488.132-.767-.06.26-.203.452-.335.554-.02.015-.04.03-.066.04-.122.067-.254.122-.452.29-.112.097-.234.213-.366.412-.015-.056-.005-.122.02-.188.066-.229.148-.356.3-.539.05-.06.102-.112.137-.188.107-.213.137-.513.01-.777-.015.27-.127.477-.243.6-.02.02-.036.035-.056.05-.112.081-.234.163-.407.36z"/>
                </g>
            </g>
        </g>
    </g>
</svg>
