<svg xmlns="http://www.w3.org/2000/svg" xmlns:xlink="http://www.w3.org/1999/xlink" width="54" height="32" viewBox="0 0 54 32">
    <defs>
        <rect id="prefix__a" width="54" height="32" x="0" y="0" rx="9"/>
    </defs>
    <g fill="none" fill-rule="evenodd">
        <mask id="prefix__b" fill="#fff">
            <use xlink:href="#prefix__a"/>
        </mask>
        <use fill="#D8D8D8" xlink:href="#prefix__a"/>
        <g mask="url(#prefix__b)">
            <g>
                <path fill="#C0001A" d="M0 31.096L53.303 31.096 53.303 0 0 0z" transform="translate(1)"/>
                <path fill="#F8E72A" d="M0 0l26.652 15.547L7.998-.001H0zm45.308 31.095h7.995l-26.65-15.548 18.655 15.548z" transform="translate(1)"/>
                <path fill="#F8E72A" d="M23.986 -0.001L26.652 15.547 23.986 31.095 29.32 31.095 26.652 15.547 29.32 -0.001z" transform="translate(1)"/>
                <path fill="#F8E72A" d="M45.308 0L26.653 15.546 53.303-.001h-7.995zM0 31.094h7.997l18.656-15.548L0 31.095z" transform="translate(1)"/>
                <path fill="#F8E72A" d="M26.653 15.547l26.65 3.111V12.44l-26.65 3.107zM0 18.658l26.652-3.11L0 12.44v6.218z" transform="translate(1)"/>
                <g>
                    <path fill="#C0001A" d="M6.006.135c3.068 0 5.552 2.484 5.552 5.551 0 3.072-2.484 5.556-5.552 5.556C2.94 11.242.45 8.758.45 5.686.45 2.62 2.94.136 6.006.136" transform="translate(1) translate(20.647 9.86)"/>
                    <path fill="#F8E72A" d="M6.006 1.244c2.453 0 4.439 1.99 4.439 4.443 0 2.455-1.986 4.442-4.44 4.442-2.453 0-4.442-1.987-4.442-4.442 0-2.453 1.989-4.443 4.443-4.443" transform="translate(1) translate(20.647 9.86)"/>
                </g>
            </g>
        </g>
    </g>
</svg>
