<svg xmlns="http://www.w3.org/2000/svg" xmlns:xlink="http://www.w3.org/1999/xlink" width="32" height="20" viewBox="0 0 32 20">
    <defs>
        <rect id="ycvmgj9efa" width="30" height="18" x="0" y="0" rx="3"/>
    </defs>
    <g fill="none" fill-rule="evenodd">
        <g>
            <g transform="translate(-500.000000, -650.000000) translate(501.000000, 651.000000)">
                <mask id="rt0ao51rub" fill="#fff">
                    <use xlink:href="#ycvmgj9efa"/>
                </mask>
                <rect width="30.5" height="18.5" x="-.25" y="-.25" stroke="#7E919F" stroke-opacity=".497" stroke-width=".5" rx="3"/>
                <g fill-rule="nonzero" mask="url(#rt0ao51rub)">
                    <path fill="#DA2032" d="M0 0L30 0 30 18 0 18z"/>
                    <path fill="#0066B3" d="M10 0L20 0 20 18 10 18z"/>
                    <g fill="#FFD900" transform="translate(2.250012, 2.500313)">
                        <path d="M0 5.25h1.25v6H0v-6zm4.25 0H5.5v6H4.25v-6zM1.5 10.5l1.25.75L4 10.5H1.5zm0-.75H4v.5H1.5v-.5zm0-4.5L2.75 6 4 5.25H1.5zm0 1H4v.5H1.5v-.5zm1.844.901c.093.126.143.28.143.436 0 .407-.33.738-.737.738-.324 0-.587.263-.587.587 0 .325.263.588.587.588C3.44 9.5 4 8.94 4 8.25c0-.46-.252-.881-.656-1.099zM2.75 8.662c.138 0 .25.112.25.25s-.112.25-.25.25-.25-.112-.25-.25.112-.25.25-.25z"/>
                        <path d="M2.156 9.348c-.093-.126-.143-.279-.143-.436 0-.407.33-.737.737-.737.324 0 .587-.264.587-.588 0-.324-.263-.587-.587-.587-.69 0-1.25.56-1.25 1.25 0 .459.252.88.656 1.098zm.594-1.51c-.138 0-.25-.113-.25-.25 0-.139.112-.25.25-.25s.25.111.25.25c0 .137-.112.25-.25.25zm-1.373-4.24l-.002.027C1.375 4.385 1.991 5 2.75 5c.76 0 1.375-.616 1.375-1.375V3.6c-.239.546-.778.9-1.374.9-.597-.001-1.136-.356-1.374-.903z"/>
                        <circle cx="2.751" cy="3.25" r="1"/>
                        <path d="M2.855 0c-.124.056-.17.158-.18.26-.007.085.03.18.035.264 0 .143-.149.19-.149.395 0 .07.065.148.065.331-.011.096-.065.117-.125.125-.069 0-.125-.056-.125-.125 0-.032.013-.063.035-.086l.012-.012c.029-.03.068-.04.068-.116 0-.04-.025-.075-.05-.144C2.42.825 2.435.713 2.49.647c-.087.034-.141.118-.169.193-.029.092-.003.146-.043.223-.024.05-.053.07-.08.111-.033.046-.071.152-.071.2 0 .346.28.626.625.626s.625-.28.625-.625c0-.05-.037-.155-.07-.2-.027-.042-.057-.063-.08-.112-.04-.077-.015-.13-.044-.223-.027-.075-.081-.16-.169-.193.054.066.07.178.048.245-.024.07-.05.105-.05.144 0 .076.04.087.068.115l.012.013c.023.023.035.054.035.086 0 .069-.056.125-.125.125-.069-.009-.119-.041-.125-.125 0-.24.103-.256.103-.434 0-.254-.228-.375-.228-.56 0-.064.015-.171.104-.256z"/>
                    </g>
                </g>
            </g>
        </g>
    </g>
</svg>
