<svg xmlns="http://www.w3.org/2000/svg" xmlns:xlink="http://www.w3.org/1999/xlink" width="56" height="34" viewBox="0 0 56 34">
    <defs>
        <rect id="prefix__a" width="54" height="32" x="0" y="0" rx="9"/>
    </defs>
    <g fill="none" fill-rule="evenodd" transform="translate(1 1)">
        <mask id="prefix__b" fill="#fff">
            <use xlink:href="#prefix__a"/>
        </mask>
        <use stroke="#7E919F" stroke-opacity=".497" xlink:href="#prefix__a"/>
        <g mask="url(#prefix__b)">
            <g>
                <path fill="#BD0034" d="M27.639 32.248L55.279 32.248 55.279 0 27.639 0z" transform="translate(-1)"/>
                <path fill="#FFF" d="M0 32.248L27.639 32.248 27.639 0 0 0z" transform="translate(-1)"/>
                <g>
                    <path fill="#EFECEC" d="M4.742 3.957c0 .05-.055.094-.125.094-.071 0-.132-.045-.132-.094 0-.051.06-.094.132-.094.07 0 .125.043.125.094" transform="translate(-1) translate(1.647 .954)"/>
                    <path fill="#D30038" d="M.656 3.503v2.375h2.37c0 .396.404.793.796.793v2.375h2.37V6.67c.397 0 .795-.397.795-.793h2.377V3.503H6.987c0-.395-.398-.789-.795-.789V.338h-2.37v2.376c-.392 0-.796.394-.796.79H.656z" transform="translate(-1) translate(1.647 .954)"/>
                    <path fill="#BD0034" d="M.737 3.584V5.8H3.11c0 .395.397.792.79.792v2.375h2.216V6.593c.399 0 .794-.397.794-.792h2.37V3.584H6.91c0-.397-.395-.79-.794-.79V.415H3.899v2.377c-.392 0-.789.394-.789.79H.737z" transform="translate(-1) translate(1.647 .954)"/>
                    <path fill="#91857C" d="M.814 3.663V5.72H3.19c0 .398.393.79.785.79v2.375h2.062V6.51c.392 0 .794-.392.794-.79h2.372V3.663H6.832c0-.399-.402-.793-.794-.793V.495H3.976V2.87c-.392 0-.785.394-.785.793H.814z" transform="translate(-1) translate(1.647 .954)"/>
                    <path fill="#CACACA" d="M.891 3.741v1.901h2.377c0 .395.393.79.792.79v2.376h1.9V6.433c.393 0 .79-.396.79-.791h2.373v-1.9H6.75c0-.398-.397-.793-.79-.793V.576h-1.9v2.373c-.399 0-.792.395-.792.792H.89z" transform="translate(-1) translate(1.647 .954)"/>
                    <path fill="#CECECE" d="M4.08 2.752c.137.138.025.48-.251.756-.28.28-.621.392-.76.25-.135-.136-.023-.476.25-.754.284-.28.622-.389.76-.252" transform="translate(-1) translate(1.647 .954)"/>
                    <path fill="#91857C" d="M3.912 2.921c.138.14.102.402-.084.586-.186.188-.447.224-.592.088-.135-.142-.1-.405.084-.59.193-.184.453-.222.592-.084" transform="translate(-1) translate(1.647 .954)"/>
                    <path fill="#CECECE" d="M3.207 3.341L3.268 3.287 3.487 3.399 3.38 3.171 3.436 3.117 3.66 3.565zM3.548 3.005L3.603 2.949 3.937 3.286 3.883 3.341zM6.945 3.76c-.138.14-.479.029-.759-.251-.273-.277-.385-.618-.25-.756.138-.137.479-.028.759.252.273.278.395.617.25.754" transform="translate(-1) translate(1.647 .954)"/>
                    <path fill="#91857C" d="M6.778 3.595c-.138.137-.399.1-.591-.087-.178-.183-.22-.447-.078-.587.139-.138.402-.1.585.084.184.185.222.448.084.59" transform="translate(-1) translate(1.647 .954)"/>
                    <path fill="#CECECE" d="M6.36 2.894L6.414 2.948 6.299 3.172 6.528 3.062 6.582 3.118 6.131 3.34zM6.694 3.232L6.749 3.286 6.414 3.622 6.36 3.564zM5.935 6.63c-.135-.138-.023-.48.25-.758.28-.276.621-.388.76-.252.145.142.023.48-.25.758-.28.278-.621.389-.76.252" transform="translate(-1) translate(1.647 .954)"/>
                    <path fill="#91857C" d="M6.109 6.461c-.142-.14-.1-.4.077-.588.193-.186.453-.222.592-.084.138.14.1.402-.084.588-.183.186-.447.224-.585.084" transform="translate(-1) translate(1.647 .954)"/>
                    <path fill="#CECECE" d="M6.807 6.043L6.749 6.096 6.527 5.984 6.639 6.209 6.581 6.264 6.361 5.817zM6.466 6.378L6.415 6.432 6.081 6.096 6.132 6.043zM3.069 5.62c.138-.137.48-.025.76.252.276.278.388.62.25.758-.139.136-.476.026-.76-.252-.273-.279-.385-.616-.25-.758" transform="translate(-1) translate(1.647 .954)"/>
                    <path fill="#91857C" d="M3.236 5.789c.145-.138.405-.102.591.084.188.188.223.448.084.588-.138.14-.398.104-.59-.084-.185-.186-.22-.448-.085-.588" transform="translate(-1) translate(1.647 .954)"/>
                    <path fill="#CECECE" d="M3.661 6.489L3.603 6.433 3.715 6.209 3.488 6.321 3.435 6.263 3.883 6.042zM3.32 6.152L3.269 6.096 3.603 5.762 3.661 5.818z" transform="translate(-1) translate(1.647 .954)"/>
                    <path fill="#91857C" d="M5.012 3.043c-.914 0-1.65.738-1.65 1.647 0 .911.736 1.649 1.65 1.649.441 0 .853-.17 1.164-.48.31-.314.483-.726.483-1.169 0-.438-.173-.853-.483-1.166-.31-.31-.723-.48-1.164-.48m0 3.326c-.926 0-1.68-.754-1.68-1.68 0-.924.754-1.673 1.68-1.673.446 0 .865.171 1.18.49.319.315.49.737.49 1.183 0 .448-.171.868-.49 1.186-.315.318-.734.494-1.18.494" transform="translate(-1) translate(1.647 .954)"/>
                    <path fill="#91857C" d="M5.012 3.437c-.695 0-1.255.564-1.255 1.254 0 .693.56 1.253 1.255 1.253.685 0 1.248-.56 1.248-1.253 0-.69-.563-1.254-1.248-1.254m0 2.534c-.705 0-1.286-.575-1.286-1.28 0-.707.581-1.278 1.286-1.278.705 0 1.276.571 1.276 1.278 0 .705-.571 1.28-1.276 1.28" transform="translate(-1) translate(1.647 .954)"/>
                    <path fill="#000" d="M4.455 6.037c0 .03-.016.054-.04.069-.027.015-.057.015-.078 0-.026-.015-.043-.04-.043-.07 0-.029.017-.054.043-.067.021-.015.05-.015.077 0 .025.013.041.038.041.068M5.72 6.037c0 .03-.017.054-.035.069-.03.015-.06.015-.084 0-.023-.015-.043-.04-.043-.07 0-.029.02-.054.043-.067.025-.015.055-.015.084 0 .018.013.035.038.035.068M4.957 6.037v.082h-.105c-.11 0-.11.084 0 .084h.105v.079c0 .087.09.099.097.007l.009-.086h.103c.106 0 .106-.084 0-.084h-.103v-.082c0-.083-.106-.083-.106 0" transform="translate(-1) translate(1.647 .954)"/>
                    <path fill="#91857C" d="M5.913 4.935c.03-.01.07-.005.07-.005s.007.021-.006.028c.013.008.06.006.06.006l-.027.017c.015.003.038.026.038.026s-.038.007-.051-.003c.006.023.006.041.006.041s-.067-.016-.09-.06v-.05zM5.803 4.896c-.016.038-.128-.033-.128-.033s.044.08.125.09l.003-.057zM4.365 5.636L5.716 5.636 5.816 5.555 5.642 5.461 5.375 5.371 5.27 5.312 5.07 5.323 4.902 5.409 4.677 5.435 4.622 5.498 4.456 5.513 4.192 5.506 4.629 5.575 4.265 5.557z" transform="translate(-1) translate(1.647 .954)"/>
                    <path fill="#000" d="M4.266 5.564l.1.069L5.71 5.63l.105-.082-.546-.232-.2.01-.16.087-.232.03-.047.06-.175.012-.264-.003.445.056-.37-.005zm1.45.079h-1.35l-.1-.08.37.006-.445-.056.432-.022.048-.057.232-.033.166-.084.2-.012.113.058.44.186-.105.094z" transform="translate(-1) translate(1.647 .954)"/>
                    <path fill="#91857C" d="M5.096 5.25c-.173-.094-.223.132-.3.184.1.019.174-.074.262-.118.06.174.16.058.16.058s.103.168.248.092c.041.028.076.003.076.003s.056.008.066-.016c.024.011.054-.023.054-.023s.058.003.07-.028c.083.014.2-.178.2-.178l.035-.068.053-.008s0-.033-.024-.031c0-.023-.02-.033-.042-.03 0-.01-.018-.02-.018-.02-.05.012-.05.135-.05.135s-.082.064-.112.08c0-.072-.118-.165-.094-.21.023-.044.1.07.168.05.064-.022.1-.11.1-.173-.022-.048-.064-.122-.064-.122l-.042-.005-.038-.088s-.084.05-.078.094c0 .045.084.083.084.083s-.046.031-.094.016c-.006.048.052.038.078.038.01.031.041.051.041.051s.017.051-.031.045c-.053-.002-.12-.124-.191-.068-.076.058.036.163.036.163s-.064.036-.112.13c-.161-.14-.259-.076-.441-.036" transform="translate(-1) translate(1.647 .954)"/>
                    <path fill="#000" d="M5.765 4.936l.034-.021c-.018-.007-.079-.044-.079-.086-.003-.047.08-.1.08-.1l.016.025-.017-.019c-.011.017-.067.06-.067.094 0 .032.056.065.077.074v.007l-.006.007v-.002c-.004.01-.022.02-.038.021m-.946.486c.007-.021.02-.044.035-.069.054-.082.125-.173.242-.109l.089-.021c.135-.038.239-.046.357.06.03-.088.094-.126.1-.13-.006 0-.063-.058-.057-.113l.071-.069c.028 0 .064.025.089.048.023.018.043.036.058.036.026-.031-.004-.051-.015-.08l.054.039-.043.054c-.018-.001-.034-.02-.06-.036-.029-.023-.055-.048-.083-.048l-.06.056c-.004.053.06.114.06.114-.007.013-.07.048-.107.137-.138-.098-.229-.091-.364-.056l-.089.018c-.132-.058-.181.03-.236.108-.01.023-.02.046-.04.061m.57.07c-.098 0-.166-.094-.175-.11 0 .017-.112.067-.162-.063-.018.016-.041.034-.067.052-.051.036-.1.078-.16.078-.007-.007-.007-.01-.007-.01.068-.013.116-.048.155-.08.031-.017.054-.036.08-.047.063.13.16.06.16.06.01 0 .132.15.25.085l.085.003.064-.01c.05-.028.104-.028.114-.052.095-.002.2-.175.2-.175l.04-.07-.013.004-.006-.07c-.042-.007-.055.082-.055.115-.006.005-.084.069-.118.085-.01-.038-.037-.077-.058-.11-.033-.043-.061-.08-.043-.109l.078.012c.023.02.047.036.077.036.07-.021.107-.099.112-.168-.015-.038-.048-.092-.058-.114.03.027.058.076.071.109 0 .077-.041.165-.105.183-.05-.002-.081-.018-.11-.033-.065.002-.042.038-.012.074.025.04.054.079.054.115.018-.023.102-.087.102-.087 0-.01 0-.124.053-.135l.06.051-.06.119c0 .008-.107.18-.198.18-.011.025-.07.027-.075.027l-.098.04-.1-.012v.008c-.018.015-.048.018-.074.018" transform="translate(-1) translate(1.647 .954)"/>
                    <path fill="#91857C" d="M4.845 5.01c.07.066.023.175.05.196.027.023.068-.011.068-.011.078.021.203-.02.203-.02.057.031.036-.018.07-.015.034.08.132.064.132.064s-.089-.097-.15-.121c-.046.024-.177.03-.197.024-.028-.003-.008-.033-.022-.05.048-.049.014-.167-.02-.208-.1-.073-.232.05-.134.141" transform="translate(-1) translate(1.647 .954)"/>
                    <path fill="#000" d="M5.237 5.154c.033.056.084.064.115.064v.006l.017-.006c-.017 0-.099-.086-.155-.11-.028.023-.118.03-.166.03l-.055-.068c.048-.043.005-.158-.02-.196-.044-.032-.128-.015-.148.04-.02.029-.006.065.03.093.041.043.035.1.035.143l.033.066.034-.024c.125-.004.21-.025.21-.025l.07-.013zm.115.079c-.037 0-.095-.01-.121-.07-.065.019-.149.043-.22.043l-.088.017-.043-.073c.006-.042.006-.095-.035-.133-.04-.033-.05-.074-.04-.107.034-.064.118-.09.182-.046.031.05.067.17.018.216.09.044.181.037.21.016.063.028.16.122.16.127l-.023.01z" transform="translate(-1) translate(1.647 .954)"/>
                    <path fill="#91857C" d="M4.385 4.813c-.091.024-.24-.11-.312-.06-.07.053-.042.181.005.247.05.063-.057.084-.095.124-.03.033.013.076.013.076l.028.018-.003.05.016.057s.013.013.023-.004c.013.014 0 .055.038.061-.013-.026.01-.1.01-.1s.06.003.08-.025c.017-.028-.02-.089-.02-.089h.024c-.023-.011-.03-.056-.03-.056s.084-.03.084-.094c0-.067-.141-.14-.09-.173.056-.039.155.098.245.033.084-.06.031 0 .031 0s.04-.087-.047-.065" transform="translate(-1) translate(1.647 .954)"/>
                    <path fill="#000" d="M4.008 5.21l-.02-.003c-.013-.022-.034-.06-.013-.09.081-.049.104-.062.11-.082-.036-.064-.054-.118-.06-.161-.004-.056.013-.1.04-.125.085-.014.126.006.169.024.048.018.089.037.132.037l.074.005-.02.036-.054-.025c-.043 0-.09-.021-.132-.041-.043-.018-.09-.036-.12-.036-.076.038-.076.085-.076.122.005.044.021.093.048.125.006.067-.027.084-.055.1-.064.061-.03.096-.03.097l.007.017zm.1.181l-.022-.005-.065-.117v-.016.016l.004-.003.06.097c0-.033.014-.077.014-.086.044-.003.077-.011.082-.024.01-.018-.005-.065-.018-.078l-.006-.07s.084-.027.084-.086c0-.03-.03-.06-.053-.09-.031-.026-.048-.047-.048-.07l.041-.013c-.031.03-.005.053.01.076.033.03.061.059.061.097 0 .067-.089.097-.089.097.018.06.048.117.028.145-.01.023-.051.026-.077.026-.005.018-.022.073-.009.09l.004.014z" transform="translate(-1) translate(1.647 .954)"/>
                    <path fill="#91857C" d="M4.838 3.88c-.118-.053-.36-.053-.489-.122-.06.006-.084.05-.09.069-.061-.003-.103.094-.096.114-.114-.047-.161.128-.125.166-.097.005-.084.127-.09.158-.03.076.006.1.067.076.006.03-.007.048-.033.053.161.19.258-.116.403-.116.177-.05.25-.14.25-.14l.071.008.132-.266z" transform="translate(-1) translate(1.647 .954)"/>
                    <path fill="#000" d="M3.954 4.328l.067.007-.038.068c.096.07.167.036.244-.038.048-.046.097-.093.158-.093.17-.049.244-.14.244-.14l.077.01.125-.266c-.054-.014-.125-.028-.209-.042-.099-.016-.202-.033-.28-.069-.047.005-.077.048-.077.061-.041.008-.068.043-.073.056l.005.017-.034.047c-.064-.005-.104.018-.119.063-.013.038-.013.079 0 .095-.07.015-.084.086-.084.134l-.013.095.007-.005zm.131.136c-.034 0-.064-.024-.108-.063l-.04-.06c-.013-.017-.013-.045.003-.077.007-.076.014-.16.098-.164-.017-.009-.017-.053-.007-.098.025-.047.054-.08.102-.077.023 0 .03-.03.05-.05.01-.02.034-.057.077-.057-.007-.013.021-.063.089-.064.07.036.178.05.273.067.084.013.162.027.216.051l-.125.28-.078-.005c.004 0-.067.086-.25.14-.05 0-.097.046-.151.09-.042.04-.091.087-.149.087z" transform="translate(-1) translate(1.647 .954)"/>
                    <path fill="#91857C" d="M5.16 3.741c0 .097-.078.173-.173.173-.097 0-.175-.076-.175-.173 0-.094.078-.173.175-.173.095 0 .173.08.173.173" transform="translate(-1) translate(1.647 .954)"/>
                    <path fill="#000" d="M4.986 3.576c-.09 0-.168.075-.168.166 0 .183.33.183.33 0 0-.09-.065-.166-.162-.166m0 .345c-.097 0-.18-.08-.18-.179 0-.2.36-.2.36 0 0 .099-.078.18-.18.18" transform="translate(-1) translate(1.647 .954)"/>
                    <path fill="#91857C" d="M4.684 5.102c-.109-.023-.29-.13-.3-.275.094-.392.608-.188.657-.483-.013-.192.022-.383.132-.548.044-.064.112-.082.112-.082s.013.042-.007.072c.084-.013.203.036.28.041.027.048.027.068.02.094-.006.031-.041.02-.041.02-.02.021-.043.041-.097.033-.041.028-.139.04-.139.04s.193.197.165.256c.035.018.092.104.092.104s.126-.067.168-.13c.074 0 .2.079.257.086l.145.122s-.09.057-.125-.017c-.05 0-.145-.109-.283-.077-.004.123-.142.21-.142.21s.125-.016.196.024c.074.062.18.143.18.143l.09.158s-.084.018-.118-.096c-.033.091-.033-.054-.158-.12-.042.002-.058.008-.093-.02-.09.027-.2.078-.33.065-.088.03-.156.105-.25.146-.09.043-.121.02-.121.02l-.071.003c-.013.048-.007.116-.048.127.025.03-.016.148-.066.168.017.08.084.102.148.142 0 0 .061-.028.104.008.035.035.071.133.071.133s-.077.005-.1-.005c-.025-.013-.032-.04-.055-.03-.186-.162-.28-.098-.3-.134-.018-.038.043-.137.027-.198" transform="translate(-1) translate(1.647 .954)"/>
                    <path fill="#000" d="M5.633 4.54c.016-.035.077-.101.077-.182.132-.01.183.018.23.044l.063.033v-.01l.058.04-.084-.13c-.023-.002-.058-.018-.1-.036-.048-.023-.11-.046-.15-.046-.037.057-.162.123-.168.125-.007-.002-.065-.083-.1-.104.016-.053-.106-.204-.157-.257.006-.012.095-.02.131-.05.068.007.084-.01.103-.027.042-.047.042-.063.016-.11-.021.004-.07-.009-.105-.017-.05-.012-.094-.023-.145-.023v-.004c.06-.006.102.004.151.015.035.008.078.018.106.018.033.056.033.074.026.104-.06.041-.077.06-.12.06-.068.026-.157.036-.157.036.018.008.193.192.157.253.043.009.094.09.094.097.006-.006.125-.07.161-.128.048.003.109.02.163.048.036.015.071.031.1.036l.149.12c-.003.023-.107.053-.135-.01-.013.004-.03-.006-.061-.021-.05-.023-.1-.056-.162-.056-.036.08-.1.147-.141.183zm.392.353c-.028 0-.058-.011-.084-.044.043.036.077.04.097.04l-.09-.15s-.106-.081-.174-.14c-.04-.022-.093-.027-.131-.027-.007 0-.01-.002-.01-.002.064-.008.112-.001.148.015.068.061.173.144.173.144l.094.161c-.003.003-.017.003-.023.003zm-1.026.008l-.055-.003.03-.016c.044.006.074.003.122-.018.034-.02.077-.047.112-.073.043-.03.084-.06.138-.077.122.005.196-.02.26-.043l.068-.02.094.02c.054.026.084.066.104.1-.037-.033-.063-.064-.107-.087l-.091-.026.007.006-.068.023c-.064.02-.145.042-.22.042-.095.014-.13.046-.179.075-.034.027-.074.051-.112.07-.046.018-.074.027-.103.027zm-.335.383c-.013-.023-.006-.043 0-.068.013-.038.023-.082.013-.114-.115-.016-.29-.13-.306-.275.056-.217.23-.255.39-.293.129-.03.25-.056.274-.19-.013-.213.028-.4.132-.551.05-.066.112-.08.118-.084.007.003.013.023.013.044l-.013-.039v.007s-.06.018-.105.077c-.104.151-.145.334-.132.547-.026.143-.151.173-.287.202-.151.037-.322.076-.377.28.017.137.185.246.303.267.014.04 0 .084-.01.124-.006.026-.013.05-.013.066zm.364.057l-.094-.01c-.08-.046-.131-.074-.151-.141.03-.022.06-.074.07-.12v-.004c-.01.071-.034.114-.064.127.024.056.071.08.126.112l.07.007c.02.01.033.018.043.03zm.041.135l-.057-.008c-.186-.137-.27-.142-.311-.145-.014-.008-.017-.015-.024-.023.078.013.162.023.28.129l.112.04.043-.008c-.006-.003-.03-.062-.059-.1.05.048.066.1.066.105l-.05.01z" transform="translate(-1) translate(1.647 .954)"/>
                    <path fill="#91857C" d="M4.246 4.382c.013-.012.078.013.078.013l.118.077.246.157.089.13-.154-.053-.222-.186-.114-.078s-.054-.047-.04-.06" transform="translate(-1) translate(1.647 .954)"/>
                    <path fill="#000" d="M4.26 4.378l-.007.008.37.317.138.043-.074-.11-.428-.258zm.536.392l-.173-.057-.34-.264c-.017-.021-.057-.058-.044-.072.043-.004.084.011.084.014l.371.231.102.148z" transform="translate(-1) translate(1.647 .954)"/>
                    <path fill="#91857C" d="M5.704 4.787c-.084-.022-.294.232-.294.232l.155.17s.007-.293.139-.402" transform="translate(-1) translate(1.647 .954)"/>
                    <path fill="#000" d="M5.572 5.207l-.168-.183c.006-.02.197-.247.286-.247 0 .001 0 .006-.006.006-.093.025-.267.238-.267.24l.141.15c0-.054.02-.231.098-.343-.078.136-.084.355-.084.359v.018z" transform="translate(-1) translate(1.647 .954)"/>
                    <path fill="#91857C" d="M4.67 4.074c-.047.063-.053.18.007.23.007.073.065.218.112.233.055.015.267.064.351.05-.016.136.09.243.186.314 0 .012 0 .027.014.04.013.016.057.018.064.01.026.03.132.046.138.03.01-.009-.16-.13-.196-.167-.038-.06-.095-.193-.109-.298-.084-.1-.225-.1-.225-.1l.006-.192.004-.222-.078-.038s.02-.007.027-.016c.014.01.05-.03.057-.042.02.009.035.009.035-.001.006-.009.006-.048.02-.068.054-.05-.014-.158-.104-.161-.089-.002-.106.104-.106.113.014.035.007.051 0 .058-.006.01-.034.03-.034.03s-.056-.023-.11 0c-.058.023-.129.054-.136.094-.024.003-.07.036-.077.069-.025-.004-.054.013-.109.099-.097.04-.097.238-.097.238s-.021.037-.021.055c-.007.02.005.038.018.033 0 .013.016.026.023.02.007.013.026.023.035.018 0 .01.03.008.036 0 0-.009-.007-.053 0-.055.006-.005.031.017.041.012.007-.007 0-.025-.003-.032-.007-.008-.032-.014-.038-.046-.007-.031.02-.075.02-.075s.102-.078.105-.147c.077.01.119-.06.145-.086" transform="translate(-1) translate(1.647 .954)"/>
                    <path fill="#000" d="M5.096 4.587c-.122 0-.257-.033-.307-.044-.048-.015-.112-.165-.118-.239-.048-.038-.055-.125-.032-.191-.023.031-.052.056-.1.056-.013.063-.112.14-.119.143 0 0-.02.038-.013.066l.041.088-.07.049-.071-.053.052.035.041-.058c-.013-.089.007-.133.014-.135 0-.003.097-.08.112-.145.074-.006.103-.046.125-.076v.005c0-.005.006-.011.013-.018-.007.012-.013.022-.018.035-.017.057-.017.153.038.193.003.08.07.22.112.232.05.015.216.054.31.054v.003h-.01zm.421.409c-.03 0-.1-.012-.118-.038.034.013.089.023.118.023v.008l.02-.011c0-.007-.07-.06-.114-.092-.038-.028-.07-.053-.084-.065-.011-.021-.089-.176-.108-.303-.078-.09-.213-.094-.22-.094v-.2l.007-.221-.08-.032.006-.008.132-.128c.02-.02.026-.045.013-.076-.013-.035-.054-.076-.109-.076-.03 0-.052.01-.064.03-.03.028-.036.07-.036.077l-.048.092-.104-.006v.006c-.05.02-.125.053-.128.09-.032.008-.074.04-.078.069-.038.005-.074.036-.108.1-.091.041-.098.232-.098.232l-.006.038v-.034h-.003c0-.007.003-.203.093-.244.043-.07.078-.102.11-.102.006-.028.052-.063.083-.068 0-.036.071-.069.129-.092l.117.005-.007-.005.035-.077c-.007-.01.006-.053.03-.084.026-.027.047-.04.083-.04.061 0 .109.044.122.086.01.034.003.066-.02.089l-.028.075c-.026.002-.056.037-.08.037l.054.042-.01.417c.01-.005.142 0 .226.096.02.131.095.283.108.301.01.01.047.036.078.061.107.084.128.1.118.114l-.03.008z" transform="translate(-1) translate(1.647 .954)"/>
                    <path fill="#91857C" d="M4.49 3.793c.027-.058.11-.051.11-.051s.03-.076.141-.03c.043-.031.148.013.148.013s.047-.054.098-.05c.102.014.118.105.115.121-.054.013-.158-.044-.229-.03-.041.027-.105.05-.132.088-.07.006-.141-.064-.25-.061" transform="translate(-1) translate(1.647 .954)"/>
                    <path fill="#000" d="M4.729 3.86c-.03 0-.058-.014-.09-.026-.039-.018-.083-.033-.136-.033v-.005c.053-.01.097.008.135.023.04.015.068.027.09.027v.008l.014-.008c.013-.027.054-.045.089-.065l.07-.023c.034 0 .068.008.105.018.03.007.05.017.077.017-.02-.078-.043-.104-.097-.109-.058.005-.09.043-.09.043-.006.005-.065-.021-.113-.021l-.105-.004c-.055 0-.074.043-.074.043-.03.005-.081.01-.1.045.012-.052.07-.055.09-.055 0 0 .05-.07.148-.03.089-.013.148.01.148.01 0-.001.038-.046.09-.046.067.007.096.037.116.063l.01.066c-.05.006-.077-.002-.107-.008-.035-.01-.064-.017-.097-.017l-.064.023c-.035.015-.076.035-.096.061l-.013.003z" transform="translate(-1) translate(1.647 .954)"/>
                    <path fill="#91857C" d="M4.7 3.888c.03-.017.09-.043.132-.009.04.043.107.09.107.09l.079.03.036.022-.026.35c-.071-.073-.139-.085-.183-.172-.033-.033-.007-.122-.055-.181-.049-.058-.097-.096-.09-.13" transform="translate(-1) translate(1.647 .954)"/>
                    <path fill="#000" d="M5.034 4.386l-.013-.01c-.021-.03-.05-.047-.077-.065-.041-.028-.078-.055-.106-.106-.013-.016-.02-.043-.02-.072-.006-.037-.013-.078-.034-.11-.07-.08-.097-.108-.084-.14.013-.009.041-.029.084-.029.012.01.021.018.041.028-.07-.011-.097 0-.118.012-.007.016.021.046.054.08.064.076.064.116.07.159.007.026.007.049.02.064.029.053.065.076.1.1.022.017.049.037.07.058l.013-.109.007.124-.007.016z" transform="translate(-1) translate(1.647 .954)"/>
                    <path fill="#91857C" d="M4.886 3.986s.042-.007.048.003c.017.005.03.01.036.02.01.007.022.011.022.023.02.005.02.031.02.031l-.014.02s-.011-.016-.018-.03c-.006-.006-.03-.01-.036-.024-.016-.002-.023-.009-.028-.023-.013.001-.03-.02-.03-.02" transform="translate(-1) translate(1.647 .954)"/>
                    <path fill="#91857C" d="M5.224 3.757c-.023-.026-.064-.003-.064-.003l-.107.183-.041.041-.007.143.036.135-.013.101s.055-.046.061-.077c.007-.027-.02-.114-.02-.114s-.028-.054.007-.158c.036-.099.125-.185.148-.25" transform="translate(-1) translate(1.647 .954)"/>
                    <path fill="#000" d="M5.218 3.756l-.155.184-.051.183.035.13-.005.087c.014-.014.04-.044.04-.062.007-.02-.012-.087-.019-.109 0 0-.035-.057.007-.163.026-.054.054-.105.09-.148.025-.04.048-.07.058-.102zm-.196.62l.013-.121L5 4.123v-.148l.054-.043.107-.183.064.005c-.006.038-.03.073-.05.109-.037.046-.068.097-.091.15-.036.094-.007.15-.007.153 0 .006.027.089.02.115-.007.033-.06.08-.06.084l-.014.012z" transform="translate(-1) translate(1.647 .954)"/>
                    <path fill="#91857C" d="M5.482 3.923s-.162.242-.435.326c-.074.017-.048-.18-.048-.18l-.02.006s-.044.19.061.196c.274-.056.476-.346.476-.346l-.034-.002z" transform="translate(-1) translate(1.647 .954)"/>
                    <path fill="#000" d="M5.054 4.253c-.013-.003-.02-.012-.027-.022.287-.079.448-.31.455-.31.007.002.007.017-.007.035-.064.073-.212.233-.421.297zm-.013.023l-.055-.023c-.04-.053-.013-.175-.013-.178.007.007.007.013.013.021-.006.042-.016.116.013.149l.042.026v-.01c.184-.034.334-.18.418-.268-.068.09-.229.245-.418.281v.002z" transform="translate(-1) translate(1.647 .954)"/>
                    <path fill="#91857C" d="M5.6 5.298s-.022.018-.057 0c-.02-.04-.068-.044-.068-.044s-.023-.088-.077-.061c-.007-.046-.058-.023-.058-.023s0-.063-.06-.053c.018-.076-.085-.07-.085-.07s0-.083-.154-.068c.327-.147.593.23.593.23L5.6 5.3z" transform="translate(-1) translate(1.647 .954)"/>
                    <path fill="#000" d="M5.536 5.305c-.02-.038-.06-.043-.06-.043-.007-.008-.024-.056-.045-.066l-.013.007-.084-.033-.014.005-.047-.06c-.023-.066-.078-.064-.078-.064-.054-.063-.09-.072-.155-.066.328-.16.593.218.597.22.005.01-.191-.254-.442-.254-.047 0-.094.008-.148.034.058-.02.1-.01.132.013.016.043.077.038.1.068l.106.097c.08.033.097.084.097.089 0-.003.048.002.067.041l.058.012h-.07z" transform="translate(-1) translate(1.647 .954)"/>
                    <path fill="#91857C" d="M5.758 5.33s.071.085.112.085c.043 0 .043-.083.043-.083s.013.035.035.027c0 .024.023.032.023.032s-.071.159-.26.007l.047-.067z" transform="translate(-1) translate(1.647 .954)"/>
                    <path fill="#000" d="M5.858 5.469c-.041 0-.094-.022-.155-.064.078.042.138.064.185.047.054-.014.079-.062.079-.065l-.048-.048c0 .021-.007.084-.048.084-.043-.004-.107-.08-.118-.088l.011-.01c.017.022.094.07.107.083.022 0 .035-.054.035-.076l.013.003-.007-.003h.013s0 .003-.006.007l.058.052c0 .005-.022.06-.09.075-.01.003-.016.003-.03.003" transform="translate(-1) translate(1.647 .954)"/>
                    <path fill="#91857C" d="M5.166 5.361l-.03.112s-.03.031-.024.036c.013.007.068-.011.068-.011s.084-.01.105-.035c.016.041.06.043.06.043s0-.017-.006-.026c.023.003.037-.004.037-.004s.01-.028-.014-.043c.007-.023.014-.04-.023-.04-.038.032-.108.068-.125.057-.018-.015.07-.054.05-.107l-.098.018z" transform="translate(-1) translate(1.647 .954)"/>
                    <path fill="#000" d="M5.105 5.516l.055-.157.013.003-.033.112c.056.014.13.004.145-.016l.05.04.02-.062.027.047c-.02.011-.03.014-.041.02l.005.003-.012-.002c-.036-.007-.043-.015-.05-.038-.014.028-.098.04-.105.04l-.074.01zM6.546 5.157l-.026.097-.007-.002V5.23l-.001-.023c-.007-.005-.02-.015-.027-.026l-.09-.096-.064-.018c-.02-.003-.032-.003-.035-.003-.007.005-.013.013-.013.023l-.007.01-.006-.002.03-.115h.006v.01c-.007.011-.007.021.005.03l.026.01.064.017L6.54 5c.01-.005.023-.008.03-.011 0-.002.006-.007.018-.013v-.017l.01.007-.029.113h-.013v-.008c.007-.005.007-.011 0-.016 0-.005 0-.009-.006-.012-.004-.002-.01 0-.03.007l-.105.03.07.077.028.021h.014c0-.001.006-.003.006-.008.007-.002.007-.007.007-.013h.006zm-.215-.374v-.076l.131-.104c-.006-.008-.006-.013-.006-.02V4.575l-.083.003c-.02 0-.03.003-.036.007 0 .006-.006.016-.006.026v.011h-.007l-.007-.12.014-.003v.011c0 .01 0 .019.006.024.01.004.017.004.036.004l.177-.01c.02-.001.031-.004.038-.008.006-.005.006-.013.006-.023v-.011h.003l.007.1v.068c-.007.016-.01.031-.023.041-.012.01-.025.016-.035.016-.02 0-.034-.003-.047-.013-.02-.011-.027-.03-.037-.054l-.08.064c-.015.013-.022.026-.035.036 0 .009-.003.023-.003.038l-.013.002zm.225-.507l-.057.026-.007-.007c.013-.006.021-.011.021-.016.007-.007.014-.013.014-.023V4.23l-.015-.041-.206.074c-.017.007-.03.01-.03.015-.006.01-.006.016 0 .026v.008l-.006.005-.035-.113v-.002l.005.008c.007.012.013.02.02.02.003.002.016 0 .03-.003l.209-.074-.014-.032c-.006-.016-.013-.023-.013-.023-.006-.01-.01-.014-.023-.016-.005-.005-.018 0-.028.002l-.006-.007.064-.021.077.219zm-.357-.66l.048.063-.065.267.129-.1c.013-.012.02-.02.02-.025.006-.005 0-.016-.007-.025l-.007-.006.007-.004.058.078-.004.006-.005-.008c-.006-.008-.013-.016-.026-.016-.003.001-.01.008-.03.016l-.189.14V4l.064-.287-.138.104c-.017.01-.021.018-.021.021-.007.01 0 .02.004.027l.007.008-.007.008-.054-.084v-.003l.013.008c.007.008.013.015.02.015.003 0 .017-.007.028-.015l.161-.118v-.027c0-.005 0-.013-.006-.021 0-.003-.007-.008-.007-.013l.007-.007zm-.341-.049l-.09-.06-.042.026c-.01.003-.016.011-.023.015v.01c0 .006.007.014.017.024l-.004.005-.074-.053.007-.008c.006.007.02.01.026.01.01-.002.022-.01.041-.021l.216-.132.003.003-.05.25c-.007.02-.007.035-.007.045.006.007.01.015.016.021l-.006.01-.088-.067.004-.005c.013.005.02.008.024.008l.013-.007c0-.006.007-.014.007-.028l.01-.046zm-.306-.16l.006.006-.05.062-.21-.067L5.3 3.4l.013.003c.014.004.02.004.032-.003 0 0 .006-.012.01-.03l.06-.173c.007-.02.007-.026 0-.033 0-.008-.004-.016-.018-.016l-.013-.003.007-.01.122.041v.008c-.02-.006-.032-.008-.038-.006-.007 0-.01.001-.01.006 0 .004-.007.013-.013.03l-.055.17c-.006.011-.013.02-.006.023 0 .005 0 .008.006.008 0 .003.014.008.032.013l.016.008c.02.005.036.008.041.008.014-.001.02-.003.03-.008.013-.006.02-.015.035-.03zm-.38-.1h.007l-.033.078-.212-.009v-.01l.01.002c.013 0 .02-.003.026-.011.003-.004.003-.014.003-.032l.007-.183v-.03c-.007-.01-.016-.01-.023-.014h-.02l.007-.007.127.004v.01c-.014-.002-.023 0-.03.003-.007.003-.013.005-.013.01-.007.006-.007.015-.007.031l-.003.181v.023c.003 0 .003.004.003.004.007.003.02.003.036.004h.025c.02 0 .03 0 .043-.003.007-.001.015-.005.021-.015.014-.006.02-.02.027-.036zm-.495.015l-.109.028-.006.05v.022c0 .005.006.009.013.009.006.003.013.003.025 0l.003.01-.08.021-.006-.005c.008-.007.015-.013.022-.015 0-.008.006-.025.013-.046l.036-.25.005-.005.155.202c.013.017.023.028.03.033.006.002.02.005.027.002v.007l-.105.03v-.007c.013-.004.02-.009.023-.014v-.013c0-.005-.003-.015-.016-.026l-.03-.033zm-.46-.035l.055.073-.007.005c-.018-.015-.038-.025-.054-.027-.02-.005-.041 0-.068.015-.03.018-.044.046-.044.081 0 .028.01.056.028.086.013.02.03.037.054.052.023.015.043.018.06.018.024 0 .04-.003.054-.014.013-.004.016-.015.021-.019.007-.008.013-.018.02-.024l-.048-.071c-.006-.012-.013-.02-.016-.021-.007-.004-.007-.004-.013-.004-.007 0-.012.005-.025.008v-.003l.089-.06.006.007-.006.002c-.012.005-.012.013-.012.022 0 .004.005.014.012.028l.05.072c-.007.013-.017.031-.03.04-.007.014-.027.023-.035.036-.05.03-.097.036-.138.024-.03-.01-.061-.03-.078-.062-.013-.018-.026-.043-.026-.068-.007-.03 0-.06.013-.084.013-.023.03-.042.054-.056l.024-.013c.006-.005.024-.006.04-.011l.014-.004s0-.005.006-.008c0-.005-.006-.008-.006-.015l.006-.005zm-.395.81l-.03.068-.154.046c-.007.004-.007.012-.007.017l-.005.003v.003l.071.032c.018.006.028.008.035.006.006-.001.013-.011.02-.02l.006-.008.007.002-.043.112-.013-.002.006-.01c.007-.011.007-.02 0-.028-.006-.005-.018-.008-.028-.016l-.174-.064c-.014-.007-.025-.007-.032-.007-.006.003-.01.01-.016.022l-.007.008-.006-.005.036-.094c.011-.03.025-.048.031-.063.01-.01.023-.016.036-.024.015-.005.035-.005.048.003.017.005.028.015.035.028.003.016.01.04.003.063l.097-.027c.027-.003.041-.011.048-.02.013-.008.02-.016.023-.03l.013.004zm-.412.516c-.006.027.007.048.025.064.023.02.053.033.094.033.054.004.09-.003.112-.02.02-.014.033-.037.033-.06 0-.027-.007-.051-.026-.068-.022-.02-.051-.03-.1-.033-.049-.001-.083.005-.106.023-.025.015-.032.033-.032.061zm-.016-.003c0-.036.016-.068.048-.096.03-.021.064-.033.107-.033.04.004.077.02.105.047.027.03.04.062.033.102 0 .04-.02.074-.046.097-.028.025-.064.036-.112.034-.041-.003-.077-.02-.105-.054-.027-.028-.037-.062-.03-.097zm.07.492l.106-.026-.011-.051c0-.012-.01-.021-.01-.025-.013-.005-.02-.005-.036-.005V4.99l.097-.023v.01c-.013.003-.02.005-.027.01-.006.001-.006.008-.006.013-.007.005-.007.013 0 .021l.013.051.084-.02c.013-.003.023-.005.028-.01 0 0 0-.004.007-.01v-.02L3.702 5l.013-.002.03.118-.013.004v-.012c-.007-.01-.007-.02-.017-.023-.006-.002-.018-.002-.028.003l-.181.043c-.018.002-.025.007-.031.01 0 0 0 .005-.004.011v.017l.004.011-.01.005-.048-.207.058-.02v.007l-.023.021c-.007.005-.007.013-.007.02-.003.006 0 .02 0 .034l.02.061z" transform="translate(-1) translate(1.647 .954)"/>
                </g>
            </g>
        </g>
    </g>
</svg>
