<svg xmlns="http://www.w3.org/2000/svg" xmlns:xlink="http://www.w3.org/1999/xlink" width="66" height="40" viewBox="0 0 66 40">
    <defs>
        <rect id="prefix__a" width="66" height="40" x="0" y="0" rx="9"/>
        <path id="prefix__c" d="M0 38.824L65.152 38.824 65.152 0.821 0 0.821z"/>
    </defs>
    <g fill="none" fill-rule="evenodd">
        <mask id="prefix__b" fill="#fff">
            <use xlink:href="#prefix__a"/>
        </mask>
        <use fill="#D8D8D8" xlink:href="#prefix__a"/>
        <g mask="url(#prefix__b)">
            <path fill="#EA0020" d="M22.789 38.944L65.152 38.944 65.152 0.942 22.789 0.942z"/>
            <path fill="#2A680B" d="M0 38.944L22.789 38.944 22.789 0.942 0 0.942z"/>
            <g transform="translate(0 .12)">
                <path fill="#FCFF2C" d="M30.212 25.717c-2.868-.084-16.017-8.3-16.106-9.61l.722-1.208c1.308 1.896 14.75 9.886 16.07 9.6l-.686 1.218z"/>
                <path fill="#FCFF2C" d="M30.28 25.756c-.047.088-.136.096-.307.074-1.077-.118-4.33-1.706-8.184-4.008-4.482-2.687-8.182-5.135-7.78-5.775l.107-.194.025.005c-.365 1.086 7.303 5.475 7.753 5.75 4.441 2.753 8.176 4.36 8.506 3.943l-.12.206zM14.677 14.73c-.26.697 3.434 2.98 7.871 5.678 4.442 2.706 8.264 4.373 8.553 4.136.014-.033.138-.242.124-.242-.05.083-.182.104-.384.046-1.202-.343-4.325-1.782-8.2-4.133-3.874-2.348-7.244-4.517-7.768-5.437-.033-.064-.06-.178-.057-.27h-.011l-.109.196-.02.03v-.004z"/>
                <path fill="#000" d="M31 24.59c-.664 0-4.296-1.618-8.465-4.16-4.78-2.907-8.138-5.019-7.883-5.708l.13-.23c.002.005.005.012.005.016l-.073.206c-.268.728 4.04 3.356 7.844 5.672 4.168 2.537 7.782 4.15 8.442 4.15.053 0 .074-.01.082-.017.023-.047.048-.093.073-.132-.062.027-.182.027-.32-.012-1.318-.382-4.56-1.923-8.207-4.136-3.535-2.143-7.221-4.47-7.778-5.45-.037-.067-.066-.187-.063-.28.057.093.078.197.111.256.555.972 4.438 3.412 7.757 5.425 3.646 2.215 6.882 3.756 8.194 4.13.176.055.306.04.353-.034.058.018.058.021-.052.214-.057.081-.095.09-.15.09m-.897 1.274c-.037 0-.081-.004-.134-.008-1.094-.12-4.387-1.735-8.193-4.016-5.084-3.046-7.64-4.882-7.815-5.608-.018-.078-.01-.144.023-.202l.107-.19v.06l-.057.16c-.029.044-.037.094-.021.162.173.71 2.72 2.536 7.792 5.575 3.799 2.276 7.083 3.885 8.172 4.003.16.018.243.014.282-.056l.07-.128c-.032.017-.082.025-.142.025-.903 0-4.257-1.497-8.303-4.009-.046-.025-.149-.087-.306-.178-4.956-2.92-7.47-4.773-7.48-5.51.105.484 1.262 1.783 7.505 5.461.16.094.266.154.307.183 4.04 2.502 7.382 3.999 8.277 3.999.097 0 .167-.022.194-.053l-.004.004c.004.023-.004.045-.017.058l-.055.175c-.046.082-.13.093-.202.093"/>
                <path fill="#FCFF2C" d="M22.8 16.9c2.87-.023 6.415-.39 8.451-1.206l-.438-.714c-1.204.668-4.766 1.105-8.037 1.17-3.867-.03-6.592-.393-7.962-1.314l-.416.761c2.516 1.066 5.09 1.291 8.402 1.303"/>
                <path fill="#FCFF2C" d="M30.987 14.987c-.218.175-1.3.557-3.21.864-1.276.183-2.893.348-4.964.35-1.965.001-3.57-.129-4.793-.311-1.938-.25-2.97-.707-3.343-.845.04-.062.076-.12.117-.19.289.148 1.285.553 3.251.83 1.204.17 2.815.3 4.768.298 2.061 0 3.66-.17 4.926-.35 1.918-.267 2.953-.756 3.11-.879l.138.233zm.386.724c-.072.113-1.4.571-3.358.91-1.328.205-3.061.375-5.226.377-2.052.004-3.73-.143-5-.316-2.052-.322-3.116-.77-3.51-.93.037-.074.062-.128.1-.192 1.127.442 2.195.716 3.445.91 1.258.171 2.917.319 4.963.319 2.15-.004 3.863-.19 5.181-.387 2.007-.326 3.11-.74 3.261-.937l.144.246z"/>
                <path fill="#000" d="M14.78 14.881l-.075.179.144.021c.475.182 1.467.561 3.177.784 1.375.2 3.02.309 4.754.309v.027l.033-.027c1.736-.004 3.31-.115 4.958-.351 1.941-.31 2.991-.69 3.2-.858l-.146-.198c-.101.12-1.1.619-3.081.892-1.654.237-3.219.348-4.93.35-2.223 0-3.82-.161-4.776-.297-2.126-.301-3.088-.744-3.257-.83zm8 1.343c-1.733 0-3.383-.104-4.761-.306-1.714-.224-2.712-.602-3.192-.787l-.155-.058.068-.174c.004-.018.052-.066.066-.066.169.085 1.124.526 3.242.826.95.134 2.543.297 4.732.297 1.742-.001 3.306-.116 4.952-.35 1.833-.255 2.916-.729 3.1-.872l.177.238c-.217.204-1.275.596-3.228.907-1.65.239-3.228.345-4.968.345h-.033zm-8.41-.644l-.067.182c.43.14 1.497.58 3.494.891 1.54.21 3.2.317 4.93.317v.029l.063-.03c1.836-.001 3.595-.125 5.22-.376 2.013-.347 3.282-.805 3.34-.897l-.141-.217c-.105.188-1.122.606-3.232.95-1.738.26-3.436.384-5.189.385-1.753 0-3.414-.106-4.973-.32-1.299-.198-2.36-.483-3.446-.914zm8.358 1.444c-1.734 0-3.395-.105-4.942-.316-1.998-.315-3.075-.752-3.48-.917l-.014-.122.062-.124c1.114.415 2.176.697 3.472.897 1.555.211 3.213.318 4.93.318 1.785-.004 3.478-.128 5.21-.384 1.985-.322 3.093-.734 3.243-.928l.188.25c-.085.158-1.463.618-3.377.948-1.631.252-3.39.378-5.23.378h-.062z"/>
                <path fill="#FCFF2C" d="M13.376 20.361c1.763.95 5.688 1.431 9.397 1.464 3.382.006 7.782-.522 9.429-1.398l-.047-.95c-.514.807-5.231 1.575-9.417 1.546-4.185-.03-8.075-.677-9.37-1.516l.008.854z"/>
                <path fill="#FCFF2C" d="M32.291 19.415v.23c-.245.297-1.797.743-3.746 1.057-1.476.228-3.41.402-5.814.402-2.285 0-4.104-.165-5.52-.382-2.233-.328-3.662-.895-3.951-1.068l.004-.264c.863.575 3.195.992 3.977 1.122 1.407.218 3.215.379 5.49.379 2.397 0 4.313-.17 5.784-.396 1.398-.204 3.39-.726 3.776-1.08m0 .812v.225c-.245.295-1.8.744-3.746 1.058-1.476.227-3.41.4-5.814.4-2.285 0-4.108-.165-5.52-.379-2.237-.328-3.662-.898-3.951-1.067V20.2c.867.572 3.199.99 3.981 1.122 1.407.213 3.215.378 5.49.378 2.397 0 4.313-.173 5.784-.396 1.394-.204 3.386-.728 3.776-1.077"/>
                <path fill="#000" d="M13.247 19.414l.04.24c.203.107 1.58.697 3.93 1.04 1.642.251 3.5.377 5.515.377 2.139 0 4.096-.132 5.81-.394 1.885-.306 3.488-.755 3.73-1.052l-.007-.21c-.353.377-2.355.907-3.747 1.103-1.706.266-3.655.398-5.786.398-2.011 0-3.861-.126-5.492-.376-.92-.152-3.145-.561-3.993-1.126m9.485 1.718c-2.021 0-3.877-.13-5.525-.385-2.143-.312-3.616-.867-3.96-1.07l-.011-.287c.904.552 3.294.979 4.01 1.095 1.63.249 3.479.379 5.486.379 2.131 0 4.072-.134 5.779-.396 1.39-.204 3.373-.722 3.764-1.07l.044.247c-.26.322-1.846.776-3.766 1.085-1.723.264-3.682.402-5.821.402m-9.485-.91l.04.242c.207.107 1.59.697 3.926 1.038 1.638.25 3.494.379 5.519.379 2.131 0 4.088-.132 5.81-.398 1.877-.303 3.48-.753 3.73-1.048l-.007-.208c-.351.369-2.35.899-3.747 1.097-1.714.268-3.663.396-5.786.396-2.02 0-3.865-.122-5.492-.375-.92-.15-3.145-.557-3.993-1.124m9.485 1.714c-2.029 0-3.883-.128-5.525-.38-2.137-.313-3.612-.864-3.96-1.07l-.015-.285c.908.55 3.298.976 4.014 1.093 1.623.25 3.47.376 5.486.376 2.123 0 4.067-.134 5.779-.394 1.39-.204 3.373-.722 3.764-1.071l.044.248c-.262.324-1.846.777-3.77 1.083-1.725.266-3.682.4-5.817.4"/>
                <path fill="#FCFF2C" d="M22.767 25.556c-4.06-.026-7.54-1.109-8.277-1.284l.538.837c1.297.548 4.694 1.36 7.776 1.27 3.087-.088 5.783-.33 7.685-1.256l.546-.87c-1.295.61-5.701 1.297-8.268 1.303"/>
                <path fill="#FCFF2C" d="M31.17 24.143c.005 0 .005.004.005.004-.06.105-.123.208-.185.31-.477.172-1.776.552-3.669.82-1.25.167-2.024.336-4.509.382-4.653-.118-7.666-1.03-8.382-1.254l-.107-.207c2.7.708 5.453 1.2 8.49 1.252 2.272-.053 3.237-.22 4.477-.386 2.21-.346 3.324-.709 3.656-.812-.004-.008-.012-.015-.012-.021l.237-.088zm-.475.785c-.081.126-.165.244-.244.365-.897.314-2.312.648-2.908.743-1.215.254-3.098.435-4.774.437-3.597-.05-6.541-.755-7.925-1.353l-.113-.196.017-.027.19.071c2.466.884 5.232 1.235 7.853 1.299 1.663.008 3.327-.192 4.68-.437 2.065-.413 2.902-.726 3.156-.864l.068-.038z"/>
                <path fill="#000" d="M22.813 25.684c-4.139-.106-7.033-.832-8.388-1.254l-.126-.217c3.12.769 5.815 1.163 8.514 1.21 2.015-.045 3.012-.183 4.065-.33l.41-.055c2.117-.33 3.239-.683 3.604-.796l.272-.126-.01.02-.214.122c-.4.147-1.525.499-3.647.829l-.404.058c-1.056.147-2.057.285-4.076.332-2.702-.047-5.405-.447-8.497-1.252l.138.169c1.337.411 4.226 1.131 8.359 1.24 2.112-.043 2.974-.167 3.971-.31l.528-.072c1.691-.24 3.034-.589 3.671-.82l.17-.29-.143.33c-.65.242-1.997.593-3.686.83l-.532.074c-1.002.145-1.863.268-3.98.308zm-8.074-.764l.127.182c1.461.627 4.48 1.297 7.906 1.347 1.59 0 3.504-.174 4.767-.438.616-.101 2.02-.433 2.903-.742.05-.085.112-.175.174-.266-.207.101-.941.414-3.14.854-1.103.198-2.8.435-4.61.435-3.085-.074-5.731-.51-7.938-1.297l-.189-.075zm8.031 1.58c-3.667-.05-6.567-.765-7.937-1.359l-.127-.206c.008-.01.04-.066.05-.066l.193.076c2.195.786 4.835 1.225 7.84 1.293h.002c1.883 0 3.574-.233 4.673-.433 2.308-.46 2.995-.777 3.152-.864.006-.006.031-.014.049-.016l.006-.011.025.013-.004.004c.01.004.027.004.023.01-.081.124-.16.247-.244.367-.901.322-2.308.652-2.922.753-1.285.266-3.16.437-4.779.439z"/>
                <path fill="#FCFF2C" d="M22.769 10.536c5.11 0 9.277 4.172 9.277 9.285 0 5.115-4.168 9.286-9.277 9.286-5.11 0-9.271-4.171-9.271-9.286 0-5.113 4.162-9.285 9.271-9.285m0 .837c4.667 0 8.434 3.797 8.434 8.463 0 4.667-3.767 8.437-8.434 8.437-4.66 0-8.44-3.782-8.44-8.452 0-4.665 3.78-8.448 8.44-8.448"/>
                <path fill="#FCFF2C" d="M22.777 10.633c5.043 0 9.195 4.14 9.195 9.199 0 5.065-4.156 9.201-9.195 9.201-5.042 0-9.194-4.136-9.194-9.201 0-5.059 4.152-9.2 9.194-9.2m0-.205c5.177 0 9.4 4.224 9.4 9.405 0 5.183-4.223 9.409-9.4 9.409-5.176 0-9.402-4.226-9.402-9.409 0-5.181 4.226-9.405 9.402-9.405"/>
                <path fill="#000" d="M22.777 10.661c-5.055 0-9.167 4.114-9.167 9.174 0 5.055 4.112 9.17 9.167 9.17 5.052 0 9.164-4.115 9.164-9.17 0-5.06-4.112-9.174-9.164-9.174m0 18.4c-5.086 0-9.223-4.138-9.223-9.226 0-5.09 4.137-9.23 9.223-9.23 5.084 0 9.22 4.14 9.22 9.23 0 5.088-4.136 9.227-9.22 9.227m0-18.608c-5.17 0-9.374 4.208-9.374 9.381 0 5.174 4.204 9.38 9.374 9.38 5.167 0 9.374-4.206 9.374-9.38 0-5.173-4.207-9.381-9.374-9.381m0 18.815c-5.199 0-9.427-4.231-9.427-9.434 0-5.204 4.228-9.438 9.427-9.438 5.2 0 9.426 4.234 9.426 9.438 0 5.203-4.226 9.434-9.426 9.434"/>
                <path fill="#FCFF2C" d="M22.788 11.414c4.605 0 8.403 3.783 8.403 8.413 0 4.628-3.798 8.405-8.403 8.405-4.612 0-8.405-3.777-8.405-8.405 0-4.63 3.793-8.413 8.405-8.413m0-.206c4.721 0 8.61 3.879 8.61 8.619 0 4.736-3.889 8.617-8.61 8.617-4.723 0-8.613-3.88-8.613-8.617 0-4.74 3.89-8.619 8.613-8.619"/>
                <path fill="#000" d="M22.788 11.44c-4.62 0-8.382 3.762-8.382 8.386 0 4.62 3.762 8.384 8.382 8.384 4.616 0 8.374-3.764 8.374-8.384 0-4.624-3.758-8.386-8.374-8.386m0 16.823c-4.651 0-8.434-3.786-8.434-8.437 0-4.653 3.783-8.438 8.434-8.438 4.65 0 8.427 3.785 8.427 8.438 0 4.651-3.778 8.437-8.427 8.437m0-17.028c-4.733 0-8.586 3.853-8.586 8.591 0 4.739 3.853 8.59 8.586 8.59 4.73 0 8.58-3.851 8.58-8.59 0-4.738-3.85-8.591-8.58-8.591m0 17.235c-4.764 0-8.64-3.878-8.64-8.644 0-4.77 3.876-8.646 8.64-8.646 4.762 0 8.634 3.877 8.634 8.646 0 4.766-3.872 8.644-8.634 8.644"/>
                <mask id="prefix__d" fill="#fff">
                    <use xlink:href="#prefix__c"/>
                </mask>
                <path fill="#FCFF2C" d="M22.395 29.31L23.216 29.31 23.216 10.381 22.395 10.381z" mask="url(#prefix__d)"/>
                <path fill="#FCFF2C" d="M22.28 10.278h.208l.004 19.125h-.212V10.278zm.806 19.125h.202V10.278h-.202v19.125z" mask="url(#prefix__d)"/>
                <path fill="#000" d="M22.462 10.278l-.183.03.03 19.095.153-.025v-19.1zm.031 19.15h-.214l-.02-19.15.23-.025.031 19.15c0 .004-.008.008-.011.015-.006.006-.01.01-.016.01zm.767-19.15l-.175.03.027 19.095.148-.025v-19.1zm.029 19.15h-.204l-.027-19.15.23-.025.028 19.15c0 .004-.004.008-.01.015-.004.006-.01.01-.017.01z" mask="url(#prefix__d)"/>
                <path fill="#FCFF2C" d="M13.344 19.433c1.18-1.088 5.528-1.792 9.387-1.773 3.86.02 8.429.812 9.423 1.751l.008.808c-.833-.78-4.382-1.716-9.423-1.728-5.045-.01-8.704.951-9.395 1.75v-.808z" mask="url(#prefix__d)"/>
                <path fill="#000" d="M13.368 20.168l-.054-.697c0-.033.054-.033.054 0v.697zM32.211 20.2l-.056-.7c0-.03.056-.03.056 0v.7z" mask="url(#prefix__d)"/>
                <path fill="#FCFF2C" d="M22.784 17.57c2.22-.003 4.372.213 6.082.544 1.76.356 3 .794 3.424 1.287v.245c-.506-.615-2.18-1.066-3.463-1.324-1.696-.332-3.834-.545-6.043-.54-2.333.004-4.49.228-6.163.55-1.289.246-3.152.798-3.364 1.314v-.252c.128-.356 1.481-.918 3.327-1.274 1.683-.33 3.857-.543 6.2-.55m-.004.807c2.22-.002 4.376.211 6.086.541 1.76.355 3 .796 3.424 1.293v.245c-.51-.616-2.18-1.068-3.467-1.326-1.692-.332-3.83-.548-6.043-.542-2.329.004-4.495.225-6.169.55-1.339.267-3.125.8-3.354 1.318V20.2c.124-.359 1.454-.9 3.323-1.273 1.687-.33 3.857-.548 6.2-.551" mask="url(#prefix__d)"/>
                <path fill="#000" d="M22.784 17.757c2.13 0 4.26.188 6.045.537 1.068.216 2.935.672 3.483 1.334l-.047-.225c-.4-.454-1.578-.895-3.407-1.264-1.79-.35-3.927-.543-6.006-.543-2.279.005-4.476.2-6.26.547-1.93.379-3.195.94-3.304 1.26v.145c.38-.52 2.163-1.02 3.331-1.244 1.807-.35 3.997-.545 6.165-.547m-9.523 1.918h-.004c-.014-.002-.025-.012-.025-.026v-.254c.136-.404 1.578-.957 3.348-1.304 1.79-.352 3.99-.542 6.204-.548 2.151 0 4.29.192 6.088.542 1.838.367 3.032.819 3.444 1.302l.003.26c-.59-.634-2.44-1.087-3.5-1.3-1.785-.346-3.909-.54-5.988-.54-2.215.004-4.397.202-6.202.551-1.483.284-3.158.831-3.34 1.3-.009.01-.016.017-.028.017m9.52-1.113c2.14 0 4.262.19 6.048.538 1.064.214 2.93.672 3.483 1.337l-.047-.225c-.4-.458-1.578-.9-3.407-1.267-1.801-.348-3.94-.542-6.03-.542-2.247.004-4.448.202-6.24.551-2.005.4-3.195.946-3.3 1.258v.146c.396-.538 2.242-1.03 3.32-1.248 1.801-.348 3.99-.544 6.172-.548m-9.523 1.922l-.002-.004c-.012 0-.023-.013-.023-.023v-.254c.132-.4 1.54-.944 3.346-1.303 1.798-.351 4-.55 6.202-.551 2.142 0 4.285.194 6.09.543 1.84.37 3.034.82 3.442 1.299l.007.266c-.592-.637-2.444-1.09-3.503-1.3-1.779-.35-3.894-.54-5.964-.54-2.25.005-4.437.2-6.233.549-1.462.291-3.129.821-3.335 1.3-.004.01-.011.018-.027.018" mask="url(#prefix__d)"/>
                <path fill="#FCFF2C" d="M22.739 13.455c3.496-.019 6.545.494 7.943 1.206l.509.881c-1.214-.656-4.504-1.333-8.45-1.234-3.211.021-6.649.355-8.373 1.273l.61-1.017c1.415-.734 4.748-1.107 7.76-1.109" mask="url(#prefix__d)"/>
                <path fill="#FCFF2C" d="M22.78 13.378c1.91-.008 3.797.1 5.269.365 1.159.225 2.304.578 2.72.89l.225.35c-.379-.415-1.79-.811-3.036-1.03-1.456-.253-3.267-.354-5.178-.37-2.003.006-3.853.13-5.295.39-1.367.26-2.252.57-2.625.812l.195-.293c.514-.272 1.35-.522 2.403-.728 1.446-.262 3.308-.38 5.322-.386m.004.805c1.992-.007 3.92.111 5.455.385 1.429.264 2.79.664 2.988.877l.147.268c-.474-.307-1.652-.654-3.166-.94-1.52-.287-3.446-.382-5.428-.376-2.253-.006-4.004.11-5.505.375-1.588.297-2.692.724-2.962.922l.15-.282c.524-.272 1.362-.594 2.777-.848 1.547-.282 3.318-.369 5.544-.38" mask="url(#prefix__d)"/>
                <path fill="#000" d="M22.78 13.556c2.155.017 3.85.136 5.181.369 1.049.184 2.373.528 2.908.918l-.122-.194c-.384-.282-1.47-.643-2.706-.881-1.326-.237-3.092-.363-5.105-.363h-.156c-2.117.005-3.956.137-5.32.386-1.054.208-1.887.456-2.394.722l-.184.29c.39-.317 1.378-.62 2.601-.855 1.378-.256 3.209-.388 5.297-.392m8.214 1.458c-.01 0-.012-.006-.02-.01-.388-.433-1.871-.821-3.024-1.025-1.326-.23-3.019-.35-5.17-.37-2.084.007-3.911.143-5.287.392-1.217.232-2.196.533-2.619.809l.157-.332c.524-.283 1.355-.53 2.419-.74 1.367-.248 3.213-.384 5.33-.388h.156c2.013 0 3.783.126 5.115.365 1.244.24 2.34.602 2.739.897l.227.36c.008.009.004.026-.008.034-.006.004-.01.008-.015.008m-8.093-.806h-.117c-2.533.018-4.136.126-5.544.38-1.149.212-2.057.486-2.766.849l-.134.27c.233-.243 1.34-.664 2.928-.963 1.46-.252 3.144-.373 5.309-.373h.38c2.163 0 3.931.125 5.259.373 1.456.28 2.568.6 3.084.891l-.097-.179c-.186-.2-1.545-.601-2.968-.861-1.396-.253-3.24-.387-5.334-.387m8.473 1.532s-.01-.002-.014-.006c-.463-.299-1.613-.643-3.156-.934-1.32-.248-3.084-.378-5.247-.378l-.177.002-.203-.002c-2.16 0-3.844.12-5.298.376-1.582.293-2.675.717-2.95.917l.108-.317c.724-.373 1.639-.652 2.796-.86 1.403-.256 3.012-.37 5.551-.382h.117c2.098 0 3.946.13 5.344.384 1.454.27 2.801.668 2.997.89l.157.27c.006.01.002.024-.004.034-.005.004-.013.006-.02.006" mask="url(#prefix__d)"/>
                <path fill="#FCFF2C" d="M27.453 23.747c-1.73-.328-3.463-.373-4.672-.359-5.83.068-7.714 1.2-7.945 1.54l-.437-.711c1.487-1.075 4.66-1.68 8.411-1.619 1.949.033 3.632.163 5.045.435l-.402.714z" mask="url(#prefix__d)"/>
                <path fill="#FCFF2C" d="M22.817 22.471c1.683.033 3.418.11 5.103.445l-.115.204c-1.521-.303-2.977-.402-4.973-.435-2.16.006-4.451.157-6.53.765-.674.198-1.836.621-1.871.955l-.11-.198c.024-.307 1.026-.7 1.93-.967 2.097-.61 4.393-.763 6.566-.769m-.072.816c1.625.027 3.212.095 4.752.378l-.11.198c-1.43-.264-2.95-.365-4.634-.355-2.155-.02-4.331.184-6.222.726-.602.167-1.594.551-1.69.868l-.11-.18c.034-.187.63-.577 1.75-.894 2.168-.62 4.196-.724 6.264-.741" mask="url(#prefix__d)"/>
                <path fill="#000" d="M22.817 22.496c-2.689.008-4.772.252-6.558.77-1.143.333-1.894.707-1.914.942l.076.13c.186-.411 1.693-.864 1.87-.912 1.781-.52 3.856-.761 6.541-.767 1.813.031 3.358.115 4.98.437l.087-.19c-1.676-.301-3.429-.375-5.082-.41zM14.43 24.43c-.014 0-.022-.008-.026-.014l-.11-.192c.029-.418 1.5-.878 1.949-1.008 1.79-.52 3.88-.763 6.573-.772 1.653.033 3.414.112 5.11.448l-.098.239c-1.646-.307-3.188-.392-4.997-.421-2.677.005-4.748.244-6.524.763-.87.258-1.817.654-1.854.931 0 .012-.008.022-.02.026h-.003zm8.314-1.113c-2.26.014-4.187.144-6.259.738-1.131.32-1.702.706-1.73.87l.08.124c.195-.355 1.27-.724 1.687-.84 1.685-.48 3.696-.729 5.983-.729l.247.002.207-.002c1.681 0 3.131.119 4.428.357l.084-.184c-1.551-.254-3.192-.312-4.727-.336zm-7.905 1.811c-.007 0-.017-.004-.021-.007l-.113-.189c.033-.225.666-.617 1.767-.93 2.073-.594 4.008-.726 6.272-.741 1.54.023 3.181.083 4.756.378l-.094.235c-1.32-.225-2.766-.341-4.447-.341l-.207.002-.247-.002c-2.28 0-4.288.242-5.971.728-.637.178-1.574.559-1.67.852-.005.01-.013.015-.02.015h-.005z" mask="url(#prefix__d)"/>
                <path fill="#EA0020" d="M27.4 23.891c-.011 0-.013-.002-.021-.008-.021-.01-.03-.033-.02-.058l.517-.912c.013-.021.037-.031.056-.016.025.012.033.043.018.059l-.51.91c-.007.017-.026.025-.04.025" mask="url(#prefix__d)"/>
                <path fill="#FCFF2C" d="M14.898 14.553c2.887-.04 16.223 8.155 16.265 9.665l-.826 1.27c-.375-1.755-13.909-9.727-16.141-9.578l.702-1.357z" mask="url(#prefix__d)"/>
                <path fill="#000" d="M30.422 25.427l.656-1.115c.01-.013.027-.017.035-.01.012.01.017.024.008.036l-.7 1.089zM14.248 15.848l.602-1.237c.006-.013.023-.017.039-.01.013.004.017.022.01.035l-.651 1.212z" mask="url(#prefix__d)"/>
                <path fill="#FCFF2C" d="M31.243 24.312c.34-.674-3.314-3.426-7.843-6.107-4.637-2.628-7.974-4.177-8.583-3.713l-.14.242c0 .014.008-.011.033-.037.112-.095.297-.09.378-.09 1.052.013 4.052 1.397 8.264 3.812 1.844 1.077 7.79 4.891 7.77 5.967 0 .09.002.109-.029.157l.15-.23zM14.112 15.86c.536-.363 4.474 1.394 8.595 3.883 4.118 2.494 8.04 5.31 7.688 5.839l-.115.182-.054.045c.01-.008.07-.082-.006-.274-.175-.58-2.964-2.805-7.586-5.598-4.508-2.69-8.26-4.314-8.64-3.848l.118-.229z" mask="url(#prefix__d)"/>
                <path fill="#000" d="M31.106 24.543s-.005 0-.013-.006v-.002l-.01-.032c.004 0 .004-.002.004-.002l-.017.025.017-.025c.006-.016.006-.035.006-.084.021-1.1-6.04-4.975-7.755-5.977-4.195-2.405-7.202-3.793-8.25-3.806-.107.002-.262.002-.357.083h-.006c.103-.134.256-.134.345-.14 1.078.018 4.09 1.408 8.295 3.817 1.215.706 7.81 4.82 7.782 5.992v.02l.072-.111c.314-.614-3.13-3.28-7.835-6.068-4.979-2.82-8.007-4.13-8.552-3.718l-.113.212c-.023.006-.072.025-.072.015l.146-.26c.081-.068.194-.093.35-.093 1.298 0 5.215 2.062 8.27 3.797 4.093 2.423 8.23 5.397 7.854 6.14l-.135.21c-.006.007-.014.013-.026.013zm-16.855-8.56c1.048 0 4.58 1.65 8.398 3.93 4.52 2.732 7.41 4.993 7.597 5.61.03.08.037.14.037.185l.088-.144c.021-.025.025-.06.013-.106-.169-.771-4.088-3.51-7.687-5.694-3.645-2.197-7.322-3.923-8.364-3.923-.095 0-.161.012-.206.04l-.068.14c.035-.029.105-.038.192-.038zm15.992 9.843l-.028-.035c-.007 0-.011-.002-.007-.005 0 0 .058-.06-.014-.245-.179-.592-3.125-2.894-7.574-5.583-3.811-2.271-7.326-3.923-8.369-3.923-.12 0-.2.025-.237.068l.004-.012c.004-.011.004-.025.012-.037l.056-.205c.066-.045.144-.062.247-.062 1.048 0 4.738 1.725 8.388 3.932 3.703 2.244 7.541 4.935 7.716 5.725.013.06.007.113-.018.151l-.118.187c-.006.004-.022.01-.035.015-.01.018-.02.03-.02.03h-.003z" mask="url(#prefix__d)"/>
                <path fill="#FFF" d="M17.145 20.871c0 1.544.632 2.943 1.66 3.962 1.024 1.027 2.42 1.672 3.967 1.672 1.555 0 2.968-.631 3.991-1.652 1.021-1.017 1.656-2.427 1.656-3.978V13.35l-11.274-.011v7.533z" mask="url(#prefix__d)"/>
                <path fill="#000" d="M28.388 13.35l-11.243.019.035 7.502c0 1.483.584 2.885 1.648 3.943 1.073 1.071 2.475 1.658 3.944 1.658 1.497 0 2.906-.583 3.968-1.64 1.062-1.06 1.648-2.464 1.648-3.957V13.35zm-5.616 13.188c-1.487 0-2.904-.596-3.99-1.68-1.076-1.073-1.668-2.49-1.668-3.987v-7.533l11.305-.018.033 7.555c0 1.509-.594 2.93-1.667 3.999-1.074 1.072-2.5 1.664-4.013 1.664z" mask="url(#prefix__d)"/>
                <path fill="#EA0020" d="M25.997 15.776v4.645l-.003.49c0 .127-.006.275-.024.401-.085.734-.423 1.378-.924 1.871-.584.585-1.392.946-2.279.946s-1.677-.373-2.265-.96c-.602-.6-.951-1.424-.951-2.274V15.76l6.446.016zm-8.636 5.105v.006c0 1.477.608 2.822 1.588 3.8.982.977 2.34 1.587 3.82 1.587 1.487 0 2.838-.604 3.815-1.58.98-.973 1.588-2.32 1.588-3.803V13.59H17.363l-.002 7.291z" mask="url(#prefix__d)"/>
                <path fill="#000" d="M19.571 15.787l.004 5.107c0 .839.344 1.662.943 2.258.618.615 1.42.953 2.248.953.854 0 1.658-.332 2.266-.936.514-.518.832-1.158.918-1.86.015-.123.021-.273.021-.397l.004-5.136-6.404.011zm3.195 8.367c-.844 0-1.656-.344-2.28-.965-.614-.61-.963-1.444-.963-2.295V15.74l6.475.011.024 4.67-.002.492c0 .126-.008.277-.026.404-.081.712-.403 1.362-.93 1.886-.61.616-1.428.952-2.298.952zm5.381-10.564l-10.785.023.021 7.268c0 1.425.561 2.768 1.582 3.789 1.025 1.021 2.375 1.58 3.803 1.58 1.435 0 2.786-.559 3.801-1.574 1.02-1.017 1.578-2.36 1.578-3.785V13.59zM22.768 26.3c-1.444 0-2.803-.568-3.837-1.593-1.031-1.03-1.598-2.392-1.598-3.82l.006-7.297 10.833-.025.024 7.326c0 1.438-.567 2.793-1.592 3.822-1.027 1.023-2.388 1.588-3.836 1.588z" mask="url(#prefix__d)"/>
                <path fill="#1A0095" d="M22.087 20.05c0 .21.08.404.207.542.132.142.313.227.505.227.2 0 .377-.085.503-.225.13-.138.211-.332.211-.543v-1.02l-1.422-.001-.004 1.02z" mask="url(#prefix__d)"/>
                <path fill="#FFF" d="M23.203 19.279c-.077 0-.143.062-.143.142 0 .073.066.14.143.14.076 0 .14-.067.14-.14 0-.08-.064-.142-.14-.142M22.807 19.656c-.08 0-.14.068-.14.144 0 .076.06.14.14.14.082 0 .142-.064.142-.14 0-.076-.06-.144-.142-.144M23.203 20.05c-.077 0-.145.069-.145.144 0 .078.068.14.145.14.076 0 .14-.062.14-.14 0-.075-.064-.143-.14-.143M22.43 20.056c-.076 0-.138.062-.138.138 0 .078.062.142.138.142.08 0 .141-.064.141-.142 0-.076-.062-.138-.141-.138M22.43 19.279c-.08 0-.142.06-.142.136 0 .08.062.144.142.144.08 0 .141-.065.141-.144 0-.076-.062-.136-.141-.136" mask="url(#prefix__d)"/>
                <path fill="#1A0095" d="M22.08 22.502c0 .207.079.403.21.541.127.142.307.225.501.225.2 0 .377-.083.505-.225.13-.138.206-.328.206-.54v-1.02l-1.421-.004v1.023z" mask="url(#prefix__d)"/>
                <path fill="#FFF" d="M23.196 21.73c-.076 0-.138.062-.138.138 0 .08.062.144.138.144.075 0 .141-.064.141-.144 0-.076-.066-.138-.141-.138M22.8 22.11c-.08 0-.14.06-.14.139 0 .076.06.14.14.14.077 0 .137-.064.137-.14 0-.08-.06-.14-.137-.14M23.196 22.504c-.076 0-.142.062-.142.141 0 .076.066.14.142.14.075 0 .138-.064.138-.14 0-.08-.063-.141-.138-.141M22.422 22.504c-.074 0-.138.064-.138.141 0 .076.064.142.138.142.08 0 .144-.066.144-.142 0-.077-.064-.141-.144-.141M22.422 21.728c-.078 0-.142.064-.142.138 0 .082.064.146.142.146.076 0 .144-.064.144-.146 0-.074-.068-.138-.144-.138" mask="url(#prefix__d)"/>
                <path fill="#1A0095" d="M20.111 20.056c0 .208.084.404.21.54.13.144.31.227.503.227.198 0 .376-.082.5-.225.133-.138.212-.332.212-.538v-1.023l-1.42-.002-.005 1.021z" mask="url(#prefix__d)"/>
                <path fill="#FFF" d="M21.228 19.283c-.078 0-.14.066-.14.142 0 .077.062.141.14.141.076 0 .144-.064.144-.141 0-.076-.068-.142-.144-.142M20.832 19.664c-.076 0-.14.06-.14.138 0 .077.064.141.14.141.077 0 .141-.064.141-.141 0-.078-.064-.138-.141-.138M21.228 20.06c-.078 0-.14.062-.14.14 0 .076.062.14.14.14.076 0 .14-.064.14-.14 0-.078-.064-.14-.14-.14M20.456 20.06c-.08 0-.14.064-.14.14 0 .076.06.144.14.144.078 0 .142-.068.142-.144 0-.076-.064-.14-.142-.14M20.453 19.283c-.076 0-.136.066-.136.14 0 .08.06.143.136.143.081 0 .141-.064.141-.143 0-.074-.06-.14-.141-.14" mask="url(#prefix__d)"/>
                <path fill="#1A0095" d="M24.058 20.056c0 .208.078.404.206.54.134.144.312.227.505.227.198 0 .374-.083.502-.227.132-.136.21-.33.21-.54v-1.02h-1.42l-.007 1.02h.004z" mask="url(#prefix__d)"/>
                <path fill="#FFF" d="M25.175 19.283c-.084 0-.144.06-.144.14 0 .08.06.143.144.143.077 0 .138-.064.138-.143 0-.08-.06-.14-.138-.14M24.777 19.662c-.076 0-.142.062-.142.14 0 .077.066.141.142.141.075 0 .143-.064.143-.141 0-.078-.068-.14-.143-.14M25.17 20.056c-.079 0-.139.064-.139.144 0 .076.06.14.14.14.077 0 .142-.064.142-.14 0-.08-.065-.144-.142-.144M24.403 20.06c-.08 0-.142.062-.142.14 0 .076.063.14.142.14.076 0 .138-.064.138-.14 0-.078-.062-.14-.138-.14M24.401 19.283c-.077 0-.143.06-.143.14 0 .075.066.143.143.143.078 0 .14-.068.14-.143 0-.08-.062-.14-.14-.14" mask="url(#prefix__d)"/>
                <path fill="#1A0095" d="M22.087 17.584c0 .206.08.398.207.536.132.14.31.227.505.227.2 0 .377-.085.503-.227.126-.138.211-.33.211-.536V16.56h-1.426v1.025z" mask="url(#prefix__d)"/>
                <path fill="#FFF" d="M23.203 16.805c-.077 0-.143.064-.143.144 0 .076.066.138.143.138.076 0 .14-.062.14-.138 0-.08-.064-.144-.14-.144M22.807 17.188c-.08 0-.14.062-.14.138 0 .078.06.144.14.144.078 0 .138-.066.138-.144 0-.076-.06-.138-.138-.138M23.2 17.584c-.074 0-.142.06-.142.136 0 .08.068.146.141.146.08 0 .144-.066.144-.146 0-.075-.064-.136-.144-.136M22.43 17.584c-.076 0-.138.062-.138.136 0 .084.062.146.138.146.08 0 .141-.062.141-.146 0-.074-.062-.136-.141-.136M22.43 16.805c-.08 0-.142.062-.142.144 0 .076.062.138.142.138.08 0 .141-.062.141-.138 0-.082-.062-.144-.141-.144" mask="url(#prefix__d)"/>
                <path fill="#FCFF2C" d="M18.058 15.495c.014-.526.385-.648.385-.652.006 0 .405.132.405.654l-.79-.002z" mask="url(#prefix__d)"/>
                <path fill="#FCFF2C" d="M17.736 14.854l-.064.604h.394c.004-.499.377-.584.383-.576.011-.004.38.106.392.576h.394l-.076-.61-1.423.006z" mask="url(#prefix__d)"/>
                <path fill="#000" d="M18.485 14.864c.093.037.369.179.38.594l.342-.021-.068-.585-.654.012zm-.076.002l-.673.012-.041.58.37-.023c-.019-.408.24-.534.344-.57zm.85.615h-.417c-.037-.475-.394-.576-.394-.58 0 .004-.355.072-.357.557l-.42.02.041-.63 1.448-.02.1.653z" mask="url(#prefix__d)"/>
                <path fill="#FCFF2C" d="M17.647 15.457h1.605c.037 0 .063.04.063.078 0 .039-.026.074-.063.074h-1.605c-.037 0-.062-.035-.062-.074 0-.039.025-.078.062-.078" mask="url(#prefix__d)"/>
                <path fill="#000" d="M17.647 15.482v.099h1.605c.022 0 .041-.017.041-.047l-1.646-.052zm1.605.15h-1.605c-.048 0-.09-.041-.09-.098 0-.056.042-.097.09-.097h1.605c.045 0 .088.041.088.097 0 .057-.043.098-.088.098z" mask="url(#prefix__d)"/>
                <path fill="#FCFF2C" d="M18.23 15.457c0-.316.212-.405.212-.405s.226.093.226.405h-.437z" mask="url(#prefix__d)"/>
                <path fill="#000" d="M18.437 15.074c.006.004-.182.088-.182.383l.392-.022c-.012-.275-.204-.359-.21-.36zm.255.404h-.46c-.024-.35.194-.444.205-.448.028.004.255.1.255.427v.021z" mask="url(#prefix__d)"/>
                <path fill="#FCFF2C" d="M17.68 14.604h1.543c.03 0 .058.031.058.068 0 .037-.027.064-.058.064h-1.544c-.033 0-.06-.027-.06-.064 0-.037.027-.068.06-.068" mask="url(#prefix__d)"/>
                <path fill="#000" d="M17.68 14.629v.083h1.543c.02 0 .033-.019.033-.04l-1.577-.043zm1.543.128h-1.544c-.046 0-.085-.035-.085-.085 0-.053.039-.088.085-.088h1.544c.044 0 .081.035.081.088 0 .05-.037.085-.081.085z" mask="url(#prefix__d)"/>
                <path fill="#FCFF2C" d="M17.711 14.737h1.476c.03 0 .056.031.056.068 0 .039-.025.068-.056.068H17.71c-.033 0-.054-.03-.054-.068 0-.037.021-.068.054-.068" mask="url(#prefix__d)"/>
                <path fill="#000" d="M17.711 14.758v.091h1.476c.017 0 .03-.021.03-.045l-1.506-.046zm1.476.14H17.71c-.042 0-.08-.043-.08-.094 0-.05.038-.09.08-.09h1.476c.044 0 .081.04.081.09 0 .05-.037.094-.081.094z" mask="url(#prefix__d)"/>
                <path fill="#FCFF2C" d="M18.187 13.732h.119v.084h.083v-.084h.12v.084h.086v-.084h.118v.192c0 .028-.025.049-.054.049h-.42c-.023 0-.052-.025-.052-.05v-.19z" mask="url(#prefix__d)"/>
                <path fill="#000" d="M18.284 13.732l-.097.024.025.167.447.05.033-.049v-.192l-.097.024.025.06-.11.025-.024-.109-.095.024.023.06-.109.025-.021-.109zm.375.262h-.437l-.058-.071v-.19l.141-.028.022.11.064-.026-.026-.057.144-.027.025.11.06-.026-.025-.057.144-.027.023.243-.077.046z" mask="url(#prefix__d)"/>
                <path fill="#FCFF2C" d="M18.627 13.988L18.656 14.602 18.241 14.602 18.272 13.984z" mask="url(#prefix__d)"/>
                <path fill="#000" d="M18.602 13.988l-.33.02-.005.594.36-.024-.025-.59zm.076.635h-.439l.008-.639.38-.021.051.66z" mask="url(#prefix__d)"/>
                <path fill="#FCFF2C" d="M18.695 14.032h.115v.081h.083v-.083h.117v.083h.083v-.083h.115v.19c0 .027-.022.053-.053.053h-.407c-.027 0-.053-.026-.053-.053v-.188z" mask="url(#prefix__d)"/>
                <path fill="#000" d="M18.784 14.032l-.089.025.025.163.435.053.031-.053v-.19l-.093.025.021.058-.104.026-.024-.11-.093.026.02.058-.103.026-.026-.107zm.371.262h-.43l-.055-.074v-.188l.14-.025.023.106.06-.023-.023-.06.14-.025.025.108.058-.023-.023-.06.138-.025.023.238-.076.05z" mask="url(#prefix__d)"/>
                <path fill="#FCFF2C" d="M19.135 14.273L19.149 14.602 18.757 14.602 18.768 14.273z" mask="url(#prefix__d)"/>
                <path fill="#000" d="M19.11 14.273l-.343.02.013.31.344-.026-.014-.304zm.063.35h-.418l-.01-.356.39-.024.038.38z" mask="url(#prefix__d)"/>
                <path fill="#FCFF2C" d="M17.687 14.032h.116v.083h.084v-.085l.116.002v.083h.084v-.085h.118v.19c0 .031-.025.053-.058.053h-.408c-.023 0-.052-.026-.052-.053v-.188z" mask="url(#prefix__d)"/>
                <path fill="#000" d="M17.778 14.034l-.092.023.022.163.439.053.033-.053v-.19l-.094.025.026.06-.11.025-.022-.108-.094.023.022.06-.105.025-.025-.106zm.369.26h-.431l-.053-.074v-.188l.14-.025.023.108.06-.023-.025-.062.142-.023.023.108.06-.023-.025-.062.144-.025.02.238-.078.05z" mask="url(#prefix__d)"/>
                <path fill="#FCFF2C" d="M18.127 14.273L18.138 14.602 17.752 14.602 17.762 14.273z" mask="url(#prefix__d)"/>
                <path fill="#000" d="M18.104 14.273l-.344.02.012.31.345-.02-.013-.31zm.062.355h-.415l-.014-.361.39-.024.039.385zM18.409 14.183c-.004-.06.081-.064.078 0v.144h-.078v-.144zM18.913 14.392c0-.056.08-.056.076 0v.112h-.076v-.112z" mask="url(#prefix__d)"/>
                <path fill="#000" d="M17.9 14.392c0-.054.082-.056.082 0v.116h-.081v-.116z" mask="url(#prefix__d)"/>
                <path fill="#FCFF2C" d="M22.526 13.732h.12v.084h.082v-.084h.12v.084h.088v-.084h.116v.192c0 .028-.023.049-.05.049h-.421c-.026 0-.055-.023-.055-.049v-.192z" mask="url(#prefix__d)"/>
                <path fill="#000" d="M22.62 13.732l-.094.024.025.168.45.049.028-.049v-.192l-.093.024.021.06-.109.025-.025-.109-.095.024.023.06-.104.025-.028-.109zm.382.264h-.443l-.058-.072v-.192l.146-.027.02.11.061-.024-.025-.059.145-.027.026.11.062-.024-.025-.059.143-.027.023.243-.075.048z" mask="url(#prefix__d)"/>
                <path fill="#FCFF2C" d="M22.966 13.988L22.991 14.602 22.586 14.602 22.613 13.988z" mask="url(#prefix__d)"/>
                <path fill="#000" d="M22.942 13.988l-.328.023-.008.59.36-.023-.024-.59zm.071.635h-.429l.004-.639.379-.017.046.656z" mask="url(#prefix__d)"/>
                <path fill="#FCFF2C" d="M23.036 14.032h.111v.081h.085v-.083h.115v.083h.081v-.083h.12v.19c0 .031-.02.053-.05.053h-.411c-.027 0-.05-.026-.05-.053v-.188z" mask="url(#prefix__d)"/>
                <path fill="#000" d="M23.125 14.032l-.089.025.021.163.44.053.03-.053v-.19l-.099.025.025.06-.106.025-.022-.11-.093.025.022.06-.107.025-.022-.108zm.371.262h-.433l-.054-.074v-.188l.138-.025.023.108.062-.023-.023-.062.138-.025.025.11.056-.023-.021-.062.142-.025.021.238-.074.05z" mask="url(#prefix__d)"/>
                <path fill="#FCFF2C" d="M23.476 14.273L23.49 14.602 23.096 14.602 23.107 14.273z" mask="url(#prefix__d)"/>
                <path fill="#000" d="M23.45 14.273l-.344.02.014.284h.37l-.04-.304zm-.375.355l.012-.361.39-.024.037.36-.439.025z" mask="url(#prefix__d)"/>
                <path fill="#FCFF2C" d="M22.03 14.034h.114v.081h.084v-.083h.112v.083h.082v-.083h.122l-.002.194c0 .025-.021.046-.05.046h-.412c-.025 0-.05-.025-.05-.052v-.186z" mask="url(#prefix__d)"/>
                <path fill="#000" d="M22.119 14.034l-.09.023.026.163.437.053.025-.047v-.194l-.095.025.027.058-.109.025-.023-.108-.09.025.024.058-.107.025-.025-.106zm.373.26h-.433l-.055-.074v-.186l.14-.027.018.108.066-.023-.026-.06.138-.025.025.108.057-.023-.022-.06.142-.025.023.236-.073.05z" mask="url(#prefix__d)"/>
                <path fill="#FCFF2C" d="M22.47 14.273L22.479 14.602 22.087 14.602 22.099 14.273z" mask="url(#prefix__d)"/>
                <path fill="#000" d="M22.445 14.273l-.344.02.01.31.344-.02-.01-.31zm.056.355h-.415l-.008-.355.392-.026.031.38z" mask="url(#prefix__d)"/>
                <path fill="#FCFF2C" d="M22.4 15.495c.01-.524.38-.648.384-.652.004 0 .4.136.4.658l-.785-.006z" mask="url(#prefix__d)"/>
                <path fill="#FCFF2C" d="M22.077 14.854l-.066.604h.394c.004-.499.375-.58.385-.576.01 0 .38.106.39.576h.392l-.07-.61-1.425.006z" mask="url(#prefix__d)"/>
                <path fill="#000" d="M22.824 14.864c.097.04.37.179.383.594l.341-.021-.07-.585-.654.012zm-.08.002l-.667.015-.045.577.369-.023c-.017-.404.24-.53.344-.57zm.855.615h-.418c-.035-.477-.392-.576-.394-.58.002.004-.353.074-.36.557l-.418.023.046-.629 1.449-.025.095.654z" mask="url(#prefix__d)"/>
                <path fill="#FCFF2C" d="M21.982 15.457h1.612c.035 0 .06.04.06.078 0 .043-.025.074-.06.074h-1.612c-.03 0-.056-.031-.056-.074 0-.039.025-.078.056-.078" mask="url(#prefix__d)"/>
                <path fill="#000" d="M21.982 15.482v.105h1.612c.021 0 .038-.023.038-.053l-1.65-.052zm1.612.151h-1.612c-.042 0-.081-.042-.081-.099 0-.056.039-.097.081-.097h1.612c.046 0 .085.041.085.097 0 .057-.039.1-.085.1z" mask="url(#prefix__d)"/>
                <path fill="#FCFF2C" d="M22.572 15.457c0-.316.212-.405.212-.405s.225.095.227.405h-.439z" mask="url(#prefix__d)"/>
                <path fill="#000" d="M22.777 15.074c.007.004-.18.088-.18.383l.387-.02c-.01-.275-.2-.359-.207-.363zm.256.408h-.46c-.025-.351.194-.448.204-.45.023.002.256.1.256.425v.025z" mask="url(#prefix__d)"/>
                <path fill="#FCFF2C" d="M22.022 14.604h1.54c.033 0 .058.031.058.068 0 .037-.025.064-.058.064h-1.54c-.037 0-.062-.027-.062-.064 0-.037.025-.068.062-.068" mask="url(#prefix__d)"/>
                <path fill="#000" d="M22.018 14.629v.085h1.544c.017 0 .035-.02.035-.042l-1.579-.043zm1.544.132h-1.544c-.044 0-.081-.039-.081-.09 0-.052.037-.087.081-.087h1.544c.044 0 .083.035.083.088 0 .05-.039.089-.083.089z" mask="url(#prefix__d)"/>
                <path fill="#FCFF2C" d="M22.054 14.737h1.474c.029 0 .054.031.054.07 0 .037-.025.066-.054.066h-1.474c-.033 0-.06-.03-.06-.066 0-.039.027-.07.06-.07" mask="url(#prefix__d)"/>
                <path fill="#000" d="M22.054 14.762v.087h1.474c.02 0 .029-.017.029-.043l-1.503-.044zm1.474.136h-1.474c-.044 0-.085-.043-.085-.092 0-.05.04-.09.085-.09h1.474c.043 0 .08.04.08.09 0 .049-.037.092-.08.092zM22.752 14.183c-.008-.06.08-.06.08 0v.146h-.08v-.146zM23.254 14.392c0-.054.076-.056.076 0v.116h-.076v-.116zM22.244 14.394c0-.056.08-.058.076 0v.114h-.076v-.114z" mask="url(#prefix__d)"/>
                <path fill="#FCFF2C" d="M26.82 13.736h.119v.082h.083v-.084h.12v.084h.082v-.084h.118v.192c0 .03-.02.047-.05.047h-.42c-.025 0-.052-.021-.052-.047v-.19z" mask="url(#prefix__d)"/>
                <path fill="#000" d="M26.913 13.736l-.093.022.023.168.449.047.029-.047v-.192l-.097.024.025.06-.107.027-.025-.11-.095.023.021.06-.105.027-.025-.109zm.379.262h-.441l-.056-.072v-.19l.143-.027.018.109.066-.022-.024-.062.144-.025.025.109.057-.022-.026-.062.144-.025.023.239-.073.05z" mask="url(#prefix__d)"/>
                <path fill="#FCFF2C" d="M27.26 13.988L27.287 14.603 26.878 14.602 26.901 13.988z" mask="url(#prefix__d)"/>
                <path fill="#000" d="M27.235 13.988l-.334.027v.588l.36-.019-.026-.596zm.076.64l-.435-.001v-.639l.385-.021.05.662z" mask="url(#prefix__d)"/>
                <path fill="#FCFF2C" d="M27.324 14.037h.119v.082h.08v-.085h.116v.085h.083v-.085h.119v.192c0 .03-.025.048-.049.048h-.413c-.025 0-.05-.023-.05-.048l-.005-.189z" mask="url(#prefix__d)"/>
                <path fill="#000" d="M27.417 14.037l-.093.022.025.167.443.048.023-.048v-.192l-.093.023.025.062-.108.021-.024-.106-.093.023.023.062-.102.021-.026-.103zm.375.262h-.435l-.054-.073v-.189l.14-.027.019.109.06-.027-.025-.058.142-.028.025.113.058-.027-.021-.058.14-.028.023.241-.072.052z" mask="url(#prefix__d)"/>
                <path fill="#FCFF2C" d="M27.768 14.274L27.782 14.604 27.387 14.604 27.397 14.274z" mask="url(#prefix__d)"/>
                <path fill="#000" d="M27.743 14.274l-.343.026.011.304.342-.02-.01-.31zm.059.356h-.416l-.008-.357.39-.026.034.383z" mask="url(#prefix__d)"/>
                <path fill="#FCFF2C" d="M26.32 14.037h.112v.082h.088v-.082h.11v.082h.09v-.082h.114v.189c0 .03-.025.052-.054.052h-.408c-.027 0-.052-.027-.052-.052v-.189z" mask="url(#prefix__d)"/>
                <path fill="#000" d="M26.41 14.037l-.09.024.025.165.434.052.03-.052v-.189l-.09.022.024.06-.113.023-.021-.105-.09.022.018.06-.105.023-.021-.105zm.37.262h-.431l-.053-.073v-.189l.136-.025.023.107.064-.025-.025-.057.136-.027.025.109.064-.025-.025-.057.14-.027.021.237-.076.052z" mask="url(#prefix__d)"/>
                <path fill="#FCFF2C" d="M26.76 14.278L26.775 14.606 26.381 14.606 26.395 14.278z" mask="url(#prefix__d)"/>
                <path fill="#000" d="M26.737 14.278l-.344.022.012.306.341-.023-.01-.305zm.062.352h-.42l-.013-.356.394-.027.039.383z" mask="url(#prefix__d)"/>
                <path fill="#FCFF2C" d="M26.687 15.497c.016-.524.387-.648.387-.648.004-.002.402.132.402.654l-.789-.006z" mask="url(#prefix__d)"/>
                <path fill="#FCFF2C" d="M26.365 14.854l-.06.606h.39c.004-.497.379-.578.387-.578.011 0 .378.108.388.578h.394l-.068-.606h-1.43z" mask="url(#prefix__d)"/>
                <path fill="#000" d="M27.114 14.866c.097.039.373.18.378.592l.344-.02-.064-.584-.658.012zm-.076.004l-.673.011-.037.58.367-.024c-.016-.406.242-.532.343-.567zm.854.611h-.42c-.034-.471-.391-.576-.391-.576s-.357.072-.361.557l-.416.02.041-.628 1.452-.023.095.65z" mask="url(#prefix__d)"/>
                <path fill="#FCFF2C" d="M26.276 15.461h1.61c.034 0 .062.035.062.076 0 .042-.028.074-.063.074h-1.609c-.037 0-.06-.032-.06-.074 0-.041.023-.076.06-.076" mask="url(#prefix__d)"/>
                <path fill="#000" d="M26.276 15.484v.107h1.61c.019 0 .038-.028.038-.055l-1.648-.052zm1.61.151h-1.61c-.048 0-.083-.044-.083-.099 0-.054.035-.097.083-.097h1.61c.048 0 .087.043.087.097 0 .055-.04.1-.088.1z" mask="url(#prefix__d)"/>
                <path fill="#FCFF2C" d="M26.86 15.457c.004-.31.214-.403.214-.4 0 0 .227.09.23.4h-.444z" mask="url(#prefix__d)"/>
                <path fill="#000" d="M27.069 15.078c.005.006-.181.092-.185.379l.39-.018c-.01-.273-.2-.359-.205-.36zm.256.404h-.464c-.022-.35.196-.446.208-.446.029 0 .256.1.256.425v.021z" mask="url(#prefix__d)"/>
                <path fill="#FCFF2C" d="M26.312 14.606h1.543c.031 0 .057.033.057.07 0 .037-.026.064-.057.064h-1.543c-.033 0-.06-.027-.06-.064 0-.037.027-.07.06-.07" mask="url(#prefix__d)"/>
                <path fill="#000" d="M26.312 14.63v.088h1.543c.018 0 .033-.017.033-.043l-1.576-.044zm1.543.133h-1.543c-.047 0-.085-.04-.085-.088 0-.048.038-.09.085-.09h1.543c.043 0 .078.038.078.09 0 .051-.035.088-.078.088z" mask="url(#prefix__d)"/>
                <path fill="#FCFF2C" d="M26.34 14.74h1.48c.027 0 .056.032.056.067 0 .04-.029.066-.056.066h-1.48c-.029 0-.054-.026-.054-.066 0-.035.025-.066.055-.066" mask="url(#prefix__d)"/>
                <path fill="#000" d="M26.34 14.764v.085h1.48c.017 0 .03-.017.03-.043l-1.51-.042zm1.48.134h-1.48c-.042 0-.077-.043-.077-.092 0-.05.035-.087.078-.087h1.479c.044 0 .08.037.08.087 0 .049-.036.092-.08.092zM27.038 14.183c0-.058.086-.058.086 0v.15h-.086v-.15zM27.542 14.398c0-.059.084-.06.08 0v.11h-.08v-.11zM26.532 14.398c0-.059.083-.059.083 0v.112h-.083v-.112z" mask="url(#prefix__d)"/>
                <path fill="#FCFF2C" d="M18.195 18.132h.11v.086h.086v-.088h.122v.088h.082v-.088h.122v.192c0 .028-.025.047-.058.047h-.42c-.02 0-.044-.021-.044-.047v-.19z" mask="url(#prefix__d)"/>
                <path fill="#000" d="M18.284 18.132l-.09.021.022.17.443.046.033-.047v-.192l-.097.023.025.065-.107.019-.027-.107-.095.023.023.065-.109.019-.021-.105zm.375.26h-.437l-.055-.07v-.19l.138-.025.022.11.064-.023-.022-.064.144-.023.021.11.06-.023-.02-.064.143-.023.02.237-.078.048z" mask="url(#prefix__d)"/>
                <path fill="#FCFF2C" d="M18.627 18.386L18.658 19 18.248 18.998 18.272 18.386 18.631 18.386z" mask="url(#prefix__d)"/>
                <path fill="#000" d="M18.606 18.386l-.334.024V19l.363-.02-.029-.594zm.074.637l-.433-.002v-.635l.38-.023.053.66z" mask="url(#prefix__d)"/>
                <path fill="#FCFF2C" d="M18.7 18.43h.11v.085h.083v-.085h.117v.085h.083v-.085h.119v.194c0 .027-.026.044-.053.044h-.41c-.025 0-.05-.02-.05-.044v-.194z" mask="url(#prefix__d)"/>
                <path fill="#000" d="M18.788 18.43l-.089.023.021.17.439.045.031-.044v-.194l-.097.023.021.062-.104.023-.02-.108-.097.023.023.062-.106.023-.022-.108zm.371.262h-.429l-.056-.068v-.194l.136-.022.023.107.06-.025-.021-.06.138-.024.025.11.058-.026-.02-.06.138-.024.022.237-.074.049z" mask="url(#prefix__d)"/>
                <path fill="#FCFF2C" d="M19.139 18.669L19.152 19.001 18.756 19.001 18.768 18.669z" mask="url(#prefix__d)"/>
                <path fill="#000" d="M19.114 18.669l-.347.023.013.309.348-.022-.014-.31zm.058.353h-.417l-.006-.353.39-.024.033.377z" mask="url(#prefix__d)"/>
                <path fill="#FCFF2C" d="M17.69 18.436h.113v.08h.087v-.086h.113v.085h.084v-.085h.118v.194c0 .027-.025.046-.054.046h-.408c-.027 0-.052-.023-.052-.046v-.188z" mask="url(#prefix__d)"/>
                <path fill="#000" d="M17.782 18.436l-.092.017.022.17.442.047.03-.046v-.194l-.094.023.022.062-.11.025-.019-.11-.093.023.018.062-.105.025-.021-.104zm.372.26h-.43l-.053-.072v-.188l.132-.028.023.107.064-.021-.025-.064.138-.022.023.107.064-.021-.025-.064.14-.022.021.237-.072.05z" mask="url(#prefix__d)"/>
                <path fill="#FCFF2C" d="M18.13 18.67L18.146 19.002 17.752 19.002 17.762 18.67z" mask="url(#prefix__d)"/>
                <path fill="#000" d="M18.111 18.67l-.351.026.016.306.343-.021-.008-.31zm.055.354h-.416l-.01-.356.39-.02.036.376z" mask="url(#prefix__d)"/>
                <path fill="#FCFF2C" d="M18.058 19.895c.014-.526.385-.65.385-.65.006-.002.405.132.405.654l-.79-.004z" mask="url(#prefix__d)"/>
                <path fill="#FCFF2C" d="M17.74 19.254l-.064.606h.39c.006-.499.377-.582.386-.58.012 0 .379.106.388.58h.396l-.07-.61-1.426.004z" mask="url(#prefix__d)"/>
                <path fill="#000" d="M18.485 19.264c.093.037.373.175.38.592l.342-.021-.064-.583-.658.012zm-.076 0l-.67.013-.044.585.37-.03c-.015-.405.24-.531.344-.568zm.854.615h-.421c-.033-.477-.39-.578-.394-.578 0 0-.355.073-.357.559l-.416.02.041-.63 1.452-.025.095.654z" mask="url(#prefix__d)"/>
                <path fill="#FCFF2C" d="M17.647 19.86h1.61c.032 0 .06.034.06.073 0 .043-.028.076-.06.076h-1.61c-.037 0-.062-.033-.062-.076 0-.039.025-.074.062-.074" mask="url(#prefix__d)"/>
                <path fill="#000" d="M17.647 19.88v.103h1.61c.02 0 .038-.021.038-.05l-1.648-.053zm1.61.151h-1.61c-.045 0-.087-.042-.087-.099 0-.052.042-.097.087-.097h1.61c.048 0 .087.045.087.097 0 .057-.04.1-.088.1z" mask="url(#prefix__d)"/>
                <path fill="#FCFF2C" d="M18.23 19.855c0-.312.218-.405.218-.405s.223.097.227.405h-.444z" mask="url(#prefix__d)"/>
                <path fill="#000" d="M18.44 19.476c.003.004-.185.093-.185.379l.396-.02c-.014-.268-.198-.355-.212-.359zm.26.404h-.468c-.02-.35.194-.45.217-.45.018.004.247.1.247.429l.004.021z" mask="url(#prefix__d)"/>
                <path fill="#FCFF2C" d="M17.681 19.002h1.543c.033 0 .057.033.057.066 0 .04-.024.068-.057.068h-1.543c-.035 0-.058-.027-.058-.068 0-.033.023-.066.058-.066" mask="url(#prefix__d)"/>
                <path fill="#000" d="M17.681 19.027v.083h1.543c.02 0 .035-.017.035-.042l-1.578-.041zm1.543.134h-1.543c-.049 0-.083-.041-.083-.093 0-.049.034-.088.083-.088h1.543c.045 0 .08.04.08.088 0 .05-.035.093-.08.093z" mask="url(#prefix__d)"/>
                <path fill="#FCFF2C" d="M17.715 19.137h1.472c.03 0 .058.033.058.068 0 .037-.027.066-.058.066h-1.472c-.035 0-.058-.027-.058-.066 0-.035.023-.068.058-.068" mask="url(#prefix__d)"/>
                <path fill="#000" d="M17.715 19.162v.085h1.472c.02 0 .035-.02.035-.043l-1.507-.042zm1.472.133h-1.472c-.043 0-.083-.04-.083-.09 0-.05.04-.094.083-.094h1.472c.044 0 .083.045.083.093 0 .05-.039.091-.083.091zM18.41 18.582c-.001-.06.084-.06.084 0v.143h-.083v-.143zM18.913 18.794c0-.059.08-.059.08 0v.112h-.08v-.112zM17.905 18.794c0-.059.077-.059.077 0v.112h-.077v-.112z" mask="url(#prefix__d)"/>
                <path fill="#FCFF2C" d="M26.57 22.775l.08.083-.059.058.058.057.059-.057.083.084-.054.058.058.062.058-.06.088.085-.136.136c-.026.02-.055.018-.072 0l-.299-.3c-.021-.02-.021-.055-.002-.076l.134-.13h.004z" mask="url(#prefix__d)"/>
                <path fill="#000" d="M26.55 22.792l-.102.13.322.373.018-.035.134-.132-.088-.05-.02.06-.094-.063.058-.09-.083-.055-.028.062-.093-.062.057-.09-.082-.048zm.22.526l-.054-.023-.31-.313.007-.09.136-.135.118.083-.06.09.06.025.028-.055.114.086-.058.09.062.028.021-.06.123.084-.187.19z" mask="url(#prefix__d)"/>
                <path fill="#FCFF2C" d="M26.695 23.266L26.284 23.716 25.994 23.429 26.449 23.011z" mask="url(#prefix__d)"/>
                <path fill="#000" d="M26.432 23.03l-.424.414.272.24.398-.436-.246-.217zm-.148.723l-.305-.309.453-.448.281.252-.429.505z" mask="url(#prefix__d)"/>
                <path fill="#FCFF2C" d="M26.712 23.345l.08.082-.055.056.055.06.06-.062.085.082-.06.064.06.058.059-.058.081.081-.132.134c-.023.022-.052.018-.074-.002l-.287-.29c-.021-.016-.021-.051-.006-.073l.134-.132z" mask="url(#prefix__d)"/>
                <path fill="#000" d="M26.695 23.36l-.097.134.31.363.014-.033.138-.132-.082-.048-.023.06-.095-.06.06-.093-.085-.053-.025.062-.09-.06.059-.093-.084-.046zm.214.52l-.057-.023-.303-.306.014-.09.132-.133.115.08-.06.092.06.027.025-.06.12.084-.062.093.062.023.023-.058.119.083-.188.189z" mask="url(#prefix__d)"/>
                <path fill="#FCFF2C" d="M26.852 23.825L26.631 24.067 26.356 23.79 26.594 23.563z" mask="url(#prefix__d)"/>
                <path fill="#000" d="M26.578 23.582l-.204.225.256.226.206-.226-.258-.225zm.052.518l-.295-.293.243-.262.293.262-.241.293z" mask="url(#prefix__d)"/>
                <path fill="#FCFF2C" d="M25.997 22.63l.082.08-.056.062.056.06.062-.06.082.08-.059.062.059.058.06-.062.081.086-.134.135c-.021.02-.05.016-.071 0l-.286-.295c-.023-.015-.023-.052-.004-.07l.128-.135z" mask="url(#prefix__d)"/>
                <path fill="#000" d="M25.984 22.648l-.099.136.31.363.018-.031.134-.138-.081-.05-.026.063-.093-.06.058-.095-.083-.047-.025.059-.091-.06.06-.094-.082-.046zm.212.52l-.053-.021-.289-.301-.004-.097.134-.136.113.081-.057.095.057.026.025-.059.118.08-.06.095.06.021.026-.058.118.084-.188.19z" mask="url(#prefix__d)"/>
                <path fill="#FCFF2C" d="M26.143 23.114L25.92 23.357 25.643 23.077 25.881 22.852z" mask="url(#prefix__d)"/>
                <path fill="#000" d="M25.865 22.87l-.208.227.262.225.204-.225-.258-.228zm.054.52l-.293-.293.243-.264.289.264-.239.293z" mask="url(#prefix__d)"/>
                <path fill="#FCFF2C" d="M25.232 23.927c.374-.363.726-.186.73-.186.003.002.19.38-.18.751l-.55-.565z" mask="url(#prefix__d)"/>
                <path fill="#FCFF2C" d="M25.455 23.247l-.473.384.275.278c.357-.352.68-.148.687-.136.006.002.19.343-.135.681l.277.282.38-.482-1.01-1.007z" mask="url(#prefix__d)"/>
                <path fill="#000" d="M25.438 23.264l-.444.384.281.24c.175-.222.522-.22.645-.158l-.482-.466zm.54.522c.015.037.039.099.044.179.012.126-.017.316-.198.506l.262.23.364-.465-.472-.45zm.112.982l-.299-.297c.313-.357.134-.681.134-.687-.003 0-.093-.056-.227-.056-.143 0-.293.064-.423.194l-.309-.274.476-.42 1.04 1.008-.392.532z" mask="url(#prefix__d)"/>
                <path fill="#FCFF2C" d="M24.964 23.612L26.1 24.75c.023.023.02.066-.008.095-.027.03-.076.031-.099.012l-1.137-1.14c-.024-.025-.02-.068.011-.097.027-.03.068-.033.097-.008" mask="url(#prefix__d)"/>
                <path fill="#000" d="M24.873 23.698l1.161 1.172.04-.038-1.129-1.2-.09.085.018-.02zm1.161 1.198l-.056-.026-1.14-1.135c-.029-.037-.025-.091.01-.13l.072-.033 1.196 1.16c.035.032.027.092-.006.129l-.076.035z" mask="url(#prefix__d)"/>
                <path fill="#FCFF2C" d="M25.376 24.022c.225-.22.44-.132.44-.13 0 0 .092.221-.126.44l-.314-.31z" mask="url(#prefix__d)"/>
                <path fill="#000" d="M25.707 23.899c-.075 0-.194.023-.31.14l.289.262c.175-.189.118-.371.109-.4-.004.008-.035-.002-.088-.002zm-.017.468l-.33-.328c.24-.3.46-.173.464-.173.021.017.105.258-.117.483l-.017.018z" mask="url(#prefix__d)"/>
                <path fill="#FCFF2C" d="M25.59 23.03l1.09 1.091c.024.022.022.066-.001.09-.03.025-.072.025-.091.006l-1.091-1.093c-.025-.022-.022-.06.004-.086.027-.027.064-.03.093-.007h-.004z" mask="url(#prefix__d)"/>
                <path fill="#000" d="M25.573 23.048l-.058.06 1.114 1.122.03-.035-1.086-1.147zm1.056 1.209l-.058-.023-1.091-1.093c-.03-.033-.03-.086.002-.12l.126-.01 1.09 1.095c.028.029.026.093-.003.118l-.066.033z" mask="url(#prefix__d)"/>
                <path fill="#FCFF2C" d="M25.518 23.146l1.044 1.045c.022.023.02.062-.007.087-.026.029-.068.029-.086.008l-1.044-1.045c-.022-.021-.02-.058.008-.085.027-.025.064-.033.085-.01" mask="url(#prefix__d)"/>
                <path fill="#000" d="M25.505 23.165l-.063.057 1.064 1.079.031-.035-1.032-1.1zm1.001 1.16l-.058-.024-1.042-1.04c-.03-.036-.026-.088.007-.123l.123-.008 1.042 1.045c.03.029.03.085-.004.12l-.068.03zM26.409 23.237c.037-.044.097.012.052.057l-.099.104-.058-.058.105-.103zM26.612 23.742c.04-.043.097.015.054.054l-.076.081-.058-.056.08-.08zM25.895 23.025c.04-.04.1.017.058.058l-.08.08-.057-.057.08-.081z" mask="url(#prefix__d)"/>
                <path fill="#FCFF2C" d="M26.816 18.132h.115v.086h.083v-.086h.12v.086h.084v-.086h.122v.192c0 .026-.027.05-.054.05h-.42c-.026 0-.05-.026-.05-.052v-.19z" mask="url(#prefix__d)"/>
                <path fill="#000" d="M26.905 18.132l-.089.025.02.165.45.053.027-.05v-.193l-.095.023.023.063-.106.02-.026-.106-.095.023.023.063-.106.02-.026-.106zm.381.262h-.443l-.052-.072v-.19l.14-.025.023.11.06-.025-.025-.06.146-.025.025.11.058-.025-.027-.06.15-.025.02.239-.075.048z" mask="url(#prefix__d)"/>
                <path fill="#FCFF2C" d="M27.252 18.392L27.28 19.001 26.872 18.999 26.895 18.386z" mask="url(#prefix__d)"/>
                <path fill="#000" d="M27.228 18.392l-.332.017V19l.36-.019-.028-.588zm.075.63h-.432v-.636l.378-.023.054.66z" mask="url(#prefix__d)"/>
                <path fill="#FCFF2C" d="M27.32 18.436h.117v.08h.078v-.086h.116v.085h.088v-.085h.114v.194c0 .027-.025.046-.048.046h-.412c-.027 0-.052-.023-.052-.046v-.188z" mask="url(#prefix__d)"/>
                <path fill="#000" d="M27.412 18.436l-.092.019.022.169.442.046.024-.046v-.194l-.09.023.022.062-.11.025-.02-.11-.096.023.024.062-.101.025-.025-.104zm.372.26h-.435l-.054-.072v-.188l.142-.028.023.107.054-.025-.02-.06.137-.024.027.11.06-.026-.027-.06.142-.024.023.24-.072.05z" mask="url(#prefix__d)"/>
                <path fill="#FCFF2C" d="M27.76 18.67L27.772 19.002 27.38 19.002 27.39 18.67z" mask="url(#prefix__d)"/>
                <path fill="#000" d="M27.736 18.67l-.348.026.016.306.343-.023-.011-.309zm.06.354h-.417l-.012-.356.394-.023.035.379z" mask="url(#prefix__d)"/>
                <path fill="#FCFF2C" d="M26.314 18.436h.11v.08h.088v-.086h.113v.085h.087v-.085h.116v.194c0 .027-.023.046-.054.046h-.41c-.025 0-.05-.019-.05-.046v-.188z" mask="url(#prefix__d)"/>
                <path fill="#000" d="M26.405 18.436l-.091.019.021.169.439.046.03-.046v-.194l-.092.023.025.062-.113.025-.019-.11-.093.023.02.062-.108.025-.019-.104zm.369.26h-.433l-.052-.072v-.188l.135-.028.024.107.064-.025-.025-.06.137-.024.026.11.062-.026-.024-.06.14-.024.022.24-.076.05z" mask="url(#prefix__d)"/>
                <path fill="#FCFF2C" d="M26.752 18.67L26.767 19.002 26.373 19.002 26.385 18.67z" mask="url(#prefix__d)"/>
                <path fill="#000" d="M26.73 18.67l-.346.026.013.283h.371l-.039-.309zm-.381.358l.013-.36.39-.02.04.352-.443.028z" mask="url(#prefix__d)"/>
                <path fill="#FCFF2C" d="M26.684 19.895c.011-.526.384-.648.384-.648.002-.002.402.13.402.652l-.786-.004z" mask="url(#prefix__d)"/>
                <path fill="#FCFF2C" d="M26.361 19.254l-.064.606h.39c.008-.499.381-.582.387-.58.011 0 .378.11.388.58h.396l-.07-.608-1.427.002z" mask="url(#prefix__d)"/>
                <path fill="#000" d="M27.114 19.264c.105.04.365.194.373.596l.341-.024-.064-.582-.65.01zm-.08.002l-.673.013-.041.583.367-.027c-.014-.408.239-.534.347-.57zm.85.613h-.42c-.032-.477-.39-.574-.39-.578 0 .004-.354.073-.362.559l-.415.02.039-.628 1.45-.025.099.652z" mask="url(#prefix__d)"/>
                <path fill="#FCFF2C" d="M26.269 19.861h1.609c.035 0 .062.035.062.076 0 .038-.027.071-.062.071h-1.61c-.032 0-.062-.033-.062-.071 0-.041.03-.076.063-.076" mask="url(#prefix__d)"/>
                <path fill="#000" d="M26.269 19.886v.097h1.609c.021 0 .043-.022.043-.047l-1.652-.05zm1.609.145h-1.61c-.044 0-.085-.043-.085-.095 0-.056.04-.099.086-.099h1.609c.048 0 .087.043.087.1 0 .051-.039.094-.087.094z" mask="url(#prefix__d)"/>
                <path fill="#FCFF2C" d="M26.852 19.86c0-.317.218-.405.218-.405s.223.092.227.404h-.445z" mask="url(#prefix__d)"/>
                <path fill="#000" d="M27.061 19.476c.008.004-.184.09-.184.383l.39-.024c-.006-.271-.198-.359-.206-.359zm.26.404h-.468c-.02-.351.196-.446.208-.45.03.004.256.1.26.429v.021z" mask="url(#prefix__d)"/>
                <path fill="#FCFF2C" d="M26.304 19.004h1.544c.03 0 .056.031.056.064 0 .04-.025.068-.056.068h-1.544c-.033 0-.06-.027-.06-.068 0-.033.027-.064.06-.064" mask="url(#prefix__d)"/>
                <path fill="#000" d="M26.304 19.029v.081h1.544c.021 0 .033-.017.033-.04l-1.577-.041zm1.544.132h-1.544c-.044 0-.085-.043-.085-.091 0-.05.04-.088.085-.088h1.544c.044 0 .081.037.081.088 0 .048-.037.09-.081.09z" mask="url(#prefix__d)"/>
                <path fill="#FCFF2C" d="M26.335 19.137h1.477c.031 0 .056.033.056.07 0 .037-.025.066-.056.066h-1.477c-.031 0-.054-.03-.054-.066 0-.037.023-.07.054-.07" mask="url(#prefix__d)"/>
                <path fill="#000" d="M26.335 19.162v.089h1.473c.022 0 .035-.023.035-.045l-1.508-.044zm1.473.133h-1.473c-.045 0-.08-.038-.08-.089 0-.05.035-.095.08-.095h1.473c.047 0 .086.045.086.095s-.04.09-.086.09zM27.034 18.582c-.004-.057.084-.06.084 0v.149h-.084v-.15zM27.539 18.794c0-.059.08-.059.08 0v.112h-.08v-.112zM26.53 18.794c0-.057.078-.059.074 0v.116h-.074v-.116z" mask="url(#prefix__d)"/>
                <path fill="#FCFF2C" d="M18.616 23.139l.083-.082.056.058.063-.06-.063-.058.086-.087.062.062.06-.062-.06-.06.082-.084.135.134c.022.023.02.05 0 .072l-.297.295c-.019.02-.056.027-.075.004l-.132-.132z" mask="url(#prefix__d)"/>
                <path fill="#000" d="M18.68 23.074l-.045.082.146.128.023-.035.3-.295-.137-.171-.046.083.056.026-.056.097-.093-.062-.057.085.062.025-.062.093-.09-.056zm.101.237l-.052-.025-.13-.13.081-.117.091.058.03-.06-.06-.025.087-.118.093.058.025-.06-.062-.026.083-.118.189.151-.022.092-.353.32z" mask="url(#prefix__d)"/>
                <path fill="#FCFF2C" d="M19.107 23.008L19.557 23.425 19.27 23.71 18.854 23.26z" mask="url(#prefix__d)"/>
                <path fill="#000" d="M19.09 23.025l-.218.252.398.4.268-.27-.448-.382zm.18.722l-.433-.474.253-.283.485.415-.305.342z" mask="url(#prefix__d)"/>
                <path fill="#FCFF2C" d="M19.186 22.99l.082-.08.056.06.062-.06-.066-.06.087-.079.06.057.059-.057-.058-.064.081-.08.136.137c.023.019.02.05-.002.068l-.295.29c-.014.018-.048.024-.072 0l-.13-.131z" mask="url(#prefix__d)"/>
                <path fill="#000" d="M19.249 22.926l-.045.082.15.13.023-.033.287-.29-.132-.17-.05.08.06.027-.056.093-.097-.06-.049.085.06.023-.056.091-.095-.058zm.105.237l-.05-.023-.135-.132.08-.115.095.058.023-.058-.06-.023.082-.118.097.058.023-.058-.062-.028.085-.116.171.147-.004.094-.345.314z" mask="url(#prefix__d)"/>
                <path fill="#FCFF2C" d="M19.668 22.849L19.907 23.074 19.633 23.353 19.404 23.113z" mask="url(#prefix__d)"/>
                <path fill="#000" d="M19.65 22.866l-.228.258.207.192.26-.258-.238-.192zm-.02.52l-.241-.262.262-.293.275.227-.297.328z" mask="url(#prefix__d)"/>
                <path fill="#FCFF2C" d="M18.473 23.704l.08-.078.062.058.06-.058-.064-.062.084-.082.06.058.062-.058-.062-.058.08-.083.137.133c.022.024.018.053 0 .068l-.293.294c-.02.019-.052.02-.072.001l-.134-.133z" mask="url(#prefix__d)"/>
                <path fill="#000" d="M18.536 23.64l-.048.083.157.128.017-.031.293-.292-.135-.172-.049.083.058.027-.058.092-.091-.059-.049.084.057.023-.053.091-.099-.058zm.109.234l-.055-.02-.133-.131.08-.117.098.06.021-.06-.062-.023.086-.119.091.062.03-.06-.063-.027.082-.112.168.14-.003.092-.34.315z" mask="url(#prefix__d)"/>
                <path fill="#FCFF2C" d="M18.955 23.559L19.196 23.785 18.92 24.066 18.695 23.823z" mask="url(#prefix__d)"/>
                <path fill="#000" d="M18.942 23.578l-.233.26.211.193.259-.258-.237-.195zm-.022.52l-.246-.26.264-.296.278.227-.296.33z" mask="url(#prefix__d)"/>
                <path fill="#FCFF2C" d="M19.768 24.477c-.36-.378-.186-.73-.186-.734.004-.004.38-.19.747.179l-.56.555z" mask="url(#prefix__d)"/>
                <path fill="#FCFF2C" d="M19.09 24.251l.38.474.278-.28c-.352-.355-.146-.677-.134-.685.002-.004.34-.19.681.138l.28-.281-.48-.377-1.005 1.011z" mask="url(#prefix__d)"/>
                <path fill="#000" d="M19.857 23.68c.165 0 .317.069.454.199l.247-.274-.48-.35-.448.472c.04-.017.124-.046.227-.046zm-.289.108l-.466.481.369.421.26-.262c-.202-.167-.223-.363-.21-.489.012-.06.03-.116.047-.151zm-.1.97l-.397-.491 1.008-1.044.508.376-.276.315c-.165-.123-.304-.185-.454-.185-.14 0-.23.055-.235.055.004 0-.194.304.142.644l-.297.33z" mask="url(#prefix__d)"/>
                <path fill="#FCFF2C" d="M19.453 24.742l1.134-1.135c.03-.025.068-.022.1.006.024.03.028.071.009.099l-1.138 1.137c-.021.022-.066.02-.097-.01-.029-.03-.033-.071-.008-.097" mask="url(#prefix__d)"/>
                <path fill="#000" d="M20.63 23.612l-1.16 1.15-.01.077.059.024.02-.031 1.138-1.138.008-.082h-.054zm-1.111 1.276l-.072-.031c-.031-.033-.043-.101-.01-.132l1.134-1.138c.085-.023.11-.011.132.012.033.033.038.099.007.132l-1.191 1.157z" mask="url(#prefix__d)"/>
                <path fill="#FCFF2C" d="M19.865 24.325c-.221-.221-.134-.436-.134-.436s.221-.092.442.13l-.308.306z" mask="url(#prefix__d)"/>
                <path fill="#000" d="M19.74 23.912c.008 0-.06.18.124.382L20.16 24c-.215-.15-.411-.09-.42-.087zm.124.448l-.015-.015c-.233-.231-.142-.456-.138-.466.029-.027.237-.118.48.12l-.327.361z" mask="url(#prefix__d)"/>
                <path fill="#FCFF2C" d="M18.872 24.115l1.09-1.091c.02-.023.065-.023.09.004.023.027.027.07.002.091l-1.09 1.089c-.023.027-.06.023-.087-.004-.027-.025-.029-.064-.005-.09" mask="url(#prefix__d)"/>
                <path fill="#000" d="M18.926 24.198v.026l.024-.033 1.087-1.088.015-.075-.048.002-1.116 1.102-.01.072.048-.006zm0 .049l-.067-.039-.004-.11 1.089-1.09.126.004c.03.035.033.093.004.124l-1.148 1.11z" mask="url(#prefix__d)"/>
                <path fill="#FCFF2C" d="M18.99 24.187l1.04-1.044c.025-.024.064-.02.089.005.03.028.03.066.006.09l-1.043 1.044c-.02.021-.056.02-.085-.008-.025-.027-.033-.068-.008-.087" mask="url(#prefix__d)"/>
                <path fill="#000" d="M19.048 24.272v.024l.02-.03 1.044-1.046.007-.072-.05.002-1.062 1.054-.01.07.05-.002zm0 .047l-.07-.03c-.033-.032-.037-.085-.006-.12l1.046-1.046.119.008c.037.039.037.09.01.122l-1.1 1.066zM19.09 23.287c-.041-.041.013-.101.058-.057l.1.105-.054.056-.104-.104zM19.596 23.08c-.041-.041.017-.095.054-.055l.08.08-.055.054-.08-.08zM18.881 23.795c-.04-.04.016-.098.056-.055l.08.08-.054.054-.082-.08z" mask="url(#prefix__d)"/>
            </g>
        </g>
    </g>
</svg>
