<svg xmlns="http://www.w3.org/2000/svg" xmlns:xlink="http://www.w3.org/1999/xlink" width="32" height="20" viewBox="0 0 32 20">
    <defs>
        <rect id="sugvkcvhua" width="30" height="18" x="0" y="0" rx="3"/>
    </defs>
    <g fill="none" fill-rule="evenodd">
        <g>
            <g transform="translate(-757.000000, -264.000000) translate(758.000000, 265.000000)">
                <mask id="efqrze4p5b" fill="#fff">
                    <use xlink:href="#sugvkcvhua"/>
                </mask>
                <rect width="30.5" height="18.5" x="-.25" y="-.25" stroke="#7E919F" stroke-opacity=".497" stroke-width=".5" rx="3"/>
                <g mask="url(#efqrze4p5b)">
                    <g>
                        <path fill="#FFF" d="M0 18.889L30.556 18.889 30.556 0 0 0z" transform="translate(-0.000000, -1.059422)"/>
                        <path fill="#EA0020" d="M0 19.059L30 19.059 30 13.059 0 13.059z" transform="translate(-0.000000, -1.059422)"/>
                        <path fill="#3555E2" d="M0 13.059L31.667 13.059 31.667 7.059 0 7.059z" transform="translate(-0.000000, -1.059422)"/>
                        <g>
                            <path fill="#EA0020" d="M.372.49l-.16.073.167 2.613c.045.713.346 1.387.857 1.893.346.348.77.6 1.232.738.46-.139.888-.39 1.233-.738.508-.506.812-1.18.857-1.893L4.722.563C4.67.538 4.618.513 4.563.49l-.168 2.674c-.043.672-.33 1.31-.81 1.79-.314.315-.698.547-1.117.682-.417-.135-.803-.367-1.12-.682C.87 4.475.581 3.837.54 3.165L.372.491" transform="translate(-0.000000, -1.059422) translate(6.176471, 4.444444)"/>
                            <path fill="#3555E2" d="M4.563.49C3.911.203 3.195.05 2.468.05c-.729 0-1.441.153-2.1.442l.173 2.674c.041.672.329 1.31.806 1.79.318.315.704.547 1.12.682.42-.135.804-.367 1.118-.682.48-.48.767-1.118.81-1.79" transform="translate(-0.000000, -1.059422) translate(6.176471, 4.444444)"/>
                            <path fill="#F8E72A" d="M2.592 1.3L2.688 1.173 2.532 1.189 2.467 1.046 2.404 1.189 2.249 1.173 2.34 1.3 2.249 1.427 2.404 1.41 2.467 1.553 2.532 1.41 2.688 1.427M2.004.511L2.096.383 1.941.401 1.875.257 1.815.401 1.656.383 1.749.511 1.656.639 1.815.62 1.875.763 1.941.62 2.096.639M3.185.511L3.279.383 3.123.401 3.06.257 2.995.401 2.84.383 2.933.511 2.84.639 2.995.62 3.06.763 3.123.62 3.279.639" transform="translate(-0.000000, -1.059422) translate(6.176471, 4.444444)"/>
                            <path fill="#FFF" d="M4.16 3.553l-.846-1.125-.338.45-.508-1.016-.508 1.016-.337-.45-.848 1.125c0 .152.06.295.169.4.104.106.247.166.397.166.1 0 .196-.028.282-.076.042-.025.089-.044.136-.058.143-.04.297-.016.426.058.086.048.185.076.283.076.098 0 .195-.028.28-.076.13-.074.285-.097.43-.058.048.014.093.033.136.058.085.048.18.076.279.076.152 0 .294-.06.4-.166.105-.105.167-.248.167-.4M.977 4.166c.038.076.081.154.129.225.12.055.254.068.38.034.048-.014.095-.033.137-.056.083-.049.18-.077.28-.077.1 0 .197.026.282.077.13.074.284.094.428.056.05-.014.094-.033.136-.056 0 0-.002 0 0 0 .085-.049.183-.077.284-.077h-.004c.1 0 .199.026.285.077.128.074.281.094.426.056.032-.008.063-.02.089-.034.048-.071.09-.149.13-.225-.028.012-.058.023-.082.04-.043.024-.089.043-.137.057-.145.036-.298.016-.426-.058-.086-.05-.185-.076-.285-.076h.004c-.101 0-.2.028-.284.076h.002c-.044.025-.089.044-.138.058-.144.036-.298.016-.428-.058-.085-.05-.183-.076-.282-.076-.1 0-.197.028-.28.076-.042.025-.09.044-.138.058-.144.036-.296.016-.427-.058-.026-.016-.052-.027-.08-.039M3.686 4.598c-.067.085-.137.166-.213.242-.288.285-.63.498-1.005.625-.374-.127-.719-.34-1.005-.625-.074-.076-.147-.157-.212-.242.08.014.159.009.235-.011.048-.013.094-.032.137-.057.083-.048.181-.075.28-.075.1 0 .198.025.282.075.13.076.284.095.427.057.05-.013.096-.032.137-.057.001 0-.002 0 0 0 .084-.048.183-.075.284-.075H3.03c.1 0 .197.025.284.075.114.066.244.09.372.068" transform="translate(-0.000000, -1.059422) translate(6.176471, 4.444444)"/>
                        </g>
                    </g>
                </g>
            </g>
        </g>
    </g>
</svg>
