<svg xmlns="http://www.w3.org/2000/svg" xmlns:xlink="http://www.w3.org/1999/xlink" width="54" height="32" viewBox="0 0 54 32">
    <defs>
        <rect id="prefix__a" width="54" height="32" x="0" y="0" rx="9"/>
    </defs>
    <g fill="none" fill-rule="evenodd">
        <mask id="prefix__b" fill="#fff">
            <use xlink:href="#prefix__a"/>
        </mask>
        <use fill="#D8D8D8" xlink:href="#prefix__a"/>
        <g mask="url(#prefix__b)">
            <path fill="#BC0030" d="M0 31.101L54.293 31.101 54.293 0 0 0z"/>
            <path fill="#000" d="M24.43 6.868c-.09.075-.532.043-.614-.043-.083-.075-.013-.217.113-.243.083-.024.146-.036.185-.036.176-.007.017.155.1.21.102.07.367-.279.215.112m5.642-.111c.09-.056-.07-.218.106-.211.037 0 .1.012.182.036.13.026.193.168.114.243-.081.086-.528.118-.613.043-.148-.39.111-.043.211-.111m5.801 12.996c-.063-.049-.18-.08-.288-.085-.097 0-.242-.039-.325-.075-.18-.081-.372-.056-.537.086-.11.087-.18.1-.597.136-.587.045-.776.045-.776.007 0-.018.147-.124.335-.242.252-.162.355-.205.435-.186.178.03.394-.05.563-.217.158-.162.199-.167.56-.156.084.007.027.007.143-.01-.053-.144-.265-.423-.624-.331-.159.038-.248.044-.328.019-.232-.081-.54.08-.64.329-.043.123-.28.31-.692.559l-.302.185-.586-.224c-.647-.24-1.2-.489-1.2-.527 0-.017.08-.117.181-.235.1-.1.18-.205.18-.217 0-.013-.11-.081-.253-.15-.907-.446-1.551-1.078-1.823-1.791-.192-.497-.095-.615.146-.169.186.36.328.521.587.69.275.173.432.205.54.11.12-.11.092-.24-.082-.44-.401-.447-.518-1.122-.186-1.122.123 0 .142.017.388.596.36.798.723 1.338 1.011 1.475.241.13.636.032.702-.173.047-.162-.013-.267-.291-.435-.437-.278-.723-.726-.832-1.315-.037-.186-.03-.235.026-.323.097-.143.17-.092.452.316.527.79 1.481 1.813 1.87 2.024.692.371 1.375.359 1.789-.043.11-.113.149-.181.149-.28 0-.192-.15-.273-.465-.26-.724.03-.79.024-1.069-.1-.537-.254-1.061-.85-1.472-1.687-.392-.788-.29-.826.367-.168.885.888 1.598 1.216 2.255 1.024.32-.087.623-.373.623-.583 0-.224-.113-.286-.461-.267-.159.005-.445.012-.644.012-.338.006-.39-.007-.636-.124-.152-.069-.388-.242-.553-.385-.42-.384-1.127-1.34-1.127-1.526 0-.186.166-.111.6.267.357.305.985.72 1.27.856.165.068.271.087.585.087.332 0 .413-.006.578-.1.265-.13.36-.254.378-.527.033-.39-.163-.49-.736-.342-.809.194-1.234.051-1.98-.694-.36-.36-.487-.559-.44-.67.04-.111.2-.055.885.28.759.378.974.452 1.33.452.317 0 .52-.062.712-.224.29-.247.365-.527.18-.706-.146-.15-.433-.137-.756.025-.16.075-.332.13-.478.143-.507.05-1.256-.23-1.625-.596-.254-.249-.374-.478-.304-.565.07-.081.18-.062.464.05.547.23.809.291 1.226.291.461 0 .743-.074 1.144-.292.305-.167.51-.384.51-.527 0-.062-.033-.167-.08-.241-.115-.186-.332-.18-.721.036-.787.416-1.324.478-1.874.205-.233-.111-.626-.483-.73-.681-.06-.12-.06-.137-.002-.193.072-.068.122-.068.73.154.3.107.433.137.788.15.474.019.762-.032 1.07-.173.416-.188.82-.67.82-.97 0-.148-.094-.334-.183-.37-.176-.07-.275-.026-.547.26-.428.422-.849.583-1.525.583-.715 0-1.014-.105-1.014-.372 0-.186.145-.292.438-.342.891-.143 1.922-.595 2.475-1.099.325-.297.448-.508.445-.762-.007-.286-.133-.484-.364-.546-.193-.056-.346.038-.552.354-.344.533-.699.824-1.371 1.153-.389.194-1.015.403-1.128.386-.042-.013-.095-.081-.126-.175-.102-.267-.118-.273-.523-.105-.199.088-.61.242-.915.348-.613.21-.819.34-.961.626-.076.136-.09.23-.09.657-.004.447-.017.504-.096.621-.123.174-.225.218-.484.218-.375 0-.584-.218-.603-.64-.026-.342.039-.639.212-.986.17-.355.367-.564.739-.807.357-.229.702-.335 1.2-.385.447-.036.901-.204 1.008-.422-.458.132-.916-.062-.875-.08.039-.025.854-.025.96-.031.345-.037.478-.13.667-.273.219-.148.364-.291.304-.391-.051-.105-.215-.086-.33.038-.05.062-.157.173-.233.26-.129.143-.158.155-.546.212-.295.043-.345.043-.515 0-.055-.038-.102-.088-.102-.107 0-.055.159-.143.31-.173.104-.025.344.056.546.111-.044-.11-.044-.117-.113-.247-.094-.186-.269-.254-.696-.267-.302-.013-.404-.032-.47-.088-.044-.042-.12-.092-.16-.123-.05-.026-.127-.037-.219-.037-.272-.013-.699.092-1.108.267-.228.098-.33.124-.563.124-.162 0-.364-.02-.448-.045-.327-.085-.384-.085-.384-.024 0 .075.276.323.484.421.107.062.152.1.13.143-.028.088-.338.286-.528.348-.192.068-.186.143.023.242.097.044.167.1.173.123.003.113-.401.374-.584.374-.222 0-.136.173.11.222.133.032.133.05.013.175-.133.154-.25.205-.385.18-.149-.037-.181.025-.092.179.066.112.066.124-.007.174-.029.024-.073.037-.12.05-.01 0-.022.006-.025.006-.013 0-.028 0-.034.006-.013-.006-.026-.006-.04-.006-.006 0-.017-.006-.027-.006-.045-.013-.085-.026-.124-.05-.068-.05-.068-.062 0-.174.086-.154.058-.216-.094-.18-.13.026-.252-.025-.385-.18-.121-.123-.121-.142.018-.174.244-.05.327-.222.105-.222-.183 0-.587-.26-.582-.374.003-.023.076-.079.174-.123.212-.099.215-.174.02-.242-.191-.062-.5-.26-.53-.348-.017-.043.027-.08.137-.143.205-.098.477-.346.477-.42 0-.062-.054-.062-.379.023-.085.026-.29.045-.448.045-.238 0-.338-.026-.566-.124-.41-.175-.831-.28-1.11-.267-.087 0-.163.011-.213.037-.045.031-.118.08-.165.123-.067.056-.165.075-.464.088-.434.013-.604.08-.703.267-.072.13-.072.136-.113.247.202-.055.442-.136.55-.11.15.03.31.117.31.172 0 .02-.05.069-.104.107-.169.043-.222.043-.516 0-.385-.057-.413-.069-.549-.211-.066-.088-.178-.199-.228-.26-.113-.125-.278-.144-.328-.04-.06.101.082.244.302.392.191.143.324.236.665.273.104.006.922.006.96.032.041.017-.418.21-.872.079.105.218.562.386 1.007.422.503.05.845.156 1.197.385.374.243.573.452.741.807.173.347.236.644.214.986-.021.422-.227.64-.604.64-.255 0-.359-.044-.483-.218-.081-.117-.09-.174-.097-.62 0-.428-.013-.522-.086-.658-.146-.286-.351-.416-.966-.626-.307-.106-.718-.26-.917-.348-.404-.168-.42-.162-.518.105-.032.094-.089.162-.126.175-.118.017-.74-.192-1.129-.386-.676-.329-1.026-.62-1.373-1.153-.203-.316-.355-.41-.557-.354-.228.062-.357.26-.357.546-.007.254.118.465.446.762.553.504 1.582.956 2.47 1.1.298.049.44.155.44.34 0 .268-.297.373-1.014.373-.673 0-1.097-.16-1.524-.583-.275-.286-.369-.33-.543-.26-.09.036-.19.222-.19.37 0 .3.408.782.822.97.31.141.597.192 1.074.173.351-.013.487-.043.786-.15.604-.222.659-.222.73-.154.058.056.058.073-.005.193-.105.198-.493.57-.731.68-.544.274-1.085.212-1.867-.204-.394-.216-.61-.222-.723-.036-.045.074-.086.179-.086.24 0 .144.206.361.518.528.398.218.68.292 1.144.292.414 0 .676-.061 1.223-.292.281-.11.391-.13.464-.049.07.087-.053.316-.303.565-.373.366-1.119.645-1.627.596-.145-.013-.325-.068-.48-.143-.319-.162-.607-.175-.75-.025-.189.18-.116.459.179.706.195.162.394.224.71.224.35 0 .572-.074 1.323-.452.69-.335.85-.391.891-.28.049.111-.082.31-.441.67-.746.745-1.17.888-1.979.694-.574-.147-.77-.049-.739.342.026.273.12.397.379.527.168.094.25.1.579.1.312 0 .42-.019.584-.087.288-.137.917-.551 1.27-.856.44-.378.606-.453.606-.267s-.71 1.142-1.134 1.526c-.16.143-.401.316-.55.385-.249.117-.3.13-.63.124-.203 0-.49-.007-.65-.012-.346-.019-.464.043-.464.267 0 .21.308.496.623.583.66.192 1.372-.136 2.257-1.024.657-.658.757-.62.365.168-.41.837-.931 1.433-1.472 1.687-.271.124-.344.13-1.067.1-.317-.013-.461.068-.461.26 0 .099.037.167.15.28.41.402 1.094.414 1.783.043.391-.211 1.346-1.234 1.873-2.024.281-.408.351-.459.451-.316.062.088.065.137.026.323-.113.589-.395 1.037-.831 1.315-.277.168-.342.273-.287.435.063.205.458.303.694.173.285-.137.652-.677 1.008-1.475.257-.579.272-.596.396-.596.329 0 .21.675-.184 1.123-.18.198-.209.329-.08.44.103.094.258.062.536-.111.262-.169.398-.33.587-.69.24-.446.342-.328.143.169-.269.713-.914 1.345-1.82 1.791-.142.069-.256.137-.256.15 0 .012.081.117.183.217.1.118.18.218.18.235 0 .038-.55.286-1.204.527l-.587.224-.298-.185c-.417-.248-.644-.436-.695-.56-.09-.247-.408-.41-.638-.328-.079.025-.174.019-.328-.02-.36-.091-.573.188-.626.331.123.018.063.018.152.011.36-.01.398-.006.556.156.164.167.389.248.562.217.082-.019.186.024.437.186.182.118.334.224.334.242 0 .038-.195.038-.778-.007-.419-.036-.487-.049-.6-.136-.163-.142-.354-.167-.534-.086-.079.036-.224.075-.325.075-.107.006-.225.036-.288.085-.123.088-.199.13-.249.312.215-.007.142-.007.3-.032.271-.037.3-.03.386.043.053.044.13.106.18.13.12.057.4.05.53-.017.083-.045.278-.056.718-.056.329-.006.618-.006.641 0 .02 0-.11.086-.294.186-.306.192-.335.198-.604.192-.352-.006-.551.105-.613.322-.018.075-.056.218-.078.31-.055.205-.079.243.078.602.172-.397.115-.28.165-.348.09-.13.12-.148.316-.16.284-.026.41-.107.516-.323.07-.155.145-.21.514-.441.511-.31.477-.31 1.048-.05.285.13.39.2.437.286.086.167.269.236.461.174.202-.056.278-.018.408.155.053.075.056.062.139.137.022-.111.022-.13.022-.237 0-.167-.016-.198-.23-.408-.253-.25-.405-.318-.585-.25-.089.032-.155.026-.374-.074-.245-.111-.334-.199-.208-.199.022 0 .417-.14.86-.31l.816-.309.12.099c.223.168.574.328.729.328.14 0 .155-.01.199-.154.07-.23.54-1.116.79-1.496.426-.645.658-.811.853-.608.057.068.073.15.07.392-.006.72-.427 1.668-.98 2.201-.291.286-.613.442-.995.498-.298.042-.5.11-.5.192 0 .074.196.303.324.365.11.062.21.068.444.062.275-.011.332-.024.59-.186.266-.154.305-.167.358-.117.054.055.057.087.017.235-.083.31-.308.448-.832.51-.537.068-.72.228-.54.471.113.16.312.242.593.242.314 0 .588-.13.945-.466.155-.136.295-.241.319-.224.055.026.052.348-.008.54-.059.186-.31.478-.466.534-.06.025-.214.075-.34.106-.437.118-.503.285-.194.49.205.13.54.142.788.025.16-.068.606-.478.687-.627.073-.13.146-.03.125.162-.016.16-.115.347-.332.644-.178.237-.111.56.186.993.2.292.392.502.48.534.085-.032.276-.242.478-.534.3-.434.359-.756.183-.993-.219-.297-.316-.484-.329-.644-.026-.193.047-.293.123-.162.083.149.524.559.69.627.245.117.577.105.782-.025.31-.205.243-.372-.192-.49-.126-.031-.282-.08-.341-.106-.153-.056-.408-.348-.465-.534-.063-.192-.063-.514-.003-.54.023-.017.159.088.315.224.355.335.63.466.942.466.285 0 .48-.081.597-.242.181-.243-.003-.403-.537-.472-.524-.061-.748-.198-.837-.51-.042-.147-.032-.179.017-.234.053-.05.09-.037.352.117.269.162.324.175.597.186.232.006.337 0 .44-.062.13-.062.329-.29.329-.365 0-.081-.203-.15-.499-.192-.386-.056-.702-.212-1-.498-.55-.533-.968-1.481-.978-2.2-.003-.244.013-.325.073-.393.192-.203.422-.037.846.608.252.38.723 1.266.792 1.496.049.143.065.154.203.154.152 0 .506-.16.728-.328l.12-.099.815.31c.448.168.836.31.865.31.123 0 .03.087-.215.198-.215.1-.291.106-.366.075-.187-.069-.335 0-.592.249-.212.21-.23.241-.23.408 0 .107 0 .126.022.237.085-.075.085-.062.142-.137.126-.173.209-.211.401-.155.202.062.383-.007.468-.174.048-.087.155-.155.433-.285.573-.26.54-.26 1.048.049.374.23.447.286.52.441.103.216.233.297.51.323.203.012.235.03.316.16.052.068-.001-.05.172.348.155-.359.132-.397.076-.602-.026-.092-.063-.235-.076-.31-.063-.217-.266-.328-.617-.322-.265.006-.297 0-.603-.192-.183-.1-.319-.186-.291-.186.02-.006.314-.006.642 0 .435 0 .628.011.71.056.133.068.411.074.53.017.05-.024.13-.086.185-.13.084-.073.113-.08.382-.043.162.025.086.025.304.032-.048-.181-.131-.224-.25-.312"/>
        </g>
    </g>
</svg>
