<svg xmlns="http://www.w3.org/2000/svg" xmlns:xlink="http://www.w3.org/1999/xlink" width="54" height="32" viewBox="0 0 54 32">
    <defs>
        <rect id="prefix__a" width="54" height="32" x="0" y="0" rx="9"/>
    </defs>
    <g fill="none" fill-rule="evenodd">
        <mask id="prefix__b" fill="#fff">
            <use xlink:href="#prefix__a"/>
        </mask>
        <use fill="#D8D8D8" xlink:href="#prefix__a"/>
        <g mask="url(#prefix__b)">
            <path fill="#F5CD28" d="M0 31.331L53.702 31.331 53.702 0 0 0z"/>
            <path fill="#ED6F22" d="M11.354 28.045L20.469 28.045 20.469 3.288 11.354 3.288z"/>
            <path fill="#2F742E" d="M2.374 28.051L11.362 28.051 11.362 3.288 2.374 3.288z"/>
            <path fill="#8E1841" d="M22.848 28.051L51.323 28.051 51.323 3.288 22.848 3.288z"/>
            <g>
                <path fill="#F5CD28" d="M11.306 10.65l.47.013s-.527.45-.407 1.05c.553-.82.756-.663.756-.663-.17.18-.49.437-.241.987.217-.561.66-1 .66-1s-.118.626.146 1.207c.19-.581.519-1.07.519-1.07s-.047.62.227.85c.22-.193.363-.686.363-.686s.408.725.66.83c.204-.486.204-.875.204-.875s.843.6 1.52.251c-.603-.219-.806-.726-.806-.726s1.092.482 1.563.269c-.456-.349-1.53-.869-1.53-.869s.794.294 1.024.22c-.109-.156-.457-.351-.457-.351l-4.67.563z" transform="translate(22.4 4.131)"/>
                <path fill="#8E1841" d="M12.717 12.25c-.28-.506-.22-1.056-.201-1.187-.058.112-.421.505-.604.987-.29-.525-.028-.794.143-.968l.038-.038c-.046.019-.256.019-.702.688-.173-.626.361-1.088.368-1.095l-.453.05c-.018 0-.024-.018-.024-.037 0-.013.01-.032.024-.026l.47.013c.015.056-.494.495-.379 1.07.304-.539.525-.676.643-.689.068-.011.1 0 .103.006l-.048.095c-.17.18-.408.425-.184.905.165-.561.608-1.006.614-1.006.047.032-.067.651.192 1.206.14-.568.467-1.062.469-1.068.05.019.006.632.27.85.17-.188.312-.668.312-.674.06.006.463.705.704.812.159-.462.164-.844.164-.85.024-.012.545.324 1.073.324.154 0 .314-.024.458-.1-.603-.167-.811-.662-.82-.687.037-.018.769.281 1.279.281.114 0 .22-.019.3-.05-.454-.294-1.518-.812-1.526-.812.021-.043.647.168.936.168.037 0 .068 0 .09-.005-.12-.113-.46-.294-.464-.3.046-.037.386.15.496.305-.166.082-.563-.011-.82-.093.346.15.99.488 1.318.738-.45.25-1.412-.138-1.572-.207.074.07.295.476.807.656-.643.394-1.424-.112-1.531-.187.032.056.012.413-.172.856-.278-.094-.646-.712-.707-.813.015.082-.125.501-.325.682-.275-.206-.281-.694-.278-.837-.046.131-.3.555-.46 1.037" transform="translate(22.4 4.131)"/>
                <path fill="#F5CD28" d="M17.878 4.781c1.453-.13 3.696 1.056 4.882 1.85 0-.269 0-.531.267-.663.26-.13.657.132.528.532-.397.918-1.98-.138-2.51-.4l.265.53c-.792-.13-.923-.268-1.451-.924-.133.525-.133.656-.794.656.251-.394.333-.525 0-.918l-.13.787-.655-.919v.919c-.138-.131-.664-.525-.928-.525-.396-.131-.66.656-.792 1.05.396-.394.528-.656 1.188-.394-.356.338-.25.744.13 1.056 0 0 .07-.549.11-.674.212.156.658.743 1.21.805.397 0 .792-.13 1.189-.262 1.318-.138 4.224.131 3.561 2.107-.13.4-.264.656-.53.918 1.85.663.266 3.037-.13 4.22-.261 1.056-.079 1.892 1.222 1.761-.264.525-.691.613-1.222.613 0 0 .07.318.41.469-.567.5.193 1.262-.143 1.638-.57.274-1.32-.13-1.32-.13l-.039.367s-.993-.062-1.017-.106c0 0 .281-.53.265-.544-.265.4-.521.63-1.057.544 0 0 .041-.244.336-.563-.4.4-.445.575-.864.563 0-.657.392-1.444 1.185-1.188.135 0 .552.33.746.12.158-.226.06-1 .06-1.258.086-1.168-.145-1.1-.806-1.762-.526-.393-.912-1-1.57-1.13-.658-.132-1.726.606-2.254.868-1.318.794-2.505 1.318-3.958 1.58 0 0 .029-.062.029-.2 0-.08 1.424-1.193 1.673-3.143-.388 1.925-1.776 2.937-1.827 3.3-.056.35-.337.962-.37 1 .173-.1.72-.369 1.417-.425-.15.82-.922.656-1.053 1.05 0 .4.525.926 0 1.188h-2.112s.326-.45.34-.57c-.286.17-.465.626-1.084.575.024-.174.318-.437.269-.542-.359.331-.524.611-.976.537.13-.395.13-.92.659-.92.395-.13.792.132 1.057-.268.528-.656-.099-2.1-.228-2.893 0-.656 0-.783-.168-1.583l.13 2.37c-.527-.4-1.055-.656-1.45-1.187-.924-1.183-.658-2.5.528-3.295.526-.393.812-.6 1.473-.862-.13-.394.187-.693-.28-.813-.142.245-.275.514-.545.495l.144-.663s-.477.03-.383.882c-.547-.263-.278-.882-.278-.882h-.264s-.002.781-.432.938c.115-.363.168-.938.168-.938s-.709.843-1.117.568c.242-.275.427-.318.395-.65-.032-.324-.203-.75-.232-.819.15.076 1.144.37 1.768.058-.041.211-.022.45-.022.45.656-.132.793-.132 1.454.124-.133-.912-.66-1.056-1.19-1.707v.527c-.528-.132-.66-.263-.925-.79l-.395.263c-.696-.41-1.21-1.387-.223-1.33.59.074.09.537.09.537s1.512-.476 2.112-.525c0 0-.173-.368-.733-.437.464-.344.93-.456 1.264.275.33.024.637-.382.44-.894.491-.007.731.3.955.625.184.03.368-.156.325-.812.458.393.688.518.719.85.395.087.66 0 1.254-.263-.134.525-.134.656-.662.925.374.456.414 1.012.336 1.212-.133-.036-.165-.05-.256-.075.033.207.07.77.056 1.101h-.268l.399 1.187-.267.387c.926-.387 1.85-.262 2.772-.518 1.056-.138 2.11-.538 3.296-.538.794 0 .794.4 1.85.4V9c0-.524-.395-1.056-1.056-1.187-.394 0-1.058.263-1.451.387-.528.144-1.322.144-1.85.144-1.71-.268-1.441-.438-2.035-.756-.358.092-.56.4-.74.937-.33-.494-.258-1.107.14-1.376-.398-1.443.658-2.105 1.976-2.368" transform="translate(22.4 4.131)"/>
                <path fill="#F5CD28" d="M18.28 16.644c-.268-.4-1.192-1.056-.928-1.719.396-.656 2.641-1.713 3.035-.262.131.393-.277 1.443-.408 1.843.2-.056.422-.362 1.072-.25-.122.519-.914.919-.914.919.085.35-.542 1.968-.542 1.968h-1.717l.264-.525-.394.525h-.66l.528-.656s-.626.731-1.156.7c.127-1.055.76-1.231 1.682-.831.138-.525.395-1.188.138-1.712" transform="translate(22.4 4.131)"/>
                <path fill="#8E1841" d="M17.447 18.675l-.336.488.637-.051.374-.512-.218.557 1.692-.045c-.021 0 .595-1.594.513-1.931.027-.037.8-.43.915-.932-.076.02-.163.007-.243.007-.3 0-.475.107-.614.187-.067.045-.122.069-.18.094l.028-.23c.16-.451.457-1.3.345-1.632-.161-.587-.619-.706-.976-.706-.81 0-1.777.594-2.008.968-.187.476.256.95.616 1.325.128.138.24.263.31.363.223.456.073 1-.062 1.476-.022.092-.048.174-.072.256-.332-.101-.593-.164-.812-.164-.492 0-.776.314-.864.97.505-.006 1.097-.688 1.104-.694.004.019-.053.107-.15.206m-.958.544l-.03-.006c.088-1.037.678-1.319 1.696-.882-.016-.069.005-.155.032-.25.128-.462.28-.993.067-1.425-.07-.1-.179-.218-.302-.349-.368-.395-.826-.882-.626-1.395.27-.443 1.293-1.005 2.06-1.005.539 0 .895.256 1.028.749.12.35-.17 1.176-.344 1.669l-.06.182c.019-.045.07-.075.13-.114.173-.099.431-.25.92-.161-.103.555-.875.949-.907.968.096.325-.504 1.881-.53 1.957l-1.743.012.241-.57-.348.564-.685.006.34-.475c-.207.224-.587.525-.939.525" transform="translate(22.4 4.131)"/>
                <path fill="#F5CD28" d="M11.208 6.719c-.175.105-.032.832.243.712.34-.155-.106-.794-.243-.712" transform="translate(22.4 4.131)"/>
                <path fill="#8E1841" d="M11.237 6.737c-.084.044-.099.244-.046.426.034.125.104.25.197.25v.03l.053-.043c.112-.05.118-.168.097-.256-.046-.2-.225-.407-.3-.407zm.15.732c-.1 0-.196-.106-.25-.295-.055-.18-.05-.411.06-.48.176-.006.352.23.397.443.034.15-.011.263-.13.319l-.076.013z" transform="translate(22.4 4.131)"/>
                <path fill="#F5CD28" d="M11.376 6.494c.328.225.844.837 1.485.8-.483-.394-.385-.688-.385-.688.25.3 1.092.582 1.37.462-.322-.243-.386-.269-.457-.493.386.044.867.125 1.25-.038l-3.263-.043z" transform="translate(22.4 4.131)"/>
                <path fill="#8E1841" d="M12.734 7.288c-.456 0-.838-.325-1.123-.575-.093-.075-.174-.144-.248-.2-.013-.013-.016-.025-.006-.038.01-.013.025-.02.04-.007.072.052.157.12.25.2.31.27.724.626 1.212.6-.51-.355-.416-.656-.413-.668.295.281 1.119.556 1.39.438l-.102-.02c-.246-.18-.307-.218-.37-.436l.138-.02c.368.044.781.1 1.127-.049-.338.207-.759.149-1.135.106l-.108-.013c.094.157.142.194.382.37l.098.068c-.295.175-1.12-.094-1.396-.393.021.062.028.305.407.624-.047.006-.096.013-.143.013" transform="translate(22.4 4.131)"/>
                <path fill="#F5CD28" d="M12.003 10.512l.037-.556s.363.844.627.856c-.168-.618-.096-1.106-.096-1.106l-.568.806z" transform="translate(22.4 4.131)"/>
                <path fill="#8E1841" d="M12.681 10.806c-.3 0-.632-.757-.669-.837l.021.543c0 .019-.019.019-.03.025-.015-.006-.026-.012-.026-.025l.035-.555c.154.217.455.817.658.824-.197-.575-.131-1.074-.128-1.08.054.01-.014.499.149 1.105h-.01z" transform="translate(22.4 4.131)"/>
                <path fill="#F5CD28" d="M12.847 9.831s.721 1.325 1.073 1.112c-.53-.475-.47-1.08-.47-1.08s.237.818.952 1.067c.046-.462-.282-1.204-.282-1.204s.596 1.036.893 1.062c.192-.245.123-.5.123-.5l-2.29-.457z" transform="translate(22.4 4.131)"/>
                <path fill="#8E1841" d="M13.822 10.994c-.018 0-.034 0-.053-.007-.377-.099-.921-1.092-.945-1.137-.008-.02-.004-.03.012-.043.012 0 .03 0 .037.012.003.012.554 1.018.912 1.112.048.013.085.007.119-.012-.538-.43-.482-1.056-.482-1.063.058.007.3.8.989 1.043.008-.417-.31-1.155-.314-1.161v.006c.013 0 .034.024.06.069.233.312.644.925.857.949.157-.218.096-.463.093-.467h.003c.054 0 .125.262-.072.512-.248-.013-.626-.557-.82-.863.111.25.24.682.214.987-.62-.187-.901-.774-.981-.987.032.181.09.624.486.975-.033.056-.075.075-.115.075" transform="translate(22.4 4.131)"/>
                <path fill="#F5CD28" d="M12.281 8.919l.531.675.082-.9s.518.406.618.393c.092-.005-.146-.962-.146-.962s.7 1.063.744 1.037c.048-.024.07-1.05.07-1.05s.535 1.456.714 1.45c.18-.018.134-.206.134-.206l-2.747-.437z" transform="translate(22.4 4.131)"/>
                <path fill="#8E1841" d="M12.84 9.6l-.582-.662c-.008-.013-.005-.026.007-.037.01-.013.028-.013.04.005l.528.668.035-.886c.294.18.582.368.638.374.026-.05-.064-.512-.168-.93.298.356.719.969.776 1.006.003-.044.029-.557.04-1.026.306.688.648 1.426.738 1.42.043-.007.072-.02.086-.044.037-.051.021-.125.021-.125.05-.019.078.087.029.162-.029.038-.072.056-.135.062h-.001c-.189 0-.61-1.118-.735-1.462.03 1.032-.017 1.056-.033 1.062-.027.013-.067.039-.784-1.043.104.18.267.856.206.957-.137.03-.545-.288-.67-.389l-.035.888z" transform="translate(22.4 4.131)"/>
                <path fill="#F5CD28" d="M11.884 7.744s.818.737.901.694c.085-.045-.334-.862-.334-.862s.467.443.65.473c.179.039.062-.574.062-.574s.555.475.646.443c.1-.018.05-.443.05-.443s.36.363.387.363c.026 0-.077-1.038-.077-1.038s.807.856.869.844l-3.154.1z" transform="translate(22.4 4.131)"/>
                <path fill="#8E1841" d="M12.783 8.469c-.115 0-.56-.381-.919-.706-.01-.013-.014-.025 0-.045.008-.006.03-.006.04 0 .375.344.8.695.874.695.014-.05-.168-.469-.352-.826.171.088.536.413.678.439.095-.07.061-.37.028-.544.304.193.603.419.673.412.037-.012.048-.206.024-.412.213.137.395.318.424.33-.025-.031-.075-.638-.112-1.006.34.288.834.788.898.813-.011.063-.072.069-.89-.793.14 1 .125 1.017.117 1.03-.038.013-.058.013-.43-.362.067.112.088.424-.018.456-.094.03-.522-.318-.664-.444.056.068.12.45.024.55-.006.006-.075.026-.085.026-.189-.039-.643-.47-.66-.488.329.524.44.832.367.868-.004.007-.008.007-.017.007" transform="translate(22.4 4.131)"/>
                <path fill="#F5CD28" d="M8.608 8.006c.038.063.171 1.125 1.82.695.157-.088.089.292.079.404.075-.01.862-.292 1.403.108-.064-.444-.182-.738-.65-.994-.233-.045-.398.069-.398.069s-1.989.017-2.254-.282" transform="translate(22.4 4.131)"/>
                <path fill="#8E1841" d="M11.91 9.244c-.006 0-.012-.007-.017-.007-.185-.137-.425-.206-.707-.206-.275 0-.518.062-.62.094-.009 0-.044.007-.049-.006-.01-.007-.037-.007-.037-.02l.007-.062c.01-.093.03-.281-.007-.318-.305.075-.547.112-.763.112-.592 0-.97-.263-1.12-.78-.003-.007-.006-.014-.006-.02.28.675.87.888 1.83.638l.101.011c.05.058.038.2.022.357l-.003.07c.117-.07.362-.139.645-.139.269 0 .498.063.685.181-.06-.4-.195-.669-.623-.899-.028-.006-.065-.013-.102-.013-.155 0-.267.075-.267.075-.522.007-2.043-.012-2.288-.288 0-.006.003-.017.01-.024.01-.006.022-.025.03-.012.18.206 1.29.275 2.182.275.024 0 .154-.082.333-.082.04 0 .078.007.12.013.482.256.606.555.674 1.013 0 .011-.004.024-.015.03-.003 0-.01.007-.014.007" transform="translate(22.4 4.131)"/>
                <path fill="#F5CD28" d="M7.712 14.781c-.03.125-.112.157-.36.512.11.157.61.394.75.263.12-.063.129-.394.129-.394.265.394.731 1.02 1.26 1.157.393.125.79-.138.79-.531 0-.4-.597-1.032-.86-1.295-.662-.793-.601-2.286-1.85-2.08-.004.011-.055.187-.174.218.1.187.155.35-.083.413.186.18.213.312-.027.406.145.194.318.269-.016.432.347.342.42.843.441.9" transform="translate(22.4 4.131)"/>
                <path fill="#8E1841" d="M8.206 15.163c.5.65.903 1.025 1.293 1.124.38.132.752-.137.752-.499 0-.389-.595-1.025-.85-1.275-.225-.269-.364-.613-.5-.95-.266-.65-.517-1.256-1.325-1.119-.029.112-.095.187-.175.213.077.069.136.194.096.293-.027.056-.083.094-.179.125.135.062.184.156.167.238-.015.069-.074.118-.186.162.037-.007.066.025.091.05.063.074.115.132.101.2-.014.063-.075.113-.21.182.324.256.418.692.448.83-.01.126-.046.176-.116.258-.053.068-.132.168-.239.318.104.1.603.318.707.224.096-.05.122-.286.125-.374M9.7 16.375c-.075 0-.146-.006-.218-.038-.393-.093-.804-.469-1.25-1.131.023.081-.002.32-.116.376-.026.03-.072.037-.133.037-.206 0-.56-.175-.654-.306.109-.187.184-.282.243-.35.067-.088.1-.119.112-.188-.04-.156-.13-.576-.432-.875.117-.1.174-.144.182-.187.007-.038-.035-.088-.09-.15-.025-.032-.049-.056-.08-.1.105-.075.156-.113.167-.163.01-.056-.033-.137-.136-.237.083-.068.131-.1.146-.137.033-.063-.003-.163-.069-.288.078-.056.13-.119.17-.226.108-.037.182-.043.254-.043.677 0 .909.568 1.155 1.174.138.332.275.67.49.932.262.256.869.907.869 1.313 0 .331-.27.587-.61.587" transform="translate(22.4 4.131)"/>
                <path fill="#F5CD28" d="M7.388 3.612c-.4.575-.439 6.9-.312 8.168-.402.264-1.141.157-1.346.076.096-.456.438-7.788 1.658-8.244" transform="translate(22.4 4.131)"/>
                <path fill="#8E1841" d="M7.364 3.6c-.947.4-1.366 5.488-1.525 7.406-.038.463-.064.768-.081.856.094.007.353.056.617.056.202 0 .482-.024.682-.155-.127-1.126-.106-7.57.307-8.163m-.989 8.374c-.272 0-.536-.05-.656-.092 0-.114.027-.439.063-.876.176-2.112.582-7.043 1.593-7.419-.353.607-.406 6.85-.277 8.194-.222.163-.515.193-.723.193" transform="translate(22.4 4.131)"/>
                <path fill="#F5CD28" d="M6.264 16.575s-1.752.243-1.014-.794c.632-.275.616.368.382.588.29.032.478-.15.523-.437-.357-.482.15-.794.123-.794-1.219.274-1.38-.563-.934-.694.574.032.392.213.62.38.407-.38.657-.417.902-.03.248-.382.601-.337.616-.3.396.675-.48.713-.834.631.3.325.178.644.08.876.011.23.184.262.466.355-.604-1.663 2.121.445-.618.232.006.075.013.15.014.219.226.043.381.093.455.331-.096.125-.245.143-.48.056 0 0 .137.381-.112.487-.203-.125-.229-.418-.229-.418-.117.138-.283.043-.426-.069.128-.32.488-.17.466-.619M4.76 11.512c.105-.475 1.206-.419.681.095.354.561 1.43.48 1.834.161-.341-.65.587-.505.548-.012-.113.881-3.184.763-3.064-.244M24.99 19.912c.329.62.913 2.07 1.234 2.42.309.268 1.061.236 1.291-.07 0 0 .485.5.68.65.116-.043.186-.15.186-.15-.195-.213-.462-.338-.595-.731.193-.263.307-.775.171-1.168-.574-.97-2.494-.587-2.966-.95" transform="translate(22.4 4.131)"/>
                <path fill="#8E1841" d="M27.494 22.244c.045.006.505.481.705.636.101-.043.159-.137.159-.137-.053-.018-.11-.074-.171-.125-.164-.142-.33-.286-.428-.574.19-.276.308-.775.175-1.175-.35-.582-1.242-.662-1.954-.725-.445-.038-.827-.068-1.006-.212.158.18.304.492.454.824.285.625.61 1.33.818 1.556.273.237 1.041.2 1.248-.068zm.699.705l-.014-.01c-.196-.151-.663-.633-.684-.652-.144.288-.988.337-1.29.062-.214-.23-.54-.937-.828-1.568-.155-.33-.298-.65-.41-.856.208.093.583.125 1.015.162.731.062 1.633.144 2.001.763.143.42.02.938-.174 1.2.1.25.258.387.414.525.064.05.125.105.183.168 0 .045-.079.157-.203.2l-.01.006z" transform="translate(22.4 4.131)"/>
                <path fill="#F5CD28" d="M4.38 3.119c-.327-.613-.912-2.075-1.236-2.426-.302-.269-1.059-.237-1.29.069 0 0-.486-.493-.678-.643-.116.037-.188.15-.188.15.198.207.465.331.596.731-.196.263-.304.768-.174 1.168.58.964 2.5.583 2.97.95" transform="translate(22.4 4.131)"/>
                <path fill="#8E1841" d="M1.16.137c-.08.044-.15.144-.15.15.052.018.116.076.177.126.161.137.326.281.425.574-.19.275-.304.77-.173 1.17.352.587 1.242.668 1.954.724.38.03.714.07.917.162-.107-.211-.235-.486-.37-.774-.285-.626-.608-1.332-.817-1.557C2.855.475 2.079.518 1.875.78 1.83.78 1.35.288 1.159.137zm3.203 3c-.17-.124-.541-.163-.975-.193-.726-.069-1.633-.15-2-.763-.139-.424-.019-.938.173-1.2-.094-.25-.256-.394-.414-.525C1.086.4 1.022.35.969.288c0-.045.074-.157.2-.2.22.155.686.637.706.656.145-.288.993-.331 1.29-.069.215.23.542.944.828 1.568.154.331.3.651.413.862l-.043.032z" transform="translate(22.4 4.131)"/>
                <path fill="#F5CD28" d="M4.186 19.812c-.616.332-2.074.919-2.422 1.237-.272.307-.239 1.063.068 1.295 0 0-.499.481-.65.681.04.112.151.187.151.187.215-.2.335-.468.731-.6.266.194.773.306 1.168.175.968-.575.588-2.5.954-2.975" transform="translate(22.4 4.131)"/>
                <path fill="#8E1841" d="M4.164 19.8c-.176.157-.496.3-.832.456-.62.282-1.326.606-1.547.82-.131.143-.197.423-.173.705.024.245.112.445.238.544-.003.043-.497.525-.646.712.032.064.094.113.126.137.055-.056.103-.105.148-.161.144-.163.283-.331.579-.432.305.213.819.294 1.168.176.587-.35.662-1.239.725-1.95.038-.444.07-.826.214-1.007zm-2.829 3.443l-.016-.011c-.006 0-.121-.075-.163-.2.154-.226.638-.688.656-.707-.138-.063-.23-.275-.258-.538-.025-.299.044-.593.186-.755.235-.213.942-.544 1.566-.826.34-.156.655-.3.866-.412-.094.212-.128.58-.166 1.019-.063.725-.14 1.63-.759 1.993-.121.044-.253.063-.395.063-.298 0-.611-.088-.805-.237-.25.1-.389.262-.521.418-.06.062-.114.124-.173.182l-.018.011z" transform="translate(22.4 4.131)"/>
                <path fill="#F5CD28" d="M25.042 3.119c.328-.613.914-2.075 1.235-2.426.303-.269 1.06-.237 1.292.069 0 0 .484-.493.678-.643.115.037.189.15.189.15-.197.207-.47.331-.599.731.196.263.304.768.172 1.168-.576.964-2.496.583-2.967.95" transform="translate(22.4 4.131)"/>
                <path fill="#8E1841" d="M26.888.537c-.247 0-.468.07-.59.181-.209.22-.53.925-.818 1.55-.136.289-.261.564-.364.769.204-.087.538-.125.912-.156.717-.062 1.605-.137 1.959-.73.133-.394.013-.889-.171-1.132.092-.325.26-.469.42-.606.061-.05.119-.101.17-.164-.02 0-.082-.08-.166-.112-.167.15-.647.644-.652.644-.155-.144-.414-.244-.7-.244m-1.83 2.6l-.044-.032c.118-.21.264-.53.414-.862.292-.624.616-1.338.83-1.562.302-.268 1.108-.232 1.334.063-.016-.032.444-.501.638-.65.152.037.226.149.229.155-.061.101-.125.15-.183.207-.156.131-.321.275-.412.55.192.237.315.757.174 1.168-.374.62-1.275.701-2.003.77-.434.03-.807.062-.976.193" transform="translate(22.4 4.131)"/>
                <path fill="#F5CD28" d="M5.253 12.594c-.027.193.453.288.946.288.488.006.989-.082 1.013-.22.004-.249-.43-.031-.925-.036-.491 0-.906-.2-1.034-.032" transform="translate(22.4 4.131)"/>
                <path fill="#F5CD28" d="M5.44 12.55c-.081 0-.135.02-.166.062.005.013.01.032.034.056.096.114.435.181.891.188l.018.025v-.025c.56 0 .95-.106.964-.194.004-.03-.006-.043-.017-.062-.042-.044-.187-.03-.37.006-.145.026-.315.043-.491.043-.211 0-.394-.024-.55-.056-.12-.024-.226-.043-.312-.043m.776.363h-.018c-.18 0-.776-.019-.934-.2-.032-.038-.047-.081-.04-.126.09-.119.268-.093.536-.05.158.026.337.056.526.063.187 0 .355-.03.5-.05.209-.037.358-.05.418.006.026.03.037.07.034.112-.032.194-.68.245-1.022.245M5.29 13.15c.01.187.482.232.901.243.421.013.845-.069.924-.206-.076-.211-.541-.037-.924-.024-.379.013-.801-.187-.9-.013" transform="translate(22.4 4.131)"/>
                <path fill="#F5CD28" d="M5.464 13.106c-.077 0-.125.013-.147.056.008.112.302.187.878.2l.083.007c.394 0 .75-.088.813-.194-.043-.062-.256-.069-.52-.032-.125.026-.257.045-.379.051-.146.018-.314-.025-.445-.051-.105-.024-.203-.037-.283-.037m.814.319h-.086c-.429-.02-.922-.063-.93-.276.048-.092.141-.099.202-.099.083 0 .182.02.294.03.13.033.27.052.405.052.147-.007.277-.02.4-.039.12-.019.237-.036.331-.036.087 0 .207.012.248.124-.09.175-.512.244-.864.244M5.427 13.65c-.034.138.385.237.77.243.386 0 .934-.144.937-.299-.023-.118-.562.043-.925.056-.362.013-.782-.131-.782 0" transform="translate(22.4 4.131)"/>
                <path fill="#F5CD28" d="M5.536 13.619c-.055 0-.08.006-.08.032.083.136.41.21.745.21l.008.033v-.032c.39 0 .893-.149.895-.269-.002-.006-.202-.006-.439.032-.152.02-.315.05-.456.05-.2 0-.32-.013-.44-.03-.092-.013-.174-.026-.233-.026m.673.299H6.2c-.303 0-.68-.067-.777-.187-.019-.03-.029-.056-.022-.087 0-.081.102-.081.136-.081.062 0 .145.013.238.024.122.019.255.032.387.032.186 0 .344-.026.495-.056.144-.02.272-.043.36-.043.037 0 .136 0 .145.073-.003.189-.582.325-.952.325M5.381 14.163c.032.137.507.18.925.15.42-.032.845-.157.878-.314-.02-.092-.499.076-.897.095-.395.025-.91-.05-.906.069" transform="translate(22.4 4.131)"/>
                <path fill="#F5CD28" d="M5.67 14.119c-.152 0-.24.013-.26.037.017.068.243.137.647.137.084 0 .167-.006.248-.011.43-.032.823-.163.853-.282-.113 0-.222.024-.347.044-.162.038-.352.068-.523.075-.056.006-.119.006-.181.006l-.437-.006zm.387.232c-.155 0-.664-.02-.7-.19.046-.08.134-.098.313-.098l.437.006c.062 0 .122 0 .18-.006.169-.007.354-.039.513-.07.131-.025.241-.049.313-.049.021 0 .088 0 .101.056-.045.181-.497.312-.905.338-.082.006-.168.013-.252.013z" transform="translate(22.4 4.131)"/>
            </g>
        </g>
    </g>
</svg>
