<svg xmlns="http://www.w3.org/2000/svg" xmlns:xlink="http://www.w3.org/1999/xlink" width="56" height="34" viewBox="0 0 56 34">
    <defs>
        <rect id="prefix__a" width="54" height="32" x="0" y="0" rx="9"/>
    </defs>
    <g fill="none" fill-rule="evenodd" transform="translate(1 1)">
        <mask id="prefix__b" fill="#fff">
            <use xlink:href="#prefix__a"/>
        </mask>
        <use stroke="#7E919F" stroke-opacity=".497" xlink:href="#prefix__a"/>
        <g mask="url(#prefix__b)">
            <path fill="#2534A4" d="M0 16.033L53.309 16.033 53.309 0.002 0 0.002z"/>
            <path fill="#BC0030" d="M0 32.066L53.309 32.066 53.309 16.033 0 16.033z"/>
            <path fill="#FFF" d="M0 0.001L0 32.067 27.065 16.032z"/>
            <path fill="#F3D02F" d="M1.895 26.967L.509 27.115 1.718 27.824 1.424 29.226 2.458 28.26 3.658 28.982 3.08 27.678 4.119 26.719 2.736 26.877 2.177 25.565zM6.192 14.344L4.437 13.32l-.072-.594L6.35 14.12l-.158.224zm.322-.39l-2.125-1.69-.081-.984.862-.033 1.763 2.227-.419.48zm.79-.819L6.29 11.337l-.586-.07 1.39 2.034.21-.166zM8.195 12.796l-.524-2.003.362-.48.426 2.45-.264.033zm.496-.033l-.329-2.75.63-.748.625.614-.302 2.853-.624.031zm1.118 0l.53-2.001-.363-.474-.43 2.444.263.031zM10.699 13.205l1.032-1.778.585-.064-1.41 2.01-.207-.168zm.365.34l1.698-2.15.951-.052.007.89-2.195 1.758-.46-.447zm.777.838l1.764-1.006.081-.594-2.004 1.376.159.224zM12.123 15.227l1.945-.544.46.372-2.372.447-.033-.275zm.033.51l2.671-.338.723.647-.595.647-2.767-.315-.032-.64zm-.002 1.154l1.944.55.456-.378-2.366-.447-.034.275zM11.781 17.716l1.754 1.01.08.601-1.996-1.387.162-.224zm-.319.39l2.135 1.683.076.978-.86.04-1.77-2.221.42-.48zm-.788.825l1.023 1.785.58.07-1.395-2.027-.208.172zM9.793 19.27l.534 2.004-.358.473-.44-2.444.264-.033zm-.495.033l.343 2.75-.617.755-.633-.614.28-2.853.627-.038zm-1.122.005l-.511 2.01.367.473.408-2.45-.264-.033zM7.311 18.893l-1.005 1.805-.583.064 1.38-2.036.208.167zm-.368-.333l-1.666 2.176-.95.07-.025-.89 2.176-1.791.465.435zm-.791-.825l-1.747 1.03-.075.601 1.982-1.413-.16-.218zM5.847 16.871l-1.942.55-.462-.371 2.37-.454.034.275zm-.033-.51l-2.665.356-.73-.639.59-.653 2.767.288.038.647zm-.006-1.154l-1.946-.53-.462.371 2.376.428.032-.269z"/>
            <g fill="#F3D02F">
                <path d="M8.983 10.677c1.81 0 3.278 1.51 3.278 3.379 0 1.867-1.469 3.39-3.278 3.39-1.812 0-3.278-1.523-3.278-3.39 0-1.869 1.466-3.38 3.278-3.38M20.269 15.22L21.094 14.062 20.265 12.904 21.587 13.351 22.4 12.186 22.394 13.619 23.721 14.055 22.394 14.491 22.403 15.93 21.593 14.766zM3.657.754L2.457 1.476 1.424.511 1.718 1.918.509 2.629 1.896 2.768 2.177 4.177 2.736 2.865 4.119 3.019 3.081 2.066z" transform="translate(0 1.978)"/>
            </g>
        </g>
    </g>
</svg>
